G04 #@! TF.GenerationSoftware,KiCad,Pcbnew,(5.99.0-3771-g88a11f15e)*
G04 #@! TF.CreationDate,2020-10-05T20:50:06+02:00*
G04 #@! TF.ProjectId,remoticon_badge,72656d6f-7469-4636-9f6e-5f6261646765,rev?*
G04 #@! TF.SameCoordinates,PX3072580PY307257e*
G04 #@! TF.FileFunction,Copper,L1,Top*
G04 #@! TF.FilePolarity,Positive*
%FSLAX46Y46*%
G04 Gerber Fmt 4.6, Leading zero omitted, Abs format (unit mm)*
G04 Created by KiCad (PCBNEW (5.99.0-3771-g88a11f15e)) date 2020-10-05 20:50:06*
%MOMM*%
%LPD*%
G01*
G04 APERTURE LIST*
G04 #@! TA.AperFunction,ComponentPad*
%ADD10C,1.727200*%
G04 #@! TD*
G04 #@! TA.AperFunction,TestPad*
%ADD11O,0.508000X0.762000*%
G04 #@! TD*
G04 #@! TA.AperFunction,SMDPad,CuDef*
%ADD12R,1.016000X1.016000*%
G04 #@! TD*
G04 #@! TA.AperFunction,SMDPad,CuDef*
%ADD13R,0.450000X0.430000*%
G04 #@! TD*
G04 #@! TA.AperFunction,TestPad*
%ADD14O,1.600000X1.600000*%
G04 #@! TD*
G04 #@! TA.AperFunction,TestPad*
%ADD15R,1.600000X1.600000*%
G04 #@! TD*
G04 #@! TA.AperFunction,SMDPad,CuDef*
%ADD16R,0.400000X20.320000*%
G04 #@! TD*
G04 #@! TA.AperFunction,SMDPad,CuDef*
%ADD17R,0.700000X0.600000*%
G04 #@! TD*
G04 #@! TA.AperFunction,SMDPad,CuDef*
%ADD18R,0.400000X0.400000*%
G04 #@! TD*
G04 #@! TA.AperFunction,SMDPad,CuDef*
%ADD19R,0.900000X1.300000*%
G04 #@! TD*
G04 #@! TA.AperFunction,SMDPad,CuDef*
%ADD20R,0.700000X0.900000*%
G04 #@! TD*
G04 #@! TA.AperFunction,SMDPad,CuDef*
%ADD21R,1.100000X1.700000*%
G04 #@! TD*
G04 #@! TA.AperFunction,SMDPad,CuDef*
%ADD22R,1.300000X1.198880*%
G04 #@! TD*
G04 #@! TA.AperFunction,SMDPad,CuDef*
%ADD23R,0.600000X0.600000*%
G04 #@! TD*
G04 #@! TA.AperFunction,SMDPad,CuDef*
%ADD24R,1.700000X1.800860*%
G04 #@! TD*
G04 #@! TA.AperFunction,SMDPad,CuDef*
%ADD25R,1.000000X0.797560*%
G04 #@! TD*
G04 #@! TA.AperFunction,SMDPad,CuDef*
%ADD26R,1.600000X1.600000*%
G04 #@! TD*
G04 #@! TA.AperFunction,SMDPad,CuDef*
%ADD27R,0.650000X1.700000*%
G04 #@! TD*
G04 #@! TA.AperFunction,ViaPad*
%ADD28C,0.800000*%
G04 #@! TD*
G04 #@! TA.AperFunction,Conductor*
%ADD29C,0.203200*%
G04 #@! TD*
G04 APERTURE END LIST*
D10*
G04 #@! TO.P,REF\u002A\u002A,1*
G04 #@! TO.N,N/C*
X8890000Y-74930000D03*
G04 #@! TD*
D11*
G04 #@! TO.P,P5,1,P1*
G04 #@! TO.N,Net-(D5-Pad2)*
X57150000Y-67132200D03*
G04 #@! TD*
D12*
G04 #@! TO.P,REF\u002A\u002A,1*
G04 #@! TO.N,N/C*
X65405000Y-86995000D03*
G04 #@! TD*
G04 #@! TO.P,REF\u002A\u002A,1*
G04 #@! TO.N,N/C*
X61595000Y-85725000D03*
G04 #@! TD*
D10*
G04 #@! TO.P,REF\u002A\u002A,1*
G04 #@! TO.N,N/C*
X13970000Y-77470000D03*
G04 #@! TD*
D12*
G04 #@! TO.P,REF\u002A\u002A,1*
G04 #@! TO.N,N/C*
X53975000Y-86995000D03*
G04 #@! TD*
D13*
G04 #@! TO.P,R5,1*
G04 #@! TO.N,Net-(D5-Pad1)*
X53282800Y-67132200D03*
G04 #@! TO.P,R5,2*
G04 #@! TO.N,GND*
X52482800Y-67132200D03*
G04 #@! TD*
D12*
G04 #@! TO.P,REF\u002A\u002A,1*
G04 #@! TO.N,N/C*
X59055000Y-71755000D03*
G04 #@! TD*
G04 #@! TO.P,REF\u002A\u002A,1*
G04 #@! TO.N,N/C*
X56515000Y-71755000D03*
G04 #@! TD*
D14*
G04 #@! TO.P,CON1,1*
G04 #@! TO.N,Net-(CON1-Pad1)*
X64439800Y-49987200D03*
D15*
G04 #@! TO.P,CON1,2*
G04 #@! TO.N,+BATT*
X66979800Y-49987200D03*
D14*
G04 #@! TO.P,CON1,3*
G04 #@! TO.N,Net-(CON1-Pad3)*
X64439800Y-52527200D03*
G04 #@! TO.P,CON1,4*
G04 #@! TO.N,Net-(CON1-Pad4)*
X66979800Y-52527200D03*
G04 #@! TO.P,CON1,5*
G04 #@! TO.N,Net-(CON1-Pad5)*
X64439800Y-55067200D03*
G04 #@! TO.P,CON1,6*
G04 #@! TO.N,GND*
X66979800Y-55067200D03*
G04 #@! TD*
D10*
G04 #@! TO.P,REF\u002A\u002A,1*
G04 #@! TO.N,N/C*
X16510000Y-87630000D03*
G04 #@! TD*
D12*
G04 #@! TO.P,REF\u002A\u002A,1*
G04 #@! TO.N,N/C*
X62865000Y-89535000D03*
G04 #@! TD*
D10*
G04 #@! TO.P,REF\u002A\u002A,1*
G04 #@! TO.N,N/C*
X19050000Y-87630000D03*
G04 #@! TD*
D12*
G04 #@! TO.P,REF\u002A\u002A,1*
G04 #@! TO.N,N/C*
X48895000Y-76835000D03*
G04 #@! TD*
G04 #@! TO.P,REF\u002A\u002A,1*
G04 #@! TO.N,N/C*
X48895000Y-83185000D03*
G04 #@! TD*
G04 #@! TO.P,REF\u002A\u002A,1*
G04 #@! TO.N,N/C*
X52705000Y-83185000D03*
G04 #@! TD*
D10*
G04 #@! TO.P,REF\u002A\u002A,1*
G04 #@! TO.N,N/C*
X3810000Y-85090000D03*
G04 #@! TD*
D12*
G04 #@! TO.P,REF\u002A\u002A,1*
G04 #@! TO.N,N/C*
X48895000Y-86995000D03*
G04 #@! TD*
D10*
G04 #@! TO.P,REF\u002A\u002A,1*
G04 #@! TO.N,N/C*
X21590000Y-72390000D03*
G04 #@! TD*
D12*
G04 #@! TO.P,REF\u002A\u002A,1*
G04 #@! TO.N,N/C*
X67945000Y-81915000D03*
G04 #@! TD*
D10*
G04 #@! TO.P,REF\u002A\u002A,1*
G04 #@! TO.N,N/C*
X3810000Y-74930000D03*
G04 #@! TD*
G04 #@! TO.P,REF\u002A\u002A,1*
G04 #@! TO.N,N/C*
X13970000Y-74930000D03*
G04 #@! TD*
D12*
G04 #@! TO.P,REF\u002A\u002A,1*
G04 #@! TO.N,N/C*
X66675000Y-73025000D03*
G04 #@! TD*
G04 #@! TO.P,REF\u002A\u002A,1*
G04 #@! TO.N,N/C*
X62865000Y-78105000D03*
G04 #@! TD*
G04 #@! TO.P,REF\u002A\u002A,1*
G04 #@! TO.N,N/C*
X48895000Y-89535000D03*
G04 #@! TD*
G04 #@! TO.P,REF\u002A\u002A,1*
G04 #@! TO.N,N/C*
X65405000Y-76835000D03*
G04 #@! TD*
G04 #@! TO.P,REF\u002A\u002A,1*
G04 #@! TO.N,N/C*
X62865000Y-83185000D03*
G04 #@! TD*
D10*
G04 #@! TO.P,REF\u002A\u002A,1*
G04 #@! TO.N,N/C*
X16510000Y-90170000D03*
G04 #@! TD*
D12*
G04 #@! TO.P,REF\u002A\u002A,1*
G04 #@! TO.N,N/C*
X65405000Y-90805000D03*
G04 #@! TD*
G04 #@! TO.P,REF\u002A\u002A,1*
G04 #@! TO.N,N/C*
X61595000Y-86995000D03*
G04 #@! TD*
G04 #@! TO.P,REF\u002A\u002A,1*
G04 #@! TO.N,N/C*
X53975000Y-81915000D03*
G04 #@! TD*
G04 #@! TO.P,REF\u002A\u002A,1*
G04 #@! TO.N,N/C*
X67945000Y-83185000D03*
G04 #@! TD*
D10*
G04 #@! TO.P,REF\u002A\u002A,1*
G04 #@! TO.N,N/C*
X11430000Y-74930000D03*
G04 #@! TD*
D12*
G04 #@! TO.P,REF\u002A\u002A,1*
G04 #@! TO.N,N/C*
X48895000Y-85725000D03*
G04 #@! TD*
D10*
G04 #@! TO.P,REF\u002A\u002A,1*
G04 #@! TO.N,N/C*
X8890000Y-85090000D03*
G04 #@! TD*
D12*
G04 #@! TO.P,REF\u002A\u002A,1*
G04 #@! TO.N,N/C*
X56515000Y-73025000D03*
G04 #@! TD*
G04 #@! TO.P,REF\u002A\u002A,1*
G04 #@! TO.N,N/C*
X48895000Y-88265000D03*
G04 #@! TD*
G04 #@! TO.P,REF\u002A\u002A,1*
G04 #@! TO.N,N/C*
X60325000Y-79375000D03*
G04 #@! TD*
D10*
G04 #@! TO.P,REF\u002A\u002A,1*
G04 #@! TO.N,N/C*
X8890000Y-77470000D03*
G04 #@! TD*
D12*
G04 #@! TO.P,REF\u002A\u002A,1*
G04 #@! TO.N,N/C*
X62865000Y-81915000D03*
G04 #@! TD*
G04 #@! TO.P,REF\u002A\u002A,1*
G04 #@! TO.N,N/C*
X65405000Y-79375000D03*
G04 #@! TD*
G04 #@! TO.P,REF\u002A\u002A,1*
G04 #@! TO.N,N/C*
X64135000Y-80645000D03*
G04 #@! TD*
G04 #@! TO.P,REF\u002A\u002A,1*
G04 #@! TO.N,N/C*
X53975000Y-85725000D03*
G04 #@! TD*
G04 #@! TO.P,REF\u002A\u002A,1*
G04 #@! TO.N,N/C*
X60325000Y-78105000D03*
G04 #@! TD*
G04 #@! TO.P,REF\u002A\u002A,1*
G04 #@! TO.N,N/C*
X62865000Y-86995000D03*
G04 #@! TD*
G04 #@! TO.P,REF\u002A\u002A,1*
G04 #@! TO.N,N/C*
X59055000Y-78105000D03*
G04 #@! TD*
G04 #@! TO.P,REF\u002A\u002A,1*
G04 #@! TO.N,N/C*
X57785000Y-89535000D03*
G04 #@! TD*
D10*
G04 #@! TO.P,REF\u002A\u002A,1*
G04 #@! TO.N,N/C*
X3810000Y-80010000D03*
G04 #@! TD*
D12*
G04 #@! TO.P,REF\u002A\u002A,1*
G04 #@! TO.N,N/C*
X59055000Y-79375000D03*
G04 #@! TD*
G04 #@! TO.P,REF\u002A\u002A,1*
G04 #@! TO.N,N/C*
X52705000Y-90805000D03*
G04 #@! TD*
G04 #@! TO.P,REF\u002A\u002A,1*
G04 #@! TO.N,N/C*
X48895000Y-78105000D03*
G04 #@! TD*
G04 #@! TO.P,REF\u002A\u002A,1*
G04 #@! TO.N,N/C*
X53975000Y-78105000D03*
G04 #@! TD*
G04 #@! TO.P,REF\u002A\u002A,1*
G04 #@! TO.N,N/C*
X66675000Y-85725000D03*
G04 #@! TD*
G04 #@! TO.P,REF\u002A\u002A,1*
G04 #@! TO.N,N/C*
X50165000Y-89535000D03*
G04 #@! TD*
G04 #@! TO.P,REF\u002A\u002A,1*
G04 #@! TO.N,N/C*
X65405000Y-75565000D03*
G04 #@! TD*
G04 #@! TO.P,REF\u002A\u002A,1*
G04 #@! TO.N,N/C*
X48895000Y-84455000D03*
G04 #@! TD*
G04 #@! TO.P,REF\u002A\u002A,1*
G04 #@! TO.N,N/C*
X62865000Y-71755000D03*
G04 #@! TD*
D11*
G04 #@! TO.P,PG2,1,P1*
G04 #@! TO.N,GND*
X50546000Y-53975000D03*
G04 #@! TD*
D10*
G04 #@! TO.P,REF\u002A\u002A,1*
G04 #@! TO.N,N/C*
X6350000Y-85090000D03*
G04 #@! TD*
D12*
G04 #@! TO.P,REF\u002A\u002A,1*
G04 #@! TO.N,N/C*
X65405000Y-88265000D03*
G04 #@! TD*
G04 #@! TO.P,REF\u002A\u002A,1*
G04 #@! TO.N,N/C*
X64135000Y-81915000D03*
G04 #@! TD*
D10*
G04 #@! TO.P,REF\u002A\u002A,1*
G04 #@! TO.N,N/C*
X16510000Y-72390000D03*
G04 #@! TD*
D16*
G04 #@! TO.P,REF\u002A\u002A,1*
G04 #@! TO.N,N/C*
X12065000Y-35560000D03*
G04 #@! TD*
D10*
G04 #@! TO.P,REF\u002A\u002A,1*
G04 #@! TO.N,N/C*
X3810000Y-90170000D03*
G04 #@! TD*
G04 #@! TO.P,REF\u002A\u002A,1*
G04 #@! TO.N,N/C*
X16510000Y-85090000D03*
G04 #@! TD*
D12*
G04 #@! TO.P,REF\u002A\u002A,1*
G04 #@! TO.N,N/C*
X56515000Y-90805000D03*
G04 #@! TD*
D10*
G04 #@! TO.P,REF\u002A\u002A,1*
G04 #@! TO.N,N/C*
X6350000Y-77470000D03*
G04 #@! TD*
D12*
G04 #@! TO.P,REF\u002A\u002A,1*
G04 #@! TO.N,N/C*
X64135000Y-85725000D03*
G04 #@! TD*
G04 #@! TO.P,REF\u002A\u002A,1*
G04 #@! TO.N,N/C*
X60325000Y-86995000D03*
G04 #@! TD*
G04 #@! TO.P,REF\u002A\u002A,1*
G04 #@! TO.N,N/C*
X67945000Y-90805000D03*
G04 #@! TD*
G04 #@! TO.P,REF\u002A\u002A,1*
G04 #@! TO.N,N/C*
X55245000Y-73025000D03*
G04 #@! TD*
G04 #@! TO.P,REF\u002A\u002A,1*
G04 #@! TO.N,N/C*
X56515000Y-78105000D03*
G04 #@! TD*
G04 #@! TO.P,REF\u002A\u002A,1*
G04 #@! TO.N,N/C*
X56515000Y-89535000D03*
G04 #@! TD*
D10*
G04 #@! TO.P,REF\u002A\u002A,1*
G04 #@! TO.N,N/C*
X8890000Y-80010000D03*
G04 #@! TD*
D12*
G04 #@! TO.P,REF\u002A\u002A,1*
G04 #@! TO.N,N/C*
X62865000Y-73025000D03*
G04 #@! TD*
G04 #@! TO.P,REF\u002A\u002A,1*
G04 #@! TO.N,N/C*
X65405000Y-85725000D03*
G04 #@! TD*
D10*
G04 #@! TO.P,REF\u002A\u002A,1*
G04 #@! TO.N,N/C*
X19050000Y-82550000D03*
G04 #@! TD*
D12*
G04 #@! TO.P,REF\u002A\u002A,1*
G04 #@! TO.N,N/C*
X52705000Y-85725000D03*
G04 #@! TD*
D16*
G04 #@! TO.P,REF\u002A\u002A,1*
G04 #@! TO.N,N/C*
X22225000Y-35560000D03*
G04 #@! TD*
D17*
G04 #@! TO.P,D4,1,K*
G04 #@! TO.N,Net-(D4-Pad1)*
X56345200Y-62839600D03*
G04 #@! TO.P,D4,2,A*
G04 #@! TO.N,Net-(D4-Pad2)*
X57345200Y-62839600D03*
G04 #@! TD*
D12*
G04 #@! TO.P,REF\u002A\u002A,1*
G04 #@! TO.N,N/C*
X55245000Y-85725000D03*
G04 #@! TD*
G04 #@! TO.P,REF\u002A\u002A,1*
G04 #@! TO.N,N/C*
X61595000Y-80645000D03*
G04 #@! TD*
G04 #@! TO.P,REF\u002A\u002A,1*
G04 #@! TO.N,N/C*
X57785000Y-84455000D03*
G04 #@! TD*
D10*
G04 #@! TO.P,REF\u002A\u002A,1*
G04 #@! TO.N,N/C*
X6350000Y-87630000D03*
G04 #@! TD*
G04 #@! TO.P,REF\u002A\u002A,1*
G04 #@! TO.N,N/C*
X21590000Y-87630000D03*
G04 #@! TD*
D11*
G04 #@! TO.P,P3,1,P1*
G04 #@! TO.N,Net-(CON1-Pad3)*
X60325000Y-58420000D03*
G04 #@! TD*
D10*
G04 #@! TO.P,REF\u002A\u002A,1*
G04 #@! TO.N,N/C*
X21590000Y-74930000D03*
G04 #@! TD*
D12*
G04 #@! TO.P,REF\u002A\u002A,1*
G04 #@! TO.N,N/C*
X65405000Y-89535000D03*
G04 #@! TD*
G04 #@! TO.P,REF\u002A\u002A,1*
G04 #@! TO.N,N/C*
X56515000Y-74295000D03*
G04 #@! TD*
G04 #@! TO.P,REF\u002A\u002A,1*
G04 #@! TO.N,N/C*
X51435000Y-85725000D03*
G04 #@! TD*
G04 #@! TO.P,REF\u002A\u002A,1*
G04 #@! TO.N,N/C*
X56515000Y-75565000D03*
G04 #@! TD*
D16*
G04 #@! TO.P,REF\u002A\u002A,1*
G04 #@! TO.N,N/C*
X14605000Y-35560000D03*
G04 #@! TD*
D12*
G04 #@! TO.P,REF\u002A\u002A,1*
G04 #@! TO.N,N/C*
X62865000Y-85725000D03*
G04 #@! TD*
G04 #@! TO.P,REF\u002A\u002A,1*
G04 #@! TO.N,N/C*
X66675000Y-74295000D03*
G04 #@! TD*
D16*
G04 #@! TO.P,REF\u002A\u002A,1*
G04 #@! TO.N,N/C*
X6985000Y-35560000D03*
G04 #@! TD*
D12*
G04 #@! TO.P,REF\u002A\u002A,1*
G04 #@! TO.N,N/C*
X50165000Y-83185000D03*
G04 #@! TD*
D10*
G04 #@! TO.P,REF\u002A\u002A,1*
G04 #@! TO.N,N/C*
X3810000Y-77470000D03*
G04 #@! TD*
D12*
G04 #@! TO.P,REF\u002A\u002A,1*
G04 #@! TO.N,N/C*
X50165000Y-78105000D03*
G04 #@! TD*
D10*
G04 #@! TO.P,REF\u002A\u002A,1*
G04 #@! TO.N,N/C*
X21590000Y-85090000D03*
G04 #@! TD*
D12*
G04 #@! TO.P,REF\u002A\u002A,1*
G04 #@! TO.N,N/C*
X65405000Y-74295000D03*
G04 #@! TD*
G04 #@! TO.P,REF\u002A\u002A,1*
G04 #@! TO.N,N/C*
X55245000Y-78105000D03*
G04 #@! TD*
G04 #@! TO.P,REF\u002A\u002A,1*
G04 #@! TO.N,N/C*
X59055000Y-83185000D03*
G04 #@! TD*
G04 #@! TO.P,REF\u002A\u002A,1*
G04 #@! TO.N,N/C*
X57785000Y-75565000D03*
G04 #@! TD*
D10*
G04 #@! TO.P,REF\u002A\u002A,1*
G04 #@! TO.N,N/C*
X16510000Y-80010000D03*
G04 #@! TD*
D12*
G04 #@! TO.P,REF\u002A\u002A,1*
G04 #@! TO.N,N/C*
X51435000Y-74295000D03*
G04 #@! TD*
D10*
G04 #@! TO.P,REF\u002A\u002A,1*
G04 #@! TO.N,N/C*
X16510000Y-74930000D03*
G04 #@! TD*
D12*
G04 #@! TO.P,REF\u002A\u002A,1*
G04 #@! TO.N,N/C*
X66675000Y-88265000D03*
G04 #@! TD*
G04 #@! TO.P,REF\u002A\u002A,1*
G04 #@! TO.N,N/C*
X51435000Y-84455000D03*
G04 #@! TD*
G04 #@! TO.P,REF\u002A\u002A,1*
G04 #@! TO.N,N/C*
X67945000Y-86995000D03*
G04 #@! TD*
D10*
G04 #@! TO.P,REF\u002A\u002A,1*
G04 #@! TO.N,N/C*
X19050000Y-77470000D03*
G04 #@! TD*
G04 #@! TO.P,REF\u002A\u002A,1*
G04 #@! TO.N,N/C*
X11430000Y-77470000D03*
G04 #@! TD*
D12*
G04 #@! TO.P,REF\u002A\u002A,1*
G04 #@! TO.N,N/C*
X52705000Y-71755000D03*
G04 #@! TD*
G04 #@! TO.P,REF\u002A\u002A,1*
G04 #@! TO.N,N/C*
X51435000Y-71755000D03*
G04 #@! TD*
G04 #@! TO.P,REF\u002A\u002A,1*
G04 #@! TO.N,N/C*
X50165000Y-90805000D03*
G04 #@! TD*
G04 #@! TO.P,REF\u002A\u002A,1*
G04 #@! TO.N,N/C*
X51435000Y-89535000D03*
G04 #@! TD*
G04 #@! TO.P,REF\u002A\u002A,1*
G04 #@! TO.N,N/C*
X66675000Y-71755000D03*
G04 #@! TD*
G04 #@! TO.P,REF\u002A\u002A,1*
G04 #@! TO.N,N/C*
X57785000Y-90805000D03*
G04 #@! TD*
G04 #@! TO.P,REF\u002A\u002A,1*
G04 #@! TO.N,N/C*
X51435000Y-80645000D03*
G04 #@! TD*
G04 #@! TO.P,REF\u002A\u002A,1*
G04 #@! TO.N,N/C*
X57785000Y-78105000D03*
G04 #@! TD*
G04 #@! TO.P,REF\u002A\u002A,1*
G04 #@! TO.N,N/C*
X64135000Y-83185000D03*
G04 #@! TD*
G04 #@! TO.P,REF\u002A\u002A,1*
G04 #@! TO.N,N/C*
X55245000Y-71755000D03*
G04 #@! TD*
G04 #@! TO.P,REF\u002A\u002A,1*
G04 #@! TO.N,N/C*
X61595000Y-73025000D03*
G04 #@! TD*
G04 #@! TO.P,REF\u002A\u002A,1*
G04 #@! TO.N,N/C*
X60325000Y-83185000D03*
G04 #@! TD*
G04 #@! TO.P,REF\u002A\u002A,1*
G04 #@! TO.N,N/C*
X56515000Y-80645000D03*
G04 #@! TD*
G04 #@! TO.P,REF\u002A\u002A,1*
G04 #@! TO.N,N/C*
X59055000Y-75565000D03*
G04 #@! TD*
G04 #@! TO.P,REF\u002A\u002A,1*
G04 #@! TO.N,N/C*
X61595000Y-74295000D03*
G04 #@! TD*
D11*
G04 #@! TO.P,P4,1,P1*
G04 #@! TO.N,Net-(D4-Pad2)*
X58420000Y-62865000D03*
G04 #@! TD*
D12*
G04 #@! TO.P,REF\u002A\u002A,1*
G04 #@! TO.N,N/C*
X52705000Y-88265000D03*
G04 #@! TD*
G04 #@! TO.P,REF\u002A\u002A,1*
G04 #@! TO.N,N/C*
X53975000Y-71755000D03*
G04 #@! TD*
G04 #@! TO.P,REF\u002A\u002A,1*
G04 #@! TO.N,N/C*
X55245000Y-81915000D03*
G04 #@! TD*
G04 #@! TO.P,REF\u002A\u002A,1*
G04 #@! TO.N,N/C*
X66675000Y-90805000D03*
G04 #@! TD*
D10*
G04 #@! TO.P,REF\u002A\u002A,1*
G04 #@! TO.N,N/C*
X6350000Y-72390000D03*
G04 #@! TD*
D12*
G04 #@! TO.P,REF\u002A\u002A,1*
G04 #@! TO.N,N/C*
X57785000Y-83185000D03*
G04 #@! TD*
G04 #@! TO.P,REF\u002A\u002A,1*
G04 #@! TO.N,N/C*
X52705000Y-73025000D03*
G04 #@! TD*
G04 #@! TO.P,REF\u002A\u002A,1*
G04 #@! TO.N,N/C*
X62865000Y-75565000D03*
G04 #@! TD*
G04 #@! TO.P,REF\u002A\u002A,1*
G04 #@! TO.N,N/C*
X59055000Y-84455000D03*
G04 #@! TD*
G04 #@! TO.P,REF\u002A\u002A,1*
G04 #@! TO.N,N/C*
X60325000Y-80645000D03*
G04 #@! TD*
G04 #@! TO.P,REF\u002A\u002A,1*
G04 #@! TO.N,N/C*
X64135000Y-88265000D03*
G04 #@! TD*
G04 #@! TO.P,REF\u002A\u002A,1*
G04 #@! TO.N,N/C*
X67945000Y-89535000D03*
G04 #@! TD*
G04 #@! TO.P,REF\u002A\u002A,1*
G04 #@! TO.N,N/C*
X50165000Y-88265000D03*
G04 #@! TD*
G04 #@! TO.P,REF\u002A\u002A,1*
G04 #@! TO.N,N/C*
X50165000Y-79375000D03*
G04 #@! TD*
G04 #@! TO.P,REF\u002A\u002A,1*
G04 #@! TO.N,N/C*
X64135000Y-75565000D03*
G04 #@! TD*
G04 #@! TO.P,REF\u002A\u002A,1*
G04 #@! TO.N,N/C*
X53975000Y-79375000D03*
G04 #@! TD*
G04 #@! TO.P,REF\u002A\u002A,1*
G04 #@! TO.N,N/C*
X67945000Y-78105000D03*
G04 #@! TD*
G04 #@! TO.P,REF\u002A\u002A,1*
G04 #@! TO.N,N/C*
X52705000Y-76835000D03*
G04 #@! TD*
G04 #@! TO.P,REF\u002A\u002A,1*
G04 #@! TO.N,N/C*
X59055000Y-89535000D03*
G04 #@! TD*
G04 #@! TO.P,REF\u002A\u002A,1*
G04 #@! TO.N,N/C*
X65405000Y-81915000D03*
G04 #@! TD*
G04 #@! TO.P,REF\u002A\u002A,1*
G04 #@! TO.N,N/C*
X51435000Y-81915000D03*
G04 #@! TD*
G04 #@! TO.P,REF\u002A\u002A,1*
G04 #@! TO.N,N/C*
X48895000Y-81915000D03*
G04 #@! TD*
D10*
G04 #@! TO.P,REF\u002A\u002A,1*
G04 #@! TO.N,N/C*
X16510000Y-77470000D03*
G04 #@! TD*
D16*
G04 #@! TO.P,REF\u002A\u002A,1*
G04 #@! TO.N,N/C*
X13335000Y-35560000D03*
G04 #@! TD*
D12*
G04 #@! TO.P,REF\u002A\u002A,1*
G04 #@! TO.N,N/C*
X67945000Y-84455000D03*
G04 #@! TD*
G04 #@! TO.P,REF\u002A\u002A,1*
G04 #@! TO.N,N/C*
X66675000Y-75565000D03*
G04 #@! TD*
G04 #@! TO.P,REF\u002A\u002A,1*
G04 #@! TO.N,N/C*
X60325000Y-84455000D03*
G04 #@! TD*
G04 #@! TO.P,REF\u002A\u002A,1*
G04 #@! TO.N,N/C*
X64135000Y-89535000D03*
G04 #@! TD*
G04 #@! TO.P,REF\u002A\u002A,1*
G04 #@! TO.N,N/C*
X60325000Y-73025000D03*
G04 #@! TD*
D10*
G04 #@! TO.P,REF\u002A\u002A,1*
G04 #@! TO.N,N/C*
X3810000Y-72390000D03*
G04 #@! TD*
D12*
G04 #@! TO.P,REF\u002A\u002A,1*
G04 #@! TO.N,N/C*
X59055000Y-76835000D03*
G04 #@! TD*
D10*
G04 #@! TO.P,REF\u002A\u002A,1*
G04 #@! TO.N,N/C*
X11430000Y-85090000D03*
G04 #@! TD*
D12*
G04 #@! TO.P,REF\u002A\u002A,1*
G04 #@! TO.N,N/C*
X52705000Y-78105000D03*
G04 #@! TD*
G04 #@! TO.P,REF\u002A\u002A,1*
G04 #@! TO.N,N/C*
X56515000Y-76835000D03*
G04 #@! TD*
G04 #@! TO.P,REF\u002A\u002A,1*
G04 #@! TO.N,N/C*
X62865000Y-90805000D03*
G04 #@! TD*
G04 #@! TO.P,REF\u002A\u002A,1*
G04 #@! TO.N,N/C*
X53975000Y-76835000D03*
G04 #@! TD*
G04 #@! TO.P,REF\u002A\u002A,1*
G04 #@! TO.N,N/C*
X50165000Y-85725000D03*
G04 #@! TD*
G04 #@! TO.P,REF\u002A\u002A,1*
G04 #@! TO.N,N/C*
X51435000Y-90805000D03*
G04 #@! TD*
G04 #@! TO.P,REF\u002A\u002A,1*
G04 #@! TO.N,N/C*
X53975000Y-73025000D03*
G04 #@! TD*
G04 #@! TO.P,REF\u002A\u002A,1*
G04 #@! TO.N,N/C*
X60325000Y-81915000D03*
G04 #@! TD*
G04 #@! TO.P,REF\u002A\u002A,1*
G04 #@! TO.N,N/C*
X48895000Y-73025000D03*
G04 #@! TD*
G04 #@! TO.P,REF\u002A\u002A,1*
G04 #@! TO.N,N/C*
X67945000Y-75565000D03*
G04 #@! TD*
G04 #@! TO.P,REF\u002A\u002A,1*
G04 #@! TO.N,N/C*
X56515000Y-83185000D03*
G04 #@! TD*
G04 #@! TO.P,REF\u002A\u002A,1*
G04 #@! TO.N,N/C*
X50165000Y-76835000D03*
G04 #@! TD*
G04 #@! TO.P,REF\u002A\u002A,1*
G04 #@! TO.N,N/C*
X64135000Y-79375000D03*
G04 #@! TD*
G04 #@! TO.P,REF\u002A\u002A,1*
G04 #@! TO.N,N/C*
X59055000Y-81915000D03*
G04 #@! TD*
G04 #@! TO.P,REF\u002A\u002A,1*
G04 #@! TO.N,N/C*
X52705000Y-79375000D03*
G04 #@! TD*
D10*
G04 #@! TO.P,REF\u002A\u002A,1*
G04 #@! TO.N,N/C*
X21590000Y-90170000D03*
G04 #@! TD*
D16*
G04 #@! TO.P,REF\u002A\u002A,1*
G04 #@! TO.N,N/C*
X4445000Y-35560000D03*
G04 #@! TD*
G04 #@! TO.P,REF\u002A\u002A,1*
G04 #@! TO.N,N/C*
X9525000Y-35560000D03*
G04 #@! TD*
G04 #@! TO.P,REF\u002A\u002A,1*
G04 #@! TO.N,N/C*
X3175000Y-35560000D03*
G04 #@! TD*
D12*
G04 #@! TO.P,REF\u002A\u002A,1*
G04 #@! TO.N,N/C*
X66675000Y-84455000D03*
G04 #@! TD*
D10*
G04 #@! TO.P,REF\u002A\u002A,1*
G04 #@! TO.N,N/C*
X19050000Y-85090000D03*
G04 #@! TD*
D12*
G04 #@! TO.P,REF\u002A\u002A,1*
G04 #@! TO.N,N/C*
X59055000Y-88265000D03*
G04 #@! TD*
G04 #@! TO.P,REF\u002A\u002A,1*
G04 #@! TO.N,N/C*
X62865000Y-74295000D03*
G04 #@! TD*
G04 #@! TO.P,REF\u002A\u002A,1*
G04 #@! TO.N,N/C*
X55245000Y-86995000D03*
G04 #@! TD*
G04 #@! TO.P,REF\u002A\u002A,1*
G04 #@! TO.N,N/C*
X62865000Y-84455000D03*
G04 #@! TD*
G04 #@! TO.P,REF\u002A\u002A,1*
G04 #@! TO.N,N/C*
X66675000Y-81915000D03*
G04 #@! TD*
G04 #@! TO.P,REF\u002A\u002A,1*
G04 #@! TO.N,N/C*
X55245000Y-75565000D03*
G04 #@! TD*
G04 #@! TO.P,REF\u002A\u002A,1*
G04 #@! TO.N,N/C*
X56515000Y-88265000D03*
G04 #@! TD*
G04 #@! TO.P,REF\u002A\u002A,1*
G04 #@! TO.N,N/C*
X51435000Y-75565000D03*
G04 #@! TD*
G04 #@! TO.P,REF\u002A\u002A,1*
G04 #@! TO.N,N/C*
X55245000Y-76835000D03*
G04 #@! TD*
G04 #@! TO.P,REF\u002A\u002A,1*
G04 #@! TO.N,N/C*
X60325000Y-76835000D03*
G04 #@! TD*
G04 #@! TO.P,REF\u002A\u002A,1*
G04 #@! TO.N,N/C*
X51435000Y-73025000D03*
G04 #@! TD*
D10*
G04 #@! TO.P,REF\u002A\u002A,1*
G04 #@! TO.N,N/C*
X8890000Y-87630000D03*
G04 #@! TD*
G04 #@! TO.P,REF\u002A\u002A,1*
G04 #@! TO.N,N/C*
X21590000Y-82550000D03*
G04 #@! TD*
D12*
G04 #@! TO.P,REF\u002A\u002A,1*
G04 #@! TO.N,N/C*
X67945000Y-73025000D03*
G04 #@! TD*
G04 #@! TO.P,REF\u002A\u002A,1*
G04 #@! TO.N,N/C*
X56515000Y-86995000D03*
G04 #@! TD*
G04 #@! TO.P,REF\u002A\u002A,1*
G04 #@! TO.N,N/C*
X62865000Y-76835000D03*
G04 #@! TD*
G04 #@! TO.P,REF\u002A\u002A,1*
G04 #@! TO.N,N/C*
X60325000Y-88265000D03*
G04 #@! TD*
D10*
G04 #@! TO.P,REF\u002A\u002A,1*
G04 #@! TO.N,N/C*
X16510000Y-82550000D03*
G04 #@! TD*
D18*
G04 #@! TO.P,D5,1,K*
G04 #@! TO.N,Net-(D5-Pad1)*
X55580000Y-67132200D03*
G04 #@! TO.P,D5,2,A*
G04 #@! TO.N,Net-(D5-Pad2)*
X56180000Y-67132200D03*
G04 #@! TD*
D10*
G04 #@! TO.P,REF\u002A\u002A,1*
G04 #@! TO.N,N/C*
X8890000Y-72390000D03*
G04 #@! TD*
D12*
G04 #@! TO.P,REF\u002A\u002A,1*
G04 #@! TO.N,N/C*
X59055000Y-73025000D03*
G04 #@! TD*
G04 #@! TO.P,REF\u002A\u002A,1*
G04 #@! TO.N,N/C*
X53975000Y-74295000D03*
G04 #@! TD*
D10*
G04 #@! TO.P,REF\u002A\u002A,1*
G04 #@! TO.N,N/C*
X13970000Y-82550000D03*
G04 #@! TD*
G04 #@! TO.P,REF\u002A\u002A,1*
G04 #@! TO.N,N/C*
X21590000Y-77470000D03*
G04 #@! TD*
D12*
G04 #@! TO.P,REF\u002A\u002A,1*
G04 #@! TO.N,N/C*
X53975000Y-75565000D03*
G04 #@! TD*
G04 #@! TO.P,REF\u002A\u002A,1*
G04 #@! TO.N,N/C*
X62865000Y-80645000D03*
G04 #@! TD*
G04 #@! TO.P,REF\u002A\u002A,1*
G04 #@! TO.N,N/C*
X64135000Y-76835000D03*
G04 #@! TD*
D16*
G04 #@! TO.P,REF\u002A\u002A,1*
G04 #@! TO.N,N/C*
X19685000Y-35560000D03*
G04 #@! TD*
D12*
G04 #@! TO.P,REF\u002A\u002A,1*
G04 #@! TO.N,N/C*
X65405000Y-83185000D03*
G04 #@! TD*
G04 #@! TO.P,REF\u002A\u002A,1*
G04 #@! TO.N,N/C*
X64135000Y-90805000D03*
G04 #@! TD*
G04 #@! TO.P,REF\u002A\u002A,1*
G04 #@! TO.N,N/C*
X66675000Y-83185000D03*
G04 #@! TD*
D11*
G04 #@! TO.P,PG5,1,P1*
G04 #@! TO.N,GND*
X50546000Y-58420000D03*
G04 #@! TD*
D12*
G04 #@! TO.P,REF\u002A\u002A,1*
G04 #@! TO.N,N/C*
X61595000Y-78105000D03*
G04 #@! TD*
G04 #@! TO.P,REF\u002A\u002A,1*
G04 #@! TO.N,N/C*
X61595000Y-81915000D03*
G04 #@! TD*
G04 #@! TO.P,REF\u002A\u002A,1*
G04 #@! TO.N,N/C*
X60325000Y-90805000D03*
G04 #@! TD*
G04 #@! TO.P,REF\u002A\u002A,1*
G04 #@! TO.N,N/C*
X64135000Y-73025000D03*
G04 #@! TD*
G04 #@! TO.P,REF\u002A\u002A,1*
G04 #@! TO.N,N/C*
X53975000Y-83185000D03*
G04 #@! TD*
G04 #@! TO.P,REF\u002A\u002A,1*
G04 #@! TO.N,N/C*
X48895000Y-79375000D03*
G04 #@! TD*
G04 #@! TO.P,REF\u002A\u002A,1*
G04 #@! TO.N,N/C*
X52705000Y-84455000D03*
G04 #@! TD*
G04 #@! TO.P,REF\u002A\u002A,1*
G04 #@! TO.N,N/C*
X52705000Y-86995000D03*
G04 #@! TD*
D10*
G04 #@! TO.P,REF\u002A\u002A,1*
G04 #@! TO.N,N/C*
X8890000Y-82550000D03*
G04 #@! TD*
D12*
G04 #@! TO.P,REF\u002A\u002A,1*
G04 #@! TO.N,N/C*
X55245000Y-89535000D03*
G04 #@! TD*
G04 #@! TO.P,REF\u002A\u002A,1*
G04 #@! TO.N,N/C*
X65405000Y-73025000D03*
G04 #@! TD*
D10*
G04 #@! TO.P,REF\u002A\u002A,1*
G04 #@! TO.N,N/C*
X6350000Y-82550000D03*
G04 #@! TD*
D19*
G04 #@! TO.P,R2,1*
G04 #@! TO.N,Net-(D2-Pad1)*
X54991000Y-54000400D03*
G04 #@! TO.P,R2,2*
G04 #@! TO.N,GND*
X52705000Y-54000400D03*
G04 #@! TD*
D12*
G04 #@! TO.P,REF\u002A\u002A,1*
G04 #@! TO.N,N/C*
X57785000Y-76835000D03*
G04 #@! TD*
G04 #@! TO.P,REF\u002A\u002A,1*
G04 #@! TO.N,N/C*
X60325000Y-85725000D03*
G04 #@! TD*
G04 #@! TO.P,REF\u002A\u002A,1*
G04 #@! TO.N,N/C*
X61595000Y-71755000D03*
G04 #@! TD*
G04 #@! TO.P,REF\u002A\u002A,1*
G04 #@! TO.N,N/C*
X56515000Y-85725000D03*
G04 #@! TD*
G04 #@! TO.P,REF\u002A\u002A,1*
G04 #@! TO.N,N/C*
X50165000Y-81915000D03*
G04 #@! TD*
D16*
G04 #@! TO.P,REF\u002A\u002A,1*
G04 #@! TO.N,N/C*
X15875000Y-35560000D03*
G04 #@! TD*
D12*
G04 #@! TO.P,REF\u002A\u002A,1*
G04 #@! TO.N,N/C*
X65405000Y-71755000D03*
G04 #@! TD*
D11*
G04 #@! TO.P,P1,1,P1*
G04 #@! TO.N,Net-(CON1-Pad4)*
X62865000Y-49707800D03*
G04 #@! TD*
D12*
G04 #@! TO.P,REF\u002A\u002A,1*
G04 #@! TO.N,N/C*
X61595000Y-75565000D03*
G04 #@! TD*
G04 #@! TO.P,REF\u002A\u002A,1*
G04 #@! TO.N,N/C*
X59055000Y-90805000D03*
G04 #@! TD*
G04 #@! TO.P,REF\u002A\u002A,1*
G04 #@! TO.N,N/C*
X59055000Y-80645000D03*
G04 #@! TD*
D10*
G04 #@! TO.P,REF\u002A\u002A,1*
G04 #@! TO.N,N/C*
X3810000Y-82550000D03*
G04 #@! TD*
D16*
G04 #@! TO.P,REF\u002A\u002A,1*
G04 #@! TO.N,N/C*
X5715000Y-35560000D03*
G04 #@! TD*
D10*
G04 #@! TO.P,REF\u002A\u002A,1*
G04 #@! TO.N,N/C*
X19050000Y-74930000D03*
G04 #@! TD*
G04 #@! TO.P,REF\u002A\u002A,1*
G04 #@! TO.N,N/C*
X13970000Y-87630000D03*
G04 #@! TD*
D12*
G04 #@! TO.P,REF\u002A\u002A,1*
G04 #@! TO.N,N/C*
X60325000Y-71755000D03*
G04 #@! TD*
G04 #@! TO.P,REF\u002A\u002A,1*
G04 #@! TO.N,N/C*
X61595000Y-76835000D03*
G04 #@! TD*
G04 #@! TO.P,REF\u002A\u002A,1*
G04 #@! TO.N,N/C*
X55245000Y-80645000D03*
G04 #@! TD*
D11*
G04 #@! TO.P,P2,1,P1*
G04 #@! TO.N,Net-(CON1-Pad1)*
X61595000Y-53975000D03*
G04 #@! TD*
D12*
G04 #@! TO.P,REF\u002A\u002A,1*
G04 #@! TO.N,N/C*
X50165000Y-74295000D03*
G04 #@! TD*
G04 #@! TO.P,REF\u002A\u002A,1*
G04 #@! TO.N,N/C*
X62865000Y-88265000D03*
G04 #@! TD*
G04 #@! TO.P,REF\u002A\u002A,1*
G04 #@! TO.N,N/C*
X65405000Y-78105000D03*
G04 #@! TD*
G04 #@! TO.P,REF\u002A\u002A,1*
G04 #@! TO.N,N/C*
X57785000Y-85725000D03*
G04 #@! TD*
G04 #@! TO.P,REF\u002A\u002A,1*
G04 #@! TO.N,N/C*
X67945000Y-74295000D03*
G04 #@! TD*
D16*
G04 #@! TO.P,REF\u002A\u002A,1*
G04 #@! TO.N,N/C*
X10795000Y-35560000D03*
G04 #@! TD*
D12*
G04 #@! TO.P,REF\u002A\u002A,1*
G04 #@! TO.N,N/C*
X55245000Y-74295000D03*
G04 #@! TD*
G04 #@! TO.P,REF\u002A\u002A,1*
G04 #@! TO.N,N/C*
X66675000Y-86995000D03*
G04 #@! TD*
G04 #@! TO.P,REF\u002A\u002A,1*
G04 #@! TO.N,N/C*
X67945000Y-79375000D03*
G04 #@! TD*
D10*
G04 #@! TO.P,REF\u002A\u002A,1*
G04 #@! TO.N,N/C*
X11430000Y-87630000D03*
G04 #@! TD*
D12*
G04 #@! TO.P,REF\u002A\u002A,1*
G04 #@! TO.N,N/C*
X57785000Y-74295000D03*
G04 #@! TD*
D10*
G04 #@! TO.P,REF\u002A\u002A,1*
G04 #@! TO.N,N/C*
X11430000Y-72390000D03*
G04 #@! TD*
D12*
G04 #@! TO.P,REF\u002A\u002A,1*
G04 #@! TO.N,N/C*
X56515000Y-84455000D03*
G04 #@! TD*
D10*
G04 #@! TO.P,REF\u002A\u002A,1*
G04 #@! TO.N,N/C*
X13970000Y-90170000D03*
G04 #@! TD*
G04 #@! TO.P,REF\u002A\u002A,1*
G04 #@! TO.N,N/C*
X19050000Y-80010000D03*
G04 #@! TD*
G04 #@! TO.P,REF\u002A\u002A,1*
G04 #@! TO.N,N/C*
X6350000Y-90170000D03*
G04 #@! TD*
D12*
G04 #@! TO.P,REF\u002A\u002A,1*
G04 #@! TO.N,N/C*
X50165000Y-75565000D03*
G04 #@! TD*
G04 #@! TO.P,REF\u002A\u002A,1*
G04 #@! TO.N,N/C*
X50165000Y-86995000D03*
G04 #@! TD*
G04 #@! TO.P,REF\u002A\u002A,1*
G04 #@! TO.N,N/C*
X56515000Y-81915000D03*
G04 #@! TD*
D10*
G04 #@! TO.P,REF\u002A\u002A,1*
G04 #@! TO.N,N/C*
X13970000Y-85090000D03*
G04 #@! TD*
D12*
G04 #@! TO.P,REF\u002A\u002A,1*
G04 #@! TO.N,N/C*
X59055000Y-74295000D03*
G04 #@! TD*
G04 #@! TO.P,REF\u002A\u002A,1*
G04 #@! TO.N,N/C*
X55245000Y-84455000D03*
G04 #@! TD*
D20*
G04 #@! TO.P,R3,1*
G04 #@! TO.N,Net-(D3-Pad1)*
X54483000Y-58420000D03*
G04 #@! TO.P,R3,2*
G04 #@! TO.N,GND*
X52578000Y-58420000D03*
G04 #@! TD*
D10*
G04 #@! TO.P,REF\u002A\u002A,1*
G04 #@! TO.N,N/C*
X6350000Y-80010000D03*
G04 #@! TD*
D12*
G04 #@! TO.P,REF\u002A\u002A,1*
G04 #@! TO.N,N/C*
X66675000Y-89535000D03*
G04 #@! TD*
G04 #@! TO.P,REF\u002A\u002A,1*
G04 #@! TO.N,N/C*
X61595000Y-89535000D03*
G04 #@! TD*
G04 #@! TO.P,REF\u002A\u002A,1*
G04 #@! TO.N,N/C*
X57785000Y-88265000D03*
G04 #@! TD*
D10*
G04 #@! TO.P,REF\u002A\u002A,1*
G04 #@! TO.N,N/C*
X11430000Y-82550000D03*
G04 #@! TD*
D21*
G04 #@! TO.P,R1,1*
G04 #@! TO.N,Net-(D1-Pad1)*
X56235600Y-49707800D03*
G04 #@! TO.P,R1,2*
G04 #@! TO.N,GND*
X52806600Y-49707800D03*
G04 #@! TD*
D12*
G04 #@! TO.P,REF\u002A\u002A,1*
G04 #@! TO.N,N/C*
X51435000Y-78105000D03*
G04 #@! TD*
G04 #@! TO.P,REF\u002A\u002A,1*
G04 #@! TO.N,N/C*
X53975000Y-84455000D03*
G04 #@! TD*
G04 #@! TO.P,REF\u002A\u002A,1*
G04 #@! TO.N,N/C*
X66675000Y-76835000D03*
G04 #@! TD*
G04 #@! TO.P,REF\u002A\u002A,1*
G04 #@! TO.N,N/C*
X61595000Y-83185000D03*
G04 #@! TD*
G04 #@! TO.P,REF\u002A\u002A,1*
G04 #@! TO.N,N/C*
X48895000Y-90805000D03*
G04 #@! TD*
D10*
G04 #@! TO.P,REF\u002A\u002A,1*
G04 #@! TO.N,N/C*
X21590000Y-80010000D03*
G04 #@! TD*
D12*
G04 #@! TO.P,REF\u002A\u002A,1*
G04 #@! TO.N,N/C*
X67945000Y-71755000D03*
G04 #@! TD*
D16*
G04 #@! TO.P,REF\u002A\u002A,1*
G04 #@! TO.N,N/C*
X18415000Y-35560000D03*
G04 #@! TD*
D12*
G04 #@! TO.P,REF\u002A\u002A,1*
G04 #@! TO.N,N/C*
X60325000Y-75565000D03*
G04 #@! TD*
G04 #@! TO.P,REF\u002A\u002A,1*
G04 #@! TO.N,N/C*
X64135000Y-71755000D03*
G04 #@! TD*
G04 #@! TO.P,REF\u002A\u002A,1*
G04 #@! TO.N,N/C*
X61595000Y-88265000D03*
G04 #@! TD*
D11*
G04 #@! TO.P,PG1,1,P1*
G04 #@! TO.N,GND*
X50546000Y-62865000D03*
G04 #@! TD*
D12*
G04 #@! TO.P,REF\u002A\u002A,1*
G04 #@! TO.N,N/C*
X57785000Y-81915000D03*
G04 #@! TD*
G04 #@! TO.P,REF\u002A\u002A,1*
G04 #@! TO.N,N/C*
X67945000Y-80645000D03*
G04 #@! TD*
G04 #@! TO.P,REF\u002A\u002A,1*
G04 #@! TO.N,N/C*
X61595000Y-90805000D03*
G04 #@! TD*
G04 #@! TO.P,REF\u002A\u002A,1*
G04 #@! TO.N,N/C*
X52705000Y-80645000D03*
G04 #@! TD*
D22*
G04 #@! TO.P,D2,1,K*
G04 #@! TO.N,Net-(D2-Pad1)*
X57505600Y-54000400D03*
G04 #@! TO.P,D2,2,A*
G04 #@! TO.N,Net-(CON1-Pad1)*
X59918600Y-54000400D03*
G04 #@! TD*
D12*
G04 #@! TO.P,REF\u002A\u002A,1*
G04 #@! TO.N,N/C*
X67945000Y-88265000D03*
G04 #@! TD*
G04 #@! TO.P,REF\u002A\u002A,1*
G04 #@! TO.N,N/C*
X65405000Y-80645000D03*
G04 #@! TD*
G04 #@! TO.P,REF\u002A\u002A,1*
G04 #@! TO.N,N/C*
X53975000Y-88265000D03*
G04 #@! TD*
D10*
G04 #@! TO.P,REF\u002A\u002A,1*
G04 #@! TO.N,N/C*
X13970000Y-72390000D03*
G04 #@! TD*
D12*
G04 #@! TO.P,REF\u002A\u002A,1*
G04 #@! TO.N,N/C*
X50165000Y-80645000D03*
G04 #@! TD*
D10*
G04 #@! TO.P,REF\u002A\u002A,1*
G04 #@! TO.N,N/C*
X19050000Y-90170000D03*
G04 #@! TD*
D23*
G04 #@! TO.P,R4,1*
G04 #@! TO.N,Net-(D4-Pad1)*
X53486000Y-62865000D03*
G04 #@! TO.P,R4,2*
G04 #@! TO.N,GND*
X52586000Y-62865000D03*
G04 #@! TD*
D10*
G04 #@! TO.P,REF\u002A\u002A,1*
G04 #@! TO.N,N/C*
X13970000Y-80010000D03*
G04 #@! TD*
D12*
G04 #@! TO.P,REF\u002A\u002A,1*
G04 #@! TO.N,N/C*
X51435000Y-79375000D03*
G04 #@! TD*
G04 #@! TO.P,REF\u002A\u002A,1*
G04 #@! TO.N,N/C*
X55245000Y-90805000D03*
G04 #@! TD*
G04 #@! TO.P,REF\u002A\u002A,1*
G04 #@! TO.N,N/C*
X67945000Y-76835000D03*
G04 #@! TD*
D24*
G04 #@! TO.P,D1,1,K*
G04 #@! TO.N,Net-(D1-Pad1)*
X58039000Y-49707800D03*
G04 #@! TO.P,D1,2,A*
G04 #@! TO.N,Net-(CON1-Pad4)*
X61214000Y-49707800D03*
G04 #@! TD*
D10*
G04 #@! TO.P,REF\u002A\u002A,1*
G04 #@! TO.N,N/C*
X8890000Y-90170000D03*
G04 #@! TD*
D12*
G04 #@! TO.P,REF\u002A\u002A,1*
G04 #@! TO.N,N/C*
X51435000Y-76835000D03*
G04 #@! TD*
G04 #@! TA.AperFunction,TestPad*
G04 #@! TO.P,G\u002A\u002A\u002A,*
G04 #@! TO.N,*
G36*
X34609539Y-53370807D02*
G01*
X34697778Y-53374478D01*
X34766152Y-53382382D01*
X34825900Y-53395981D01*
X34888264Y-53416736D01*
X34908403Y-53424287D01*
X35102588Y-53512807D01*
X35269091Y-53622321D01*
X35420692Y-53761253D01*
X35422350Y-53763004D01*
X35561603Y-53938918D01*
X35664462Y-54130104D01*
X35731694Y-54331889D01*
X35764068Y-54539600D01*
X35762351Y-54748567D01*
X35727310Y-54954118D01*
X35659713Y-55151579D01*
X35560327Y-55336281D01*
X35429921Y-55503550D01*
X35269260Y-55648714D01*
X35094401Y-55759246D01*
X34941241Y-55829760D01*
X34792280Y-55876016D01*
X34628547Y-55903360D01*
X34560538Y-55909747D01*
X34398573Y-55928369D01*
X34270570Y-55957278D01*
X34168871Y-55998836D01*
X34085817Y-56055403D01*
X34084570Y-56056467D01*
X34055717Y-56080490D01*
X34030655Y-56101765D01*
X34009118Y-56123286D01*
X33990838Y-56148048D01*
X33975548Y-56179046D01*
X33962983Y-56219274D01*
X33952875Y-56271728D01*
X33944957Y-56339402D01*
X33938962Y-56425291D01*
X33934624Y-56532390D01*
X33931676Y-56663693D01*
X33929851Y-56822196D01*
X33928882Y-57010892D01*
X33928502Y-57232778D01*
X33928445Y-57490847D01*
X33928444Y-57788095D01*
X33928439Y-57808857D01*
X33928317Y-58117606D01*
X33927967Y-58387111D01*
X33927181Y-58620496D01*
X33925749Y-58820886D01*
X33923461Y-58991404D01*
X33920106Y-59135177D01*
X33915476Y-59255327D01*
X33909359Y-59354979D01*
X33901548Y-59437259D01*
X33891831Y-59505289D01*
X33879998Y-59562195D01*
X33865841Y-59611102D01*
X33849149Y-59655132D01*
X33829712Y-59697412D01*
X33807320Y-59741065D01*
X33797424Y-59759734D01*
X33688092Y-59921728D01*
X33547676Y-60060588D01*
X33383329Y-60171301D01*
X33202204Y-60248855D01*
X33049658Y-60283708D01*
X33001868Y-60287349D01*
X32915971Y-60290587D01*
X32796182Y-60293422D01*
X32646723Y-60295858D01*
X32471810Y-60297896D01*
X32275662Y-60299540D01*
X32062498Y-60300790D01*
X31836537Y-60301649D01*
X31601997Y-60302120D01*
X31363097Y-60302203D01*
X31124055Y-60301903D01*
X30889089Y-60301220D01*
X30662419Y-60300158D01*
X30448263Y-60298717D01*
X30250839Y-60296901D01*
X30074366Y-60294711D01*
X29923063Y-60292150D01*
X29801147Y-60289219D01*
X29712838Y-60285922D01*
X29662355Y-60282260D01*
X29660166Y-60281964D01*
X29516931Y-60245593D01*
X29366970Y-60180379D01*
X29225089Y-60093967D01*
X29109835Y-59997772D01*
X29009363Y-59876286D01*
X28922314Y-59731144D01*
X28856762Y-59577844D01*
X28823099Y-59447440D01*
X28818986Y-59400376D01*
X28815323Y-59315368D01*
X28812108Y-59196562D01*
X28809339Y-59048108D01*
X28807013Y-58874153D01*
X28805128Y-58678845D01*
X28803681Y-58466334D01*
X28802670Y-58240766D01*
X28802092Y-58006291D01*
X28801944Y-57767056D01*
X28802225Y-57527209D01*
X28802932Y-57290899D01*
X28804061Y-57062275D01*
X28805612Y-56845483D01*
X28807581Y-56644673D01*
X28809965Y-56463992D01*
X28812763Y-56307589D01*
X28815971Y-56179612D01*
X28819588Y-56084209D01*
X28823611Y-56025528D01*
X28825161Y-56014175D01*
X28880548Y-55824999D01*
X28972200Y-55651132D01*
X29095320Y-55497452D01*
X29245110Y-55368833D01*
X29416771Y-55270153D01*
X29605505Y-55206287D01*
X29624137Y-55202210D01*
X29670224Y-55196943D01*
X29754995Y-55192362D01*
X29878943Y-55188459D01*
X30042561Y-55185226D01*
X30246342Y-55182658D01*
X30490776Y-55180748D01*
X30776359Y-55179487D01*
X31103581Y-55178869D01*
X31271898Y-55178799D01*
X31572254Y-55178829D01*
X31833253Y-55178766D01*
X32057904Y-55178382D01*
X32249219Y-55177450D01*
X32410208Y-55175742D01*
X32543882Y-55173029D01*
X32653251Y-55169085D01*
X32741327Y-55163680D01*
X32811119Y-55156588D01*
X32865639Y-55147581D01*
X32907897Y-55136430D01*
X32940904Y-55122909D01*
X32967670Y-55106788D01*
X32991206Y-55087840D01*
X33014523Y-55065838D01*
X33035626Y-55045324D01*
X33100379Y-54973557D01*
X33147123Y-54895507D01*
X33179674Y-54801279D01*
X33201850Y-54680984D01*
X33212170Y-54587812D01*
X33244113Y-54366793D01*
X33298323Y-54175090D01*
X33378559Y-54003909D01*
X33488580Y-53844454D01*
X33569402Y-53751870D01*
X33720216Y-53614911D01*
X33892969Y-53504634D01*
X34071980Y-53424287D01*
X34137199Y-53401187D01*
X34196548Y-53385667D01*
X34261269Y-53376266D01*
X34342603Y-53371520D01*
X34451791Y-53369970D01*
X34490191Y-53369909D01*
X34609539Y-53370807D01*
G37*
G04 #@! TD.AperFunction*
G04 #@! TA.AperFunction,TestPad*
G36*
X67280152Y-25411616D02*
G01*
X67528551Y-25470471D01*
X67760954Y-25566268D01*
X67973947Y-25696893D01*
X68164117Y-25860229D01*
X68328048Y-26054163D01*
X68462329Y-26276579D01*
X68469026Y-26290085D01*
X68551799Y-26491989D01*
X68603175Y-26700339D01*
X68625718Y-26926842D01*
X68627272Y-27012052D01*
X68617944Y-27216628D01*
X68587396Y-27399647D01*
X68531780Y-27577075D01*
X68447251Y-27764883D01*
X68444712Y-27769892D01*
X68345412Y-27965346D01*
X65067939Y-31248916D01*
X64755863Y-31561715D01*
X64451282Y-31867283D01*
X64155588Y-32164212D01*
X63870171Y-32451095D01*
X63596424Y-32726525D01*
X63335738Y-32989095D01*
X63089503Y-33237397D01*
X62859112Y-33470024D01*
X62645956Y-33685570D01*
X62451427Y-33882626D01*
X62276915Y-34059786D01*
X62123812Y-34215643D01*
X61993509Y-34348790D01*
X61887399Y-34457819D01*
X61806871Y-34541323D01*
X61753319Y-34597895D01*
X61728132Y-34626128D01*
X61726898Y-34627815D01*
X61596433Y-34859564D01*
X61505197Y-35102090D01*
X61453265Y-35351397D01*
X61440711Y-35603490D01*
X61467609Y-35854375D01*
X61534033Y-36100057D01*
X61640059Y-36336541D01*
X61693401Y-36427389D01*
X61718547Y-36458289D01*
X61773767Y-36518907D01*
X61858997Y-36609180D01*
X61974177Y-36729044D01*
X62119243Y-36878436D01*
X62294132Y-37057293D01*
X62498783Y-37265551D01*
X62733133Y-37503147D01*
X62997120Y-37770018D01*
X63290681Y-38066100D01*
X63613753Y-38391330D01*
X63966275Y-38745645D01*
X64348184Y-39128981D01*
X64759417Y-39541276D01*
X65025054Y-39807381D01*
X65336294Y-40119231D01*
X65640075Y-40423909D01*
X65935000Y-40720000D01*
X66219668Y-41006088D01*
X66492682Y-41280758D01*
X66752641Y-41542594D01*
X66998147Y-41790181D01*
X67227800Y-42022104D01*
X67440200Y-42236947D01*
X67633950Y-42433295D01*
X67807649Y-42609732D01*
X67959899Y-42764844D01*
X68089300Y-42897214D01*
X68194452Y-43005427D01*
X68273958Y-43088067D01*
X68326417Y-43143721D01*
X68350431Y-43170971D01*
X68351153Y-43171988D01*
X68444592Y-43333779D01*
X68525527Y-43516563D01*
X68584961Y-43699277D01*
X68595968Y-43745019D01*
X68616747Y-43883057D01*
X68625381Y-44042628D01*
X68622391Y-44210085D01*
X68608297Y-44371785D01*
X68583620Y-44514082D01*
X68563958Y-44584445D01*
X68458692Y-44835508D01*
X68322221Y-45057914D01*
X68154522Y-45251689D01*
X67955571Y-45416864D01*
X67755780Y-45537978D01*
X67571230Y-45621516D01*
X67388901Y-45676268D01*
X67194617Y-45705594D01*
X67017264Y-45713023D01*
X66757837Y-45697012D01*
X66519427Y-45646066D01*
X66297141Y-45558772D01*
X66112959Y-45452094D01*
X66088375Y-45430748D01*
X66035252Y-45380837D01*
X65955007Y-45303759D01*
X65849056Y-45200912D01*
X65718814Y-45073698D01*
X65565697Y-44923513D01*
X65391121Y-44751757D01*
X65196502Y-44559829D01*
X64983254Y-44349129D01*
X64752795Y-44121054D01*
X64506540Y-43877004D01*
X64245904Y-43618377D01*
X63972303Y-43346574D01*
X63687154Y-43062992D01*
X63391871Y-42769031D01*
X63087870Y-42466089D01*
X62776568Y-42155566D01*
X62748623Y-42127676D01*
X62318752Y-41698830D01*
X61918544Y-41299987D01*
X61547876Y-40931022D01*
X61206620Y-40591812D01*
X60894650Y-40282232D01*
X60611841Y-40002158D01*
X60358066Y-39751466D01*
X60133200Y-39530032D01*
X59937116Y-39337732D01*
X59769689Y-39174442D01*
X59630792Y-39040037D01*
X59520300Y-38934393D01*
X59438086Y-38857387D01*
X59384024Y-38808894D01*
X59360634Y-38790333D01*
X59128967Y-38664708D01*
X58886337Y-38578909D01*
X58636409Y-38532995D01*
X58382845Y-38527029D01*
X58129308Y-38561069D01*
X57879462Y-38635178D01*
X57636970Y-38749416D01*
X57616112Y-38761387D01*
X57594215Y-38777210D01*
X57558056Y-38807713D01*
X57506730Y-38853786D01*
X57439331Y-38916321D01*
X57354953Y-38996207D01*
X57252690Y-39094334D01*
X57131637Y-39211593D01*
X56990888Y-39348874D01*
X56829537Y-39507068D01*
X56646679Y-39687065D01*
X56441407Y-39889756D01*
X56212816Y-40116030D01*
X55960001Y-40366777D01*
X55682055Y-40642889D01*
X55378072Y-40945256D01*
X55047148Y-41274767D01*
X54688376Y-41632314D01*
X54300851Y-42018787D01*
X54200750Y-42118652D01*
X53824325Y-42494254D01*
X53476685Y-42841156D01*
X53156574Y-43160535D01*
X52862734Y-43453565D01*
X52593908Y-43721424D01*
X52348840Y-43965287D01*
X52126273Y-44186330D01*
X51924950Y-44385730D01*
X51743614Y-44564663D01*
X51581009Y-44724304D01*
X51435877Y-44865829D01*
X51306961Y-44990416D01*
X51193005Y-45099239D01*
X51092751Y-45193475D01*
X51004944Y-45274300D01*
X50928325Y-45342891D01*
X50861639Y-45400422D01*
X50803628Y-45448070D01*
X50753036Y-45487012D01*
X50708605Y-45518423D01*
X50669079Y-45543480D01*
X50633200Y-45563358D01*
X50599713Y-45579233D01*
X50567360Y-45592283D01*
X50534884Y-45603682D01*
X50501029Y-45614606D01*
X50464537Y-45626233D01*
X50445559Y-45632460D01*
X50209668Y-45694862D01*
X49979723Y-45720800D01*
X49742471Y-45711580D01*
X49697145Y-45706180D01*
X49458238Y-45654176D01*
X49226524Y-45563113D01*
X49008579Y-45436296D01*
X48810974Y-45277030D01*
X48775810Y-45242913D01*
X48607207Y-45045548D01*
X48474611Y-44829057D01*
X48378712Y-44597719D01*
X48320197Y-44355809D01*
X48299755Y-44107606D01*
X48318074Y-43857386D01*
X48375843Y-43609427D01*
X48473750Y-43368004D01*
X48473970Y-43367562D01*
X48516121Y-43286288D01*
X48557654Y-43211264D01*
X48589978Y-43157978D01*
X48591498Y-43155719D01*
X48610491Y-43134722D01*
X48658053Y-43085155D01*
X48732799Y-43008415D01*
X48833345Y-42905895D01*
X48958306Y-42778993D01*
X49106298Y-42629103D01*
X49275937Y-42457621D01*
X49465838Y-42265943D01*
X49674618Y-42055464D01*
X49900890Y-41827580D01*
X50143272Y-41583686D01*
X50400379Y-41325179D01*
X50670826Y-41053453D01*
X50953230Y-40769904D01*
X51246205Y-40475928D01*
X51548367Y-40172920D01*
X51858332Y-39862276D01*
X51891979Y-39828565D01*
X52203122Y-39516704D01*
X52506802Y-39212025D01*
X52801620Y-38915945D01*
X53086178Y-38629878D01*
X53359077Y-38355240D01*
X53618919Y-38093445D01*
X53864305Y-37845909D01*
X54093837Y-37614048D01*
X54306115Y-37399275D01*
X54499742Y-37203006D01*
X54673318Y-37026657D01*
X54825445Y-36871642D01*
X54954725Y-36739377D01*
X55059759Y-36631277D01*
X55139148Y-36548757D01*
X55191493Y-36493232D01*
X55215397Y-36466117D01*
X55216103Y-36465121D01*
X55343310Y-36238385D01*
X55431840Y-35998820D01*
X55481660Y-35750959D01*
X55492741Y-35499338D01*
X55465053Y-35248489D01*
X55398563Y-35002948D01*
X55293242Y-34767248D01*
X55228336Y-34658089D01*
X55202888Y-34626775D01*
X55148630Y-34566994D01*
X55065469Y-34478648D01*
X54953309Y-34361642D01*
X54812056Y-34215878D01*
X54641614Y-34041261D01*
X54441888Y-33837693D01*
X54212783Y-33605079D01*
X53954205Y-33343321D01*
X53666059Y-33052324D01*
X53348248Y-32731991D01*
X53000679Y-32382225D01*
X52623256Y-32002930D01*
X52215885Y-31594009D01*
X51871791Y-31248916D01*
X51481430Y-30857456D01*
X51120158Y-30494937D01*
X50787039Y-30160405D01*
X50481136Y-29852906D01*
X50201514Y-29571488D01*
X49947235Y-29315198D01*
X49717363Y-29083083D01*
X49510962Y-28874189D01*
X49327097Y-28687565D01*
X49164830Y-28522255D01*
X49023225Y-28377309D01*
X48901346Y-28251772D01*
X48798257Y-28144691D01*
X48713021Y-28055114D01*
X48644703Y-27982087D01*
X48592365Y-27924658D01*
X48555072Y-27881873D01*
X48531887Y-27852780D01*
X48524501Y-27841746D01*
X48416514Y-27615638D01*
X48343690Y-27372201D01*
X48306948Y-27119054D01*
X48307207Y-26863817D01*
X48345384Y-26614107D01*
X48366738Y-26533270D01*
X48418276Y-26394973D01*
X48492736Y-26243739D01*
X48581637Y-26095077D01*
X48676502Y-25964494D01*
X48680148Y-25960052D01*
X48840809Y-25795618D01*
X49031304Y-25651684D01*
X49241613Y-25534374D01*
X49461715Y-25449810D01*
X49554974Y-25425464D01*
X49699311Y-25403248D01*
X49866596Y-25393276D01*
X50039356Y-25395544D01*
X50200122Y-25410050D01*
X50288061Y-25425621D01*
X50445634Y-25471977D01*
X50613400Y-25539973D01*
X50771765Y-25621122D01*
X50846735Y-25667598D01*
X50871328Y-25688956D01*
X50924458Y-25738885D01*
X51004711Y-25815989D01*
X51110674Y-25918872D01*
X51240935Y-26046135D01*
X51394080Y-26196384D01*
X51568696Y-26368220D01*
X51763370Y-26560247D01*
X51976689Y-26771069D01*
X52207239Y-26999288D01*
X52453608Y-27243508D01*
X52714381Y-27502332D01*
X52988147Y-27774364D01*
X53273492Y-28058206D01*
X53569003Y-28352462D01*
X53873266Y-28655735D01*
X54184869Y-28966628D01*
X54221934Y-29003630D01*
X54597073Y-29378174D01*
X54943439Y-29724011D01*
X55262295Y-30042321D01*
X55554897Y-30334284D01*
X55822508Y-30601080D01*
X56066386Y-30843889D01*
X56287790Y-31063891D01*
X56487982Y-31262266D01*
X56668219Y-31440194D01*
X56829762Y-31598856D01*
X56973871Y-31739430D01*
X57101806Y-31863098D01*
X57214825Y-31971038D01*
X57314189Y-32064432D01*
X57401157Y-32144459D01*
X57476989Y-32212299D01*
X57542945Y-32269132D01*
X57600284Y-32316138D01*
X57650266Y-32354498D01*
X57694151Y-32385390D01*
X57733198Y-32409996D01*
X57768667Y-32429495D01*
X57801818Y-32445067D01*
X57833910Y-32457892D01*
X57866203Y-32469151D01*
X57899957Y-32480022D01*
X57936431Y-32491687D01*
X57950375Y-32496276D01*
X58205002Y-32559487D01*
X58460995Y-32580956D01*
X58715455Y-32561094D01*
X58965483Y-32500313D01*
X59208178Y-32399024D01*
X59390909Y-32291908D01*
X59414866Y-32271020D01*
X59467361Y-32221564D01*
X59546980Y-32144939D01*
X59652308Y-32042544D01*
X59781931Y-31915776D01*
X59934433Y-31766036D01*
X60108402Y-31594720D01*
X60302423Y-31403228D01*
X60515080Y-31192958D01*
X60744961Y-30965310D01*
X60990650Y-30721680D01*
X61250733Y-30463469D01*
X61523796Y-30192074D01*
X61808425Y-29908894D01*
X62103204Y-29615328D01*
X62406720Y-29312773D01*
X62717559Y-29002630D01*
X62738031Y-28982193D01*
X63049372Y-28671536D01*
X63353528Y-28368345D01*
X63649082Y-28074021D01*
X63934617Y-27789964D01*
X64208715Y-27517576D01*
X64469959Y-27258257D01*
X64716931Y-27013409D01*
X64948214Y-26784431D01*
X65162391Y-26572726D01*
X65358045Y-26379694D01*
X65533758Y-26206736D01*
X65688113Y-26055253D01*
X65819692Y-25926645D01*
X65927079Y-25822315D01*
X66008855Y-25743661D01*
X66063604Y-25692087D01*
X66089908Y-25668991D01*
X66090574Y-25668526D01*
X66303070Y-25545611D01*
X66520353Y-25460167D01*
X66750631Y-25409749D01*
X67002116Y-25391909D01*
X67019171Y-25391819D01*
X67280152Y-25411616D01*
G37*
G04 #@! TD.AperFunction*
G04 #@! TA.AperFunction,TestPad*
G36*
X34738678Y-60984318D02*
G01*
X34899411Y-61021383D01*
X35050428Y-61082964D01*
X35191025Y-61163576D01*
X35365338Y-61298821D01*
X35508867Y-61458785D01*
X35621090Y-61638532D01*
X35701485Y-61833126D01*
X35749530Y-62037631D01*
X35764703Y-62247113D01*
X35746481Y-62456636D01*
X35694342Y-62661264D01*
X35607764Y-62856062D01*
X35486225Y-63036094D01*
X35399293Y-63132016D01*
X35238547Y-63271670D01*
X35070450Y-63375855D01*
X34886710Y-63448333D01*
X34679033Y-63492864D01*
X34577817Y-63504584D01*
X34448619Y-63517994D01*
X34351246Y-63532840D01*
X34275166Y-63551467D01*
X34209845Y-63576220D01*
X34171189Y-63595117D01*
X34098514Y-63645535D01*
X34027346Y-63714941D01*
X33971585Y-63788570D01*
X33951291Y-63828677D01*
X33946247Y-63863266D01*
X33941838Y-63938726D01*
X33938060Y-64055257D01*
X33934910Y-64213060D01*
X33932386Y-64412336D01*
X33930484Y-64653285D01*
X33929202Y-64936109D01*
X33928537Y-65261008D01*
X33928439Y-65417501D01*
X33928303Y-65725368D01*
X33927925Y-65993985D01*
X33927118Y-66226470D01*
X33925690Y-66425944D01*
X33923454Y-66595524D01*
X33920220Y-66738330D01*
X33915798Y-66857479D01*
X33910000Y-66956092D01*
X33902635Y-67037287D01*
X33893515Y-67104182D01*
X33882450Y-67159897D01*
X33869252Y-67207551D01*
X33853730Y-67250261D01*
X33835695Y-67291147D01*
X33814959Y-67333328D01*
X33811774Y-67339625D01*
X33713363Y-67491363D01*
X33582832Y-67628983D01*
X33430025Y-67744194D01*
X33264786Y-67828706D01*
X33206613Y-67849257D01*
X33181600Y-67856514D01*
X33154379Y-67862839D01*
X33122027Y-67868291D01*
X33081621Y-67872934D01*
X33030236Y-67876829D01*
X32964949Y-67880037D01*
X32882836Y-67882620D01*
X32780973Y-67884640D01*
X32656437Y-67886158D01*
X32506304Y-67887237D01*
X32327650Y-67887937D01*
X32117552Y-67888321D01*
X31873085Y-67888451D01*
X31591326Y-67888387D01*
X31358321Y-67888252D01*
X31046152Y-67887992D01*
X30773462Y-67887612D01*
X30537358Y-67887050D01*
X30334951Y-67886248D01*
X30163350Y-67885144D01*
X30019663Y-67883677D01*
X29901001Y-67881786D01*
X29804472Y-67879412D01*
X29727186Y-67876494D01*
X29666252Y-67872970D01*
X29618779Y-67868781D01*
X29581877Y-67863865D01*
X29552654Y-67858162D01*
X29528221Y-67851612D01*
X29522231Y-67849741D01*
X29359175Y-67782275D01*
X29214921Y-67687635D01*
X29093609Y-67575501D01*
X28969066Y-67420434D01*
X28882173Y-67253332D01*
X28832712Y-67087164D01*
X28826457Y-67035611D01*
X28820862Y-66945891D01*
X28815926Y-66822203D01*
X28811649Y-66668743D01*
X28808031Y-66489709D01*
X28805069Y-66289299D01*
X28802764Y-66071708D01*
X28801115Y-65841136D01*
X28800120Y-65601779D01*
X28799779Y-65357834D01*
X28800092Y-65113500D01*
X28801057Y-64872972D01*
X28802673Y-64640449D01*
X28804941Y-64420128D01*
X28807858Y-64216206D01*
X28811425Y-64032881D01*
X28815640Y-63874349D01*
X28820503Y-63744809D01*
X28826013Y-63648457D01*
X28832168Y-63589491D01*
X28833374Y-63583035D01*
X28892547Y-63400885D01*
X28987057Y-63232313D01*
X29111298Y-63082968D01*
X29259667Y-62958496D01*
X29426557Y-62864548D01*
X29602952Y-62807477D01*
X29648604Y-62802196D01*
X29732212Y-62797601D01*
X29854361Y-62793682D01*
X30015641Y-62790432D01*
X30216637Y-62787842D01*
X30457936Y-62785903D01*
X30740127Y-62784608D01*
X31063796Y-62783947D01*
X31244737Y-62783852D01*
X31590375Y-62783507D01*
X31893904Y-62782526D01*
X32155582Y-62780905D01*
X32375664Y-62778640D01*
X32554406Y-62775729D01*
X32692064Y-62772166D01*
X32788895Y-62767950D01*
X32845154Y-62763075D01*
X32856472Y-62760908D01*
X32940619Y-62720396D01*
X33026208Y-62650751D01*
X33102288Y-62563350D01*
X33157906Y-62469575D01*
X33171857Y-62433193D01*
X33189650Y-62359569D01*
X33205767Y-62263253D01*
X33216977Y-62163894D01*
X33217700Y-62154595D01*
X33252998Y-61923336D01*
X33323998Y-61713691D01*
X33432372Y-61522141D01*
X33579792Y-61345165D01*
X33621594Y-61304065D01*
X33792183Y-61164445D01*
X33971276Y-61063245D01*
X34164272Y-60998513D01*
X34376571Y-60968298D01*
X34553341Y-60967183D01*
X34738678Y-60984318D01*
G37*
G04 #@! TD.AperFunction*
G04 #@! TA.AperFunction,TestPad*
G36*
X40823978Y-53357225D02*
G01*
X41138740Y-53358063D01*
X41412591Y-53359472D01*
X41646258Y-53361461D01*
X41840468Y-53364040D01*
X41995947Y-53367218D01*
X42113424Y-53371005D01*
X42193624Y-53375412D01*
X42237275Y-53380446D01*
X42237314Y-53380454D01*
X42415300Y-53438555D01*
X42581246Y-53532688D01*
X42729448Y-53656994D01*
X42854199Y-53805612D01*
X42949797Y-53972682D01*
X43010537Y-54152344D01*
X43016442Y-54180824D01*
X43020740Y-54225102D01*
X43024575Y-54307429D01*
X43027949Y-54423718D01*
X43030864Y-54569884D01*
X43033323Y-54741839D01*
X43035329Y-54935498D01*
X43036884Y-55146774D01*
X43037991Y-55371583D01*
X43038652Y-55605837D01*
X43038870Y-55845450D01*
X43038648Y-56086337D01*
X43037988Y-56324411D01*
X43036892Y-56555586D01*
X43035364Y-56775777D01*
X43033405Y-56980896D01*
X43031019Y-57166859D01*
X43028208Y-57329578D01*
X43024975Y-57464968D01*
X43021322Y-57568943D01*
X43017251Y-57637417D01*
X43014245Y-57661618D01*
X42953775Y-57848312D01*
X42857410Y-58020330D01*
X42730442Y-58171858D01*
X42578165Y-58297082D01*
X42405873Y-58390187D01*
X42324039Y-58419804D01*
X42296644Y-58427851D01*
X42268159Y-58434818D01*
X42235471Y-58440786D01*
X42195469Y-58445834D01*
X42145041Y-58450041D01*
X42081076Y-58453488D01*
X42000463Y-58456254D01*
X41900090Y-58458419D01*
X41776846Y-58460063D01*
X41627618Y-58461264D01*
X41449296Y-58462104D01*
X41238768Y-58462661D01*
X40992922Y-58463016D01*
X40708647Y-58463248D01*
X40626117Y-58463299D01*
X40323688Y-58463485D01*
X40060618Y-58463780D01*
X39833896Y-58464373D01*
X39640513Y-58465447D01*
X39477458Y-58467190D01*
X39341722Y-58469788D01*
X39230294Y-58473426D01*
X39140165Y-58478290D01*
X39068324Y-58484568D01*
X39011761Y-58492444D01*
X38967467Y-58502105D01*
X38932431Y-58513737D01*
X38903643Y-58527525D01*
X38878094Y-58543657D01*
X38852773Y-58562318D01*
X38837687Y-58573854D01*
X38756036Y-58655406D01*
X38695539Y-58761631D01*
X38654104Y-58897511D01*
X38629643Y-59068027D01*
X38629447Y-59070273D01*
X38601005Y-59276262D01*
X38551768Y-59455607D01*
X38477671Y-59620589D01*
X38410680Y-59731339D01*
X38268493Y-59908243D01*
X38099730Y-60054338D01*
X37908864Y-60167642D01*
X37700366Y-60246176D01*
X37478710Y-60287958D01*
X37248367Y-60291007D01*
X37166199Y-60282514D01*
X36955122Y-60233495D01*
X36753950Y-60146770D01*
X36569017Y-60026848D01*
X36406657Y-59878242D01*
X36273207Y-59705463D01*
X36216747Y-59606389D01*
X36152848Y-59464612D01*
X36111367Y-59331045D01*
X36088801Y-59190017D01*
X36081642Y-59025859D01*
X36081657Y-59002569D01*
X36097238Y-58784027D01*
X36143823Y-58588838D01*
X36224396Y-58409956D01*
X36341944Y-58240336D01*
X36458952Y-58112184D01*
X36609785Y-57979765D01*
X36766690Y-57879798D01*
X36938134Y-57808581D01*
X37132585Y-57762413D01*
X37307597Y-57741253D01*
X37472142Y-57720954D01*
X37602301Y-57687917D01*
X37704944Y-57639058D01*
X37786940Y-57571291D01*
X37842610Y-57500908D01*
X37911459Y-57398365D01*
X37912113Y-55901968D01*
X37912519Y-55640391D01*
X37913474Y-55390245D01*
X37914931Y-55155175D01*
X37916844Y-54938828D01*
X37919164Y-54744849D01*
X37921846Y-54576885D01*
X37924843Y-54438582D01*
X37928108Y-54333584D01*
X37931595Y-54265539D01*
X37933353Y-54246915D01*
X37979412Y-54049511D01*
X38061994Y-53867861D01*
X38177015Y-53706622D01*
X38320388Y-53570455D01*
X38488027Y-53464017D01*
X38675847Y-53391968D01*
X38685427Y-53389422D01*
X38713536Y-53383336D01*
X38749887Y-53378041D01*
X38797360Y-53373484D01*
X38858834Y-53369612D01*
X38937188Y-53366373D01*
X39035303Y-53363715D01*
X39156058Y-53361584D01*
X39302331Y-53359929D01*
X39477003Y-53358697D01*
X39682952Y-53357836D01*
X39923059Y-53357292D01*
X40200203Y-53357014D01*
X40467578Y-53356948D01*
X40823978Y-53357225D01*
G37*
G04 #@! TD.AperFunction*
G04 #@! TA.AperFunction,TestPad*
G36*
X40782131Y-60962153D02*
G01*
X41052970Y-60962299D01*
X41287320Y-60962624D01*
X41488121Y-60963193D01*
X41658311Y-60964073D01*
X41800831Y-60965330D01*
X41918621Y-60967029D01*
X42014619Y-60969238D01*
X42091766Y-60972022D01*
X42153002Y-60975448D01*
X42201265Y-60979581D01*
X42239496Y-60984487D01*
X42270635Y-60990234D01*
X42297620Y-60996887D01*
X42320862Y-61003728D01*
X42500233Y-61080493D01*
X42662356Y-61191740D01*
X42801784Y-61331507D01*
X42913073Y-61493835D01*
X42990775Y-61672764D01*
X43014558Y-61762870D01*
X43018868Y-61804942D01*
X43022763Y-61885293D01*
X43026241Y-61999837D01*
X43029299Y-62144486D01*
X43031936Y-62315153D01*
X43034149Y-62507749D01*
X43035936Y-62718190D01*
X43037295Y-62942386D01*
X43038223Y-63176251D01*
X43038719Y-63415698D01*
X43038780Y-63656639D01*
X43038404Y-63894987D01*
X43037588Y-64126656D01*
X43036332Y-64347556D01*
X43034631Y-64553603D01*
X43032485Y-64740708D01*
X43029890Y-64904783D01*
X43026845Y-65041743D01*
X43023348Y-65147499D01*
X43019395Y-65217964D01*
X43016442Y-65243664D01*
X42960564Y-65428295D01*
X42868214Y-65599922D01*
X42744630Y-65752988D01*
X42595048Y-65881939D01*
X42424707Y-65981217D01*
X42267625Y-66038091D01*
X42238525Y-66043827D01*
X42195459Y-66048800D01*
X42135683Y-66053059D01*
X42056453Y-66056653D01*
X41955025Y-66059630D01*
X41828653Y-66062039D01*
X41674594Y-66063928D01*
X41490103Y-66065345D01*
X41272436Y-66066340D01*
X41018848Y-66066960D01*
X40726595Y-66067254D01*
X40614918Y-66067289D01*
X40285981Y-66067585D01*
X39997908Y-66068376D01*
X39749199Y-66069683D01*
X39538350Y-66071530D01*
X39363861Y-66073938D01*
X39224231Y-66076931D01*
X39117957Y-66080531D01*
X39043538Y-66084760D01*
X38999472Y-66089642D01*
X38990213Y-66091720D01*
X38868364Y-66148642D01*
X38771310Y-66239158D01*
X38698826Y-66363630D01*
X38650685Y-66522418D01*
X38630120Y-66667666D01*
X38610950Y-66828516D01*
X38581262Y-66964664D01*
X38536153Y-67093400D01*
X38470721Y-67232018D01*
X38469393Y-67234582D01*
X38361480Y-67400799D01*
X38220394Y-67553401D01*
X38054891Y-67684887D01*
X37873723Y-67787755D01*
X37778480Y-67826653D01*
X37674604Y-67853395D01*
X37544150Y-67872279D01*
X37400649Y-67882738D01*
X37257634Y-67884208D01*
X37128636Y-67876122D01*
X37027691Y-67858055D01*
X36817201Y-67777871D01*
X36623257Y-67662312D01*
X36450881Y-67516224D01*
X36305094Y-67344447D01*
X36190916Y-67151824D01*
X36126666Y-66989058D01*
X36092525Y-66831751D01*
X36078490Y-66654091D01*
X36084569Y-66473023D01*
X36110767Y-66305490D01*
X36126400Y-66247607D01*
X36211735Y-66041037D01*
X36331783Y-65851771D01*
X36481486Y-65685087D01*
X36655785Y-65546259D01*
X36849622Y-65440564D01*
X36930193Y-65409195D01*
X37005301Y-65388900D01*
X37106737Y-65369175D01*
X37218525Y-65352880D01*
X37283217Y-65346002D01*
X37430753Y-65328021D01*
X37549536Y-65303441D01*
X37616384Y-65281053D01*
X37692545Y-65237654D01*
X37769686Y-65176393D01*
X37837281Y-65107539D01*
X37884806Y-65041362D01*
X37900034Y-65004280D01*
X37901927Y-64975590D01*
X37903883Y-64907955D01*
X37905867Y-64804797D01*
X37907841Y-64669540D01*
X37909770Y-64505607D01*
X37911616Y-64316420D01*
X37913342Y-64105403D01*
X37914913Y-63875979D01*
X37916292Y-63631570D01*
X37917436Y-63377131D01*
X37918669Y-63078767D01*
X37919912Y-62819736D01*
X37921244Y-62597001D01*
X37922745Y-62407526D01*
X37924494Y-62248276D01*
X37926571Y-62116214D01*
X37929054Y-62008304D01*
X37932023Y-61921511D01*
X37935557Y-61852798D01*
X37939737Y-61799129D01*
X37944640Y-61757468D01*
X37950347Y-61724779D01*
X37956937Y-61698026D01*
X37961730Y-61682386D01*
X38046433Y-61488387D01*
X38164279Y-61318572D01*
X38311850Y-61176414D01*
X38485729Y-61065381D01*
X38628165Y-61005687D01*
X38652507Y-60997816D01*
X38677624Y-60990955D01*
X38706446Y-60985034D01*
X38741903Y-60979983D01*
X38786925Y-60975735D01*
X38844441Y-60972219D01*
X38917381Y-60969367D01*
X39008675Y-60967109D01*
X39121254Y-60965375D01*
X39258046Y-60964097D01*
X39421982Y-60963206D01*
X39615992Y-60962632D01*
X39843005Y-60962305D01*
X40105952Y-60962158D01*
X40407762Y-60962119D01*
X40471862Y-60962119D01*
X40782131Y-60962153D01*
G37*
G04 #@! TD.AperFunction*
G04 #@! TD*
G04 #@! TO.P,REF\u002A\u002A,1*
G04 #@! TO.N,N/C*
X53975000Y-90805000D03*
G04 #@! TD*
G04 #@! TO.P,REF\u002A\u002A,1*
G04 #@! TO.N,N/C*
X51435000Y-86995000D03*
G04 #@! TD*
D25*
G04 #@! TO.P,D3,1,K*
G04 #@! TO.N,Net-(D3-Pad1)*
X56896000Y-58420000D03*
G04 #@! TO.P,D3,2,A*
G04 #@! TO.N,Net-(CON1-Pad3)*
X58674000Y-58420000D03*
G04 #@! TD*
D12*
G04 #@! TO.P,REF\u002A\u002A,1*
G04 #@! TO.N,N/C*
X61595000Y-84455000D03*
G04 #@! TD*
G04 #@! TO.P,REF\u002A\u002A,1*
G04 #@! TO.N,N/C*
X64135000Y-74295000D03*
G04 #@! TD*
G04 #@! TO.P,REF\u002A\u002A,1*
G04 #@! TO.N,N/C*
X48895000Y-80645000D03*
G04 #@! TD*
G04 #@! TO.P,REF\u002A\u002A,1*
G04 #@! TO.N,N/C*
X61595000Y-79375000D03*
G04 #@! TD*
G04 #@! TO.P,REF\u002A\u002A,1*
G04 #@! TO.N,N/C*
X48895000Y-74295000D03*
G04 #@! TD*
G04 #@! TO.P,REF\u002A\u002A,1*
G04 #@! TO.N,N/C*
X62865000Y-79375000D03*
G04 #@! TD*
G04 #@! TO.P,REF\u002A\u002A,1*
G04 #@! TO.N,N/C*
X48895000Y-75565000D03*
G04 #@! TD*
G04 #@! TO.P,REF\u002A\u002A,1*
G04 #@! TO.N,N/C*
X50165000Y-71755000D03*
G04 #@! TD*
G04 #@! TO.P,REF\u002A\u002A,1*
G04 #@! TO.N,N/C*
X53975000Y-89535000D03*
G04 #@! TD*
D26*
G04 #@! TO.P,C1,1*
G04 #@! TO.N,GND*
X60960000Y-64566800D03*
G04 #@! TO.P,C1,2*
G04 #@! TO.N,+BATT*
X60960000Y-61010800D03*
G04 #@! TD*
D12*
G04 #@! TO.P,REF\u002A\u002A,1*
G04 #@! TO.N,N/C*
X55245000Y-88265000D03*
G04 #@! TD*
G04 #@! TO.P,REF\u002A\u002A,1*
G04 #@! TO.N,N/C*
X66675000Y-80645000D03*
G04 #@! TD*
D16*
G04 #@! TO.P,REF\u002A\u002A,1*
G04 #@! TO.N,N/C*
X20955000Y-35560000D03*
G04 #@! TD*
D12*
G04 #@! TO.P,REF\u002A\u002A,1*
G04 #@! TO.N,N/C*
X52705000Y-75565000D03*
G04 #@! TD*
G04 #@! TO.P,REF\u002A\u002A,1*
G04 #@! TO.N,N/C*
X53975000Y-80645000D03*
G04 #@! TD*
G04 #@! TO.P,REF\u002A\u002A,1*
G04 #@! TO.N,N/C*
X57785000Y-79375000D03*
G04 #@! TD*
D10*
G04 #@! TO.P,REF\u002A\u002A,1*
G04 #@! TO.N,N/C*
X11430000Y-90170000D03*
G04 #@! TD*
D12*
G04 #@! TO.P,REF\u002A\u002A,1*
G04 #@! TO.N,N/C*
X51435000Y-83185000D03*
G04 #@! TD*
G04 #@! TO.P,REF\u002A\u002A,1*
G04 #@! TO.N,N/C*
X57785000Y-80645000D03*
G04 #@! TD*
D11*
G04 #@! TO.P,PG3,1,P1*
G04 #@! TO.N,GND*
X50546000Y-67132200D03*
G04 #@! TD*
D12*
G04 #@! TO.P,REF\u002A\u002A,1*
G04 #@! TO.N,N/C*
X60325000Y-89535000D03*
G04 #@! TD*
G04 #@! TO.P,REF\u002A\u002A,1*
G04 #@! TO.N,N/C*
X52705000Y-74295000D03*
G04 #@! TD*
G04 #@! TO.P,REF\u002A\u002A,1*
G04 #@! TO.N,N/C*
X55245000Y-79375000D03*
G04 #@! TD*
D16*
G04 #@! TO.P,REF\u002A\u002A,1*
G04 #@! TO.N,N/C*
X17145000Y-35560000D03*
G04 #@! TD*
D12*
G04 #@! TO.P,REF\u002A\u002A,1*
G04 #@! TO.N,N/C*
X66675000Y-79375000D03*
G04 #@! TD*
G04 #@! TO.P,REF\u002A\u002A,1*
G04 #@! TO.N,N/C*
X50165000Y-73025000D03*
G04 #@! TD*
G04 #@! TO.P,REF\u002A\u002A,1*
G04 #@! TO.N,N/C*
X59055000Y-85725000D03*
G04 #@! TD*
D10*
G04 #@! TO.P,REF\u002A\u002A,1*
G04 #@! TO.N,N/C*
X6350000Y-74930000D03*
G04 #@! TD*
D27*
G04 #@! TO.P,IC1,1,PB5(~RESET~/dW/ADC0/PCINT5)*
G04 #@! TO.N,Net-(CON1-Pad5)*
X63500000Y-66438800D03*
G04 #@! TO.P,IC1,2,PB3(XTAL1/CLKI/OC1B/ADC3/PCINT3)*
G04 #@! TO.N,Net-(D4-Pad2)*
X64770000Y-66438800D03*
G04 #@! TO.P,IC1,3,PB4(XTAL2/CLKO/OC1B/ADC2/PCINT4)*
G04 #@! TO.N,Net-(D5-Pad2)*
X66040000Y-66438800D03*
G04 #@! TO.P,IC1,4,GND*
G04 #@! TO.N,GND*
X67310000Y-66438800D03*
G04 #@! TO.P,IC1,5,PB0(MOSI/DI/SDA/AIN0/OC0A/OC1A/AREF/PCINT0)*
G04 #@! TO.N,Net-(CON1-Pad4)*
X67310000Y-59138800D03*
G04 #@! TO.P,IC1,6,PB1(MISO/DO/AIN1/OC0B/OC1A/PCINT1)*
G04 #@! TO.N,Net-(CON1-Pad1)*
X66040000Y-59138800D03*
G04 #@! TO.P,IC1,7,PB2(SCK/USCK/SCL/T0/INT0/ADC1/PCINT2)*
G04 #@! TO.N,Net-(CON1-Pad3)*
X64770000Y-59138800D03*
G04 #@! TO.P,IC1,8,VCC*
G04 #@! TO.N,+BATT*
X63500000Y-59138800D03*
G04 #@! TD*
D12*
G04 #@! TO.P,REF\u002A\u002A,1*
G04 #@! TO.N,N/C*
X52705000Y-89535000D03*
G04 #@! TD*
G04 #@! TO.P,REF\u002A\u002A,1*
G04 #@! TO.N,N/C*
X57785000Y-86995000D03*
G04 #@! TD*
G04 #@! TO.P,REF\u002A\u002A,1*
G04 #@! TO.N,N/C*
X60325000Y-74295000D03*
G04 #@! TD*
G04 #@! TO.P,REF\u002A\u002A,1*
G04 #@! TO.N,N/C*
X59055000Y-86995000D03*
G04 #@! TD*
D10*
G04 #@! TO.P,REF\u002A\u002A,1*
G04 #@! TO.N,N/C*
X19050000Y-72390000D03*
G04 #@! TD*
D12*
G04 #@! TO.P,REF\u002A\u002A,1*
G04 #@! TO.N,N/C*
X57785000Y-71755000D03*
G04 #@! TD*
G04 #@! TO.P,REF\u002A\u002A,1*
G04 #@! TO.N,N/C*
X51435000Y-88265000D03*
G04 #@! TD*
G04 #@! TO.P,REF\u002A\u002A,1*
G04 #@! TO.N,N/C*
X55245000Y-83185000D03*
G04 #@! TD*
G04 #@! TO.P,REF\u002A\u002A,1*
G04 #@! TO.N,N/C*
X64135000Y-84455000D03*
G04 #@! TD*
D10*
G04 #@! TO.P,REF\u002A\u002A,1*
G04 #@! TO.N,N/C*
X3810000Y-87630000D03*
G04 #@! TD*
D12*
G04 #@! TO.P,REF\u002A\u002A,1*
G04 #@! TO.N,N/C*
X64135000Y-86995000D03*
G04 #@! TD*
G04 #@! TO.P,REF\u002A\u002A,1*
G04 #@! TO.N,N/C*
X56515000Y-79375000D03*
G04 #@! TD*
G04 #@! TO.P,REF\u002A\u002A,1*
G04 #@! TO.N,N/C*
X57785000Y-73025000D03*
G04 #@! TD*
G04 #@! TO.P,REF\u002A\u002A,1*
G04 #@! TO.N,N/C*
X50165000Y-84455000D03*
G04 #@! TD*
G04 #@! TO.P,REF\u002A\u002A,1*
G04 #@! TO.N,N/C*
X52705000Y-81915000D03*
G04 #@! TD*
D16*
G04 #@! TO.P,REF\u002A\u002A,1*
G04 #@! TO.N,N/C*
X8255000Y-35560000D03*
G04 #@! TD*
D12*
G04 #@! TO.P,REF\u002A\u002A,1*
G04 #@! TO.N,N/C*
X64135000Y-78105000D03*
G04 #@! TD*
G04 #@! TO.P,REF\u002A\u002A,1*
G04 #@! TO.N,N/C*
X67945000Y-85725000D03*
G04 #@! TD*
D11*
G04 #@! TO.P,PG4,1,P1*
G04 #@! TO.N,GND*
X50546000Y-49707800D03*
G04 #@! TD*
D12*
G04 #@! TO.P,REF\u002A\u002A,1*
G04 #@! TO.N,N/C*
X48895000Y-71755000D03*
G04 #@! TD*
G04 #@! TO.P,REF\u002A\u002A,1*
G04 #@! TO.N,N/C*
X66675000Y-78105000D03*
G04 #@! TD*
G04 #@! TO.P,REF\u002A\u002A,1*
G04 #@! TO.N,N/C*
X65405000Y-84455000D03*
G04 #@! TD*
D10*
G04 #@! TO.P,REF\u002A\u002A,1*
G04 #@! TO.N,N/C*
X11430000Y-80010000D03*
G04 #@! TD*
D28*
G04 #@! TO.N,+BATT*
X66018894Y-48689996D03*
X63500000Y-61112400D03*
G04 #@! TO.N,GND*
X66500000Y-62625000D03*
X60550000Y-56325000D03*
X64225000Y-56600000D03*
G04 #@! TD*
D29*
G04 #@! TO.N,+BATT*
X66979800Y-49650902D02*
X66018894Y-48689996D01*
X60960000Y-59766200D02*
X61587400Y-59138800D01*
X63500000Y-59138800D02*
X63500000Y-61112400D01*
X61587400Y-59138800D02*
X63500000Y-59138800D01*
X66979800Y-49987200D02*
X66979800Y-49650902D01*
X60960000Y-61010800D02*
X60960000Y-59766200D01*
G04 #@! TO.N,GND*
X50571400Y-54000400D02*
X50546000Y-53975000D01*
G04 #@! TO.N,Net-(CON1-Pad5)*
X63500000Y-66438800D02*
X63500000Y-64211200D01*
X66666601Y-61044599D02*
X66666601Y-57294001D01*
X63500000Y-64211200D02*
X66666601Y-61044599D01*
X66666601Y-57294001D02*
X64439800Y-55067200D01*
G04 #@! TO.N,Net-(CON1-Pad1)*
X65405000Y-57429400D02*
X63220600Y-57429400D01*
X65735200Y-51852826D02*
X64439800Y-50557426D01*
X63220600Y-57429400D02*
X61595000Y-55803800D01*
X65735200Y-53086000D02*
X65735200Y-51852826D01*
X59918600Y-54000400D02*
X61569600Y-54000400D01*
X61569600Y-54000400D02*
X61595000Y-53975000D01*
X65049400Y-53771800D02*
X65735200Y-53086000D01*
X66040000Y-58064400D02*
X65405000Y-57429400D01*
X61798200Y-53771800D02*
X65049400Y-53771800D01*
X61595000Y-53975000D02*
X61798200Y-53771800D01*
X66040000Y-58420000D02*
X66040000Y-58064400D01*
X64439800Y-50557426D02*
X64439800Y-49987200D01*
X61595000Y-55803800D02*
X61595000Y-53975000D01*
G04 #@! TO.N,Net-(D1-Pad1)*
X58039000Y-49707800D02*
X56235600Y-49707800D01*
G04 #@! TO.N,Net-(D2-Pad1)*
X54991000Y-54000400D02*
X57505600Y-54000400D01*
G04 #@! TO.N,Net-(D3-Pad1)*
X54483000Y-58420000D02*
X56896000Y-58420000D01*
G04 #@! TO.N,Net-(D4-Pad1)*
X56319800Y-62865000D02*
X56345200Y-62839600D01*
X53486000Y-62865000D02*
X56319800Y-62865000D01*
G04 #@! TO.N,Net-(D5-Pad1)*
X55580000Y-67132200D02*
X53282800Y-67132200D01*
G04 #@! TO.N,Net-(CON1-Pad3)*
X63423800Y-52527200D02*
X62865000Y-53086000D01*
X64770000Y-58613800D02*
X63988811Y-57832611D01*
X63988811Y-57832611D02*
X60912389Y-57832611D01*
X59055000Y-53086000D02*
X58724800Y-53416200D01*
X62865000Y-53086000D02*
X59055000Y-53086000D01*
X64770000Y-59850000D02*
X64770000Y-59325000D01*
X58674000Y-58420000D02*
X60325000Y-58420000D01*
X60912389Y-57832611D02*
X60325000Y-58420000D01*
X64439800Y-52527200D02*
X63423800Y-52527200D01*
X58724800Y-53416200D02*
X58724800Y-56083200D01*
X60325000Y-57683400D02*
X60325000Y-58420000D01*
X64770000Y-59138800D02*
X64770000Y-58613800D01*
X58724800Y-56083200D02*
X60325000Y-57683400D01*
G04 #@! TO.N,Net-(CON1-Pad4)*
X67310000Y-59138800D02*
X67310000Y-57367174D01*
X67310000Y-57367174D02*
X65684400Y-55741574D01*
X65684400Y-55741574D02*
X65684400Y-53822600D01*
X66979800Y-52527200D02*
X65709800Y-51257200D01*
X65684400Y-53822600D02*
X66979800Y-52527200D01*
X65709800Y-51257200D02*
X65709800Y-49403000D01*
X65709800Y-49403000D02*
X65192399Y-48885599D01*
X63687201Y-48885599D02*
X62865000Y-49707800D01*
X62865000Y-49707800D02*
X61214000Y-49707800D01*
X65192399Y-48885599D02*
X63687201Y-48885599D01*
G04 #@! TO.N,Net-(D4-Pad2)*
X59275000Y-66074604D02*
X59275000Y-63225000D01*
X58394600Y-62839600D02*
X58420000Y-62865000D01*
X62072307Y-66728989D02*
X59929385Y-66728989D01*
X64770000Y-67430000D02*
X64609599Y-67590401D01*
X64609599Y-67590401D02*
X62933719Y-67590401D01*
X59929385Y-66728989D02*
X59275000Y-66074604D01*
X59275000Y-63225000D02*
X58915000Y-62865000D01*
X58915000Y-62865000D02*
X58420000Y-62865000D01*
X62933719Y-67590401D02*
X62072307Y-66728989D01*
X57345200Y-62839600D02*
X58394600Y-62839600D01*
X64770000Y-66438800D02*
X64770000Y-67430000D01*
G04 #@! TO.N,Net-(D5-Pad2)*
X61905292Y-67132200D02*
X62766704Y-67993612D01*
X66040000Y-67675000D02*
X66040000Y-66438800D01*
X65721388Y-67993612D02*
X66040000Y-67675000D01*
X66040000Y-67150000D02*
X66040000Y-67675000D01*
X62766704Y-67993612D02*
X65721388Y-67993612D01*
X57150000Y-67132200D02*
X56180000Y-67132200D01*
X57150000Y-67132200D02*
X61905292Y-67132200D01*
G04 #@! TD*
G04 #@! TA.AperFunction,Conductor*
G04 #@! TO.N,GND*
G36*
X65452361Y-48279213D02*
G01*
X65488906Y-48329513D01*
X65486172Y-48399098D01*
X65431877Y-48530178D01*
X65431876Y-48530180D01*
X65430935Y-48532453D01*
X65430514Y-48532278D01*
X65398964Y-48580858D01*
X65312425Y-48600557D01*
X65293663Y-48596104D01*
X65291826Y-48595668D01*
X65277782Y-48591226D01*
X65259267Y-48583840D01*
X65259262Y-48583839D01*
X65252670Y-48581209D01*
X65243390Y-48580299D01*
X65238838Y-48580299D01*
X65218329Y-48577899D01*
X65216592Y-48577814D01*
X65207557Y-48575670D01*
X65180297Y-48579380D01*
X65166731Y-48580299D01*
X63739592Y-48580299D01*
X63736800Y-48580094D01*
X63732530Y-48578628D01*
X63723249Y-48578976D01*
X63723247Y-48578976D01*
X63689904Y-48580228D01*
X63686131Y-48580299D01*
X63660355Y-48580299D01*
X63655806Y-48581146D01*
X63651939Y-48581503D01*
X63646469Y-48581858D01*
X63628268Y-48582541D01*
X63628266Y-48582542D01*
X63618983Y-48582890D01*
X63608338Y-48587464D01*
X63608253Y-48587500D01*
X63586966Y-48593967D01*
X63575494Y-48596104D01*
X63567587Y-48600978D01*
X63567584Y-48600979D01*
X63552491Y-48610283D01*
X63539425Y-48617071D01*
X63514582Y-48627745D01*
X63507377Y-48633664D01*
X63504160Y-48636881D01*
X63487959Y-48649687D01*
X63486673Y-48650853D01*
X63478766Y-48655727D01*
X63473145Y-48663119D01*
X63462106Y-48677636D01*
X63453163Y-48687878D01*
X63037954Y-49103088D01*
X62982556Y-49131314D01*
X62944105Y-49129955D01*
X62901263Y-49120025D01*
X62893763Y-49120556D01*
X62893762Y-49120556D01*
X62877280Y-49121723D01*
X62764174Y-49129731D01*
X62757160Y-49132445D01*
X62757158Y-49132445D01*
X62731016Y-49142559D01*
X62635999Y-49179319D01*
X62630094Y-49183974D01*
X62550255Y-49246914D01*
X62528071Y-49264402D01*
X62523795Y-49270589D01*
X62462624Y-49359097D01*
X62413199Y-49396817D01*
X62379866Y-49402500D01*
X62372800Y-49402500D01*
X62313669Y-49383287D01*
X62272200Y-49301900D01*
X62272200Y-48807370D01*
X62256352Y-48727695D01*
X62211220Y-48660150D01*
X62143675Y-48615018D01*
X62133959Y-48613085D01*
X62133958Y-48613085D01*
X62068852Y-48600135D01*
X62068851Y-48600135D01*
X62064000Y-48599170D01*
X60364000Y-48599170D01*
X60359149Y-48600135D01*
X60359148Y-48600135D01*
X60294042Y-48613085D01*
X60294041Y-48613085D01*
X60284325Y-48615018D01*
X60216780Y-48660150D01*
X60171648Y-48727695D01*
X60155800Y-48807370D01*
X60155800Y-50608230D01*
X60171648Y-50687905D01*
X60216780Y-50755450D01*
X60284325Y-50800582D01*
X60294041Y-50802515D01*
X60294042Y-50802515D01*
X60359148Y-50815465D01*
X60359149Y-50815465D01*
X60364000Y-50816430D01*
X62064000Y-50816430D01*
X62068851Y-50815465D01*
X62068852Y-50815465D01*
X62133958Y-50802515D01*
X62133959Y-50802515D01*
X62143675Y-50800582D01*
X62211220Y-50755450D01*
X62256352Y-50687905D01*
X62272200Y-50608230D01*
X62272200Y-50113700D01*
X62291413Y-50054569D01*
X62372800Y-50013100D01*
X62380300Y-50013100D01*
X62439431Y-50032313D01*
X62470985Y-50070151D01*
X62478396Y-50085583D01*
X62482724Y-50094595D01*
X62500385Y-50113700D01*
X62539352Y-50155854D01*
X62576014Y-50195515D01*
X62611194Y-50215949D01*
X62688354Y-50260768D01*
X62688357Y-50260769D01*
X62694854Y-50264543D01*
X62828737Y-50295575D01*
X62836237Y-50295044D01*
X62836238Y-50295044D01*
X62907168Y-50290022D01*
X62965826Y-50285869D01*
X62972840Y-50283155D01*
X62972842Y-50283155D01*
X63086986Y-50238995D01*
X63094001Y-50236281D01*
X63119792Y-50215949D01*
X63196023Y-50155854D01*
X63201929Y-50151198D01*
X63206205Y-50145011D01*
X63206207Y-50145009D01*
X63259112Y-50068462D01*
X63308537Y-50030743D01*
X63370694Y-50029278D01*
X63421841Y-50064628D01*
X63440483Y-50105774D01*
X63442670Y-50116619D01*
X63466798Y-50236281D01*
X63476688Y-50285333D01*
X63556308Y-50472904D01*
X63559198Y-50477094D01*
X63559199Y-50477095D01*
X63663134Y-50627758D01*
X63672017Y-50640634D01*
X63675695Y-50644161D01*
X63797487Y-50760955D01*
X63819090Y-50781672D01*
X63823394Y-50784382D01*
X63823396Y-50784384D01*
X63987207Y-50887542D01*
X63987210Y-50887544D01*
X63991519Y-50890257D01*
X64182260Y-50961951D01*
X64383521Y-50993828D01*
X64397477Y-50993194D01*
X64473171Y-51022556D01*
X64856131Y-51405516D01*
X64884357Y-51460914D01*
X64874631Y-51522322D01*
X64830667Y-51566286D01*
X64759638Y-51574003D01*
X64594040Y-51530868D01*
X64588956Y-51530602D01*
X64588952Y-51530601D01*
X64475866Y-51524675D01*
X64390550Y-51520204D01*
X64189071Y-51550674D01*
X63997834Y-51621036D01*
X63993506Y-51623720D01*
X63993503Y-51623721D01*
X63828985Y-51725727D01*
X63828982Y-51725729D01*
X63824652Y-51728414D01*
X63676598Y-51868421D01*
X63559720Y-52035340D01*
X63546570Y-52065728D01*
X63505232Y-52161253D01*
X63464115Y-52207891D01*
X63412906Y-52221900D01*
X63396954Y-52221900D01*
X63392405Y-52222747D01*
X63388538Y-52223104D01*
X63383068Y-52223459D01*
X63364865Y-52224142D01*
X63364862Y-52224143D01*
X63355582Y-52224491D01*
X63344856Y-52229100D01*
X63323561Y-52235569D01*
X63321221Y-52236005D01*
X63312093Y-52237705D01*
X63304191Y-52242576D01*
X63304190Y-52242576D01*
X63289086Y-52251886D01*
X63276014Y-52258676D01*
X63257707Y-52266542D01*
X63257704Y-52266544D01*
X63251182Y-52269346D01*
X63243976Y-52275264D01*
X63240757Y-52278483D01*
X63224559Y-52291287D01*
X63223271Y-52292455D01*
X63215365Y-52297328D01*
X63209744Y-52304720D01*
X63198708Y-52319233D01*
X63189765Y-52329475D01*
X62768007Y-52751235D01*
X62696872Y-52780700D01*
X59107390Y-52780700D01*
X59104598Y-52780495D01*
X59100328Y-52779029D01*
X59091049Y-52779377D01*
X59091046Y-52779377D01*
X59057711Y-52780629D01*
X59053937Y-52780700D01*
X59028154Y-52780700D01*
X59023599Y-52781548D01*
X59019736Y-52781905D01*
X59014263Y-52782260D01*
X58996064Y-52782943D01*
X58996061Y-52782944D01*
X58986781Y-52783292D01*
X58978249Y-52786958D01*
X58978248Y-52786958D01*
X58976061Y-52787898D01*
X58954762Y-52794369D01*
X58953053Y-52794687D01*
X58943293Y-52796505D01*
X58935392Y-52801375D01*
X58935385Y-52801378D01*
X58920289Y-52810684D01*
X58907211Y-52817478D01*
X58891201Y-52824357D01*
X58882381Y-52828146D01*
X58875176Y-52834065D01*
X58871959Y-52837282D01*
X58855758Y-52850088D01*
X58854472Y-52851254D01*
X58846565Y-52856128D01*
X58840944Y-52863520D01*
X58829905Y-52878037D01*
X58820962Y-52888279D01*
X58545972Y-53163270D01*
X58543849Y-53165103D01*
X58539791Y-53167086D01*
X58533474Y-53173896D01*
X58510761Y-53198381D01*
X58508142Y-53201100D01*
X58489938Y-53219304D01*
X58487314Y-53223129D01*
X58484842Y-53226104D01*
X58481241Y-53230204D01*
X58462515Y-53250391D01*
X58462515Y-53250392D01*
X58462511Y-53250389D01*
X58418920Y-53286579D01*
X58356876Y-53290591D01*
X58310589Y-53264243D01*
X58308325Y-53261979D01*
X58302820Y-53253740D01*
X58235275Y-53208608D01*
X58225559Y-53206675D01*
X58225558Y-53206675D01*
X58160452Y-53193725D01*
X58160451Y-53193725D01*
X58155600Y-53192760D01*
X56855600Y-53192760D01*
X56850749Y-53193725D01*
X56850748Y-53193725D01*
X56785642Y-53206675D01*
X56785641Y-53206675D01*
X56775925Y-53208608D01*
X56708380Y-53253740D01*
X56663248Y-53321285D01*
X56661315Y-53331001D01*
X56661315Y-53331002D01*
X56651009Y-53382814D01*
X56647400Y-53400960D01*
X56647400Y-53594500D01*
X56628187Y-53653631D01*
X56546800Y-53695100D01*
X55749800Y-53695100D01*
X55690669Y-53675887D01*
X55649200Y-53594500D01*
X55649200Y-53350400D01*
X55642332Y-53315872D01*
X55635285Y-53280442D01*
X55635285Y-53280441D01*
X55633352Y-53270725D01*
X55588220Y-53203180D01*
X55520675Y-53158048D01*
X55510959Y-53156115D01*
X55510958Y-53156115D01*
X55445852Y-53143165D01*
X55445851Y-53143165D01*
X55441000Y-53142200D01*
X54541000Y-53142200D01*
X54536149Y-53143165D01*
X54536148Y-53143165D01*
X54471042Y-53156115D01*
X54471041Y-53156115D01*
X54461325Y-53158048D01*
X54393780Y-53203180D01*
X54348648Y-53270725D01*
X54346715Y-53280441D01*
X54346715Y-53280442D01*
X54339668Y-53315872D01*
X54332800Y-53350400D01*
X54332800Y-54650400D01*
X54333765Y-54655251D01*
X54333765Y-54655252D01*
X54344720Y-54710325D01*
X54348648Y-54730075D01*
X54393780Y-54797620D01*
X54461325Y-54842752D01*
X54471041Y-54844685D01*
X54471042Y-54844685D01*
X54536148Y-54857635D01*
X54536149Y-54857635D01*
X54541000Y-54858600D01*
X55441000Y-54858600D01*
X55445851Y-54857635D01*
X55445852Y-54857635D01*
X55510958Y-54844685D01*
X55510959Y-54844685D01*
X55520675Y-54842752D01*
X55588220Y-54797620D01*
X55633352Y-54730075D01*
X55637281Y-54710325D01*
X55648235Y-54655252D01*
X55648235Y-54655251D01*
X55649200Y-54650400D01*
X55649200Y-54406300D01*
X55668413Y-54347169D01*
X55749800Y-54305700D01*
X56546800Y-54305700D01*
X56605931Y-54324913D01*
X56647400Y-54406300D01*
X56647400Y-54599840D01*
X56663248Y-54679515D01*
X56708380Y-54747060D01*
X56775925Y-54792192D01*
X56785641Y-54794125D01*
X56785642Y-54794125D01*
X56850748Y-54807075D01*
X56850749Y-54807075D01*
X56855600Y-54808040D01*
X58155600Y-54808040D01*
X58160451Y-54807075D01*
X58160452Y-54807075D01*
X58225558Y-54794125D01*
X58225559Y-54794125D01*
X58235275Y-54792192D01*
X58263011Y-54773659D01*
X58322852Y-54756784D01*
X58381183Y-54778304D01*
X58419501Y-54857306D01*
X58419501Y-56030803D01*
X58419296Y-56033599D01*
X58417829Y-56037871D01*
X58418785Y-56063333D01*
X58419430Y-56080514D01*
X58419501Y-56084288D01*
X58419501Y-56110046D01*
X58420350Y-56114603D01*
X58420705Y-56118449D01*
X58421060Y-56123925D01*
X58422092Y-56151418D01*
X58426666Y-56162063D01*
X58426702Y-56162148D01*
X58433169Y-56183435D01*
X58435306Y-56194907D01*
X58440180Y-56202814D01*
X58440181Y-56202817D01*
X58449485Y-56217910D01*
X58456274Y-56230979D01*
X58466946Y-56255818D01*
X58472865Y-56263023D01*
X58476083Y-56266241D01*
X58488888Y-56282441D01*
X58490055Y-56283728D01*
X58494929Y-56291635D01*
X58502321Y-56297256D01*
X58502323Y-56297258D01*
X58516833Y-56308291D01*
X58527076Y-56317234D01*
X59990235Y-57780395D01*
X60019700Y-57851530D01*
X60019700Y-57904724D01*
X59992679Y-57972969D01*
X59988071Y-57976602D01*
X59983795Y-57982789D01*
X59983794Y-57982790D01*
X59922624Y-58071297D01*
X59873199Y-58109017D01*
X59839866Y-58114700D01*
X59482099Y-58114700D01*
X59422968Y-58095487D01*
X59382200Y-58024340D01*
X59382200Y-58021220D01*
X59379169Y-58005979D01*
X59368285Y-57951262D01*
X59368285Y-57951261D01*
X59366352Y-57941545D01*
X59321220Y-57874000D01*
X59253675Y-57828868D01*
X59243959Y-57826935D01*
X59243958Y-57826935D01*
X59178852Y-57813985D01*
X59178851Y-57813985D01*
X59174000Y-57813020D01*
X58174000Y-57813020D01*
X58169149Y-57813985D01*
X58169148Y-57813985D01*
X58104042Y-57826935D01*
X58104041Y-57826935D01*
X58094325Y-57828868D01*
X58026780Y-57874000D01*
X57981648Y-57941545D01*
X57979715Y-57951261D01*
X57979715Y-57951262D01*
X57967797Y-58011179D01*
X57965800Y-58021220D01*
X57965800Y-58818780D01*
X57966765Y-58823631D01*
X57966765Y-58823632D01*
X57979689Y-58888604D01*
X57981648Y-58898455D01*
X58026780Y-58966000D01*
X58094325Y-59011132D01*
X58104041Y-59013065D01*
X58104042Y-59013065D01*
X58169148Y-59026015D01*
X58169149Y-59026015D01*
X58174000Y-59026980D01*
X59174000Y-59026980D01*
X59178851Y-59026015D01*
X59178852Y-59026015D01*
X59243958Y-59013065D01*
X59243959Y-59013065D01*
X59253675Y-59011132D01*
X59321220Y-58966000D01*
X59366352Y-58898455D01*
X59368285Y-58888738D01*
X59381237Y-58823623D01*
X59381237Y-58823620D01*
X59382200Y-58818780D01*
X59382200Y-58815543D01*
X59406901Y-58759075D01*
X59482099Y-58725300D01*
X59840300Y-58725300D01*
X59899431Y-58744513D01*
X59930985Y-58782351D01*
X59935634Y-58792031D01*
X59942724Y-58806795D01*
X59969805Y-58836091D01*
X60027411Y-58898408D01*
X60036014Y-58907715D01*
X60078333Y-58932296D01*
X60148354Y-58972968D01*
X60148357Y-58972969D01*
X60154854Y-58976743D01*
X60288737Y-59007775D01*
X60296237Y-59007244D01*
X60296238Y-59007244D01*
X60337919Y-59004293D01*
X60425826Y-58998069D01*
X60432840Y-58995355D01*
X60432842Y-58995355D01*
X60546986Y-58951195D01*
X60554001Y-58948481D01*
X60563396Y-58941075D01*
X60656023Y-58868054D01*
X60661929Y-58863398D01*
X60740068Y-58750340D01*
X60781510Y-58619304D01*
X60782200Y-58610536D01*
X60782200Y-58436229D01*
X60811665Y-58365094D01*
X61009384Y-58167376D01*
X61080519Y-58137911D01*
X62874232Y-58137911D01*
X62933363Y-58157124D01*
X62969908Y-58207424D01*
X62972899Y-58258136D01*
X62969134Y-58277067D01*
X62966800Y-58288800D01*
X62966800Y-58732900D01*
X62947587Y-58792031D01*
X62866200Y-58833500D01*
X61639791Y-58833500D01*
X61636999Y-58833295D01*
X61632729Y-58831829D01*
X61623448Y-58832177D01*
X61623446Y-58832177D01*
X61590103Y-58833429D01*
X61586330Y-58833500D01*
X61560554Y-58833500D01*
X61556005Y-58834347D01*
X61552138Y-58834704D01*
X61546668Y-58835059D01*
X61528465Y-58835742D01*
X61528462Y-58835743D01*
X61519182Y-58836091D01*
X61508456Y-58840700D01*
X61487161Y-58847169D01*
X61484821Y-58847605D01*
X61475693Y-58849305D01*
X61467791Y-58854176D01*
X61467790Y-58854176D01*
X61452686Y-58863486D01*
X61439614Y-58870276D01*
X61421307Y-58878142D01*
X61421304Y-58878144D01*
X61414782Y-58880946D01*
X61407576Y-58886864D01*
X61404357Y-58890083D01*
X61388159Y-58902887D01*
X61386871Y-58904055D01*
X61378965Y-58908928D01*
X61373344Y-58916320D01*
X61362308Y-58930833D01*
X61353365Y-58941075D01*
X60781167Y-59513275D01*
X60779049Y-59515103D01*
X60774992Y-59517086D01*
X60768671Y-59523900D01*
X60745982Y-59548359D01*
X60743364Y-59551078D01*
X60725138Y-59569304D01*
X60722519Y-59573121D01*
X60720043Y-59576101D01*
X60716426Y-59580220D01*
X60697716Y-59600390D01*
X60694275Y-59609016D01*
X60694274Y-59609017D01*
X60693390Y-59611233D01*
X60682906Y-59630867D01*
X60676308Y-59640485D01*
X60670065Y-59666791D01*
X60665626Y-59680826D01*
X60655611Y-59705929D01*
X60654701Y-59715209D01*
X60654701Y-59719756D01*
X60652300Y-59740276D01*
X60652215Y-59742006D01*
X60650071Y-59751042D01*
X60653782Y-59778309D01*
X60654701Y-59791875D01*
X60654701Y-59902000D01*
X60635488Y-59961131D01*
X60554101Y-60002600D01*
X60160000Y-60002600D01*
X60155149Y-60003565D01*
X60155148Y-60003565D01*
X60090042Y-60016515D01*
X60090041Y-60016515D01*
X60080325Y-60018448D01*
X60012780Y-60063580D01*
X59967648Y-60131125D01*
X59951800Y-60210800D01*
X59951800Y-61810800D01*
X59967648Y-61890475D01*
X60012780Y-61958020D01*
X60080325Y-62003152D01*
X60090041Y-62005085D01*
X60090042Y-62005085D01*
X60155148Y-62018035D01*
X60155149Y-62018035D01*
X60160000Y-62019000D01*
X61760000Y-62019000D01*
X61764851Y-62018035D01*
X61764852Y-62018035D01*
X61829958Y-62005085D01*
X61829959Y-62005085D01*
X61839675Y-62003152D01*
X61907220Y-61958020D01*
X61952352Y-61890475D01*
X61968200Y-61810800D01*
X61968200Y-60210800D01*
X61952352Y-60131125D01*
X61907220Y-60063580D01*
X61839675Y-60018448D01*
X61829959Y-60016515D01*
X61829958Y-60016515D01*
X61764852Y-60003565D01*
X61764851Y-60003565D01*
X61760000Y-60002600D01*
X61398228Y-60002600D01*
X61339097Y-59983387D01*
X61302552Y-59933087D01*
X61302552Y-59870913D01*
X61327093Y-59830865D01*
X61491180Y-59666779D01*
X61684394Y-59473565D01*
X61755529Y-59444100D01*
X62866200Y-59444100D01*
X62925331Y-59463313D01*
X62966800Y-59544700D01*
X62966800Y-59988800D01*
X62982648Y-60068475D01*
X63027780Y-60136020D01*
X63095325Y-60181152D01*
X63105043Y-60183085D01*
X63113725Y-60184812D01*
X63167972Y-60215190D01*
X63194701Y-60283479D01*
X63194701Y-60536368D01*
X63155342Y-60616179D01*
X63074819Y-60677966D01*
X63074815Y-60677970D01*
X63069584Y-60681984D01*
X62972850Y-60808050D01*
X62912041Y-60954857D01*
X62891300Y-61112400D01*
X62892161Y-61118940D01*
X62910695Y-61259716D01*
X62912041Y-61269943D01*
X62972850Y-61416750D01*
X63069584Y-61542816D01*
X63195650Y-61639550D01*
X63342457Y-61700359D01*
X63348993Y-61701220D01*
X63348995Y-61701220D01*
X63493460Y-61720239D01*
X63500000Y-61721100D01*
X63506540Y-61720239D01*
X63651005Y-61701220D01*
X63651007Y-61701220D01*
X63657543Y-61700359D01*
X63804350Y-61639550D01*
X63930416Y-61542816D01*
X64027150Y-61416750D01*
X64087959Y-61269943D01*
X64089306Y-61259716D01*
X64107839Y-61118940D01*
X64108700Y-61112400D01*
X64087959Y-60954857D01*
X64027150Y-60808050D01*
X63930416Y-60681984D01*
X63844658Y-60616179D01*
X63805300Y-60536369D01*
X63805300Y-60283479D01*
X63824513Y-60224348D01*
X63886275Y-60184812D01*
X63894958Y-60183085D01*
X63894959Y-60183085D01*
X63904675Y-60181152D01*
X63972220Y-60136020D01*
X64017352Y-60068475D01*
X64033200Y-59988800D01*
X64033200Y-58551629D01*
X64052413Y-58492498D01*
X64102713Y-58455953D01*
X64164887Y-58455953D01*
X64204935Y-58480494D01*
X64207335Y-58482894D01*
X64236800Y-58554029D01*
X64236800Y-59988800D01*
X64252648Y-60068475D01*
X64297780Y-60136020D01*
X64365325Y-60181152D01*
X64375041Y-60183085D01*
X64375042Y-60183085D01*
X64440148Y-60196035D01*
X64440149Y-60196035D01*
X64445000Y-60197000D01*
X65095000Y-60197000D01*
X65099851Y-60196035D01*
X65099852Y-60196035D01*
X65164958Y-60183085D01*
X65164959Y-60183085D01*
X65174675Y-60181152D01*
X65242220Y-60136020D01*
X65287352Y-60068475D01*
X65303200Y-59988800D01*
X65303200Y-58288800D01*
X65300866Y-58277067D01*
X65289285Y-58218842D01*
X65289285Y-58218841D01*
X65287352Y-58209125D01*
X65242220Y-58141580D01*
X65174675Y-58096448D01*
X65164959Y-58094515D01*
X65164958Y-58094515D01*
X65099852Y-58081565D01*
X65099851Y-58081565D01*
X65095000Y-58080600D01*
X64710229Y-58080600D01*
X64639094Y-58051135D01*
X64570749Y-57982790D01*
X64494392Y-57906434D01*
X64466167Y-57851038D01*
X64475893Y-57789629D01*
X64519856Y-57745665D01*
X64565528Y-57734700D01*
X65236872Y-57734700D01*
X65308007Y-57764165D01*
X65556833Y-58012991D01*
X65585059Y-58068389D01*
X65562438Y-58138011D01*
X65567780Y-58141580D01*
X65522648Y-58209125D01*
X65520715Y-58218841D01*
X65520715Y-58218842D01*
X65509134Y-58277067D01*
X65506800Y-58288800D01*
X65506800Y-59988800D01*
X65522648Y-60068475D01*
X65567780Y-60136020D01*
X65635325Y-60181152D01*
X65645041Y-60183085D01*
X65645042Y-60183085D01*
X65710148Y-60196035D01*
X65710149Y-60196035D01*
X65715000Y-60197000D01*
X66260701Y-60197000D01*
X66319832Y-60216213D01*
X66361301Y-60297600D01*
X66361301Y-60876470D01*
X66331836Y-60947605D01*
X63321170Y-63958272D01*
X63319049Y-63960103D01*
X63314992Y-63962086D01*
X63308676Y-63968895D01*
X63285982Y-63993359D01*
X63283364Y-63996078D01*
X63265138Y-64014304D01*
X63262519Y-64018121D01*
X63260043Y-64021101D01*
X63256426Y-64025220D01*
X63237716Y-64045390D01*
X63234275Y-64054016D01*
X63234274Y-64054017D01*
X63233390Y-64056233D01*
X63222906Y-64075867D01*
X63216308Y-64085485D01*
X63210065Y-64111791D01*
X63205626Y-64125826D01*
X63195611Y-64150929D01*
X63194701Y-64160209D01*
X63194701Y-64164756D01*
X63192300Y-64185276D01*
X63192215Y-64187006D01*
X63190071Y-64196042D01*
X63193782Y-64223309D01*
X63194701Y-64236875D01*
X63194700Y-65294121D01*
X63175487Y-65353252D01*
X63113725Y-65392788D01*
X63105042Y-65394515D01*
X63105041Y-65394515D01*
X63095325Y-65396448D01*
X63027780Y-65441580D01*
X62982648Y-65509125D01*
X62980715Y-65518841D01*
X62980715Y-65518842D01*
X62973434Y-65555446D01*
X62966800Y-65588800D01*
X62966800Y-66948853D01*
X62947587Y-67007984D01*
X62897287Y-67044529D01*
X62835113Y-67044529D01*
X62795065Y-67019988D01*
X62560057Y-66784980D01*
X62325235Y-66550159D01*
X62323404Y-66548038D01*
X62321421Y-66543980D01*
X62290134Y-66514957D01*
X62287415Y-66512339D01*
X62269203Y-66494127D01*
X62265378Y-66491503D01*
X62262434Y-66489057D01*
X62258308Y-66485434D01*
X62244927Y-66473021D01*
X62244926Y-66473020D01*
X62238117Y-66466704D01*
X62227273Y-66462378D01*
X62207640Y-66451895D01*
X62205679Y-66450550D01*
X62205680Y-66450550D01*
X62198022Y-66445297D01*
X62187545Y-66442811D01*
X62171734Y-66439058D01*
X62157690Y-66434616D01*
X62139175Y-66427230D01*
X62139170Y-66427229D01*
X62132578Y-66424599D01*
X62123298Y-66423689D01*
X62118746Y-66423689D01*
X62098237Y-66421289D01*
X62096500Y-66421204D01*
X62087465Y-66419060D01*
X62060205Y-66422770D01*
X62046639Y-66423689D01*
X60097514Y-66423689D01*
X60026379Y-66394224D01*
X59609765Y-65977611D01*
X59580300Y-65906476D01*
X59580300Y-64702176D01*
X59901000Y-64702176D01*
X59901000Y-65361853D01*
X59901965Y-65371652D01*
X59918782Y-65456198D01*
X59926219Y-65474153D01*
X59971354Y-65541702D01*
X59985098Y-65555446D01*
X60052647Y-65600581D01*
X60070602Y-65608018D01*
X60155148Y-65624835D01*
X60164947Y-65625800D01*
X60817067Y-65625800D01*
X60821413Y-65624388D01*
X60828812Y-65609867D01*
X61086999Y-65609867D01*
X61091187Y-65622757D01*
X61095376Y-65625800D01*
X61755053Y-65625800D01*
X61764852Y-65624835D01*
X61849398Y-65608018D01*
X61867353Y-65600581D01*
X61934902Y-65555446D01*
X61948646Y-65541702D01*
X61993781Y-65474153D01*
X62001218Y-65456198D01*
X62018035Y-65371652D01*
X62019000Y-65361853D01*
X62019000Y-64709733D01*
X62017588Y-64705387D01*
X61994848Y-64693800D01*
X61102933Y-64693799D01*
X61090043Y-64697987D01*
X61087000Y-64702176D01*
X61086999Y-65609867D01*
X60828812Y-65609867D01*
X60833000Y-65601648D01*
X60833001Y-64709733D01*
X60828813Y-64696843D01*
X60824624Y-64693800D01*
X59916933Y-64693799D01*
X59904043Y-64697987D01*
X59901000Y-64702176D01*
X59580300Y-64702176D01*
X59580300Y-63771747D01*
X59901000Y-63771747D01*
X59901000Y-64423867D01*
X59902412Y-64428213D01*
X59925152Y-64439800D01*
X60817067Y-64439801D01*
X60829957Y-64435613D01*
X60833000Y-64431424D01*
X60833000Y-64423867D01*
X61086999Y-64423867D01*
X61091187Y-64436757D01*
X61095376Y-64439800D01*
X62003067Y-64439801D01*
X62015957Y-64435613D01*
X62019000Y-64431424D01*
X62019000Y-63771747D01*
X62018035Y-63761948D01*
X62001218Y-63677402D01*
X61993781Y-63659447D01*
X61948646Y-63591898D01*
X61934902Y-63578154D01*
X61867353Y-63533019D01*
X61849398Y-63525582D01*
X61764852Y-63508765D01*
X61755053Y-63507800D01*
X61102933Y-63507800D01*
X61098587Y-63509212D01*
X61087000Y-63531952D01*
X61086999Y-64423867D01*
X60833000Y-64423867D01*
X60833001Y-63523733D01*
X60828813Y-63510843D01*
X60824624Y-63507800D01*
X60164947Y-63507800D01*
X60155148Y-63508765D01*
X60070602Y-63525582D01*
X60052647Y-63533019D01*
X59985098Y-63578154D01*
X59971354Y-63591898D01*
X59926219Y-63659447D01*
X59918782Y-63677402D01*
X59901965Y-63761948D01*
X59901000Y-63771747D01*
X59580300Y-63771747D01*
X59580300Y-63277391D01*
X59580505Y-63274599D01*
X59581971Y-63270329D01*
X59581483Y-63257314D01*
X59580371Y-63227712D01*
X59580300Y-63223938D01*
X59580300Y-63198154D01*
X59579452Y-63193599D01*
X59579095Y-63189736D01*
X59578740Y-63184263D01*
X59578057Y-63166064D01*
X59578056Y-63166061D01*
X59577708Y-63156781D01*
X59573102Y-63146060D01*
X59566631Y-63124762D01*
X59566195Y-63122422D01*
X59564495Y-63113293D01*
X59559625Y-63105392D01*
X59559622Y-63105385D01*
X59550316Y-63090289D01*
X59543522Y-63077211D01*
X59535659Y-63058910D01*
X59532854Y-63052381D01*
X59526935Y-63045176D01*
X59523718Y-63041959D01*
X59510912Y-63025758D01*
X59509746Y-63024472D01*
X59504872Y-63016565D01*
X59482963Y-62999905D01*
X59472721Y-62990962D01*
X59167932Y-62686174D01*
X59166097Y-62684048D01*
X59164114Y-62679991D01*
X59132814Y-62650955D01*
X59130099Y-62648340D01*
X59115173Y-62633415D01*
X59111896Y-62630138D01*
X59108069Y-62627512D01*
X59105130Y-62625071D01*
X59101015Y-62621458D01*
X59080810Y-62602715D01*
X59069966Y-62598389D01*
X59050333Y-62587906D01*
X59048372Y-62586561D01*
X59048373Y-62586561D01*
X59040715Y-62581308D01*
X59030238Y-62578822D01*
X59014427Y-62575069D01*
X59000383Y-62570627D01*
X58981868Y-62563241D01*
X58981863Y-62563240D01*
X58975271Y-62560610D01*
X58965991Y-62559700D01*
X58961439Y-62559700D01*
X58940930Y-62557300D01*
X58939193Y-62557215D01*
X58930158Y-62555071D01*
X58917325Y-62556818D01*
X58912234Y-62555897D01*
X58911679Y-62555870D01*
X58911683Y-62555797D01*
X58856145Y-62545756D01*
X58813071Y-62500683D01*
X58805532Y-62484983D01*
X58805531Y-62484982D01*
X58802277Y-62478205D01*
X58755675Y-62427791D01*
X58714092Y-62382807D01*
X58714090Y-62382805D01*
X58708987Y-62377285D01*
X58638803Y-62336519D01*
X58596646Y-62312032D01*
X58596643Y-62312031D01*
X58590146Y-62308257D01*
X58456263Y-62277225D01*
X58448763Y-62277756D01*
X58448762Y-62277756D01*
X58432280Y-62278923D01*
X58319174Y-62286931D01*
X58312160Y-62289645D01*
X58312158Y-62289645D01*
X58201736Y-62332365D01*
X58190999Y-62336519D01*
X58185094Y-62341174D01*
X58132283Y-62382807D01*
X58083071Y-62421602D01*
X58078794Y-62427791D01*
X58054601Y-62462794D01*
X58005176Y-62500513D01*
X57943019Y-62501978D01*
X57892667Y-62456507D01*
X57887552Y-62459925D01*
X57847925Y-62400619D01*
X57842420Y-62392380D01*
X57774875Y-62347248D01*
X57765159Y-62345315D01*
X57765158Y-62345315D01*
X57700052Y-62332365D01*
X57700051Y-62332365D01*
X57695200Y-62331400D01*
X56995200Y-62331400D01*
X56990349Y-62332365D01*
X56990348Y-62332365D01*
X56925242Y-62345315D01*
X56925241Y-62345315D01*
X56915525Y-62347248D01*
X56907289Y-62352751D01*
X56907287Y-62352752D01*
X56901090Y-62356893D01*
X56841250Y-62373769D01*
X56789310Y-62356893D01*
X56783113Y-62352752D01*
X56783111Y-62352751D01*
X56774875Y-62347248D01*
X56765159Y-62345315D01*
X56765158Y-62345315D01*
X56700052Y-62332365D01*
X56700051Y-62332365D01*
X56695200Y-62331400D01*
X55995200Y-62331400D01*
X55990349Y-62332365D01*
X55990348Y-62332365D01*
X55925242Y-62345315D01*
X55925241Y-62345315D01*
X55915525Y-62347248D01*
X55847980Y-62392380D01*
X55802848Y-62459925D01*
X55800916Y-62469639D01*
X55800915Y-62469641D01*
X55799108Y-62478727D01*
X55768727Y-62532974D01*
X55700441Y-62559700D01*
X54074286Y-62559700D01*
X54015155Y-62540487D01*
X53981344Y-62497599D01*
X53980285Y-62495042D01*
X53978352Y-62485325D01*
X53959097Y-62456507D01*
X53938725Y-62426019D01*
X53933220Y-62417780D01*
X53865675Y-62372648D01*
X53855959Y-62370715D01*
X53855958Y-62370715D01*
X53790852Y-62357765D01*
X53790851Y-62357765D01*
X53786000Y-62356800D01*
X53186000Y-62356800D01*
X53181151Y-62357765D01*
X53181146Y-62357765D01*
X53107916Y-62372331D01*
X53032401Y-62357310D01*
X52993353Y-62331219D01*
X52975398Y-62323782D01*
X52890852Y-62306965D01*
X52881053Y-62306000D01*
X52728933Y-62306000D01*
X52724587Y-62307412D01*
X52713000Y-62330152D01*
X52712999Y-62737998D01*
X52713000Y-62738004D01*
X52712999Y-63408067D01*
X52717187Y-63420957D01*
X52721376Y-63424000D01*
X52881053Y-63424000D01*
X52890852Y-63423035D01*
X52975398Y-63406218D01*
X52993353Y-63398781D01*
X53032401Y-63372690D01*
X53107916Y-63357669D01*
X53181146Y-63372235D01*
X53181151Y-63372235D01*
X53186000Y-63373200D01*
X53786000Y-63373200D01*
X53790851Y-63372235D01*
X53790852Y-63372235D01*
X53855958Y-63359285D01*
X53855959Y-63359285D01*
X53865675Y-63357352D01*
X53933220Y-63312220D01*
X53978352Y-63244675D01*
X53980285Y-63234958D01*
X53981344Y-63232401D01*
X54021724Y-63185124D01*
X54074286Y-63170300D01*
X55717435Y-63170300D01*
X55776566Y-63189513D01*
X55801002Y-63220508D01*
X55802848Y-63219275D01*
X55847980Y-63286820D01*
X55915525Y-63331952D01*
X55925241Y-63333885D01*
X55925242Y-63333885D01*
X55990348Y-63346835D01*
X55990349Y-63346835D01*
X55995200Y-63347800D01*
X56695200Y-63347800D01*
X56700051Y-63346835D01*
X56700052Y-63346835D01*
X56765158Y-63333885D01*
X56765159Y-63333885D01*
X56774875Y-63331952D01*
X56783111Y-63326449D01*
X56783113Y-63326448D01*
X56789310Y-63322307D01*
X56849150Y-63305431D01*
X56901090Y-63322307D01*
X56907287Y-63326448D01*
X56907289Y-63326449D01*
X56915525Y-63331952D01*
X56925241Y-63333885D01*
X56925242Y-63333885D01*
X56990348Y-63346835D01*
X56990349Y-63346835D01*
X56995200Y-63347800D01*
X57695200Y-63347800D01*
X57700051Y-63346835D01*
X57700052Y-63346835D01*
X57765158Y-63333885D01*
X57765159Y-63333885D01*
X57774875Y-63331952D01*
X57842420Y-63286820D01*
X57868776Y-63247375D01*
X57917602Y-63208883D01*
X57979728Y-63206442D01*
X58035108Y-63246347D01*
X58037724Y-63251795D01*
X58042826Y-63257314D01*
X58125579Y-63346835D01*
X58131014Y-63352715D01*
X58173333Y-63377296D01*
X58243354Y-63417968D01*
X58243357Y-63417969D01*
X58249854Y-63421743D01*
X58383737Y-63452775D01*
X58391237Y-63452244D01*
X58391238Y-63452244D01*
X58432919Y-63449293D01*
X58520826Y-63443069D01*
X58527840Y-63440355D01*
X58527842Y-63440355D01*
X58641986Y-63396195D01*
X58649001Y-63393481D01*
X58669532Y-63377296D01*
X58751023Y-63313054D01*
X58756929Y-63308398D01*
X58761205Y-63302211D01*
X58766352Y-63296730D01*
X58768673Y-63298909D01*
X58807131Y-63269564D01*
X58869288Y-63268104D01*
X58911590Y-63293349D01*
X58940236Y-63321995D01*
X58969701Y-63393130D01*
X58969700Y-64709733D01*
X58969700Y-66022213D01*
X58969495Y-66025005D01*
X58968029Y-66029275D01*
X58968377Y-66038554D01*
X58968377Y-66038557D01*
X58969629Y-66071892D01*
X58969700Y-66075666D01*
X58969700Y-66101449D01*
X58970548Y-66106004D01*
X58970905Y-66109867D01*
X58971260Y-66115340D01*
X58972292Y-66142822D01*
X58975958Y-66151354D01*
X58975958Y-66151355D01*
X58976898Y-66153542D01*
X58983369Y-66174841D01*
X58983804Y-66177179D01*
X58983805Y-66177182D01*
X58985505Y-66186310D01*
X58990379Y-66194217D01*
X58990380Y-66194220D01*
X58999687Y-66209320D01*
X59006478Y-66222392D01*
X59017146Y-66247222D01*
X59023065Y-66254427D01*
X59026280Y-66257642D01*
X59039090Y-66273848D01*
X59040254Y-66275132D01*
X59045128Y-66283039D01*
X59052521Y-66288661D01*
X59067039Y-66299701D01*
X59077280Y-66308643D01*
X59423802Y-66655165D01*
X59452028Y-66710563D01*
X59442302Y-66771971D01*
X59398338Y-66815935D01*
X59352667Y-66826900D01*
X57634701Y-66826900D01*
X57575570Y-66807687D01*
X57544015Y-66769847D01*
X57535534Y-66752186D01*
X57535531Y-66752182D01*
X57532277Y-66745405D01*
X57485673Y-66694989D01*
X57444092Y-66650007D01*
X57444090Y-66650005D01*
X57438987Y-66644485D01*
X57368803Y-66603719D01*
X57326646Y-66579232D01*
X57326643Y-66579231D01*
X57320146Y-66575457D01*
X57225847Y-66553600D01*
X57193589Y-66546123D01*
X57186263Y-66544425D01*
X57178763Y-66544956D01*
X57178762Y-66544956D01*
X57162280Y-66546123D01*
X57049174Y-66554131D01*
X57042160Y-66556845D01*
X57042158Y-66556845D01*
X56977828Y-66581733D01*
X56920999Y-66603719D01*
X56915094Y-66608374D01*
X56850099Y-66659612D01*
X56813071Y-66688802D01*
X56785597Y-66728554D01*
X56747624Y-66783497D01*
X56698199Y-66821217D01*
X56664866Y-66826900D01*
X56608076Y-66826900D01*
X56536941Y-66797435D01*
X56532725Y-66793219D01*
X56527220Y-66784980D01*
X56459675Y-66739848D01*
X56449959Y-66737915D01*
X56449958Y-66737915D01*
X56384852Y-66724965D01*
X56384851Y-66724965D01*
X56380000Y-66724000D01*
X55980000Y-66724000D01*
X55975149Y-66724965D01*
X55975148Y-66724965D01*
X55900325Y-66739848D01*
X55899240Y-66734391D01*
X55860760Y-66734391D01*
X55859675Y-66739848D01*
X55784852Y-66724965D01*
X55784851Y-66724965D01*
X55780000Y-66724000D01*
X55380000Y-66724000D01*
X55375149Y-66724965D01*
X55375148Y-66724965D01*
X55310042Y-66737915D01*
X55310041Y-66737915D01*
X55300325Y-66739848D01*
X55232780Y-66784980D01*
X55227275Y-66793219D01*
X55223059Y-66797435D01*
X55151924Y-66826900D01*
X53746825Y-66826900D01*
X53687694Y-66807687D01*
X53663179Y-66782190D01*
X53660526Y-66778219D01*
X53660523Y-66778216D01*
X53655020Y-66769980D01*
X53587475Y-66724848D01*
X53577759Y-66722915D01*
X53577758Y-66722915D01*
X53512652Y-66709965D01*
X53512651Y-66709965D01*
X53507800Y-66709000D01*
X53057800Y-66709000D01*
X53052949Y-66709965D01*
X53052948Y-66709965D01*
X53049942Y-66710563D01*
X52978125Y-66724848D01*
X52969884Y-66730354D01*
X52967408Y-66731380D01*
X52905426Y-66736259D01*
X52873019Y-66722084D01*
X52815153Y-66683419D01*
X52797198Y-66675982D01*
X52712652Y-66659165D01*
X52702853Y-66658200D01*
X52625733Y-66658200D01*
X52621387Y-66659612D01*
X52609800Y-66682352D01*
X52609799Y-67005198D01*
X52609800Y-67005204D01*
X52609799Y-67590267D01*
X52613987Y-67603157D01*
X52618176Y-67606200D01*
X52702853Y-67606200D01*
X52712652Y-67605235D01*
X52797198Y-67588418D01*
X52815153Y-67580981D01*
X52873019Y-67542316D01*
X52932859Y-67525440D01*
X52967408Y-67533020D01*
X52969884Y-67534046D01*
X52978125Y-67539552D01*
X53023317Y-67548541D01*
X53052948Y-67554435D01*
X53052949Y-67554435D01*
X53057800Y-67555400D01*
X53507800Y-67555400D01*
X53512651Y-67554435D01*
X53512652Y-67554435D01*
X53577758Y-67541485D01*
X53577759Y-67541485D01*
X53587475Y-67539552D01*
X53655020Y-67494420D01*
X53660523Y-67486184D01*
X53660526Y-67486181D01*
X53663179Y-67482210D01*
X53712005Y-67443718D01*
X53746825Y-67437500D01*
X55151924Y-67437500D01*
X55223059Y-67466965D01*
X55227275Y-67471181D01*
X55232780Y-67479420D01*
X55300325Y-67524552D01*
X55310041Y-67526485D01*
X55310042Y-67526485D01*
X55375148Y-67539435D01*
X55375149Y-67539435D01*
X55380000Y-67540400D01*
X55780000Y-67540400D01*
X55784851Y-67539435D01*
X55784852Y-67539435D01*
X55859675Y-67524552D01*
X55860760Y-67530009D01*
X55899240Y-67530009D01*
X55900325Y-67524552D01*
X55975148Y-67539435D01*
X55975149Y-67539435D01*
X55980000Y-67540400D01*
X56380000Y-67540400D01*
X56384851Y-67539435D01*
X56384852Y-67539435D01*
X56449958Y-67526485D01*
X56449959Y-67526485D01*
X56459675Y-67524552D01*
X56527220Y-67479420D01*
X56532725Y-67471181D01*
X56536941Y-67466965D01*
X56608076Y-67437500D01*
X56665300Y-67437500D01*
X56724431Y-67456713D01*
X56755985Y-67494551D01*
X56763871Y-67510971D01*
X56767724Y-67518995D01*
X56783301Y-67535846D01*
X56847444Y-67605235D01*
X56861014Y-67619915D01*
X56911661Y-67649333D01*
X56973354Y-67685168D01*
X56973357Y-67685169D01*
X56979854Y-67688943D01*
X57113737Y-67719975D01*
X57121237Y-67719444D01*
X57121238Y-67719444D01*
X57162919Y-67716493D01*
X57250826Y-67710269D01*
X57257840Y-67707555D01*
X57257842Y-67707555D01*
X57371986Y-67663395D01*
X57379001Y-67660681D01*
X57421857Y-67626896D01*
X57481023Y-67580254D01*
X57486929Y-67575598D01*
X57507233Y-67546221D01*
X57552377Y-67480903D01*
X57601803Y-67443183D01*
X57635135Y-67437500D01*
X61737164Y-67437500D01*
X61808299Y-67466965D01*
X61985829Y-67644496D01*
X62513780Y-68172448D01*
X62515607Y-68174565D01*
X62517590Y-68178621D01*
X62524398Y-68184937D01*
X62524400Y-68184939D01*
X62548850Y-68207619D01*
X62551569Y-68210237D01*
X62569807Y-68228475D01*
X62573634Y-68231100D01*
X62576599Y-68233564D01*
X62580725Y-68237188D01*
X62594082Y-68249579D01*
X62594085Y-68249581D01*
X62600894Y-68255897D01*
X62611740Y-68260224D01*
X62631365Y-68270703D01*
X62633329Y-68272050D01*
X62633331Y-68272051D01*
X62640989Y-68277304D01*
X62650023Y-68279448D01*
X62650028Y-68279450D01*
X62667283Y-68283545D01*
X62681332Y-68287988D01*
X62699835Y-68295370D01*
X62699837Y-68295371D01*
X62706433Y-68298002D01*
X62715713Y-68298912D01*
X62720264Y-68298912D01*
X62740765Y-68301312D01*
X62742509Y-68301397D01*
X62751546Y-68303542D01*
X62778814Y-68299831D01*
X62792379Y-68298912D01*
X65668997Y-68298912D01*
X65671789Y-68299117D01*
X65676059Y-68300583D01*
X65685338Y-68300235D01*
X65685341Y-68300235D01*
X65718676Y-68298983D01*
X65722450Y-68298912D01*
X65748234Y-68298912D01*
X65752788Y-68298064D01*
X65756653Y-68297707D01*
X65762126Y-68297352D01*
X65780325Y-68296669D01*
X65780328Y-68296668D01*
X65789606Y-68296320D01*
X65798137Y-68292655D01*
X65798141Y-68292654D01*
X65800338Y-68291710D01*
X65821620Y-68285245D01*
X65823962Y-68284809D01*
X65823967Y-68284807D01*
X65833095Y-68283107D01*
X65856108Y-68268922D01*
X65869172Y-68262136D01*
X65894006Y-68251466D01*
X65901211Y-68245547D01*
X65904426Y-68242332D01*
X65920630Y-68229523D01*
X65921913Y-68228359D01*
X65929823Y-68223484D01*
X65935444Y-68216092D01*
X65935446Y-68216090D01*
X65946482Y-68201576D01*
X65955425Y-68191333D01*
X66218833Y-67927927D01*
X66220954Y-67926096D01*
X66225009Y-67924114D01*
X66254021Y-67892839D01*
X66256639Y-67890121D01*
X66274862Y-67871898D01*
X66277487Y-67868072D01*
X66279953Y-67865104D01*
X66283573Y-67860982D01*
X66295969Y-67847619D01*
X66295969Y-67847618D01*
X66302285Y-67840810D01*
X66306612Y-67829965D01*
X66317092Y-67810338D01*
X66318439Y-67808374D01*
X66318440Y-67808373D01*
X66323692Y-67800716D01*
X66325836Y-67791683D01*
X66325837Y-67791680D01*
X66329934Y-67774418D01*
X66334376Y-67760371D01*
X66339739Y-67746929D01*
X66344390Y-67735271D01*
X66345300Y-67725991D01*
X66345300Y-67721440D01*
X66347700Y-67700931D01*
X66347785Y-67699194D01*
X66349929Y-67690159D01*
X66346219Y-67662898D01*
X66345300Y-67649333D01*
X66345300Y-67583479D01*
X66364513Y-67524348D01*
X66426275Y-67484812D01*
X66434958Y-67483085D01*
X66434959Y-67483085D01*
X66444675Y-67481152D01*
X66512220Y-67436020D01*
X66557352Y-67368475D01*
X66557763Y-67366408D01*
X66594942Y-67322875D01*
X66655398Y-67308360D01*
X66712840Y-67332152D01*
X66740449Y-67370151D01*
X66751220Y-67396154D01*
X66796354Y-67463702D01*
X66810098Y-67477446D01*
X66877647Y-67522581D01*
X66895602Y-67530018D01*
X66980148Y-67546835D01*
X66989947Y-67547800D01*
X67167067Y-67547800D01*
X67171413Y-67546388D01*
X67178812Y-67531867D01*
X67436999Y-67531867D01*
X67441187Y-67544757D01*
X67445376Y-67547800D01*
X67630053Y-67547800D01*
X67639852Y-67546835D01*
X67724398Y-67530018D01*
X67742353Y-67522581D01*
X67809902Y-67477446D01*
X67823646Y-67463702D01*
X67868781Y-67396153D01*
X67876218Y-67378198D01*
X67893035Y-67293652D01*
X67894000Y-67283853D01*
X67894000Y-66581733D01*
X67892588Y-66577387D01*
X67869848Y-66565800D01*
X67452933Y-66565799D01*
X67440043Y-66569987D01*
X67437000Y-66574176D01*
X67436999Y-67531867D01*
X67178812Y-67531867D01*
X67183000Y-67523648D01*
X67183001Y-66565800D01*
X67183000Y-66565796D01*
X67183000Y-66295867D01*
X67436999Y-66295867D01*
X67438411Y-66300213D01*
X67461151Y-66311800D01*
X67878067Y-66311801D01*
X67890957Y-66307613D01*
X67894000Y-66303424D01*
X67894000Y-65593747D01*
X67893035Y-65583948D01*
X67876218Y-65499402D01*
X67868781Y-65481447D01*
X67823646Y-65413898D01*
X67809902Y-65400154D01*
X67742353Y-65355019D01*
X67724398Y-65347582D01*
X67639852Y-65330765D01*
X67630053Y-65329800D01*
X67452933Y-65329800D01*
X67448587Y-65331212D01*
X67437000Y-65353952D01*
X67436999Y-66295867D01*
X67183000Y-66295867D01*
X67183001Y-65345733D01*
X67178813Y-65332843D01*
X67174624Y-65329800D01*
X66989947Y-65329800D01*
X66980148Y-65330765D01*
X66895602Y-65347582D01*
X66877647Y-65355019D01*
X66810098Y-65400154D01*
X66796354Y-65413898D01*
X66751220Y-65481446D01*
X66740449Y-65507449D01*
X66700070Y-65554726D01*
X66639613Y-65569240D01*
X66582172Y-65545446D01*
X66557943Y-65512097D01*
X66557352Y-65509125D01*
X66512220Y-65441580D01*
X66444675Y-65396448D01*
X66434959Y-65394515D01*
X66434958Y-65394515D01*
X66369852Y-65381565D01*
X66369851Y-65381565D01*
X66365000Y-65380600D01*
X65715000Y-65380600D01*
X65710149Y-65381565D01*
X65710148Y-65381565D01*
X65645042Y-65394515D01*
X65645041Y-65394515D01*
X65635325Y-65396448D01*
X65567780Y-65441580D01*
X65522648Y-65509125D01*
X65520715Y-65518841D01*
X65520715Y-65518842D01*
X65513434Y-65555446D01*
X65506800Y-65588800D01*
X65506800Y-67288800D01*
X65522648Y-67368475D01*
X65567780Y-67436020D01*
X65633372Y-67479847D01*
X65671862Y-67528673D01*
X65674303Y-67590799D01*
X65648615Y-67634627D01*
X65624395Y-67658847D01*
X65553260Y-67688312D01*
X65154619Y-67688312D01*
X65095488Y-67669099D01*
X65058943Y-67618799D01*
X65058943Y-67556625D01*
X65095488Y-67506325D01*
X65134993Y-67489045D01*
X65164959Y-67483085D01*
X65164961Y-67483084D01*
X65174675Y-67481152D01*
X65242220Y-67436020D01*
X65287352Y-67368475D01*
X65303200Y-67288800D01*
X65303200Y-65588800D01*
X65296566Y-65555446D01*
X65289285Y-65518842D01*
X65289285Y-65518841D01*
X65287352Y-65509125D01*
X65242220Y-65441580D01*
X65174675Y-65396448D01*
X65164959Y-65394515D01*
X65164958Y-65394515D01*
X65099852Y-65381565D01*
X65099851Y-65381565D01*
X65095000Y-65380600D01*
X64445000Y-65380600D01*
X64440149Y-65381565D01*
X64440148Y-65381565D01*
X64375042Y-65394515D01*
X64375041Y-65394515D01*
X64365325Y-65396448D01*
X64297780Y-65441580D01*
X64252648Y-65509125D01*
X64250715Y-65518841D01*
X64250715Y-65518842D01*
X64243434Y-65555446D01*
X64236800Y-65588800D01*
X64236800Y-67184501D01*
X64217587Y-67243632D01*
X64136200Y-67285101D01*
X64133800Y-67285101D01*
X64074669Y-67265888D01*
X64033200Y-67184501D01*
X64033200Y-65588800D01*
X64026566Y-65555446D01*
X64019285Y-65518842D01*
X64019285Y-65518841D01*
X64017352Y-65509125D01*
X63972220Y-65441580D01*
X63904675Y-65396448D01*
X63894959Y-65394515D01*
X63894958Y-65394515D01*
X63886275Y-65392788D01*
X63832028Y-65362409D01*
X63805300Y-65294121D01*
X63805300Y-64379328D01*
X63834765Y-64308193D01*
X66845433Y-61297526D01*
X66847554Y-61295695D01*
X66851609Y-61293713D01*
X66880625Y-61262434D01*
X66883243Y-61259716D01*
X66901463Y-61241496D01*
X66904080Y-61237682D01*
X66906562Y-61234695D01*
X66910180Y-61230574D01*
X66922570Y-61217218D01*
X66922571Y-61217217D01*
X66928886Y-61210409D01*
X66933211Y-61199567D01*
X66943693Y-61179937D01*
X66945039Y-61177976D01*
X66945042Y-61177969D01*
X66950293Y-61170315D01*
X66952436Y-61161283D01*
X66952439Y-61161277D01*
X66956535Y-61144017D01*
X66960977Y-61129970D01*
X66970991Y-61104870D01*
X66971901Y-61095590D01*
X66971901Y-61091039D01*
X66974301Y-61070530D01*
X66974386Y-61068793D01*
X66976530Y-61059758D01*
X66972820Y-61032497D01*
X66971901Y-61018932D01*
X66971901Y-60297600D01*
X66991114Y-60238469D01*
X67072501Y-60197000D01*
X67635000Y-60197000D01*
X67639851Y-60196035D01*
X67639852Y-60196035D01*
X67704958Y-60183085D01*
X67704959Y-60183085D01*
X67714675Y-60181152D01*
X67782220Y-60136020D01*
X67827352Y-60068475D01*
X67843200Y-59988800D01*
X67843200Y-58288800D01*
X67840866Y-58277067D01*
X67829285Y-58218842D01*
X67829285Y-58218841D01*
X67827352Y-58209125D01*
X67782220Y-58141580D01*
X67714675Y-58096448D01*
X67704959Y-58094515D01*
X67704958Y-58094515D01*
X67696275Y-58092788D01*
X67642028Y-58062409D01*
X67615300Y-57994121D01*
X67615300Y-57419565D01*
X67615505Y-57416773D01*
X67616971Y-57412503D01*
X67615371Y-57369876D01*
X67615300Y-57366104D01*
X67615300Y-57340328D01*
X67614453Y-57335779D01*
X67614096Y-57331912D01*
X67613741Y-57326442D01*
X67613058Y-57308239D01*
X67613057Y-57308236D01*
X67612709Y-57298956D01*
X67608100Y-57288230D01*
X67601631Y-57266935D01*
X67601195Y-57264595D01*
X67599495Y-57255467D01*
X67585314Y-57232460D01*
X67578524Y-57219388D01*
X67570658Y-57201081D01*
X67570656Y-57201078D01*
X67567854Y-57194556D01*
X67561936Y-57187350D01*
X67558717Y-57184131D01*
X67545913Y-57167933D01*
X67544745Y-57166645D01*
X67539872Y-57158739D01*
X67517967Y-57142082D01*
X67507725Y-57133139D01*
X67469221Y-57094635D01*
X66639386Y-56264801D01*
X66611161Y-56209405D01*
X66620887Y-56147997D01*
X66664850Y-56104033D01*
X66741604Y-56097990D01*
X66747715Y-56099975D01*
X66757282Y-56102079D01*
X66836979Y-56111582D01*
X66850274Y-56108950D01*
X66851738Y-56107368D01*
X66852800Y-56102540D01*
X66852800Y-55218352D01*
X67106800Y-55218352D01*
X67106800Y-56098556D01*
X67110988Y-56111446D01*
X67113644Y-56113376D01*
X67116635Y-56113732D01*
X67158781Y-56110489D01*
X67168436Y-56108787D01*
X67358018Y-56055855D01*
X67367154Y-56052311D01*
X67542847Y-55963563D01*
X67551118Y-55958314D01*
X67706229Y-55837127D01*
X67713323Y-55830372D01*
X67841941Y-55681366D01*
X67847586Y-55673364D01*
X67944815Y-55502212D01*
X67948798Y-55493265D01*
X68010929Y-55306492D01*
X68013100Y-55296936D01*
X68024082Y-55210006D01*
X68021543Y-55196694D01*
X68020110Y-55195348D01*
X68014972Y-55194200D01*
X67122733Y-55194200D01*
X67118387Y-55195612D01*
X67106800Y-55218352D01*
X66852800Y-55218352D01*
X66852800Y-54036390D01*
X66851170Y-54031371D01*
X67106800Y-54031371D01*
X67106800Y-54924267D01*
X67108212Y-54928613D01*
X67130952Y-54940200D01*
X68010415Y-54940200D01*
X68023305Y-54936012D01*
X68024904Y-54933811D01*
X68025334Y-54929856D01*
X68019112Y-54866405D01*
X68017209Y-54856791D01*
X67960318Y-54668361D01*
X67956583Y-54659300D01*
X67864171Y-54485497D01*
X67858755Y-54477346D01*
X67734346Y-54324807D01*
X67727445Y-54317857D01*
X67575773Y-54192382D01*
X67567661Y-54186911D01*
X67394502Y-54093284D01*
X67385482Y-54089493D01*
X67197443Y-54031285D01*
X67187849Y-54029316D01*
X67122647Y-54022463D01*
X67109388Y-54025281D01*
X67107695Y-54027161D01*
X67106800Y-54031371D01*
X66851170Y-54031371D01*
X66848612Y-54023500D01*
X66846259Y-54021791D01*
X66842623Y-54021383D01*
X66786264Y-54026512D01*
X66776642Y-54028347D01*
X66587811Y-54083923D01*
X66578734Y-54087590D01*
X66404289Y-54178789D01*
X66396099Y-54184148D01*
X66242690Y-54307491D01*
X66235693Y-54314343D01*
X66167364Y-54395775D01*
X66114637Y-54428723D01*
X66052615Y-54424386D01*
X66004986Y-54384421D01*
X65989700Y-54331111D01*
X65989700Y-53990728D01*
X66019165Y-53919593D01*
X66468947Y-53469812D01*
X66524345Y-53441586D01*
X66575475Y-53446779D01*
X66722260Y-53501951D01*
X66923521Y-53533828D01*
X66928612Y-53533597D01*
X66928615Y-53533597D01*
X67019024Y-53529491D01*
X67127081Y-53524584D01*
X67324625Y-53474598D01*
X67485287Y-53396931D01*
X67503491Y-53388131D01*
X67503492Y-53388130D01*
X67508083Y-53385911D01*
X67512134Y-53382814D01*
X67665915Y-53265239D01*
X67665917Y-53265237D01*
X67669960Y-53262146D01*
X67680179Y-53250391D01*
X67745282Y-53175498D01*
X67803645Y-53108359D01*
X67903677Y-52930832D01*
X67925289Y-52863520D01*
X67964410Y-52741670D01*
X67964410Y-52741669D01*
X67965968Y-52736817D01*
X67987975Y-52534239D01*
X67988000Y-52527200D01*
X67967408Y-52324473D01*
X67955605Y-52286808D01*
X67930873Y-52207891D01*
X67906472Y-52130028D01*
X67807683Y-51951807D01*
X67739789Y-51872594D01*
X67678388Y-51800956D01*
X67678386Y-51800954D01*
X67675074Y-51797090D01*
X67514065Y-51672198D01*
X67509493Y-51669948D01*
X67509491Y-51669947D01*
X67382675Y-51607546D01*
X67331230Y-51582232D01*
X67326305Y-51580949D01*
X67326302Y-51580948D01*
X67216837Y-51552435D01*
X67134040Y-51530868D01*
X67128956Y-51530602D01*
X67128952Y-51530601D01*
X67015866Y-51524675D01*
X66930550Y-51520204D01*
X66729071Y-51550674D01*
X66574498Y-51607546D01*
X66512371Y-51609933D01*
X66468627Y-51584269D01*
X66044565Y-51160207D01*
X66015100Y-51089072D01*
X66015100Y-51085221D01*
X66034313Y-51026090D01*
X66084613Y-50989545D01*
X66135325Y-50986554D01*
X66174946Y-50994435D01*
X66174951Y-50994435D01*
X66179800Y-50995400D01*
X67779800Y-50995400D01*
X67784651Y-50994435D01*
X67784652Y-50994435D01*
X67849758Y-50981485D01*
X67849759Y-50981485D01*
X67859475Y-50979552D01*
X67927020Y-50934420D01*
X67972152Y-50866875D01*
X67988000Y-50787200D01*
X67988000Y-49187200D01*
X67987035Y-49182348D01*
X67974085Y-49117242D01*
X67974085Y-49117241D01*
X67972152Y-49107525D01*
X67927020Y-49039980D01*
X67859475Y-48994848D01*
X67849759Y-48992915D01*
X67849758Y-48992915D01*
X67784652Y-48979965D01*
X67784651Y-48979965D01*
X67779800Y-48979000D01*
X66781327Y-48979000D01*
X66710192Y-48949535D01*
X66642089Y-48881432D01*
X66613485Y-48797166D01*
X66626733Y-48696536D01*
X66627594Y-48689996D01*
X66622940Y-48654645D01*
X66607714Y-48538991D01*
X66607714Y-48538989D01*
X66606853Y-48532453D01*
X66551616Y-48399098D01*
X66546738Y-48337115D01*
X66579224Y-48284103D01*
X66644558Y-48260000D01*
X68479400Y-48260000D01*
X68538531Y-48279213D01*
X68580000Y-48360600D01*
X68580000Y-68479400D01*
X68560787Y-68538531D01*
X68479400Y-68580000D01*
X48360600Y-68580000D01*
X48301469Y-68560787D01*
X48260000Y-68479400D01*
X48260000Y-67283352D01*
X50038000Y-67283352D01*
X50038000Y-67290531D01*
X50038508Y-67297659D01*
X50052604Y-67396089D01*
X50056586Y-67409706D01*
X50110857Y-67529065D01*
X50118502Y-67541019D01*
X50204089Y-67640349D01*
X50214780Y-67649675D01*
X50324807Y-67720991D01*
X50337689Y-67726944D01*
X50403734Y-67746696D01*
X50415732Y-67746413D01*
X50419000Y-67735935D01*
X50419000Y-67283352D01*
X50673000Y-67283352D01*
X50673000Y-67735122D01*
X50676774Y-67746739D01*
X50687435Y-67746929D01*
X50748584Y-67729453D01*
X50761535Y-67723660D01*
X50872423Y-67653694D01*
X50883231Y-67644496D01*
X50970025Y-67546221D01*
X50977815Y-67534362D01*
X51033539Y-67415671D01*
X51037686Y-67402107D01*
X51053402Y-67301176D01*
X51054000Y-67293447D01*
X51054000Y-67275133D01*
X51052588Y-67270787D01*
X51046287Y-67267576D01*
X51998800Y-67267576D01*
X51998800Y-67342253D01*
X51999765Y-67352052D01*
X52016582Y-67436598D01*
X52024019Y-67454553D01*
X52069154Y-67522102D01*
X52082898Y-67535846D01*
X52150447Y-67580981D01*
X52168402Y-67588418D01*
X52252948Y-67605235D01*
X52262747Y-67606200D01*
X52339867Y-67606200D01*
X52344213Y-67604788D01*
X52355800Y-67582048D01*
X52355801Y-67275132D01*
X52351613Y-67262243D01*
X52347424Y-67259200D01*
X52014732Y-67259199D01*
X52001843Y-67263387D01*
X51998800Y-67267576D01*
X51046287Y-67267576D01*
X51029848Y-67259200D01*
X50688933Y-67259200D01*
X50684587Y-67260612D01*
X50673000Y-67283352D01*
X50419000Y-67283352D01*
X50419000Y-67275133D01*
X50417588Y-67270787D01*
X50394848Y-67259200D01*
X50053933Y-67259200D01*
X50049587Y-67260612D01*
X50038000Y-67283352D01*
X48260000Y-67283352D01*
X48260000Y-66970953D01*
X50038000Y-66970953D01*
X50038000Y-66989267D01*
X50039412Y-66993613D01*
X50062152Y-67005200D01*
X50403067Y-67005200D01*
X50407413Y-67003788D01*
X50419000Y-66981048D01*
X50419000Y-66529278D01*
X50418736Y-66528465D01*
X50673000Y-66528465D01*
X50673000Y-66989267D01*
X50674412Y-66993613D01*
X50697152Y-67005200D01*
X51038067Y-67005200D01*
X51042413Y-67003788D01*
X51054000Y-66981048D01*
X51054000Y-66973870D01*
X51053492Y-66966741D01*
X51047106Y-66922147D01*
X51998800Y-66922147D01*
X51998800Y-66989267D01*
X52000212Y-66993613D01*
X52022952Y-67005200D01*
X52339868Y-67005201D01*
X52344213Y-67003789D01*
X52355800Y-66981049D01*
X52355801Y-66674132D01*
X52351613Y-66661243D01*
X52347424Y-66658200D01*
X52262747Y-66658200D01*
X52252948Y-66659165D01*
X52168402Y-66675982D01*
X52150447Y-66683419D01*
X52082898Y-66728554D01*
X52069154Y-66742298D01*
X52024019Y-66809847D01*
X52016582Y-66827802D01*
X51999765Y-66912348D01*
X51998800Y-66922147D01*
X51047106Y-66922147D01*
X51039396Y-66868314D01*
X51035412Y-66854691D01*
X50981146Y-66735339D01*
X50973497Y-66723379D01*
X50887912Y-66624051D01*
X50877222Y-66614725D01*
X50767193Y-66543409D01*
X50754311Y-66537456D01*
X50688266Y-66517704D01*
X50676268Y-66517987D01*
X50673000Y-66528465D01*
X50418736Y-66528465D01*
X50415226Y-66517661D01*
X50404565Y-66517471D01*
X50343416Y-66534947D01*
X50330465Y-66540740D01*
X50219577Y-66610706D01*
X50208769Y-66619904D01*
X50121975Y-66718179D01*
X50114185Y-66730038D01*
X50058461Y-66848729D01*
X50054314Y-66862293D01*
X50038598Y-66963224D01*
X50038000Y-66970953D01*
X48260000Y-66970953D01*
X48260000Y-63016152D01*
X50038000Y-63016152D01*
X50038000Y-63023331D01*
X50038508Y-63030459D01*
X50052604Y-63128889D01*
X50056586Y-63142506D01*
X50110857Y-63261865D01*
X50118502Y-63273819D01*
X50204089Y-63373149D01*
X50214780Y-63382475D01*
X50324807Y-63453791D01*
X50337689Y-63459744D01*
X50403734Y-63479496D01*
X50415732Y-63479213D01*
X50419000Y-63468735D01*
X50419000Y-63016152D01*
X50673000Y-63016152D01*
X50673000Y-63467922D01*
X50676774Y-63479539D01*
X50687435Y-63479729D01*
X50748584Y-63462253D01*
X50761535Y-63456460D01*
X50872423Y-63386494D01*
X50883231Y-63377296D01*
X50970025Y-63279021D01*
X50977815Y-63267162D01*
X51033539Y-63148471D01*
X51037686Y-63134907D01*
X51053402Y-63033976D01*
X51054000Y-63026247D01*
X51054000Y-63007933D01*
X51052588Y-63003587D01*
X51046287Y-63000376D01*
X52027000Y-63000376D01*
X52027000Y-63160053D01*
X52027965Y-63169852D01*
X52044782Y-63254398D01*
X52052219Y-63272353D01*
X52097354Y-63339902D01*
X52111098Y-63353646D01*
X52178647Y-63398781D01*
X52196602Y-63406218D01*
X52281148Y-63423035D01*
X52290947Y-63424000D01*
X52443067Y-63424000D01*
X52447413Y-63422588D01*
X52459000Y-63399848D01*
X52459001Y-63007933D01*
X52454813Y-62995043D01*
X52450624Y-62992000D01*
X52042933Y-62991999D01*
X52030043Y-62996187D01*
X52027000Y-63000376D01*
X51046287Y-63000376D01*
X51029848Y-62992000D01*
X50688933Y-62992000D01*
X50684587Y-62993412D01*
X50673000Y-63016152D01*
X50419000Y-63016152D01*
X50419000Y-63007933D01*
X50417588Y-63003587D01*
X50394848Y-62992000D01*
X50053933Y-62992000D01*
X50049587Y-62993412D01*
X50038000Y-63016152D01*
X48260000Y-63016152D01*
X48260000Y-62703753D01*
X50038000Y-62703753D01*
X50038000Y-62722067D01*
X50039412Y-62726413D01*
X50062152Y-62738000D01*
X50403067Y-62738000D01*
X50407413Y-62736588D01*
X50419000Y-62713848D01*
X50419000Y-62262078D01*
X50418736Y-62261265D01*
X50673000Y-62261265D01*
X50673000Y-62722067D01*
X50674412Y-62726413D01*
X50697152Y-62738000D01*
X51038067Y-62738000D01*
X51042413Y-62736588D01*
X51054000Y-62713848D01*
X51054000Y-62706670D01*
X51053492Y-62699541D01*
X51039396Y-62601114D01*
X51035412Y-62587491D01*
X51027436Y-62569947D01*
X52027000Y-62569947D01*
X52027000Y-62722067D01*
X52028412Y-62726413D01*
X52051152Y-62738000D01*
X52443067Y-62738001D01*
X52455957Y-62733813D01*
X52459000Y-62729624D01*
X52459001Y-62321933D01*
X52454813Y-62309043D01*
X52450624Y-62306000D01*
X52290947Y-62306000D01*
X52281148Y-62306965D01*
X52196602Y-62323782D01*
X52178647Y-62331219D01*
X52111098Y-62376354D01*
X52097354Y-62390098D01*
X52052219Y-62457647D01*
X52044782Y-62475602D01*
X52027965Y-62560148D01*
X52027000Y-62569947D01*
X51027436Y-62569947D01*
X50981146Y-62468139D01*
X50973497Y-62456179D01*
X50887912Y-62356851D01*
X50877222Y-62347525D01*
X50767193Y-62276209D01*
X50754311Y-62270256D01*
X50688266Y-62250504D01*
X50676268Y-62250787D01*
X50673000Y-62261265D01*
X50418736Y-62261265D01*
X50415226Y-62250461D01*
X50404565Y-62250271D01*
X50343416Y-62267747D01*
X50330465Y-62273540D01*
X50219577Y-62343506D01*
X50208769Y-62352704D01*
X50121975Y-62450979D01*
X50114185Y-62462838D01*
X50058461Y-62581529D01*
X50054314Y-62595093D01*
X50038598Y-62696024D01*
X50038000Y-62703753D01*
X48260000Y-62703753D01*
X48260000Y-58571152D01*
X50038000Y-58571152D01*
X50038000Y-58578331D01*
X50038508Y-58585459D01*
X50052604Y-58683889D01*
X50056586Y-58697506D01*
X50110857Y-58816865D01*
X50118502Y-58828819D01*
X50204089Y-58928149D01*
X50214780Y-58937475D01*
X50324807Y-59008791D01*
X50337689Y-59014744D01*
X50403734Y-59034496D01*
X50415732Y-59034213D01*
X50419000Y-59023735D01*
X50419000Y-58571152D01*
X50673000Y-58571152D01*
X50673000Y-59022922D01*
X50676774Y-59034539D01*
X50687435Y-59034729D01*
X50748584Y-59017253D01*
X50761535Y-59011460D01*
X50872423Y-58941494D01*
X50883231Y-58932296D01*
X50970025Y-58834021D01*
X50977815Y-58822162D01*
X51033539Y-58703471D01*
X51037686Y-58689907D01*
X51053402Y-58588976D01*
X51054000Y-58581247D01*
X51054000Y-58562933D01*
X51052588Y-58558587D01*
X51046287Y-58555376D01*
X51969000Y-58555376D01*
X51969000Y-58865053D01*
X51969965Y-58874852D01*
X51986782Y-58959398D01*
X51994219Y-58977353D01*
X52039354Y-59044902D01*
X52053098Y-59058646D01*
X52120647Y-59103781D01*
X52138602Y-59111218D01*
X52223148Y-59128035D01*
X52232947Y-59129000D01*
X52435067Y-59129000D01*
X52439413Y-59127588D01*
X52446812Y-59113067D01*
X52704999Y-59113067D01*
X52709187Y-59125957D01*
X52713376Y-59129000D01*
X52923053Y-59129000D01*
X52932852Y-59128035D01*
X53017398Y-59111218D01*
X53035353Y-59103781D01*
X53102902Y-59058646D01*
X53116646Y-59044902D01*
X53161781Y-58977353D01*
X53169218Y-58959398D01*
X53186035Y-58874852D01*
X53187000Y-58865053D01*
X53187000Y-58562933D01*
X53185588Y-58558587D01*
X53162848Y-58547000D01*
X52720933Y-58546999D01*
X52708043Y-58551187D01*
X52705000Y-58555376D01*
X52704999Y-59113067D01*
X52446812Y-59113067D01*
X52451000Y-59104848D01*
X52451001Y-58562933D01*
X52449589Y-58558587D01*
X52426849Y-58547000D01*
X51984933Y-58546999D01*
X51972043Y-58551187D01*
X51969000Y-58555376D01*
X51046287Y-58555376D01*
X51029848Y-58547000D01*
X50688933Y-58547000D01*
X50684587Y-58548412D01*
X50673000Y-58571152D01*
X50419000Y-58571152D01*
X50419000Y-58562933D01*
X50417588Y-58558587D01*
X50394848Y-58547000D01*
X50053933Y-58547000D01*
X50049587Y-58548412D01*
X50038000Y-58571152D01*
X48260000Y-58571152D01*
X48260000Y-58258753D01*
X50038000Y-58258753D01*
X50038000Y-58277067D01*
X50039412Y-58281413D01*
X50062152Y-58293000D01*
X50403067Y-58293000D01*
X50407413Y-58291588D01*
X50419000Y-58268848D01*
X50419000Y-57817078D01*
X50418736Y-57816265D01*
X50673000Y-57816265D01*
X50673000Y-58277067D01*
X50674412Y-58281413D01*
X50697152Y-58293000D01*
X51038067Y-58293000D01*
X51042413Y-58291588D01*
X51054000Y-58268848D01*
X51054000Y-58261670D01*
X51053492Y-58254541D01*
X51039396Y-58156114D01*
X51035412Y-58142491D01*
X50981146Y-58023139D01*
X50973497Y-58011179D01*
X50942279Y-57974947D01*
X51969000Y-57974947D01*
X51969000Y-58277067D01*
X51970412Y-58281413D01*
X51993152Y-58293000D01*
X52435067Y-58293001D01*
X52447957Y-58288813D01*
X52451000Y-58284624D01*
X52451000Y-58277067D01*
X52704999Y-58277067D01*
X52706411Y-58281413D01*
X52729151Y-58293000D01*
X53171067Y-58293001D01*
X53183957Y-58288813D01*
X53187000Y-58284624D01*
X53187000Y-57974947D01*
X53186513Y-57970000D01*
X53924800Y-57970000D01*
X53924800Y-58870000D01*
X53925765Y-58874851D01*
X53925765Y-58874852D01*
X53937979Y-58936255D01*
X53940648Y-58949675D01*
X53985780Y-59017220D01*
X54053325Y-59062352D01*
X54063041Y-59064285D01*
X54063042Y-59064285D01*
X54128148Y-59077235D01*
X54128149Y-59077235D01*
X54133000Y-59078200D01*
X54833000Y-59078200D01*
X54837851Y-59077235D01*
X54837852Y-59077235D01*
X54902958Y-59064285D01*
X54902959Y-59064285D01*
X54912675Y-59062352D01*
X54980220Y-59017220D01*
X55025352Y-58949675D01*
X55028022Y-58936255D01*
X55040235Y-58874852D01*
X55040235Y-58874851D01*
X55041200Y-58870000D01*
X55041200Y-58825900D01*
X55060413Y-58766769D01*
X55141800Y-58725300D01*
X56087901Y-58725300D01*
X56147032Y-58744513D01*
X56187800Y-58815660D01*
X56187800Y-58818780D01*
X56188763Y-58823620D01*
X56188763Y-58823623D01*
X56201715Y-58888738D01*
X56203648Y-58898455D01*
X56248780Y-58966000D01*
X56316325Y-59011132D01*
X56326041Y-59013065D01*
X56326042Y-59013065D01*
X56391148Y-59026015D01*
X56391149Y-59026015D01*
X56396000Y-59026980D01*
X57396000Y-59026980D01*
X57400851Y-59026015D01*
X57400852Y-59026015D01*
X57465958Y-59013065D01*
X57465959Y-59013065D01*
X57475675Y-59011132D01*
X57543220Y-58966000D01*
X57588352Y-58898455D01*
X57590312Y-58888604D01*
X57603235Y-58823632D01*
X57603235Y-58823631D01*
X57604200Y-58818780D01*
X57604200Y-58021220D01*
X57602203Y-58011179D01*
X57590285Y-57951262D01*
X57590285Y-57951261D01*
X57588352Y-57941545D01*
X57543220Y-57874000D01*
X57475675Y-57828868D01*
X57465959Y-57826935D01*
X57465958Y-57826935D01*
X57400852Y-57813985D01*
X57400851Y-57813985D01*
X57396000Y-57813020D01*
X56396000Y-57813020D01*
X56391149Y-57813985D01*
X56391148Y-57813985D01*
X56326042Y-57826935D01*
X56326041Y-57826935D01*
X56316325Y-57828868D01*
X56248780Y-57874000D01*
X56203648Y-57941545D01*
X56201715Y-57951261D01*
X56201715Y-57951262D01*
X56190832Y-58005979D01*
X56187800Y-58021220D01*
X56187800Y-58024457D01*
X56163099Y-58080925D01*
X56087901Y-58114700D01*
X55141800Y-58114700D01*
X55082669Y-58095487D01*
X55041200Y-58014100D01*
X55041200Y-57970000D01*
X55040235Y-57965148D01*
X55027285Y-57900042D01*
X55027285Y-57900041D01*
X55025352Y-57890325D01*
X54980220Y-57822780D01*
X54912675Y-57777648D01*
X54902959Y-57775715D01*
X54902958Y-57775715D01*
X54837852Y-57762765D01*
X54837851Y-57762765D01*
X54833000Y-57761800D01*
X54133000Y-57761800D01*
X54128149Y-57762765D01*
X54128148Y-57762765D01*
X54063042Y-57775715D01*
X54063041Y-57775715D01*
X54053325Y-57777648D01*
X53985780Y-57822780D01*
X53940648Y-57890325D01*
X53938715Y-57900041D01*
X53938715Y-57900042D01*
X53925765Y-57965148D01*
X53924800Y-57970000D01*
X53186513Y-57970000D01*
X53186035Y-57965148D01*
X53169218Y-57880602D01*
X53161781Y-57862647D01*
X53116646Y-57795098D01*
X53102902Y-57781354D01*
X53035353Y-57736219D01*
X53017398Y-57728782D01*
X52932852Y-57711965D01*
X52923053Y-57711000D01*
X52720933Y-57711000D01*
X52716587Y-57712412D01*
X52705000Y-57735152D01*
X52704999Y-58277067D01*
X52451000Y-58277067D01*
X52451001Y-57726933D01*
X52446813Y-57714043D01*
X52442624Y-57711000D01*
X52232947Y-57711000D01*
X52223148Y-57711965D01*
X52138602Y-57728782D01*
X52120647Y-57736219D01*
X52053098Y-57781354D01*
X52039354Y-57795098D01*
X51994219Y-57862647D01*
X51986782Y-57880602D01*
X51969965Y-57965148D01*
X51969000Y-57974947D01*
X50942279Y-57974947D01*
X50887912Y-57911851D01*
X50877222Y-57902525D01*
X50767193Y-57831209D01*
X50754311Y-57825256D01*
X50688266Y-57805504D01*
X50676268Y-57805787D01*
X50673000Y-57816265D01*
X50418736Y-57816265D01*
X50415226Y-57805461D01*
X50404565Y-57805271D01*
X50343416Y-57822747D01*
X50330465Y-57828540D01*
X50219577Y-57898506D01*
X50208769Y-57907704D01*
X50121975Y-58005979D01*
X50114185Y-58017838D01*
X50058461Y-58136529D01*
X50054314Y-58150093D01*
X50038598Y-58251024D01*
X50038000Y-58258753D01*
X48260000Y-58258753D01*
X48260000Y-54126152D01*
X50038000Y-54126152D01*
X50038000Y-54133331D01*
X50038508Y-54140459D01*
X50052604Y-54238889D01*
X50056586Y-54252506D01*
X50110857Y-54371865D01*
X50118502Y-54383819D01*
X50204089Y-54483149D01*
X50214780Y-54492475D01*
X50324807Y-54563791D01*
X50337689Y-54569744D01*
X50403734Y-54589496D01*
X50415732Y-54589213D01*
X50419000Y-54578735D01*
X50419000Y-54126152D01*
X50673000Y-54126152D01*
X50673000Y-54577922D01*
X50676774Y-54589539D01*
X50687435Y-54589729D01*
X50748584Y-54572253D01*
X50761535Y-54566460D01*
X50872423Y-54496494D01*
X50883231Y-54487296D01*
X50970025Y-54389021D01*
X50977815Y-54377162D01*
X51033539Y-54258471D01*
X51037686Y-54244907D01*
X51053402Y-54143976D01*
X51054000Y-54136247D01*
X51054000Y-54135776D01*
X51996000Y-54135776D01*
X51996000Y-54645453D01*
X51996965Y-54655252D01*
X52013782Y-54739798D01*
X52021219Y-54757753D01*
X52066354Y-54825302D01*
X52080098Y-54839046D01*
X52147647Y-54884181D01*
X52165602Y-54891618D01*
X52250148Y-54908435D01*
X52259947Y-54909400D01*
X52562067Y-54909400D01*
X52566413Y-54907988D01*
X52573812Y-54893467D01*
X52831999Y-54893467D01*
X52836187Y-54906357D01*
X52840376Y-54909400D01*
X53150053Y-54909400D01*
X53159852Y-54908435D01*
X53244398Y-54891618D01*
X53262353Y-54884181D01*
X53329902Y-54839046D01*
X53343646Y-54825302D01*
X53388781Y-54757753D01*
X53396218Y-54739798D01*
X53413035Y-54655252D01*
X53414000Y-54645453D01*
X53414000Y-54143333D01*
X53412588Y-54138987D01*
X53389848Y-54127400D01*
X52847933Y-54127399D01*
X52835043Y-54131587D01*
X52832000Y-54135776D01*
X52831999Y-54893467D01*
X52573812Y-54893467D01*
X52578000Y-54885248D01*
X52578001Y-54143333D01*
X52576589Y-54138987D01*
X52553849Y-54127400D01*
X52011933Y-54127399D01*
X51999043Y-54131587D01*
X51996000Y-54135776D01*
X51054000Y-54135776D01*
X51054000Y-54117933D01*
X51052588Y-54113587D01*
X51029848Y-54102000D01*
X50688933Y-54102000D01*
X50684587Y-54103412D01*
X50673000Y-54126152D01*
X50419000Y-54126152D01*
X50419000Y-54117933D01*
X50417588Y-54113587D01*
X50394848Y-54102000D01*
X50053933Y-54102000D01*
X50049587Y-54103412D01*
X50038000Y-54126152D01*
X48260000Y-54126152D01*
X48260000Y-53813753D01*
X50038000Y-53813753D01*
X50038000Y-53832067D01*
X50039412Y-53836413D01*
X50062152Y-53848000D01*
X50403067Y-53848000D01*
X50407413Y-53846588D01*
X50419000Y-53823848D01*
X50419000Y-53372078D01*
X50418736Y-53371265D01*
X50673000Y-53371265D01*
X50673000Y-53832067D01*
X50674412Y-53836413D01*
X50697152Y-53848000D01*
X51038067Y-53848000D01*
X51042413Y-53846588D01*
X51054000Y-53823848D01*
X51054000Y-53816670D01*
X51053492Y-53809541D01*
X51039396Y-53711114D01*
X51035412Y-53697491D01*
X50981146Y-53578139D01*
X50973497Y-53566179D01*
X50887912Y-53466851D01*
X50877222Y-53457525D01*
X50767193Y-53386209D01*
X50754311Y-53380256D01*
X50688266Y-53360504D01*
X50676268Y-53360787D01*
X50673000Y-53371265D01*
X50418736Y-53371265D01*
X50415226Y-53360461D01*
X50404565Y-53360271D01*
X50343416Y-53377747D01*
X50330465Y-53383540D01*
X50219577Y-53453506D01*
X50208769Y-53462704D01*
X50121975Y-53560979D01*
X50114185Y-53572838D01*
X50058461Y-53691529D01*
X50054314Y-53705093D01*
X50038598Y-53806024D01*
X50038000Y-53813753D01*
X48260000Y-53813753D01*
X48260000Y-53355347D01*
X51996000Y-53355347D01*
X51996000Y-53857467D01*
X51997412Y-53861813D01*
X52020152Y-53873400D01*
X52562067Y-53873401D01*
X52574957Y-53869213D01*
X52578000Y-53865024D01*
X52578000Y-53857467D01*
X52831999Y-53857467D01*
X52833411Y-53861813D01*
X52856151Y-53873400D01*
X53398067Y-53873401D01*
X53410957Y-53869213D01*
X53414000Y-53865024D01*
X53414000Y-53355347D01*
X53413035Y-53345548D01*
X53396218Y-53261002D01*
X53388781Y-53243047D01*
X53343646Y-53175498D01*
X53329902Y-53161754D01*
X53262353Y-53116619D01*
X53244398Y-53109182D01*
X53159852Y-53092365D01*
X53150053Y-53091400D01*
X52847933Y-53091400D01*
X52843587Y-53092812D01*
X52832000Y-53115552D01*
X52831999Y-53857467D01*
X52578000Y-53857467D01*
X52578001Y-53107333D01*
X52573813Y-53094443D01*
X52569624Y-53091400D01*
X52259947Y-53091400D01*
X52250148Y-53092365D01*
X52165602Y-53109182D01*
X52147647Y-53116619D01*
X52080098Y-53161754D01*
X52066354Y-53175498D01*
X52021219Y-53243047D01*
X52013782Y-53261002D01*
X51996965Y-53345548D01*
X51996000Y-53355347D01*
X48260000Y-53355347D01*
X48260000Y-49858952D01*
X50038000Y-49858952D01*
X50038000Y-49866131D01*
X50038508Y-49873259D01*
X50052604Y-49971689D01*
X50056586Y-49985306D01*
X50110857Y-50104665D01*
X50118502Y-50116619D01*
X50204089Y-50215949D01*
X50214780Y-50225275D01*
X50324807Y-50296591D01*
X50337689Y-50302544D01*
X50403734Y-50322296D01*
X50415732Y-50322013D01*
X50419000Y-50311535D01*
X50419000Y-49858952D01*
X50673000Y-49858952D01*
X50673000Y-50310722D01*
X50676774Y-50322339D01*
X50687435Y-50322529D01*
X50748584Y-50305053D01*
X50761535Y-50299260D01*
X50872423Y-50229294D01*
X50883231Y-50220096D01*
X50970025Y-50121821D01*
X50977815Y-50109962D01*
X51033539Y-49991271D01*
X51037686Y-49977707D01*
X51053402Y-49876776D01*
X51054000Y-49869047D01*
X51054000Y-49850733D01*
X51052588Y-49846387D01*
X51046287Y-49843176D01*
X51997600Y-49843176D01*
X51997600Y-50552853D01*
X51998565Y-50562652D01*
X52015382Y-50647198D01*
X52022819Y-50665153D01*
X52067954Y-50732702D01*
X52081698Y-50746446D01*
X52149247Y-50791581D01*
X52167202Y-50799018D01*
X52251748Y-50815835D01*
X52261547Y-50816800D01*
X52663667Y-50816800D01*
X52668013Y-50815388D01*
X52675412Y-50800867D01*
X52933599Y-50800867D01*
X52937787Y-50813757D01*
X52941976Y-50816800D01*
X53351653Y-50816800D01*
X53361452Y-50815835D01*
X53445998Y-50799018D01*
X53463953Y-50791581D01*
X53531502Y-50746446D01*
X53545246Y-50732702D01*
X53590381Y-50665153D01*
X53597818Y-50647198D01*
X53614635Y-50562652D01*
X53615600Y-50552853D01*
X53615600Y-49850733D01*
X53614188Y-49846387D01*
X53591448Y-49834800D01*
X52949533Y-49834799D01*
X52936643Y-49838987D01*
X52933600Y-49843176D01*
X52933599Y-50800867D01*
X52675412Y-50800867D01*
X52679600Y-50792648D01*
X52679601Y-49850733D01*
X52678189Y-49846387D01*
X52655449Y-49834800D01*
X52013533Y-49834799D01*
X52000643Y-49838987D01*
X51997600Y-49843176D01*
X51046287Y-49843176D01*
X51029848Y-49834800D01*
X50688933Y-49834800D01*
X50684587Y-49836212D01*
X50673000Y-49858952D01*
X50419000Y-49858952D01*
X50419000Y-49850733D01*
X50417588Y-49846387D01*
X50394848Y-49834800D01*
X50053933Y-49834800D01*
X50049587Y-49836212D01*
X50038000Y-49858952D01*
X48260000Y-49858952D01*
X48260000Y-49546553D01*
X50038000Y-49546553D01*
X50038000Y-49564867D01*
X50039412Y-49569213D01*
X50062152Y-49580800D01*
X50403067Y-49580800D01*
X50407413Y-49579388D01*
X50419000Y-49556648D01*
X50419000Y-49104878D01*
X50418736Y-49104065D01*
X50673000Y-49104065D01*
X50673000Y-49564867D01*
X50674412Y-49569213D01*
X50697152Y-49580800D01*
X51038067Y-49580800D01*
X51042413Y-49579388D01*
X51054000Y-49556648D01*
X51054000Y-49549470D01*
X51053492Y-49542341D01*
X51039396Y-49443914D01*
X51035412Y-49430291D01*
X50981146Y-49310939D01*
X50973497Y-49298979D01*
X50887912Y-49199651D01*
X50877222Y-49190325D01*
X50767193Y-49119009D01*
X50754311Y-49113056D01*
X50688266Y-49093304D01*
X50676268Y-49093587D01*
X50673000Y-49104065D01*
X50418736Y-49104065D01*
X50415226Y-49093261D01*
X50404565Y-49093071D01*
X50343416Y-49110547D01*
X50330465Y-49116340D01*
X50219577Y-49186306D01*
X50208769Y-49195504D01*
X50121975Y-49293779D01*
X50114185Y-49305638D01*
X50058461Y-49424329D01*
X50054314Y-49437893D01*
X50038598Y-49538824D01*
X50038000Y-49546553D01*
X48260000Y-49546553D01*
X48260000Y-48862747D01*
X51997600Y-48862747D01*
X51997600Y-49564867D01*
X51999012Y-49569213D01*
X52021752Y-49580800D01*
X52663667Y-49580801D01*
X52676557Y-49576613D01*
X52679600Y-49572424D01*
X52679600Y-49564867D01*
X52933599Y-49564867D01*
X52935011Y-49569213D01*
X52957751Y-49580800D01*
X53599667Y-49580801D01*
X53612557Y-49576613D01*
X53615600Y-49572424D01*
X53615600Y-48862747D01*
X53615113Y-48857800D01*
X55477400Y-48857800D01*
X55477400Y-50557800D01*
X55493248Y-50637475D01*
X55538380Y-50705020D01*
X55605925Y-50750152D01*
X55615641Y-50752085D01*
X55615642Y-50752085D01*
X55680748Y-50765035D01*
X55680749Y-50765035D01*
X55685600Y-50766000D01*
X56785600Y-50766000D01*
X56790451Y-50765035D01*
X56790452Y-50765035D01*
X56855558Y-50752085D01*
X56855559Y-50752085D01*
X56865275Y-50750152D01*
X56901207Y-50726143D01*
X56961047Y-50709267D01*
X57024618Y-50744856D01*
X57029269Y-50740205D01*
X57036275Y-50747211D01*
X57041780Y-50755450D01*
X57109325Y-50800582D01*
X57119041Y-50802515D01*
X57119042Y-50802515D01*
X57184148Y-50815465D01*
X57184149Y-50815465D01*
X57189000Y-50816430D01*
X58889000Y-50816430D01*
X58893851Y-50815465D01*
X58893852Y-50815465D01*
X58958958Y-50802515D01*
X58958959Y-50802515D01*
X58968675Y-50800582D01*
X59036220Y-50755450D01*
X59081352Y-50687905D01*
X59097200Y-50608230D01*
X59097200Y-48807370D01*
X59081352Y-48727695D01*
X59036220Y-48660150D01*
X58968675Y-48615018D01*
X58958959Y-48613085D01*
X58958958Y-48613085D01*
X58893852Y-48600135D01*
X58893851Y-48600135D01*
X58889000Y-48599170D01*
X57189000Y-48599170D01*
X57184149Y-48600135D01*
X57184148Y-48600135D01*
X57119042Y-48613085D01*
X57119041Y-48613085D01*
X57109325Y-48615018D01*
X57041780Y-48660150D01*
X57036275Y-48668389D01*
X57029269Y-48675395D01*
X57026673Y-48672799D01*
X56991889Y-48700203D01*
X56901207Y-48689457D01*
X56891391Y-48682898D01*
X56865275Y-48665448D01*
X56855559Y-48663515D01*
X56855558Y-48663515D01*
X56790452Y-48650565D01*
X56790451Y-48650565D01*
X56785600Y-48649600D01*
X55685600Y-48649600D01*
X55680749Y-48650565D01*
X55680748Y-48650565D01*
X55615642Y-48663515D01*
X55615641Y-48663515D01*
X55605925Y-48665448D01*
X55538380Y-48710580D01*
X55493248Y-48778125D01*
X55491315Y-48787841D01*
X55491315Y-48787842D01*
X55488915Y-48799907D01*
X55477400Y-48857800D01*
X53615113Y-48857800D01*
X53614635Y-48852948D01*
X53597818Y-48768402D01*
X53590381Y-48750447D01*
X53545246Y-48682898D01*
X53531502Y-48669154D01*
X53463953Y-48624019D01*
X53445998Y-48616582D01*
X53361452Y-48599765D01*
X53351653Y-48598800D01*
X52949533Y-48598800D01*
X52945187Y-48600212D01*
X52933600Y-48622952D01*
X52933599Y-49564867D01*
X52679600Y-49564867D01*
X52679601Y-48614733D01*
X52675413Y-48601843D01*
X52671224Y-48598800D01*
X52261547Y-48598800D01*
X52251748Y-48599765D01*
X52167202Y-48616582D01*
X52149247Y-48624019D01*
X52081698Y-48669154D01*
X52067954Y-48682898D01*
X52022819Y-48750447D01*
X52015382Y-48768402D01*
X51998565Y-48852948D01*
X51997600Y-48862747D01*
X48260000Y-48862747D01*
X48260000Y-48360600D01*
X48279213Y-48301469D01*
X48360600Y-48260000D01*
X65393230Y-48260000D01*
X65452361Y-48279213D01*
G37*
G04 #@! TD.AperFunction*
G04 #@! TA.AperFunction,Conductor*
G36*
X63839182Y-54096313D02*
G01*
X63875727Y-54146613D01*
X63875727Y-54208787D01*
X63833062Y-54263199D01*
X63828989Y-54265724D01*
X63828983Y-54265729D01*
X63824652Y-54268414D01*
X63676598Y-54408421D01*
X63673676Y-54412594D01*
X63614929Y-54496494D01*
X63559720Y-54575340D01*
X63478793Y-54762351D01*
X63477751Y-54767340D01*
X63448709Y-54906357D01*
X63437123Y-54961814D01*
X63436412Y-55165583D01*
X63437420Y-55170581D01*
X63437420Y-55170583D01*
X63464824Y-55306492D01*
X63476688Y-55365333D01*
X63556308Y-55552904D01*
X63672017Y-55720634D01*
X63675695Y-55724161D01*
X63795514Y-55839063D01*
X63819090Y-55861672D01*
X63823394Y-55864382D01*
X63823396Y-55864384D01*
X63987207Y-55967542D01*
X63987210Y-55967544D01*
X63991519Y-55970257D01*
X63996288Y-55972050D01*
X63996289Y-55972050D01*
X64147533Y-56028898D01*
X64182260Y-56041951D01*
X64383521Y-56073828D01*
X64388612Y-56073597D01*
X64388615Y-56073597D01*
X64479024Y-56069491D01*
X64587081Y-56064584D01*
X64784625Y-56014598D01*
X64789211Y-56012381D01*
X64789214Y-56012380D01*
X64835408Y-55990049D01*
X64897007Y-55981611D01*
X64950327Y-56009486D01*
X66331837Y-57390996D01*
X66361302Y-57462131D01*
X66361302Y-57711072D01*
X66342089Y-57770203D01*
X66291789Y-57806748D01*
X66229615Y-57806748D01*
X66189567Y-57782207D01*
X65657928Y-57250570D01*
X65656097Y-57248449D01*
X65654114Y-57244391D01*
X65622827Y-57215368D01*
X65620109Y-57212751D01*
X65601896Y-57194538D01*
X65598071Y-57191914D01*
X65595127Y-57189468D01*
X65591001Y-57185845D01*
X65577620Y-57173432D01*
X65577619Y-57173431D01*
X65570810Y-57167115D01*
X65559966Y-57162789D01*
X65540333Y-57152306D01*
X65538372Y-57150961D01*
X65538373Y-57150961D01*
X65530715Y-57145708D01*
X65515437Y-57142082D01*
X65504427Y-57139469D01*
X65490383Y-57135027D01*
X65471868Y-57127641D01*
X65471863Y-57127640D01*
X65465271Y-57125010D01*
X65455991Y-57124100D01*
X65451439Y-57124100D01*
X65430930Y-57121700D01*
X65429193Y-57121615D01*
X65420158Y-57119471D01*
X65392898Y-57123181D01*
X65379332Y-57124100D01*
X63388730Y-57124100D01*
X63317595Y-57094635D01*
X62278814Y-56055855D01*
X61929765Y-55706807D01*
X61900300Y-55635672D01*
X61900300Y-54490276D01*
X61927321Y-54422031D01*
X61931929Y-54418398D01*
X61938443Y-54408974D01*
X62005794Y-54311524D01*
X62010068Y-54305340D01*
X62051510Y-54174304D01*
X62051960Y-54168586D01*
X62053057Y-54162956D01*
X62054578Y-54163252D01*
X62075659Y-54112363D01*
X62152154Y-54077100D01*
X63780051Y-54077100D01*
X63839182Y-54096313D01*
G37*
G04 #@! TD.AperFunction*
G04 #@! TA.AperFunction,Conductor*
G36*
X61181819Y-54324913D02*
G01*
X61205891Y-54349752D01*
X61209469Y-54355017D01*
X61212724Y-54361795D01*
X61217829Y-54367317D01*
X61217830Y-54367319D01*
X61237892Y-54389021D01*
X61262195Y-54415311D01*
X61262973Y-54416153D01*
X61289701Y-54484441D01*
X61289700Y-55751409D01*
X61289495Y-55754201D01*
X61288029Y-55758471D01*
X61288377Y-55767750D01*
X61288377Y-55767753D01*
X61289629Y-55801088D01*
X61289700Y-55804862D01*
X61289700Y-55830645D01*
X61290548Y-55835200D01*
X61290905Y-55839063D01*
X61291260Y-55844536D01*
X61291904Y-55861672D01*
X61292292Y-55872018D01*
X61295958Y-55880550D01*
X61295958Y-55880551D01*
X61296898Y-55882738D01*
X61303369Y-55904037D01*
X61303804Y-55906375D01*
X61303805Y-55906378D01*
X61305505Y-55915506D01*
X61310379Y-55923413D01*
X61310380Y-55923416D01*
X61319687Y-55938516D01*
X61326478Y-55951588D01*
X61337146Y-55976418D01*
X61343065Y-55983623D01*
X61346280Y-55986838D01*
X61359089Y-56003043D01*
X61360254Y-56004328D01*
X61365128Y-56012235D01*
X61372520Y-56017856D01*
X61387041Y-56028898D01*
X61397283Y-56037841D01*
X62715017Y-57355576D01*
X62743243Y-57410974D01*
X62733517Y-57472382D01*
X62689553Y-57516346D01*
X62643882Y-57527311D01*
X60964773Y-57527311D01*
X60961985Y-57527106D01*
X60957717Y-57525641D01*
X60948437Y-57525989D01*
X60948435Y-57525989D01*
X60915117Y-57527240D01*
X60911344Y-57527311D01*
X60885543Y-57527311D01*
X60880981Y-57528160D01*
X60877120Y-57528517D01*
X60871657Y-57528871D01*
X60844170Y-57529903D01*
X60835636Y-57533569D01*
X60835633Y-57533570D01*
X60833442Y-57534511D01*
X60812158Y-57540979D01*
X60800682Y-57543116D01*
X60792777Y-57547989D01*
X60792776Y-57547989D01*
X60777674Y-57557298D01*
X60764602Y-57564088D01*
X60746294Y-57571954D01*
X60746289Y-57571957D01*
X60739770Y-57574758D01*
X60735729Y-57578077D01*
X60676056Y-57592211D01*
X60618687Y-57568243D01*
X60591824Y-57531659D01*
X60585656Y-57517304D01*
X60582854Y-57510782D01*
X60576936Y-57503576D01*
X60573717Y-57500357D01*
X60560913Y-57484160D01*
X60559747Y-57482874D01*
X60554872Y-57474965D01*
X60547480Y-57469344D01*
X60547478Y-57469342D01*
X60532972Y-57458312D01*
X60522729Y-57449369D01*
X59059565Y-55986207D01*
X59030100Y-55915072D01*
X59030100Y-54874278D01*
X59049313Y-54815147D01*
X59099613Y-54778602D01*
X59169319Y-54788241D01*
X59171533Y-54782896D01*
X59180688Y-54786688D01*
X59188925Y-54792192D01*
X59198641Y-54794125D01*
X59198642Y-54794125D01*
X59263748Y-54807075D01*
X59263749Y-54807075D01*
X59268600Y-54808040D01*
X60568600Y-54808040D01*
X60573451Y-54807075D01*
X60573452Y-54807075D01*
X60638558Y-54794125D01*
X60638559Y-54794125D01*
X60648275Y-54792192D01*
X60715820Y-54747060D01*
X60760952Y-54679515D01*
X60776800Y-54599840D01*
X60776800Y-54406300D01*
X60796013Y-54347169D01*
X60877400Y-54305700D01*
X61122688Y-54305700D01*
X61181819Y-54324913D01*
G37*
G04 #@! TD.AperFunction*
G04 #@! TD*
M02*
