M48
; DRILL file {KiCad (5.99.0-3771-g88a11f15e)} date Monday, October 05, 2020 at 08:50:11 PM
; FORMAT={-:-/ absolute / inch / decimal}
; #@! TF.CreationDate,2020-10-05T20:50:11+02:00
; #@! TF.GenerationSoftware,Kicad,Pcbnew,(5.99.0-3771-g88a11f15e)
; #@! TF.FileFunction,Plated,1,2,PTH
FMAT,2
INCH
T1C0.0157
T2C0.0400
%
G90
G05
T1
X2.3839Y-2.2175
X2.5Y-2.406
X2.5285Y-2.2283
X2.5992Y-1.9169
X2.6181Y-2.4656
T2
X0.15Y-3.55
X0.55Y-3.25
X0.75Y-3.45
X0.25Y-3.55
X0.45Y-3.25
X0.45Y-2.95
X0.45Y-2.85
X0.25Y-3.35
X0.55Y-3.45
X0.25Y-3.15
X0.55Y-3.15
X0.25Y-3.25
X0.35Y-3.45
X0.85Y-3.05
X0.15Y-3.05
X0.75Y-3.05
X0.35Y-2.85
X0.15Y-2.95
X0.85Y-2.95
X0.75Y-2.85
X0.65Y-2.95
X0.25Y-3.45
X0.35Y-2.95
X0.75Y-3.55
X0.15Y-3.25
X0.85Y-3.25
X0.25Y-3.05
X0.35Y-3.05
X0.35Y-3.25
X0.75Y-3.25
X0.15Y-3.45
X0.45Y-3.15
X0.45Y-3.05
X0.15Y-2.85
X0.55Y-2.95
X0.35Y-3.35
X0.15Y-3.15
X0.35Y-3.55
X0.55Y-3.55
X0.85Y-3.45
X0.65Y-3.25
X0.55Y-3.05
X0.45Y-3.45
X0.65Y-3.45
X0.85Y-3.55
X0.25Y-2.95
X0.85Y-3.35
X0.25Y-2.85
X0.35Y-3.15
X0.75Y-3.15
X0.65Y-2.85
X0.75Y-3.35
X0.85Y-2.85
X0.45Y-3.55
X0.65Y-3.15
X0.75Y-2.95
X0.15Y-3.35
X0.65Y-3.05
X0.85Y-3.15
X0.65Y-3.55
X0.55Y-3.35
X0.55Y-2.85
X0.65Y-3.35
X0.45Y-3.35
T0
M30
