G04 #@! TF.GenerationSoftware,KiCad,Pcbnew,(5.99.0-3771-g88a11f15e)*
G04 #@! TF.CreationDate,2020-10-05T20:50:06+02:00*
G04 #@! TF.ProjectId,remoticon_badge,72656d6f-7469-4636-9f6e-5f6261646765,rev?*
G04 #@! TF.SameCoordinates,PX3072580PY307257e*
G04 #@! TF.FileFunction,Legend,Top*
G04 #@! TF.FilePolarity,Positive*
%FSLAX46Y46*%
G04 Gerber Fmt 4.6, Leading zero omitted, Abs format (unit mm)*
G04 Created by KiCad (PCBNEW (5.99.0-3771-g88a11f15e)) date 2020-10-05 20:50:06*
%MOMM*%
%LPD*%
G01*
G04 APERTURE LIST*
%ADD10C,0.177800*%
%ADD11C,0.200000*%
%ADD12C,0.127000*%
%ADD13C,0.300000*%
%ADD14C,0.312500*%
%ADD15C,0.250000*%
%ADD16C,0.150000*%
%ADD17C,0.100000*%
%ADD18C,1.727200*%
%ADD19O,0.508000X0.762000*%
%ADD20R,1.016000X1.016000*%
%ADD21R,0.450000X0.430000*%
%ADD22O,1.600000X1.600000*%
%ADD23R,1.600000X1.600000*%
%ADD24R,0.400000X20.320000*%
%ADD25R,0.700000X0.600000*%
%ADD26R,0.400000X0.400000*%
%ADD27R,0.900000X1.300000*%
%ADD28R,0.700000X0.900000*%
%ADD29R,1.100000X1.700000*%
%ADD30R,1.300000X1.198880*%
%ADD31R,0.600000X0.600000*%
%ADD32R,1.700000X1.800860*%
%ADD33R,1.000000X0.797560*%
%ADD34R,0.650000X1.700000*%
G04 APERTURE END LIST*
D10*
X48662106Y-53418619D02*
X48758868Y-53418619D01*
X48855630Y-53467000D01*
X48904010Y-53515380D01*
X48952391Y-53612142D01*
X49000772Y-53805666D01*
X49000772Y-54047571D01*
X48952391Y-54241095D01*
X48904010Y-54337857D01*
X48855630Y-54386238D01*
X48758868Y-54434619D01*
X48662106Y-54434619D01*
X48565344Y-54386238D01*
X48516963Y-54337857D01*
X48468582Y-54241095D01*
X48420201Y-54047571D01*
X48420201Y-53805666D01*
X48468582Y-53612142D01*
X48516963Y-53515380D01*
X48565344Y-53467000D01*
X48662106Y-53418619D01*
X49581344Y-53854047D02*
X49484582Y-53805666D01*
X49436201Y-53757285D01*
X49387820Y-53660523D01*
X49387820Y-53612142D01*
X49436201Y-53515380D01*
X49484582Y-53467000D01*
X49581344Y-53418619D01*
X49774868Y-53418619D01*
X49871630Y-53467000D01*
X49920010Y-53515380D01*
X49968391Y-53612142D01*
X49968391Y-53660523D01*
X49920010Y-53757285D01*
X49871630Y-53805666D01*
X49774868Y-53854047D01*
X49581344Y-53854047D01*
X49484582Y-53902428D01*
X49436201Y-53950809D01*
X49387820Y-54047571D01*
X49387820Y-54241095D01*
X49436201Y-54337857D01*
X49484582Y-54386238D01*
X49581344Y-54434619D01*
X49774868Y-54434619D01*
X49871630Y-54386238D01*
X49920010Y-54337857D01*
X49968391Y-54241095D01*
X49968391Y-54047571D01*
X49920010Y-53950809D01*
X49871630Y-53902428D01*
X49774868Y-53854047D01*
X51661725Y-53418619D02*
X51177915Y-53418619D01*
X51129534Y-53902428D01*
X51177915Y-53854047D01*
X51274677Y-53805666D01*
X51516582Y-53805666D01*
X51613344Y-53854047D01*
X51661725Y-53902428D01*
X51710106Y-53999190D01*
X51710106Y-54241095D01*
X51661725Y-54337857D01*
X51613344Y-54386238D01*
X51516582Y-54434619D01*
X51274677Y-54434619D01*
X51177915Y-54386238D01*
X51129534Y-54337857D01*
X48662106Y-66575819D02*
X48758868Y-66575819D01*
X48855630Y-66624200D01*
X48904010Y-66672580D01*
X48952391Y-66769342D01*
X49000772Y-66962866D01*
X49000772Y-67204771D01*
X48952391Y-67398295D01*
X48904010Y-67495057D01*
X48855630Y-67543438D01*
X48758868Y-67591819D01*
X48662106Y-67591819D01*
X48565344Y-67543438D01*
X48516963Y-67495057D01*
X48468582Y-67398295D01*
X48420201Y-67204771D01*
X48420201Y-66962866D01*
X48468582Y-66769342D01*
X48516963Y-66672580D01*
X48565344Y-66624200D01*
X48662106Y-66575819D01*
X49387820Y-66672580D02*
X49436201Y-66624200D01*
X49532963Y-66575819D01*
X49774868Y-66575819D01*
X49871630Y-66624200D01*
X49920010Y-66672580D01*
X49968391Y-66769342D01*
X49968391Y-66866104D01*
X49920010Y-67011247D01*
X49339439Y-67591819D01*
X49968391Y-67591819D01*
X51710106Y-67591819D02*
X51129534Y-67591819D01*
X51419820Y-67591819D02*
X51419820Y-66575819D01*
X51323058Y-66720961D01*
X51226296Y-66817723D01*
X51129534Y-66866104D01*
X48662106Y-62283219D02*
X48758868Y-62283219D01*
X48855630Y-62331600D01*
X48904010Y-62379980D01*
X48952391Y-62476742D01*
X49000772Y-62670266D01*
X49000772Y-62912171D01*
X48952391Y-63105695D01*
X48904010Y-63202457D01*
X48855630Y-63250838D01*
X48758868Y-63299219D01*
X48662106Y-63299219D01*
X48565344Y-63250838D01*
X48516963Y-63202457D01*
X48468582Y-63105695D01*
X48420201Y-62912171D01*
X48420201Y-62670266D01*
X48468582Y-62476742D01*
X48516963Y-62379980D01*
X48565344Y-62331600D01*
X48662106Y-62283219D01*
X49871630Y-62621885D02*
X49871630Y-63299219D01*
X49629725Y-62234838D02*
X49387820Y-62960552D01*
X50016772Y-62960552D01*
X51129534Y-62379980D02*
X51177915Y-62331600D01*
X51274677Y-62283219D01*
X51516582Y-62283219D01*
X51613344Y-62331600D01*
X51661725Y-62379980D01*
X51710106Y-62476742D01*
X51710106Y-62573504D01*
X51661725Y-62718647D01*
X51081153Y-63299219D01*
X51710106Y-63299219D01*
X49000772Y-50167419D02*
X48420201Y-50167419D01*
X48710487Y-50167419D02*
X48710487Y-49151419D01*
X48613725Y-49296561D01*
X48516963Y-49393323D01*
X48420201Y-49441704D01*
X49387820Y-49248180D02*
X49436201Y-49199800D01*
X49532963Y-49151419D01*
X49774868Y-49151419D01*
X49871630Y-49199800D01*
X49920010Y-49248180D01*
X49968391Y-49344942D01*
X49968391Y-49441704D01*
X49920010Y-49586847D01*
X49339439Y-50167419D01*
X49968391Y-50167419D01*
X51613344Y-49151419D02*
X51419820Y-49151419D01*
X51323058Y-49199800D01*
X51274677Y-49248180D01*
X51177915Y-49393323D01*
X51129534Y-49586847D01*
X51129534Y-49973895D01*
X51177915Y-50070657D01*
X51226296Y-50119038D01*
X51323058Y-50167419D01*
X51516582Y-50167419D01*
X51613344Y-50119038D01*
X51661725Y-50070657D01*
X51710106Y-49973895D01*
X51710106Y-49731990D01*
X51661725Y-49635228D01*
X51613344Y-49586847D01*
X51516582Y-49538466D01*
X51323058Y-49538466D01*
X51226296Y-49586847D01*
X51177915Y-49635228D01*
X51129534Y-49731990D01*
X48662106Y-57838219D02*
X48758868Y-57838219D01*
X48855630Y-57886600D01*
X48904010Y-57934980D01*
X48952391Y-58031742D01*
X49000772Y-58225266D01*
X49000772Y-58467171D01*
X48952391Y-58660695D01*
X48904010Y-58757457D01*
X48855630Y-58805838D01*
X48758868Y-58854219D01*
X48662106Y-58854219D01*
X48565344Y-58805838D01*
X48516963Y-58757457D01*
X48468582Y-58660695D01*
X48420201Y-58467171D01*
X48420201Y-58225266D01*
X48468582Y-58031742D01*
X48516963Y-57934980D01*
X48565344Y-57886600D01*
X48662106Y-57838219D01*
X49871630Y-57838219D02*
X49678106Y-57838219D01*
X49581344Y-57886600D01*
X49532963Y-57934980D01*
X49436201Y-58080123D01*
X49387820Y-58273647D01*
X49387820Y-58660695D01*
X49436201Y-58757457D01*
X49484582Y-58805838D01*
X49581344Y-58854219D01*
X49774868Y-58854219D01*
X49871630Y-58805838D01*
X49920010Y-58757457D01*
X49968391Y-58660695D01*
X49968391Y-58418790D01*
X49920010Y-58322028D01*
X49871630Y-58273647D01*
X49774868Y-58225266D01*
X49581344Y-58225266D01*
X49484582Y-58273647D01*
X49436201Y-58322028D01*
X49387820Y-58418790D01*
X51081153Y-57838219D02*
X51710106Y-57838219D01*
X51371439Y-58225266D01*
X51516582Y-58225266D01*
X51613344Y-58273647D01*
X51661725Y-58322028D01*
X51710106Y-58418790D01*
X51710106Y-58660695D01*
X51661725Y-58757457D01*
X51613344Y-58805838D01*
X51516582Y-58854219D01*
X51226296Y-58854219D01*
X51129534Y-58805838D01*
X51081153Y-58757457D01*
D11*
G04 #@! TO.C,D4*
X56305523Y-64369904D02*
X56305523Y-63569904D01*
X56496000Y-63569904D01*
X56610285Y-63608000D01*
X56686476Y-63684190D01*
X56724571Y-63760380D01*
X56762666Y-63912761D01*
X56762666Y-64027047D01*
X56724571Y-64179428D01*
X56686476Y-64255619D01*
X56610285Y-64331809D01*
X56496000Y-64369904D01*
X56305523Y-64369904D01*
X57448380Y-63836571D02*
X57448380Y-64369904D01*
X57257904Y-63531809D02*
X57067428Y-64103238D01*
X57562666Y-64103238D01*
D12*
G04 #@! TO.C,D5*
X55505047Y-68251009D02*
X55505047Y-67743009D01*
X55626000Y-67743009D01*
X55698571Y-67767200D01*
X55746952Y-67815580D01*
X55771142Y-67863961D01*
X55795333Y-67960723D01*
X55795333Y-68033295D01*
X55771142Y-68130057D01*
X55746952Y-68178438D01*
X55698571Y-68226819D01*
X55626000Y-68251009D01*
X55505047Y-68251009D01*
X56254952Y-67743009D02*
X56013047Y-67743009D01*
X55988857Y-67984914D01*
X56013047Y-67960723D01*
X56061428Y-67936533D01*
X56182380Y-67936533D01*
X56230761Y-67960723D01*
X56254952Y-67984914D01*
X56279142Y-68033295D01*
X56279142Y-68154247D01*
X56254952Y-68202628D01*
X56230761Y-68226819D01*
X56182380Y-68251009D01*
X56061428Y-68251009D01*
X56013047Y-68226819D01*
X55988857Y-68202628D01*
D13*
G04 #@! TO.C,D2*
X57889885Y-56295857D02*
X57889885Y-55095857D01*
X58175600Y-55095857D01*
X58347028Y-55153000D01*
X58461314Y-55267285D01*
X58518457Y-55381571D01*
X58575600Y-55610142D01*
X58575600Y-55781571D01*
X58518457Y-56010142D01*
X58461314Y-56124428D01*
X58347028Y-56238714D01*
X58175600Y-56295857D01*
X57889885Y-56295857D01*
X59032742Y-55210142D02*
X59089885Y-55153000D01*
X59204171Y-55095857D01*
X59489885Y-55095857D01*
X59604171Y-55153000D01*
X59661314Y-55210142D01*
X59718457Y-55324428D01*
X59718457Y-55438714D01*
X59661314Y-55610142D01*
X58975600Y-56295857D01*
X59718457Y-56295857D01*
D14*
G04 #@! TO.C,D1*
X58767380Y-52330676D02*
X58767380Y-51080676D01*
X59065000Y-51080676D01*
X59243571Y-51140200D01*
X59362619Y-51259247D01*
X59422142Y-51378295D01*
X59481666Y-51616390D01*
X59481666Y-51794961D01*
X59422142Y-52033057D01*
X59362619Y-52152104D01*
X59243571Y-52271152D01*
X59065000Y-52330676D01*
X58767380Y-52330676D01*
X60672142Y-52330676D02*
X59957857Y-52330676D01*
X60315000Y-52330676D02*
X60315000Y-51080676D01*
X60195952Y-51259247D01*
X60076904Y-51378295D01*
X59957857Y-51437819D01*
D15*
G04 #@! TO.C,D3*
X57021504Y-60294780D02*
X57021504Y-59294780D01*
X57259600Y-59294780D01*
X57402457Y-59342400D01*
X57497695Y-59437638D01*
X57545314Y-59532876D01*
X57592933Y-59723352D01*
X57592933Y-59866209D01*
X57545314Y-60056685D01*
X57497695Y-60151923D01*
X57402457Y-60247161D01*
X57259600Y-60294780D01*
X57021504Y-60294780D01*
X57926266Y-59294780D02*
X58545314Y-59294780D01*
X58211980Y-59675733D01*
X58354838Y-59675733D01*
X58450076Y-59723352D01*
X58497695Y-59770971D01*
X58545314Y-59866209D01*
X58545314Y-60104304D01*
X58497695Y-60199542D01*
X58450076Y-60247161D01*
X58354838Y-60294780D01*
X58069123Y-60294780D01*
X57973885Y-60247161D01*
X57926266Y-60199542D01*
D16*
G04 #@! TO.C,C1*
X61317142Y-62955466D02*
X61364761Y-63003085D01*
X61412380Y-63145942D01*
X61412380Y-63241180D01*
X61364761Y-63384038D01*
X61269523Y-63479276D01*
X61174285Y-63526895D01*
X60983809Y-63574514D01*
X60840952Y-63574514D01*
X60650476Y-63526895D01*
X60555238Y-63479276D01*
X60460000Y-63384038D01*
X60412380Y-63241180D01*
X60412380Y-63145942D01*
X60460000Y-63003085D01*
X60507619Y-62955466D01*
X61412380Y-62003085D02*
X61412380Y-62574514D01*
X61412380Y-62288800D02*
X60412380Y-62288800D01*
X60555238Y-62384038D01*
X60650476Y-62479276D01*
X60698095Y-62574514D01*
G04 #@! TO.C,R5*
X52767800Y-67572200D02*
X52997800Y-67572200D01*
X52997800Y-66692200D02*
X52767800Y-66692200D01*
G04 #@! TO.C,G\u002A\u002A\u002A*
G36*
X68595350Y-20800696D02*
G01*
X68598744Y-20856420D01*
X68601729Y-20945069D01*
X68604204Y-21061921D01*
X68606064Y-21202256D01*
X68607208Y-21361350D01*
X68607539Y-21510988D01*
X68607539Y-22249012D01*
X68083132Y-22550270D01*
X67558725Y-22851527D01*
X66289526Y-22851527D01*
X66062302Y-22851388D01*
X65848402Y-22850989D01*
X65651459Y-22850354D01*
X65475100Y-22849508D01*
X65322958Y-22848475D01*
X65198662Y-22847281D01*
X65105842Y-22845949D01*
X65048130Y-22844504D01*
X65029154Y-22842971D01*
X65048363Y-22831391D01*
X65101753Y-22800101D01*
X65186806Y-22750560D01*
X65301003Y-22684226D01*
X65441826Y-22602559D01*
X65606754Y-22507017D01*
X65793270Y-22399060D01*
X65998854Y-22280147D01*
X66220987Y-22151736D01*
X66457150Y-22015286D01*
X66704824Y-21872256D01*
X66806872Y-21813345D01*
X67058618Y-21668023D01*
X67299993Y-21528678D01*
X67528463Y-21396774D01*
X67741497Y-21273771D01*
X67936564Y-21161133D01*
X68111132Y-21060321D01*
X68262669Y-20972797D01*
X68388643Y-20900024D01*
X68486522Y-20843464D01*
X68553775Y-20804578D01*
X68587871Y-20784829D01*
X68591651Y-20782619D01*
X68595350Y-20800696D01*
G37*
G36*
X25449213Y-11682573D02*
G01*
X25533104Y-11034274D01*
X25617522Y-10576598D01*
X25768773Y-9950672D01*
X25959101Y-9339093D01*
X26187191Y-8743415D01*
X26451728Y-8165191D01*
X26751397Y-7605975D01*
X27084883Y-7067322D01*
X27450872Y-6550786D01*
X27848049Y-6057921D01*
X28275098Y-5590281D01*
X28730706Y-5149419D01*
X29213557Y-4736891D01*
X29722337Y-4354250D01*
X30255731Y-4003051D01*
X30812423Y-3684846D01*
X31391100Y-3401192D01*
X31852744Y-3206549D01*
X32460872Y-2989760D01*
X33079102Y-2813217D01*
X33709495Y-2676449D01*
X34354113Y-2578985D01*
X34784552Y-2536261D01*
X34927135Y-2527633D01*
X35102150Y-2521285D01*
X35299720Y-2517217D01*
X35509969Y-2515430D01*
X35723022Y-2515922D01*
X35929002Y-2518696D01*
X36118034Y-2523749D01*
X36280241Y-2531083D01*
X36356631Y-2536261D01*
X37015777Y-2609412D01*
X37662914Y-2723082D01*
X38297141Y-2876901D01*
X38917558Y-3070503D01*
X39523263Y-3303517D01*
X40113357Y-3575578D01*
X40686937Y-3886315D01*
X41243103Y-4235361D01*
X41780955Y-4622347D01*
X42116443Y-4890835D01*
X42199655Y-4962545D01*
X42303857Y-5055962D01*
X42420080Y-5162834D01*
X42539350Y-5274912D01*
X42652699Y-5383945D01*
X42653836Y-5385055D01*
X42956526Y-5689988D01*
X43229582Y-5986395D01*
X43481431Y-6284358D01*
X43720503Y-6593959D01*
X43955227Y-6925279D01*
X44012841Y-7010628D01*
X44363790Y-7571082D01*
X44674288Y-8143312D01*
X44944664Y-8728267D01*
X45175245Y-9326895D01*
X45366361Y-9940146D01*
X45518341Y-10568969D01*
X45631513Y-11214313D01*
X45706206Y-11877127D01*
X45708499Y-11905267D01*
X45717013Y-12049891D01*
X45722526Y-12227360D01*
X45725181Y-12429276D01*
X45725119Y-12647243D01*
X45722481Y-12872866D01*
X45717409Y-13097748D01*
X45710045Y-13313492D01*
X45700529Y-13511702D01*
X45689005Y-13683982D01*
X45676274Y-13816414D01*
X45577967Y-14474427D01*
X45440546Y-15119363D01*
X45264557Y-15749032D01*
X45050545Y-16361246D01*
X45026813Y-16422086D01*
X44947296Y-16612990D01*
X44849835Y-16829358D01*
X44739506Y-17061080D01*
X44621386Y-17298052D01*
X44500550Y-17530165D01*
X44382077Y-17747314D01*
X44271040Y-17939392D01*
X44234734Y-17999052D01*
X43868105Y-18552235D01*
X43469837Y-19077417D01*
X43040514Y-19573968D01*
X42580720Y-20041264D01*
X42091041Y-20478677D01*
X41572059Y-20885579D01*
X41485408Y-20948481D01*
X41055929Y-21237930D01*
X40594945Y-21513472D01*
X40112378Y-21770068D01*
X39618155Y-22002680D01*
X39122198Y-22206271D01*
X38741706Y-22341299D01*
X38185052Y-22504934D01*
X37606160Y-22637657D01*
X37012819Y-22738450D01*
X36412816Y-22806294D01*
X35813940Y-22840170D01*
X35223979Y-22839059D01*
X35009521Y-22829577D01*
X34352734Y-22771848D01*
X33705931Y-22673322D01*
X33070595Y-22534663D01*
X32448205Y-22356532D01*
X31840242Y-22139591D01*
X31248188Y-21884502D01*
X30673523Y-21591928D01*
X30117727Y-21262529D01*
X29582282Y-20896968D01*
X29068668Y-20495907D01*
X28578367Y-20060008D01*
X28378049Y-19865003D01*
X27930268Y-19387811D01*
X27517156Y-18887266D01*
X27139221Y-18365083D01*
X26796973Y-17822972D01*
X26490921Y-17262647D01*
X26221573Y-16685819D01*
X25989438Y-16094200D01*
X25795025Y-15489504D01*
X25638844Y-14873442D01*
X25521402Y-14247726D01*
X25443209Y-13614069D01*
X25404774Y-12974183D01*
X25405661Y-12661869D01*
X29577452Y-12661869D01*
X29578718Y-12888595D01*
X29583817Y-13083416D01*
X29593762Y-13256699D01*
X29609566Y-13418813D01*
X29632240Y-13580128D01*
X29662798Y-13751011D01*
X29702253Y-13941831D01*
X29702619Y-13943520D01*
X29829498Y-14429487D01*
X29996218Y-14902530D01*
X30201506Y-15359958D01*
X30444092Y-15799082D01*
X30722700Y-16217213D01*
X30870299Y-16411493D01*
X30951992Y-16508600D01*
X31058442Y-16626205D01*
X31182395Y-16757052D01*
X31316594Y-16893887D01*
X31453784Y-17029453D01*
X31586709Y-17156495D01*
X31708115Y-17267757D01*
X31810745Y-17355985D01*
X31831559Y-17372754D01*
X32237152Y-17667224D01*
X32665332Y-17926487D01*
X33113716Y-18149564D01*
X33579921Y-18335476D01*
X34061564Y-18483245D01*
X34556261Y-18591892D01*
X34934524Y-18647126D01*
X35099575Y-18660868D01*
X35295501Y-18668678D01*
X35511256Y-18670784D01*
X35735797Y-18667415D01*
X35958078Y-18658799D01*
X36167055Y-18645164D01*
X36351684Y-18626738D01*
X36428557Y-18616238D01*
X36931602Y-18519297D01*
X37416741Y-18384202D01*
X37885013Y-18210505D01*
X38337457Y-17997761D01*
X38775113Y-17745520D01*
X39199020Y-17453335D01*
X39288440Y-17385275D01*
X39393958Y-17298324D01*
X39519316Y-17186568D01*
X39656942Y-17057506D01*
X39799265Y-16918638D01*
X39938710Y-16777465D01*
X40067707Y-16641485D01*
X40178682Y-16518199D01*
X40250253Y-16432678D01*
X40535080Y-16042720D01*
X40791189Y-15625009D01*
X41015467Y-15185548D01*
X41204801Y-14730339D01*
X41333369Y-14344215D01*
X41451895Y-13869398D01*
X41529762Y-13387096D01*
X41567361Y-12900327D01*
X41565078Y-12412111D01*
X41523303Y-11925468D01*
X41442424Y-11443416D01*
X41322829Y-10968974D01*
X41164907Y-10505161D01*
X40969045Y-10054997D01*
X40735633Y-9621501D01*
X40723233Y-9600734D01*
X40447887Y-9181701D01*
X40143023Y-8791559D01*
X39810801Y-8431243D01*
X39453379Y-8101687D01*
X39072916Y-7803824D01*
X38671573Y-7538587D01*
X38251508Y-7306911D01*
X37814880Y-7109729D01*
X37363849Y-6947975D01*
X36900574Y-6822583D01*
X36427214Y-6734486D01*
X35945928Y-6684618D01*
X35458876Y-6673913D01*
X34968216Y-6703304D01*
X34476109Y-6773726D01*
X34278348Y-6813811D01*
X33796876Y-6941019D01*
X33331991Y-7106192D01*
X32885492Y-7307588D01*
X32459176Y-7543468D01*
X32054841Y-7812093D01*
X31674285Y-8111722D01*
X31319306Y-8440616D01*
X30991701Y-8797035D01*
X30693268Y-9179239D01*
X30425805Y-9585489D01*
X30191110Y-10014044D01*
X29990980Y-10463166D01*
X29827214Y-10931113D01*
X29754329Y-11191821D01*
X29698963Y-11419896D01*
X29655836Y-11626448D01*
X29623625Y-11822472D01*
X29601007Y-12018966D01*
X29586658Y-12226925D01*
X29579257Y-12457346D01*
X29577452Y-12661869D01*
X25405661Y-12661869D01*
X25406606Y-12329780D01*
X25449213Y-11682573D01*
G37*
G36*
X68585486Y-11992391D02*
G01*
X68592077Y-12005960D01*
X68597106Y-12035677D01*
X68600707Y-12085430D01*
X68603017Y-12159105D01*
X68604172Y-12260591D01*
X68604310Y-12393775D01*
X68603565Y-12562545D01*
X68602520Y-12713401D01*
X68596947Y-13447578D01*
X60452911Y-18149552D01*
X52308874Y-22851527D01*
X51036480Y-22851170D01*
X50772879Y-22851069D01*
X50548652Y-22850858D01*
X50360807Y-22850440D01*
X50206349Y-22849714D01*
X50082284Y-22848582D01*
X49985620Y-22846944D01*
X49913362Y-22844702D01*
X49862517Y-22841756D01*
X49830090Y-22838007D01*
X49813088Y-22833357D01*
X49808518Y-22827705D01*
X49813385Y-22820954D01*
X49824696Y-22813003D01*
X49827639Y-22811153D01*
X49852462Y-22796515D01*
X49912462Y-22761588D01*
X50006309Y-22707141D01*
X50132676Y-22633938D01*
X50290234Y-22542747D01*
X50477654Y-22434335D01*
X50693608Y-22309467D01*
X50936767Y-22168912D01*
X51205804Y-22013434D01*
X51499389Y-21843802D01*
X51816193Y-21660782D01*
X52154890Y-21465140D01*
X52514149Y-21257643D01*
X52892643Y-21039057D01*
X53289042Y-20810150D01*
X53702019Y-20571688D01*
X54130246Y-20324438D01*
X54572392Y-20069166D01*
X55027131Y-19806638D01*
X55493133Y-19537623D01*
X55969071Y-19262885D01*
X56453614Y-18983193D01*
X56945436Y-18699311D01*
X57443208Y-18412009D01*
X57945600Y-18122051D01*
X58451285Y-17830204D01*
X58958935Y-17537235D01*
X59467219Y-17243912D01*
X59974811Y-16951000D01*
X60480382Y-16659265D01*
X60982603Y-16369476D01*
X61480145Y-16082398D01*
X61971680Y-15798798D01*
X62455880Y-15519443D01*
X62931417Y-15245099D01*
X63396961Y-14976533D01*
X63851184Y-14714511D01*
X64292757Y-14459801D01*
X64720354Y-14213169D01*
X65132643Y-13975382D01*
X65528298Y-13747205D01*
X65905990Y-13529407D01*
X66264390Y-13322753D01*
X66602169Y-13128011D01*
X66918000Y-12945946D01*
X67210554Y-12777326D01*
X67478502Y-12622917D01*
X67720515Y-12483485D01*
X67935266Y-12359799D01*
X68121426Y-12252623D01*
X68277666Y-12162725D01*
X68402658Y-12090872D01*
X68495073Y-12037829D01*
X68553583Y-12004364D01*
X68576860Y-11991244D01*
X68577194Y-11991082D01*
X68585486Y-11992391D01*
G37*
G36*
X34404349Y-49522358D02*
G01*
X34411820Y-49372928D01*
X34423544Y-49253465D01*
X34441131Y-49157773D01*
X34466191Y-49079659D01*
X34500333Y-49012926D01*
X34545167Y-48951381D01*
X34602302Y-48888828D01*
X34615916Y-48875083D01*
X34703935Y-48796180D01*
X34792608Y-48738849D01*
X34890857Y-48700157D01*
X35007605Y-48677173D01*
X35151773Y-48666962D01*
X35252827Y-48665741D01*
X35374021Y-48667086D01*
X35463509Y-48671269D01*
X35531924Y-48679599D01*
X35589900Y-48693389D01*
X35648071Y-48713949D01*
X35649962Y-48714697D01*
X35739040Y-48760214D01*
X35832047Y-48824452D01*
X35918222Y-48898244D01*
X35986808Y-48972424D01*
X36025906Y-49034987D01*
X36046267Y-49078620D01*
X36060169Y-49098744D01*
X36060822Y-49098900D01*
X36082183Y-49088621D01*
X36126299Y-49062672D01*
X36149673Y-49048140D01*
X36356361Y-48932123D01*
X36582564Y-48830589D01*
X36818210Y-48746728D01*
X37053221Y-48683729D01*
X37277526Y-48644782D01*
X37461292Y-48632930D01*
X37572510Y-48632844D01*
X37572510Y-48969874D01*
X37503661Y-48979581D01*
X37451001Y-48986727D01*
X37370881Y-48997281D01*
X37277875Y-49009330D01*
X37246458Y-49013357D01*
X36976669Y-49066126D01*
X36701582Y-49156622D01*
X36418268Y-49285909D01*
X36264378Y-49370173D01*
X36131976Y-49446652D01*
X36131976Y-49819166D01*
X37572510Y-49819166D01*
X37572510Y-50179300D01*
X34390265Y-50179300D01*
X34397338Y-49819166D01*
X34685146Y-49819166D01*
X35814211Y-49819166D01*
X35813746Y-49580843D01*
X35807844Y-49423823D01*
X35788332Y-49302119D01*
X35751467Y-49209842D01*
X35693508Y-49141106D01*
X35610712Y-49090022D01*
X35499337Y-49050702D01*
X35472169Y-49043441D01*
X35332680Y-49020510D01*
X35185938Y-49018322D01*
X35046227Y-49035903D01*
X34927834Y-49072278D01*
X34907487Y-49081970D01*
X34834470Y-49128847D01*
X34780197Y-49188162D01*
X34741801Y-49266616D01*
X34716413Y-49370910D01*
X34701167Y-49507744D01*
X34697263Y-49573141D01*
X34685146Y-49819166D01*
X34397338Y-49819166D01*
X34399523Y-49707949D01*
X34404349Y-49522358D01*
G37*
G36*
X32878983Y-43096466D02*
G01*
X32932709Y-43133293D01*
X32997640Y-43185664D01*
X33064562Y-43246208D01*
X33117181Y-43299738D01*
X33179103Y-43376094D01*
X33239020Y-43463945D01*
X33265472Y-43509624D01*
X33290992Y-43560937D01*
X33307971Y-43606655D01*
X33318133Y-43657424D01*
X33323208Y-43723888D01*
X33324919Y-43816692D01*
X33325054Y-43876965D01*
X33324489Y-43986216D01*
X33321520Y-44064038D01*
X33314232Y-44121370D01*
X33300710Y-44169149D01*
X33279041Y-44218311D01*
X33258182Y-44259058D01*
X33165397Y-44400263D01*
X33049036Y-44511088D01*
X32905509Y-44593894D01*
X32731224Y-44651040D01*
X32632043Y-44670629D01*
X32568389Y-44677161D01*
X32469765Y-44682445D01*
X32342200Y-44686512D01*
X32191729Y-44689394D01*
X32024383Y-44691120D01*
X31846193Y-44691721D01*
X31663192Y-44691228D01*
X31481412Y-44689672D01*
X31306885Y-44687083D01*
X31145644Y-44683492D01*
X31003719Y-44678930D01*
X30887143Y-44673428D01*
X30801949Y-44667016D01*
X30759733Y-44661100D01*
X30571963Y-44604155D01*
X30415855Y-44520812D01*
X30288186Y-44408719D01*
X30185734Y-44265521D01*
X30164664Y-44226506D01*
X30137982Y-44170887D01*
X30120699Y-44121435D01*
X30110816Y-44066392D01*
X30106336Y-43994001D01*
X30105260Y-43892505D01*
X30105265Y-43876965D01*
X30110231Y-43732382D01*
X30127427Y-43617132D01*
X30160782Y-43518999D01*
X30214225Y-43425768D01*
X30277052Y-43342873D01*
X30327943Y-43289078D01*
X30393393Y-43231057D01*
X30463428Y-43176363D01*
X30528073Y-43132547D01*
X30577356Y-43107160D01*
X30592888Y-43103737D01*
X30613538Y-43120793D01*
X30647841Y-43165923D01*
X30689046Y-43230066D01*
X30697006Y-43243497D01*
X30738227Y-43317306D01*
X30758184Y-43363681D01*
X30759383Y-43390258D01*
X30749072Y-43402055D01*
X30715590Y-43418837D01*
X30705785Y-43421177D01*
X30684312Y-43434489D01*
X30641087Y-43469076D01*
X30585473Y-43517448D01*
X30494068Y-43623429D01*
X30437678Y-43740673D01*
X30415609Y-43862514D01*
X30427170Y-43982290D01*
X30471667Y-44093338D01*
X30548408Y-44188992D01*
X30656698Y-44262590D01*
X30663285Y-44265739D01*
X30782935Y-44321835D01*
X31704453Y-44321835D01*
X31929331Y-44321699D01*
X32115984Y-44321188D01*
X32268552Y-44320152D01*
X32391177Y-44318439D01*
X32488003Y-44315897D01*
X32563171Y-44312376D01*
X32620822Y-44307723D01*
X32665099Y-44301787D01*
X32700144Y-44294417D01*
X32730099Y-44285462D01*
X32733768Y-44284196D01*
X32848676Y-44224738D01*
X32934094Y-44141068D01*
X32989962Y-44039453D01*
X33016221Y-43926159D01*
X33012811Y-43807453D01*
X32979673Y-43689601D01*
X32916748Y-43578871D01*
X32823976Y-43481528D01*
X32741922Y-43425096D01*
X32638099Y-43365800D01*
X32733107Y-43224176D01*
X32779393Y-43158212D01*
X32818061Y-43108626D01*
X32842386Y-43083879D01*
X32845674Y-43082553D01*
X32878983Y-43096466D01*
G37*
G36*
X55742981Y-2519710D02*
G01*
X57009858Y-2525171D01*
X52661890Y-5035353D01*
X52264860Y-5264545D01*
X51877414Y-5488161D01*
X51501156Y-5705277D01*
X51137693Y-5914966D01*
X50788631Y-6116304D01*
X50455575Y-6308366D01*
X50140132Y-6490226D01*
X49843908Y-6660959D01*
X49568508Y-6819641D01*
X49315539Y-6965345D01*
X49086607Y-7097147D01*
X48883317Y-7214121D01*
X48707275Y-7315342D01*
X48560089Y-7399885D01*
X48443362Y-7466825D01*
X48358703Y-7515236D01*
X48307715Y-7544194D01*
X48291980Y-7552849D01*
X48285467Y-7536300D01*
X48280474Y-7481298D01*
X48276982Y-7387088D01*
X48274975Y-7252914D01*
X48274436Y-7078021D01*
X48275348Y-6861653D01*
X48275611Y-6825307D01*
X48281184Y-6090451D01*
X51378644Y-4302349D01*
X54476105Y-2514248D01*
X55742981Y-2519710D01*
G37*
G36*
X22849407Y-53304009D02*
G01*
X15196561Y-60956834D01*
X7543714Y-68609658D01*
X2512460Y-68609658D01*
X2512460Y-65082449D01*
X19322238Y-48272711D01*
X22849407Y-48272711D01*
X22849407Y-53304009D01*
G37*
G36*
X68607539Y-7570787D02*
G01*
X58476138Y-13419891D01*
X57867851Y-13771057D01*
X57268640Y-14116957D01*
X56679555Y-14456986D01*
X56101646Y-14790538D01*
X55535963Y-15117008D01*
X54983558Y-15435790D01*
X54445479Y-15746279D01*
X53922778Y-16047869D01*
X53416504Y-16339954D01*
X52927707Y-16621929D01*
X52457439Y-16893189D01*
X52006748Y-17153127D01*
X51576686Y-17401139D01*
X51168302Y-17636618D01*
X50782647Y-17858960D01*
X50420770Y-18067558D01*
X50083723Y-18261807D01*
X49772556Y-18441101D01*
X49488317Y-18604836D01*
X49232059Y-18752405D01*
X49004831Y-18883203D01*
X48807682Y-18996624D01*
X48641665Y-19092062D01*
X48507828Y-19168913D01*
X48407222Y-19226570D01*
X48340896Y-19264429D01*
X48309903Y-19281883D01*
X48307664Y-19283045D01*
X48297746Y-19284682D01*
X48289769Y-19278584D01*
X48283522Y-19260698D01*
X48278796Y-19226971D01*
X48275380Y-19173348D01*
X48273065Y-19095775D01*
X48271639Y-18990200D01*
X48270894Y-18852568D01*
X48270619Y-18678825D01*
X48270592Y-18567757D01*
X48270592Y-17838420D01*
X58137189Y-12142234D01*
X58739726Y-11794377D01*
X59334080Y-11451240D01*
X59919149Y-11113462D01*
X60493830Y-10781678D01*
X61057021Y-10456527D01*
X61607618Y-10138643D01*
X62144519Y-9828665D01*
X62666621Y-9527228D01*
X63172821Y-9234970D01*
X63662016Y-8952527D01*
X64133103Y-8680536D01*
X64584980Y-8419634D01*
X65016544Y-8170458D01*
X65426693Y-7933644D01*
X65814322Y-7709829D01*
X66178330Y-7499650D01*
X66517613Y-7303743D01*
X66831070Y-7122745D01*
X67117596Y-6957294D01*
X67376090Y-6808025D01*
X67605448Y-6675576D01*
X67804568Y-6560583D01*
X67972346Y-6463683D01*
X68107681Y-6385512D01*
X68209469Y-6326708D01*
X68276607Y-6287908D01*
X68305663Y-6271098D01*
X68607539Y-6096147D01*
X68607539Y-7570787D01*
G37*
G36*
X22849407Y-12683053D02*
G01*
X22738190Y-12678844D01*
X22658062Y-12675801D01*
X22558261Y-12671997D01*
X22468090Y-12668550D01*
X21813755Y-12622564D01*
X21167901Y-12535479D01*
X20532157Y-12408007D01*
X19908151Y-12240860D01*
X19297514Y-12034750D01*
X18701874Y-11790390D01*
X18122862Y-11508491D01*
X17562106Y-11189765D01*
X17021236Y-10834925D01*
X16501882Y-10444682D01*
X16005672Y-10019750D01*
X15667457Y-9696529D01*
X15217435Y-9216977D01*
X14801695Y-8713161D01*
X14420962Y-8186584D01*
X14075964Y-7638746D01*
X13767425Y-7071148D01*
X13496071Y-6485291D01*
X13262629Y-5882677D01*
X13067825Y-5264806D01*
X12912385Y-4633180D01*
X12797035Y-3989299D01*
X12756242Y-3677391D01*
X12746537Y-3581434D01*
X12735695Y-3454796D01*
X12724349Y-3307084D01*
X12713135Y-3147904D01*
X12702687Y-2986863D01*
X12693638Y-2833569D01*
X12686623Y-2697627D01*
X12682276Y-2588644D01*
X12681222Y-2541060D01*
X12688639Y-2538108D01*
X12711857Y-2535369D01*
X12752225Y-2532837D01*
X12811092Y-2530505D01*
X12889808Y-2528365D01*
X12989722Y-2526411D01*
X13112184Y-2524636D01*
X13258542Y-2523032D01*
X13430147Y-2521592D01*
X13628347Y-2520309D01*
X13854491Y-2519177D01*
X14109930Y-2518189D01*
X14396013Y-2517337D01*
X14714088Y-2516614D01*
X15065505Y-2516013D01*
X15451614Y-2515528D01*
X15873764Y-2515150D01*
X16333304Y-2514874D01*
X16831584Y-2514692D01*
X17369953Y-2514598D01*
X17765171Y-2514579D01*
X22849407Y-2514579D01*
X22849407Y-12683053D01*
G37*
G36*
X33314462Y-40412925D02*
G01*
X33314452Y-40495214D01*
X33309244Y-40547778D01*
X33291068Y-40578443D01*
X33252155Y-40595038D01*
X33184735Y-40605388D01*
X33115668Y-40613196D01*
X33021135Y-40631820D01*
X32909128Y-40668645D01*
X32776347Y-40725192D01*
X32619496Y-40802979D01*
X32435277Y-40903528D01*
X32238804Y-41017434D01*
X32118037Y-41089490D01*
X32010449Y-41154677D01*
X31921096Y-41209849D01*
X31855031Y-41251862D01*
X31817311Y-41277571D01*
X31810375Y-41283963D01*
X31826893Y-41300277D01*
X31871465Y-41334170D01*
X31936617Y-41380140D01*
X31990234Y-41416404D01*
X32170093Y-41536097D01*
X33314462Y-41536097D01*
X33314462Y-41875046D01*
X30136814Y-41875046D01*
X30136814Y-41536097D01*
X30878265Y-41536097D01*
X31050690Y-41535660D01*
X31208868Y-41534419D01*
X31348011Y-41532475D01*
X31463332Y-41529931D01*
X31550046Y-41526891D01*
X31603366Y-41523456D01*
X31618864Y-41520209D01*
X31601393Y-41502442D01*
X31553218Y-41465616D01*
X31479547Y-41413150D01*
X31385593Y-41348462D01*
X31276564Y-41274968D01*
X31157673Y-41196087D01*
X31034129Y-41115237D01*
X30911142Y-41035834D01*
X30793925Y-40961296D01*
X30687686Y-40895041D01*
X30597636Y-40840488D01*
X30528987Y-40801052D01*
X30497852Y-40784928D01*
X30408233Y-40746918D01*
X30318106Y-40715845D01*
X30245330Y-40697776D01*
X30238344Y-40696734D01*
X30136814Y-40683266D01*
X30136814Y-40323780D01*
X30237439Y-40337917D01*
X30326119Y-40353723D01*
X30413452Y-40377287D01*
X30504679Y-40411220D01*
X30605039Y-40458134D01*
X30719773Y-40520640D01*
X30854121Y-40601349D01*
X31013323Y-40702873D01*
X31149367Y-40792373D01*
X31533277Y-41047247D01*
X31984294Y-40779901D01*
X32216446Y-40644360D01*
X32417704Y-40531655D01*
X32591777Y-40440169D01*
X32742370Y-40368286D01*
X32873191Y-40314387D01*
X32987946Y-40276857D01*
X33090341Y-40254077D01*
X33184085Y-40244431D01*
X33212991Y-40243854D01*
X33314462Y-40243854D01*
X33314462Y-40412925D01*
G37*
G36*
X37572510Y-43527423D02*
G01*
X37207080Y-43526952D01*
X37102036Y-43526045D01*
X36961939Y-43523667D01*
X36794070Y-43520004D01*
X36605714Y-43515241D01*
X36404153Y-43509563D01*
X36196670Y-43503154D01*
X35990548Y-43496201D01*
X35973094Y-43495582D01*
X35781427Y-43488885D01*
X35599737Y-43482768D01*
X35433119Y-43477384D01*
X35286670Y-43472889D01*
X35165484Y-43469438D01*
X35074658Y-43467185D01*
X35019288Y-43466285D01*
X35009207Y-43466319D01*
X34986324Y-43467562D01*
X34974990Y-43471031D01*
X34978109Y-43477762D01*
X34998586Y-43488788D01*
X35039326Y-43505144D01*
X35103232Y-43527864D01*
X35193210Y-43557983D01*
X35312164Y-43596535D01*
X35463000Y-43644555D01*
X35648620Y-43703077D01*
X35861876Y-43769984D01*
X36174345Y-43867889D01*
X36174345Y-43973507D01*
X36171336Y-44039477D01*
X36159046Y-44076221D01*
X36132581Y-44096652D01*
X36126680Y-44099280D01*
X36094404Y-44110672D01*
X36027368Y-44132652D01*
X35931324Y-44163393D01*
X35812021Y-44201071D01*
X35675208Y-44243858D01*
X35526638Y-44289929D01*
X35517631Y-44292709D01*
X35370488Y-44338451D01*
X35236560Y-44380707D01*
X35121206Y-44417736D01*
X35029787Y-44447798D01*
X34967663Y-44469151D01*
X34940194Y-44480053D01*
X34939580Y-44480484D01*
X34950875Y-44486398D01*
X34995646Y-44489268D01*
X35065080Y-44488659D01*
X35087870Y-44487800D01*
X35315164Y-44478605D01*
X35562410Y-44469849D01*
X35821189Y-44461744D01*
X36083085Y-44454502D01*
X36339679Y-44448334D01*
X36582555Y-44443452D01*
X36803294Y-44440067D01*
X36993479Y-44438392D01*
X37058790Y-44438248D01*
X37572510Y-44438349D01*
X37572510Y-44777298D01*
X34393148Y-44777298D01*
X34399301Y-44603164D01*
X34405454Y-44429029D01*
X35046196Y-44206933D01*
X35201053Y-44152679D01*
X35341464Y-44102371D01*
X35462834Y-44057745D01*
X35560567Y-44020537D01*
X35630067Y-43992480D01*
X35666737Y-43975310D01*
X35671133Y-43971006D01*
X35647905Y-43960921D01*
X35589541Y-43938872D01*
X35500990Y-43906632D01*
X35387194Y-43865977D01*
X35253101Y-43818679D01*
X35103656Y-43766513D01*
X35025095Y-43739287D01*
X34394862Y-43521399D01*
X34394862Y-43167290D01*
X37572510Y-43167290D01*
X37572510Y-43527423D01*
G37*
G36*
X33314462Y-49077715D02*
G01*
X31725638Y-49077715D01*
X31725638Y-49903904D01*
X33314462Y-49903904D01*
X33314462Y-50242853D01*
X30136814Y-50242853D01*
X30136814Y-49904525D01*
X30777639Y-49898918D01*
X31418465Y-49893312D01*
X31418465Y-49088307D01*
X30777639Y-49082701D01*
X30136814Y-49077094D01*
X30136814Y-48738766D01*
X33314462Y-48738766D01*
X33314462Y-49077715D01*
G37*
G36*
X60827090Y-2519710D02*
G01*
X62093979Y-2525171D01*
X55233239Y-6486639D01*
X54733178Y-6775374D01*
X54242294Y-7058798D01*
X53761869Y-7336172D01*
X53293186Y-7606755D01*
X52837528Y-7869807D01*
X52396176Y-8124588D01*
X51970414Y-8370357D01*
X51561525Y-8606375D01*
X51170790Y-8831902D01*
X50799494Y-9046197D01*
X50448917Y-9248519D01*
X50120343Y-9438130D01*
X49815055Y-9614288D01*
X49534335Y-9776253D01*
X49279466Y-9923286D01*
X49051730Y-10054646D01*
X48852410Y-10169592D01*
X48682789Y-10267386D01*
X48544149Y-10347285D01*
X48437773Y-10408551D01*
X48364944Y-10450444D01*
X48326944Y-10472222D01*
X48321545Y-10475264D01*
X48270592Y-10502421D01*
X48271173Y-9765589D01*
X48271754Y-9028758D01*
X53915978Y-5771503D01*
X59560201Y-2514248D01*
X60827090Y-2519710D01*
G37*
G36*
X37116162Y-32056359D02*
G01*
X37163048Y-32082876D01*
X37223976Y-32127030D01*
X37290902Y-32182744D01*
X37355785Y-32243940D01*
X37387063Y-32277040D01*
X37498506Y-32431001D01*
X37571855Y-32599611D01*
X37606394Y-32777573D01*
X37601409Y-32959588D01*
X37556184Y-33140358D01*
X37516142Y-33232880D01*
X37434285Y-33366613D01*
X37334590Y-33470601D01*
X37210262Y-33549976D01*
X37054509Y-33609873D01*
X36995904Y-33626024D01*
X36950941Y-33635511D01*
X36894644Y-33643340D01*
X36822485Y-33649716D01*
X36729936Y-33654846D01*
X36612466Y-33658934D01*
X36465548Y-33662186D01*
X36284652Y-33664808D01*
X36100200Y-33666700D01*
X35916253Y-33667772D01*
X35738657Y-33667736D01*
X35573621Y-33666672D01*
X35427354Y-33664661D01*
X35306066Y-33661784D01*
X35215964Y-33658119D01*
X35170512Y-33654676D01*
X34969642Y-33620652D01*
X34802697Y-33566069D01*
X34665059Y-33487963D01*
X34552109Y-33383366D01*
X34459230Y-33249315D01*
X34420027Y-33172796D01*
X34392346Y-33107781D01*
X34375521Y-33048514D01*
X34367085Y-32980632D01*
X34364567Y-32889773D01*
X34364624Y-32850526D01*
X34375663Y-32681393D01*
X34409082Y-32540082D01*
X34468395Y-32416478D01*
X34554830Y-32303001D01*
X34606075Y-32251821D01*
X34669083Y-32197094D01*
X34735371Y-32145113D01*
X34796455Y-32102171D01*
X34843851Y-32074561D01*
X34869075Y-32068576D01*
X34869935Y-32069277D01*
X34883984Y-32089820D01*
X34914441Y-32136904D01*
X34955250Y-32201147D01*
X34963815Y-32214742D01*
X35050288Y-32352185D01*
X34992675Y-32381916D01*
X34873228Y-32460571D01*
X34778541Y-32557441D01*
X34731948Y-32631940D01*
X34692992Y-32753016D01*
X34686008Y-32879897D01*
X34709161Y-33002337D01*
X34760616Y-33110091D01*
X34831463Y-33187517D01*
X34869746Y-33215473D01*
X34909824Y-33238571D01*
X34956087Y-33257331D01*
X35012927Y-33272271D01*
X35084732Y-33283911D01*
X35175893Y-33292770D01*
X35290801Y-33299367D01*
X35433844Y-33304221D01*
X35609414Y-33307852D01*
X35821901Y-33310778D01*
X35879342Y-33311438D01*
X36142653Y-33313468D01*
X36367172Y-33312747D01*
X36556426Y-33308596D01*
X36713941Y-33300340D01*
X36843242Y-33287300D01*
X36947857Y-33268800D01*
X37031310Y-33244163D01*
X37097129Y-33212711D01*
X37148840Y-33173767D01*
X37189968Y-33126655D01*
X37224040Y-33070696D01*
X37233764Y-33051356D01*
X37276380Y-32918710D01*
X37278468Y-32785895D01*
X37241576Y-32657727D01*
X37167250Y-32539024D01*
X37057039Y-32434603D01*
X37029371Y-32414867D01*
X36902514Y-32328749D01*
X36990876Y-32197213D01*
X37035142Y-32132062D01*
X37070535Y-32081340D01*
X37090239Y-32054791D01*
X37091358Y-32053558D01*
X37116162Y-32056359D01*
G37*
G36*
X34366222Y-41114281D02*
G01*
X34373596Y-41037990D01*
X34388686Y-40974936D01*
X34414026Y-40910592D01*
X34420019Y-40897433D01*
X34495829Y-40771426D01*
X34596300Y-40659621D01*
X34709494Y-40574823D01*
X34732286Y-40562396D01*
X34789275Y-40534609D01*
X34844210Y-40511732D01*
X34901944Y-40493221D01*
X34967332Y-40478535D01*
X35045226Y-40467131D01*
X35140480Y-40458467D01*
X35257947Y-40452000D01*
X35402482Y-40447187D01*
X35578937Y-40443487D01*
X35792166Y-40440356D01*
X35828270Y-40439894D01*
X36098127Y-40437367D01*
X36329615Y-40437449D01*
X36526679Y-40440617D01*
X36693266Y-40447353D01*
X36833322Y-40458134D01*
X36950793Y-40473442D01*
X37049625Y-40493755D01*
X37133763Y-40519554D01*
X37207154Y-40551318D01*
X37273744Y-40589526D01*
X37319497Y-40621151D01*
X37440816Y-40731743D01*
X37526689Y-40860621D01*
X37578841Y-41011471D01*
X37599002Y-41187982D01*
X37599374Y-41218332D01*
X37582787Y-41404203D01*
X37532619Y-41564560D01*
X37448261Y-41700232D01*
X37329103Y-41812045D01*
X37174536Y-41900826D01*
X37064985Y-41943237D01*
X37028869Y-41954655D01*
X36992921Y-41964046D01*
X36952673Y-41971633D01*
X36903657Y-41977640D01*
X36841406Y-41982290D01*
X36761452Y-41985806D01*
X36659328Y-41988412D01*
X36530566Y-41990331D01*
X36370698Y-41991788D01*
X36175258Y-41993005D01*
X36057831Y-41993619D01*
X35868148Y-41994367D01*
X35690186Y-41994666D01*
X35528742Y-41994538D01*
X35388614Y-41994004D01*
X35274596Y-41993085D01*
X35191486Y-41991804D01*
X35144080Y-41990182D01*
X35136313Y-41989463D01*
X34929280Y-41945303D01*
X34759959Y-41885368D01*
X34626415Y-41808815D01*
X34539252Y-41729670D01*
X34492328Y-41666579D01*
X34443620Y-41586382D01*
X34418295Y-41537064D01*
X34391211Y-41473081D01*
X34374754Y-41413498D01*
X34366498Y-41344077D01*
X34364020Y-41250577D01*
X34364020Y-41249420D01*
X34680396Y-41249420D01*
X34705570Y-41365702D01*
X34764889Y-41466925D01*
X34854368Y-41545740D01*
X34943779Y-41587334D01*
X34982003Y-41599357D01*
X35017654Y-41609277D01*
X35055034Y-41617274D01*
X35098448Y-41623527D01*
X35152199Y-41628217D01*
X35220592Y-41631525D01*
X35307931Y-41633631D01*
X35418518Y-41634716D01*
X35556658Y-41634959D01*
X35726656Y-41634542D01*
X35932814Y-41633644D01*
X36036647Y-41633140D01*
X36269010Y-41631701D01*
X36462492Y-41629778D01*
X36620578Y-41627250D01*
X36746754Y-41623999D01*
X36844506Y-41619905D01*
X36917318Y-41614846D01*
X36968677Y-41608705D01*
X37002069Y-41601360D01*
X37006732Y-41599796D01*
X37124011Y-41537224D01*
X37210900Y-41448059D01*
X37264176Y-41337879D01*
X37280618Y-41212261D01*
X37272887Y-41139116D01*
X37235585Y-41028620D01*
X37167958Y-40941524D01*
X37067600Y-40875998D01*
X36932104Y-40830213D01*
X36843852Y-40813113D01*
X36785278Y-40807704D01*
X36688511Y-40803378D01*
X36557714Y-40800197D01*
X36397049Y-40798221D01*
X36210679Y-40797511D01*
X36002768Y-40798128D01*
X35883781Y-40799028D01*
X35675092Y-40801001D01*
X35504235Y-40802932D01*
X35366676Y-40805091D01*
X35257880Y-40807748D01*
X35173311Y-40811172D01*
X35108435Y-40815632D01*
X35058716Y-40821399D01*
X35019620Y-40828741D01*
X34986612Y-40837927D01*
X34955156Y-40849229D01*
X34940242Y-40855099D01*
X34826923Y-40916701D01*
X34747733Y-40999924D01*
X34697594Y-41110326D01*
X34693351Y-41125430D01*
X34680396Y-41249420D01*
X34364020Y-41249420D01*
X34364030Y-41218332D01*
X34366222Y-41114281D01*
G37*
G36*
X34702035Y-38284304D02*
G01*
X36137272Y-38289748D01*
X37572510Y-38295192D01*
X37572510Y-38633549D01*
X36137272Y-38638993D01*
X34702035Y-38644437D01*
X34690339Y-39290559D01*
X34394862Y-39290559D01*
X34394862Y-37638182D01*
X34690339Y-37638182D01*
X34702035Y-38284304D01*
G37*
G36*
X34691442Y-47044020D02*
G01*
X35729474Y-47044020D01*
X35729474Y-46239016D01*
X36026055Y-46239016D01*
X36026055Y-47044020D01*
X37275929Y-47044020D01*
X37275929Y-45942436D01*
X37572510Y-45942436D01*
X37572510Y-47404154D01*
X34394862Y-47404154D01*
X34394862Y-45942436D01*
X34691442Y-45942436D01*
X34691442Y-47044020D01*
G37*
G36*
X30147406Y-46528049D02*
G01*
X30867673Y-46297671D01*
X31144078Y-46210102D01*
X31384283Y-46135891D01*
X31591940Y-46074017D01*
X31770704Y-46023462D01*
X31924227Y-45983207D01*
X32056163Y-45952231D01*
X32170167Y-45929514D01*
X32212877Y-45922303D01*
X32275017Y-45915832D01*
X32371089Y-45910103D01*
X32492657Y-45905418D01*
X32631286Y-45902076D01*
X32778542Y-45900378D01*
X32832518Y-45900227D01*
X33314462Y-45900067D01*
X33314462Y-46260201D01*
X32790150Y-46262243D01*
X32622271Y-46263922D01*
X32469211Y-46267431D01*
X32337371Y-46272508D01*
X32233150Y-46278887D01*
X32162948Y-46286304D01*
X32149324Y-46288724D01*
X32032810Y-46313161D01*
X32032810Y-47160204D01*
X32170508Y-47185861D01*
X32239652Y-47194420D01*
X32344614Y-47201635D01*
X32478858Y-47207235D01*
X32635845Y-47210948D01*
X32809040Y-47212501D01*
X32811334Y-47212506D01*
X33314462Y-47213495D01*
X33314462Y-47573628D01*
X32832518Y-47571045D01*
X32685466Y-47569494D01*
X32545147Y-47566605D01*
X32419688Y-47562656D01*
X32317221Y-47557921D01*
X32245874Y-47552676D01*
X32228476Y-47550587D01*
X32140583Y-47536242D01*
X32046297Y-47517653D01*
X31941740Y-47493720D01*
X31823031Y-47463345D01*
X31686291Y-47425428D01*
X31527640Y-47378869D01*
X31343199Y-47322570D01*
X31129088Y-47255431D01*
X30881428Y-47176354D01*
X30692153Y-47115290D01*
X30135316Y-46935066D01*
X30141332Y-46732534D01*
X30610713Y-46732534D01*
X30627669Y-46740575D01*
X30679068Y-46758783D01*
X30758742Y-46785252D01*
X30860521Y-46818077D01*
X30978237Y-46855352D01*
X31105721Y-46895171D01*
X31236804Y-46935627D01*
X31365318Y-46974816D01*
X31485093Y-47010832D01*
X31589960Y-47041768D01*
X31673752Y-47065719D01*
X31730298Y-47080779D01*
X31752118Y-47085161D01*
X31765710Y-47082444D01*
X31775524Y-47069362D01*
X31782167Y-47040079D01*
X31786244Y-46988761D01*
X31788361Y-46909569D01*
X31789126Y-46796669D01*
X31789191Y-46728261D01*
X31789191Y-46370132D01*
X31540275Y-46443755D01*
X31405831Y-46483812D01*
X31265330Y-46526186D01*
X31124706Y-46569033D01*
X30989895Y-46610510D01*
X30866830Y-46648772D01*
X30761445Y-46681976D01*
X30679677Y-46708279D01*
X30627459Y-46725837D01*
X30610713Y-46732534D01*
X30141332Y-46732534D01*
X30141361Y-46731558D01*
X30147406Y-46528049D01*
G37*
G36*
X68601208Y-3191674D02*
G01*
X68602649Y-3249607D01*
X68603614Y-3340277D01*
X68604083Y-3458871D01*
X68604035Y-3600573D01*
X68603448Y-3760570D01*
X68602518Y-3906358D01*
X68596947Y-4641423D01*
X58460250Y-10494159D01*
X57851890Y-10845406D01*
X57252640Y-11191376D01*
X56663548Y-11531463D01*
X56085663Y-11865064D01*
X55520034Y-12191573D01*
X54967708Y-12510386D01*
X54429735Y-12820897D01*
X53907162Y-13122502D01*
X53401039Y-13414595D01*
X52912414Y-13696573D01*
X52442335Y-13967829D01*
X51991851Y-14227759D01*
X51562011Y-14475759D01*
X51153863Y-14711223D01*
X50768455Y-14933546D01*
X50406836Y-15142124D01*
X50070055Y-15336351D01*
X49759160Y-15515624D01*
X49475199Y-15679336D01*
X49219221Y-15826883D01*
X48992276Y-15957660D01*
X48795410Y-16071062D01*
X48629673Y-16166484D01*
X48496113Y-16243322D01*
X48395779Y-16300971D01*
X48329719Y-16338825D01*
X48298982Y-16356279D01*
X48296798Y-16357450D01*
X48289489Y-16352523D01*
X48283721Y-16329032D01*
X48279394Y-16283516D01*
X48276406Y-16212515D01*
X48274657Y-16112567D01*
X48274046Y-15980212D01*
X48274470Y-15811988D01*
X48275614Y-15632460D01*
X48281184Y-14896914D01*
X58435860Y-9034104D01*
X59044615Y-8682648D01*
X59644202Y-8336503D01*
X60233575Y-7996272D01*
X60811689Y-7662558D01*
X61377499Y-7335964D01*
X61929960Y-7017093D01*
X62468028Y-6706548D01*
X62990656Y-6404931D01*
X63496799Y-6112845D01*
X63985413Y-5830894D01*
X64455453Y-5559679D01*
X64905872Y-5299805D01*
X65335627Y-5051874D01*
X65743672Y-4816489D01*
X66128961Y-4594253D01*
X66490450Y-4385768D01*
X66827094Y-4191637D01*
X67137847Y-4012465D01*
X67421665Y-3848852D01*
X67677501Y-3701402D01*
X67904312Y-3570719D01*
X68101051Y-3457405D01*
X68266674Y-3362062D01*
X68400136Y-3285294D01*
X68500391Y-3227704D01*
X68566394Y-3189894D01*
X68597101Y-3172468D01*
X68599312Y-3171293D01*
X68601208Y-3191674D01*
G37*
G36*
X68602521Y-15642395D02*
G01*
X68603671Y-15814104D01*
X68604426Y-15971785D01*
X68604787Y-16110576D01*
X68604753Y-16225618D01*
X68604326Y-16312052D01*
X68603504Y-16365019D01*
X68602521Y-16380083D01*
X68583955Y-16390899D01*
X68530101Y-16422081D01*
X68442367Y-16472817D01*
X68322160Y-16542292D01*
X68170889Y-16629696D01*
X67989960Y-16734214D01*
X67780782Y-16855034D01*
X67544761Y-16991343D01*
X67283307Y-17142329D01*
X66997826Y-17307178D01*
X66689726Y-17485078D01*
X66360415Y-17675216D01*
X66011300Y-17876779D01*
X65643789Y-18088955D01*
X65259290Y-18310930D01*
X64859210Y-18541892D01*
X64444957Y-18781027D01*
X64017939Y-19027524D01*
X63579563Y-19280569D01*
X63131237Y-19539350D01*
X62994921Y-19618032D01*
X57392895Y-22851527D01*
X56120609Y-22850883D01*
X55858313Y-22850438D01*
X55622415Y-22849406D01*
X55415055Y-22847822D01*
X55238378Y-22845718D01*
X55094524Y-22843131D01*
X54985636Y-22840093D01*
X54913857Y-22836641D01*
X54881328Y-22832807D01*
X54880100Y-22830947D01*
X54900570Y-22819057D01*
X54956451Y-22786721D01*
X55046465Y-22734676D01*
X55169330Y-22663663D01*
X55323769Y-22574419D01*
X55508500Y-22467685D01*
X55722244Y-22344199D01*
X55963722Y-22204701D01*
X56231654Y-22049929D01*
X56524760Y-21880624D01*
X56841761Y-21697522D01*
X57181377Y-21501365D01*
X57542328Y-21292891D01*
X57923335Y-21072839D01*
X58323117Y-20841948D01*
X58740397Y-20600958D01*
X59173893Y-20350607D01*
X59622326Y-20091635D01*
X60084416Y-19824781D01*
X60558884Y-19550784D01*
X61044450Y-19270382D01*
X61539835Y-18984316D01*
X61754412Y-18860407D01*
X68596947Y-14909160D01*
X68602521Y-15642395D01*
G37*
G36*
X34398795Y-29924279D02*
G01*
X34472768Y-29776247D01*
X34580154Y-29650045D01*
X34718599Y-29548782D01*
X34885745Y-29475565D01*
X34985246Y-29449177D01*
X35049139Y-29440578D01*
X35149338Y-29433315D01*
X35279801Y-29427387D01*
X35434489Y-29422792D01*
X35607359Y-29419527D01*
X35792370Y-29417591D01*
X35983481Y-29416981D01*
X36174650Y-29417696D01*
X36359837Y-29419734D01*
X36533000Y-29423092D01*
X36688098Y-29427769D01*
X36819089Y-29433762D01*
X36919932Y-29441070D01*
X36984587Y-29449691D01*
X36985289Y-29449839D01*
X37166353Y-29506072D01*
X37317673Y-29592174D01*
X37440435Y-29709055D01*
X37535823Y-29857627D01*
X37547602Y-29882179D01*
X37575820Y-29950600D01*
X37592554Y-30015100D01*
X37600553Y-30091169D01*
X37602566Y-30191894D01*
X37600462Y-30294334D01*
X37592317Y-30370024D01*
X37575382Y-30434452D01*
X37547602Y-30501609D01*
X37455107Y-30654012D01*
X37332502Y-30777053D01*
X37181162Y-30869719D01*
X37002463Y-30930997D01*
X36948978Y-30942162D01*
X36889429Y-30948807D01*
X36794061Y-30954261D01*
X36668736Y-30958550D01*
X36519314Y-30961699D01*
X36351657Y-30963734D01*
X36171625Y-30964681D01*
X35985081Y-30964563D01*
X35797885Y-30963408D01*
X35615898Y-30961240D01*
X35444982Y-30958085D01*
X35290997Y-30953969D01*
X35159805Y-30948917D01*
X35057267Y-30942953D01*
X34989245Y-30936105D01*
X34975074Y-30933591D01*
X34796614Y-30875786D01*
X34644855Y-30787275D01*
X34522340Y-30670791D01*
X34431614Y-30529067D01*
X34375221Y-30364836D01*
X34360513Y-30273403D01*
X34360567Y-30144949D01*
X34682142Y-30144949D01*
X34682591Y-30254812D01*
X34717785Y-30361771D01*
X34789754Y-30459010D01*
X34793480Y-30462653D01*
X34827489Y-30494312D01*
X34860922Y-30520821D01*
X34897699Y-30542618D01*
X34941736Y-30560138D01*
X34996950Y-30573818D01*
X35067259Y-30584094D01*
X35156580Y-30591402D01*
X35268831Y-30596178D01*
X35407929Y-30598859D01*
X35577791Y-30599881D01*
X35782334Y-30599680D01*
X36015462Y-30598740D01*
X36240872Y-30597566D01*
X36427925Y-30596227D01*
X36580631Y-30594554D01*
X36703002Y-30592380D01*
X36799049Y-30589538D01*
X36872783Y-30585860D01*
X36928215Y-30581179D01*
X36969357Y-30575327D01*
X37000220Y-30568137D01*
X37024815Y-30559442D01*
X37032021Y-30556312D01*
X37148034Y-30487131D01*
X37226439Y-30399868D01*
X37269163Y-30291683D01*
X37278956Y-30191894D01*
X37261051Y-30063672D01*
X37207518Y-29958291D01*
X37118632Y-29876094D01*
X36994666Y-29817423D01*
X36974499Y-29811098D01*
X36920242Y-29801700D01*
X36829463Y-29793728D01*
X36707988Y-29787177D01*
X36561641Y-29782044D01*
X36396246Y-29778322D01*
X36217626Y-29776007D01*
X36031607Y-29775094D01*
X35844011Y-29775577D01*
X35660662Y-29777453D01*
X35487386Y-29780715D01*
X35330005Y-29785359D01*
X35194345Y-29791380D01*
X35086228Y-29798773D01*
X35011480Y-29807533D01*
X34987155Y-29812796D01*
X34868944Y-29866106D01*
X34777350Y-29943780D01*
X34714405Y-30038999D01*
X34682142Y-30144949D01*
X34360567Y-30144949D01*
X34360591Y-30091034D01*
X34398795Y-29924279D01*
G37*
G36*
X45728268Y-71527799D02*
G01*
X45722796Y-71870054D01*
X45707190Y-72243604D01*
X45682139Y-72638780D01*
X45648330Y-73045914D01*
X45606451Y-73455337D01*
X45568885Y-73768040D01*
X45430235Y-74682715D01*
X45250748Y-75586787D01*
X45030853Y-76479250D01*
X44770982Y-77359094D01*
X44471563Y-78225313D01*
X44133029Y-79076897D01*
X43755808Y-79912841D01*
X43340332Y-80732135D01*
X42887030Y-81533771D01*
X42396334Y-82316743D01*
X41868673Y-83080041D01*
X41304477Y-83822658D01*
X41242826Y-83899777D01*
X40861309Y-84357521D01*
X40447434Y-84822339D01*
X40008632Y-85286750D01*
X39552335Y-85743270D01*
X39085975Y-86184416D01*
X38616981Y-86602707D01*
X38258760Y-86904489D01*
X37569750Y-87443396D01*
X36850944Y-87955246D01*
X36105995Y-88438069D01*
X35338555Y-88889896D01*
X34552275Y-89308758D01*
X33750808Y-89692685D01*
X32937806Y-90039708D01*
X32116921Y-90347858D01*
X31487955Y-90555484D01*
X30812702Y-90753852D01*
X30146845Y-90926154D01*
X29483806Y-91073460D01*
X28817010Y-91196837D01*
X28139878Y-91297351D01*
X27445835Y-91376070D01*
X26728304Y-91434061D01*
X25980707Y-91472392D01*
X25799324Y-91478683D01*
X25391526Y-91491598D01*
X25391526Y-83169322D01*
X25521739Y-83155712D01*
X25607628Y-83149144D01*
X25714707Y-83144316D01*
X25821804Y-83142143D01*
X25836428Y-83142102D01*
X26016887Y-83137666D01*
X26229955Y-83124993D01*
X26466882Y-83105038D01*
X26718917Y-83078753D01*
X26977309Y-83047092D01*
X27233307Y-83011010D01*
X27478162Y-82971459D01*
X27594695Y-82950490D01*
X28289866Y-82799153D01*
X28971631Y-82608053D01*
X29638499Y-82378086D01*
X30288978Y-82110146D01*
X30921578Y-81805131D01*
X31534806Y-81463935D01*
X32127171Y-81087455D01*
X32697182Y-80676586D01*
X33243347Y-80232223D01*
X33764174Y-79755263D01*
X34258173Y-79246602D01*
X34723851Y-78707135D01*
X34783601Y-78633077D01*
X35203858Y-78074810D01*
X35590055Y-77493522D01*
X35941363Y-76891450D01*
X36256954Y-76270831D01*
X36535999Y-75633901D01*
X36777669Y-74982897D01*
X36981136Y-74320055D01*
X37145571Y-73647611D01*
X37270144Y-72967802D01*
X37354028Y-72282864D01*
X37396394Y-71595035D01*
X37396827Y-71580759D01*
X37409569Y-71151777D01*
X45728473Y-71151777D01*
X45728268Y-71527799D01*
G37*
G36*
X38649869Y-46519932D02*
G01*
X38711716Y-46364029D01*
X38806178Y-46228526D01*
X38930955Y-46118311D01*
X39011422Y-46070369D01*
X39062902Y-46045596D01*
X39114479Y-46024973D01*
X39170486Y-46008125D01*
X39235256Y-45994674D01*
X39313123Y-45984242D01*
X39408419Y-45976452D01*
X39525477Y-45970927D01*
X39668630Y-45967289D01*
X39842212Y-45965160D01*
X40050554Y-45964164D01*
X40233547Y-45963933D01*
X40433980Y-45964378D01*
X40622216Y-45965791D01*
X40793384Y-45968069D01*
X40942612Y-45971109D01*
X41065029Y-45974808D01*
X41155763Y-45979063D01*
X41209944Y-45983771D01*
X41215790Y-45984724D01*
X41384762Y-46033504D01*
X41536854Y-46110255D01*
X41661558Y-46209539D01*
X41672842Y-46221270D01*
X41768799Y-46343942D01*
X41830202Y-46474318D01*
X41862425Y-46624854D01*
X41866838Y-46670803D01*
X41861860Y-46855142D01*
X41819430Y-47022082D01*
X41741882Y-47168785D01*
X41631553Y-47292409D01*
X41490777Y-47390115D01*
X41321891Y-47459063D01*
X41195029Y-47487619D01*
X41129922Y-47494313D01*
X41029785Y-47499750D01*
X40900540Y-47503959D01*
X40748111Y-47506971D01*
X40578421Y-47508818D01*
X40397392Y-47509530D01*
X40210950Y-47509137D01*
X40025016Y-47507671D01*
X39845514Y-47505162D01*
X39678368Y-47501640D01*
X39529500Y-47497137D01*
X39404835Y-47491683D01*
X39310294Y-47485308D01*
X39251802Y-47478044D01*
X39249371Y-47477538D01*
X39063428Y-47419855D01*
X38909048Y-47334724D01*
X38786935Y-47222835D01*
X38697789Y-47084876D01*
X38642313Y-46921536D01*
X38633233Y-46873386D01*
X38627523Y-46772383D01*
X38953407Y-46772383D01*
X38954176Y-46782469D01*
X38982090Y-46903890D01*
X39044030Y-47000718D01*
X39140621Y-47073638D01*
X39260211Y-47120090D01*
X39310862Y-47127863D01*
X39397258Y-47134252D01*
X39513919Y-47139296D01*
X39655364Y-47143030D01*
X39816113Y-47145493D01*
X39990686Y-47146723D01*
X40173602Y-47146756D01*
X40359381Y-47145630D01*
X40542543Y-47143382D01*
X40717607Y-47140051D01*
X40879094Y-47135673D01*
X41021521Y-47130286D01*
X41139411Y-47123927D01*
X41227281Y-47116634D01*
X41279652Y-47108444D01*
X41286598Y-47106244D01*
X41396867Y-47042689D01*
X41480068Y-46954126D01*
X41532119Y-46848059D01*
X41548938Y-46731997D01*
X41536833Y-46646052D01*
X41513296Y-46573238D01*
X41482473Y-46511026D01*
X41441165Y-46458671D01*
X41386175Y-46415428D01*
X41314303Y-46380552D01*
X41222352Y-46353297D01*
X41107124Y-46332919D01*
X40965420Y-46318671D01*
X40794043Y-46309809D01*
X40589794Y-46305587D01*
X40349476Y-46305260D01*
X40085605Y-46307868D01*
X39868488Y-46311202D01*
X39689189Y-46315224D01*
X39543161Y-46320582D01*
X39425854Y-46327923D01*
X39332717Y-46337894D01*
X39259203Y-46351144D01*
X39200762Y-46368319D01*
X39152844Y-46390066D01*
X39110901Y-46417034D01*
X39070382Y-46449870D01*
X39066999Y-46452828D01*
X38996095Y-46538313D01*
X38958815Y-46643126D01*
X38953407Y-46772383D01*
X38627523Y-46772383D01*
X38622941Y-46691347D01*
X38649869Y-46519932D01*
G37*
G36*
X37572510Y-36388307D02*
G01*
X37277274Y-36388307D01*
X37271306Y-36139392D01*
X37265337Y-35890476D01*
X34702035Y-35890476D01*
X34695944Y-36086431D01*
X34689852Y-36282386D01*
X34394862Y-36282386D01*
X34394862Y-35138432D01*
X34691442Y-35138432D01*
X34691442Y-35519750D01*
X37275929Y-35519750D01*
X37275929Y-35032511D01*
X37572510Y-35032511D01*
X37572510Y-36388307D01*
G37*
G36*
X30135310Y-32747143D02*
G01*
X30628597Y-32587944D01*
X30911017Y-32496991D01*
X31157361Y-32418366D01*
X31371807Y-32351170D01*
X31558531Y-32294506D01*
X31721708Y-32247476D01*
X31865517Y-32209181D01*
X31994132Y-32178723D01*
X32111731Y-32155206D01*
X32222490Y-32137729D01*
X32330585Y-32125396D01*
X32440192Y-32117309D01*
X32555489Y-32112569D01*
X32680652Y-32110278D01*
X32819856Y-32109539D01*
X32853703Y-32109494D01*
X33314462Y-32109075D01*
X33314462Y-32465144D01*
X32747781Y-32474743D01*
X32557202Y-32478939D01*
X32394589Y-32484513D01*
X32263351Y-32491280D01*
X32166899Y-32499058D01*
X32108642Y-32507661D01*
X32101215Y-32509669D01*
X32021330Y-32534998D01*
X32032810Y-33369542D01*
X32149324Y-33393979D01*
X32207918Y-33401659D01*
X32302476Y-33408382D01*
X32426597Y-33413882D01*
X32573883Y-33417896D01*
X32737935Y-33420159D01*
X32790150Y-33420460D01*
X33314462Y-33422503D01*
X33314462Y-33782636D01*
X32811334Y-33780724D01*
X32626852Y-33778721D01*
X32462545Y-33774350D01*
X32324257Y-33767869D01*
X32217833Y-33759538D01*
X32159916Y-33751782D01*
X32032248Y-33726069D01*
X31889972Y-33692504D01*
X31728319Y-33649756D01*
X31542522Y-33596493D01*
X31327812Y-33531384D01*
X31079420Y-33453099D01*
X31009227Y-33430581D01*
X30853986Y-33380675D01*
X30703748Y-33332470D01*
X30565689Y-33288261D01*
X30446985Y-33250344D01*
X30354815Y-33221015D01*
X30299552Y-33203569D01*
X30147406Y-33155966D01*
X30141529Y-32957316D01*
X30628274Y-32957316D01*
X30655255Y-32967081D01*
X30717188Y-32987257D01*
X30808445Y-33016082D01*
X30923398Y-33051793D01*
X31056416Y-33092630D01*
X31196030Y-33135061D01*
X31340649Y-33178841D01*
X31472243Y-33218745D01*
X31585270Y-33253088D01*
X31674193Y-33280185D01*
X31733472Y-33298352D01*
X31757414Y-33305847D01*
X31782172Y-33314347D01*
X31783894Y-33314908D01*
X31785632Y-33295439D01*
X31787129Y-33240438D01*
X31788287Y-33156740D01*
X31789003Y-33051183D01*
X31789191Y-32956447D01*
X31788412Y-32817314D01*
X31785861Y-32716138D01*
X31781217Y-32648533D01*
X31774160Y-32610113D01*
X31764368Y-32596492D01*
X31762838Y-32596314D01*
X31730060Y-32602308D01*
X31665998Y-32619003D01*
X31576712Y-32644472D01*
X31468260Y-32676788D01*
X31346702Y-32714022D01*
X31218096Y-32754247D01*
X31088501Y-32795534D01*
X30963976Y-32835956D01*
X30850580Y-32873584D01*
X30754371Y-32906492D01*
X30681409Y-32932751D01*
X30637752Y-32950434D01*
X30628274Y-32957316D01*
X30141529Y-32957316D01*
X30141358Y-32951554D01*
X30135310Y-32747143D01*
G37*
G36*
X30146094Y-35774360D02*
G01*
X30159691Y-35661844D01*
X30181034Y-35565238D01*
X30211456Y-35475778D01*
X30238345Y-35413829D01*
X30301164Y-35310544D01*
X30391250Y-35202698D01*
X30496787Y-35102088D01*
X30605957Y-35020509D01*
X30666422Y-34986496D01*
X30743980Y-34950485D01*
X30814990Y-34921546D01*
X30885319Y-34898913D01*
X30960836Y-34881822D01*
X31047408Y-34869511D01*
X31150903Y-34861215D01*
X31277190Y-34856170D01*
X31432137Y-34853612D01*
X31621612Y-34852778D01*
X31693861Y-34852751D01*
X31883419Y-34853131D01*
X32036175Y-34854351D01*
X32157692Y-34856680D01*
X32253532Y-34860385D01*
X32329257Y-34865732D01*
X32390431Y-34872990D01*
X32442615Y-34882425D01*
X32476312Y-34890349D01*
X32690564Y-34963202D01*
X32877165Y-35064881D01*
X33023779Y-35184490D01*
X33113270Y-35284387D01*
X33183774Y-35390885D01*
X33237077Y-35510057D01*
X33274969Y-35647975D01*
X33299237Y-35810713D01*
X33311669Y-36004343D01*
X33314301Y-36171168D01*
X33314462Y-36409492D01*
X30136814Y-36409492D01*
X30136814Y-36082177D01*
X30136957Y-36070543D01*
X30427340Y-36070543D01*
X33001879Y-36070543D01*
X32992490Y-35885180D01*
X32978134Y-35746268D01*
X32947803Y-35636837D01*
X32896676Y-35545494D01*
X32819933Y-35460846D01*
X32808527Y-35450374D01*
X32733821Y-35388021D01*
X32657986Y-35337365D01*
X32575701Y-35297252D01*
X32481642Y-35266529D01*
X32370488Y-35244042D01*
X32236917Y-35228638D01*
X32075606Y-35219163D01*
X31881233Y-35214463D01*
X31715045Y-35213385D01*
X31493017Y-35214597D01*
X31308106Y-35219648D01*
X31155152Y-35229598D01*
X31028995Y-35245506D01*
X30924476Y-35268430D01*
X30836435Y-35299429D01*
X30759711Y-35339563D01*
X30689144Y-35389889D01*
X30637687Y-35434471D01*
X30544019Y-35545165D01*
X30480426Y-35678745D01*
X30444930Y-35839884D01*
X30438688Y-35904979D01*
X30427340Y-36070543D01*
X30136957Y-36070543D01*
X30138912Y-35911550D01*
X30146094Y-35774360D01*
G37*
G36*
X68598742Y-17872407D02*
G01*
X68600875Y-17930332D01*
X68602447Y-18020982D01*
X68603416Y-18139537D01*
X68603741Y-18281176D01*
X68603378Y-18441079D01*
X68602518Y-18585236D01*
X68596947Y-19318445D01*
X62477225Y-22851527D01*
X61204893Y-22851170D01*
X60941299Y-22851068D01*
X60717080Y-22850858D01*
X60529242Y-22850438D01*
X60374792Y-22849712D01*
X60250736Y-22848579D01*
X60154080Y-22846940D01*
X60081831Y-22844697D01*
X60030995Y-22841750D01*
X59998578Y-22838001D01*
X59981586Y-22833351D01*
X59977026Y-22827700D01*
X59981905Y-22820949D01*
X59993228Y-22812999D01*
X59996113Y-22811188D01*
X60025012Y-22794015D01*
X60088090Y-22757161D01*
X60183386Y-22701756D01*
X60308940Y-22628931D01*
X60462792Y-22539817D01*
X60642981Y-22435543D01*
X60847547Y-22317241D01*
X61074528Y-22186041D01*
X61321965Y-22043074D01*
X61587897Y-21889469D01*
X61870364Y-21726358D01*
X62167404Y-21554871D01*
X62477059Y-21376139D01*
X62797366Y-21191292D01*
X63126366Y-21001460D01*
X63462098Y-20807774D01*
X63802601Y-20611365D01*
X64145916Y-20413363D01*
X64490081Y-20214899D01*
X64833137Y-20017102D01*
X65173122Y-19821105D01*
X65508076Y-19628037D01*
X65836039Y-19439028D01*
X66155050Y-19255209D01*
X66463148Y-19077712D01*
X66758374Y-18907665D01*
X67038767Y-18746200D01*
X67302365Y-18594448D01*
X67547210Y-18453538D01*
X67771339Y-18324602D01*
X67972793Y-18208769D01*
X68149612Y-18107171D01*
X68299834Y-18020937D01*
X68421499Y-17951199D01*
X68512647Y-17899087D01*
X68571317Y-17865731D01*
X68595549Y-17852262D01*
X68596092Y-17852027D01*
X68598742Y-17872407D01*
G37*
G36*
X30423411Y-29339197D02*
G01*
X30545290Y-29356180D01*
X30673348Y-29386648D01*
X30812393Y-29432371D01*
X30967237Y-29495117D01*
X31142690Y-29576657D01*
X31343560Y-29678759D01*
X31566764Y-29798857D01*
X31954736Y-30011827D01*
X33314462Y-30011827D01*
X33314462Y-30371960D01*
X31952142Y-30371960D01*
X31543047Y-30596047D01*
X31314171Y-30718704D01*
X31115216Y-30818956D01*
X30941317Y-30898583D01*
X30787605Y-30959366D01*
X30649214Y-31003083D01*
X30521278Y-31031516D01*
X30398930Y-31046444D01*
X30302298Y-31049859D01*
X30136814Y-31049859D01*
X30136814Y-30717160D01*
X30320752Y-30703021D01*
X30467853Y-30683215D01*
X30627064Y-30644583D01*
X30803370Y-30585401D01*
X31001754Y-30503941D01*
X31227202Y-30398478D01*
X31289716Y-30367489D01*
X31643221Y-30190492D01*
X31223670Y-29985300D01*
X31035487Y-29895427D01*
X30876424Y-29824868D01*
X30739239Y-29771198D01*
X30616684Y-29731995D01*
X30501514Y-29704833D01*
X30386485Y-29687289D01*
X30311584Y-29680141D01*
X30136814Y-29666627D01*
X30136814Y-29333929D01*
X30302899Y-29333929D01*
X30423411Y-29339197D01*
G37*
G36*
X37572510Y-26997046D02*
G01*
X37092144Y-27011805D01*
X36611779Y-27026563D01*
X35773420Y-27465275D01*
X35548411Y-27583691D01*
X35360573Y-27683989D01*
X35210058Y-27766082D01*
X35097018Y-27829887D01*
X35021605Y-27875317D01*
X34983970Y-27902288D01*
X34981787Y-27910633D01*
X35014232Y-27911234D01*
X35083274Y-27909701D01*
X35183208Y-27906257D01*
X35308327Y-27901124D01*
X35452927Y-27894526D01*
X35611301Y-27886686D01*
X35660102Y-27884153D01*
X35863408Y-27874847D01*
X36094230Y-27866552D01*
X36337724Y-27859653D01*
X36579041Y-27854538D01*
X36803336Y-27851593D01*
X36932101Y-27851026D01*
X37572510Y-27851026D01*
X37572510Y-28189975D01*
X34394862Y-28189975D01*
X34395230Y-28015205D01*
X34395599Y-27840434D01*
X35231370Y-27406156D01*
X35404714Y-27315789D01*
X35565932Y-27231173D01*
X35711238Y-27154339D01*
X35836844Y-27087314D01*
X35938964Y-27032128D01*
X36013812Y-26990809D01*
X36057601Y-26965386D01*
X36067782Y-26957998D01*
X36049023Y-26951973D01*
X35999761Y-26950601D01*
X35946613Y-26953138D01*
X35885599Y-26957102D01*
X35792014Y-26962479D01*
X35672346Y-26968954D01*
X35533082Y-26976211D01*
X35380709Y-26983935D01*
X35221714Y-26991808D01*
X35062585Y-26999516D01*
X34909808Y-27006743D01*
X34769872Y-27013172D01*
X34649264Y-27018488D01*
X34554469Y-27022375D01*
X34491977Y-27024518D01*
X34473887Y-27024838D01*
X34394862Y-27024838D01*
X34394862Y-26664704D01*
X37572510Y-26664704D01*
X37572510Y-26997046D01*
G37*
G36*
X30845995Y-38032610D02*
G01*
X31117610Y-37945904D01*
X31354222Y-37872051D01*
X31560863Y-37810034D01*
X31742564Y-37758840D01*
X31904358Y-37717455D01*
X32051277Y-37684863D01*
X32188353Y-37660051D01*
X32320617Y-37642004D01*
X32453102Y-37629707D01*
X32590840Y-37622146D01*
X32738863Y-37618307D01*
X32902203Y-37617174D01*
X32906663Y-37617172D01*
X33314462Y-37616998D01*
X33314462Y-37972959D01*
X32768965Y-37983314D01*
X32603381Y-37987389D01*
X32451990Y-37992911D01*
X32321016Y-37999535D01*
X32216681Y-38006919D01*
X32145207Y-38014722D01*
X32122844Y-38018892D01*
X32022218Y-38044116D01*
X32022218Y-38884691D01*
X32080475Y-38896886D01*
X32197926Y-38917607D01*
X32329624Y-38932918D01*
X32482606Y-38943298D01*
X32663908Y-38949230D01*
X32874887Y-38951190D01*
X33314462Y-38951610D01*
X33314462Y-39290559D01*
X32779558Y-39288981D01*
X32602098Y-39287945D01*
X32460028Y-39285727D01*
X32346376Y-39281921D01*
X32254168Y-39276116D01*
X32176434Y-39267905D01*
X32106201Y-39256879D01*
X32053995Y-39246461D01*
X31984310Y-39231307D01*
X31920416Y-39216770D01*
X31857582Y-39201465D01*
X31791081Y-39184006D01*
X31716183Y-39163006D01*
X31628161Y-39137080D01*
X31522283Y-39104842D01*
X31393823Y-39064907D01*
X31238052Y-39015889D01*
X31050239Y-38956401D01*
X30883561Y-38903463D01*
X30136814Y-38666146D01*
X30136814Y-38463432D01*
X30624053Y-38463432D01*
X30643049Y-38474420D01*
X30694605Y-38494230D01*
X30770576Y-38519932D01*
X30851784Y-38545288D01*
X30955355Y-38576657D01*
X31085296Y-38616228D01*
X31227498Y-38659693D01*
X31367851Y-38702743D01*
X31418465Y-38718313D01*
X31531921Y-38753020D01*
X31631171Y-38782951D01*
X31709176Y-38806020D01*
X31758900Y-38820137D01*
X31773302Y-38823591D01*
X31778515Y-38803864D01*
X31783009Y-38748627D01*
X31786482Y-38664732D01*
X31788630Y-38559036D01*
X31789191Y-38464371D01*
X31788314Y-38346189D01*
X31785884Y-38244300D01*
X31782202Y-38165583D01*
X31777569Y-38116915D01*
X31773430Y-38104237D01*
X31745999Y-38110251D01*
X31685610Y-38126998D01*
X31598482Y-38152533D01*
X31490835Y-38184914D01*
X31368886Y-38222198D01*
X31238855Y-38262440D01*
X31106960Y-38303697D01*
X30979420Y-38344026D01*
X30862454Y-38381484D01*
X30762280Y-38414126D01*
X30685117Y-38440010D01*
X30637185Y-38457193D01*
X30624053Y-38463432D01*
X30136814Y-38463432D01*
X30136814Y-38260561D01*
X30845995Y-38032610D01*
G37*
G36*
X65911372Y-2519710D02*
G01*
X67178276Y-2525171D01*
X57750914Y-7967859D01*
X57164368Y-8306477D01*
X56586964Y-8639792D01*
X56019791Y-8967176D01*
X55463935Y-9288003D01*
X54920485Y-9601645D01*
X54390527Y-9907476D01*
X53875150Y-10204869D01*
X53375441Y-10493195D01*
X52892487Y-10771829D01*
X52427376Y-11040143D01*
X51981195Y-11297510D01*
X51555032Y-11543303D01*
X51149975Y-11776894D01*
X50767110Y-11997658D01*
X50407526Y-12204966D01*
X50072309Y-12398192D01*
X49762548Y-12576708D01*
X49479330Y-12739887D01*
X49223741Y-12887103D01*
X48996871Y-13017728D01*
X48799806Y-13131135D01*
X48633634Y-13226697D01*
X48499442Y-13303787D01*
X48398318Y-13361778D01*
X48331350Y-13400042D01*
X48299624Y-13417953D01*
X48297072Y-13419291D01*
X48289720Y-13413324D01*
X48283772Y-13387811D01*
X48279105Y-13339359D01*
X48275593Y-13264572D01*
X48273113Y-13160057D01*
X48271539Y-13022418D01*
X48270748Y-12848261D01*
X48270592Y-12697819D01*
X48270592Y-11967603D01*
X56457530Y-7240926D01*
X64644469Y-2514248D01*
X65911372Y-2519710D01*
G37*
G36*
X38688787Y-40890463D02*
G01*
X38769869Y-40759197D01*
X38842983Y-40680731D01*
X38922768Y-40611400D01*
X38997171Y-40561669D01*
X39081413Y-40523254D01*
X39190714Y-40487870D01*
X39204642Y-40483886D01*
X39241779Y-40474317D01*
X39282228Y-40466446D01*
X39330340Y-40460111D01*
X39390464Y-40455150D01*
X39466951Y-40451398D01*
X39564150Y-40448695D01*
X39686413Y-40446876D01*
X39838089Y-40445780D01*
X40023528Y-40445244D01*
X40241734Y-40445105D01*
X40465391Y-40445268D01*
X40651007Y-40445861D01*
X40802911Y-40447041D01*
X40925430Y-40448964D01*
X41022893Y-40451786D01*
X41099626Y-40455663D01*
X41159957Y-40460753D01*
X41208215Y-40467211D01*
X41248727Y-40475193D01*
X41277538Y-40482525D01*
X41449481Y-40542871D01*
X41587149Y-40621443D01*
X41696386Y-40722846D01*
X41783033Y-40851680D01*
X41807013Y-40899601D01*
X41834178Y-40964122D01*
X41850725Y-41024688D01*
X41859118Y-41095609D01*
X41861822Y-41191195D01*
X41861898Y-41218332D01*
X41860159Y-41321662D01*
X41853301Y-41397016D01*
X41838859Y-41458705D01*
X41814370Y-41521039D01*
X41807013Y-41537064D01*
X41724989Y-41678509D01*
X41624146Y-41787075D01*
X41512130Y-41862771D01*
X41457093Y-41892095D01*
X41406481Y-41916439D01*
X41355784Y-41936294D01*
X41300491Y-41952153D01*
X41236089Y-41964507D01*
X41158068Y-41973847D01*
X41061917Y-41980664D01*
X40943125Y-41985452D01*
X40797180Y-41988699D01*
X40619572Y-41990900D01*
X40405788Y-41992544D01*
X40315879Y-41993115D01*
X40123520Y-41993885D01*
X39940606Y-41993819D01*
X39772332Y-41992976D01*
X39623895Y-41991417D01*
X39500490Y-41989201D01*
X39407314Y-41986389D01*
X39349561Y-41983040D01*
X39339011Y-41981805D01*
X39144659Y-41936177D01*
X38978774Y-41864242D01*
X38844076Y-41767445D01*
X38762371Y-41675555D01*
X38695721Y-41567665D01*
X38653775Y-41458502D01*
X38632428Y-41334095D01*
X38627432Y-41216009D01*
X38630635Y-41177573D01*
X38951210Y-41177573D01*
X38954197Y-41290824D01*
X38985999Y-41398333D01*
X39046994Y-41490564D01*
X39086393Y-41526334D01*
X39123482Y-41552425D01*
X39163018Y-41574198D01*
X39208976Y-41592012D01*
X39265335Y-41606223D01*
X39336071Y-41617188D01*
X39425161Y-41625262D01*
X39536583Y-41630804D01*
X39674314Y-41634170D01*
X39842329Y-41635717D01*
X40044608Y-41635801D01*
X40285127Y-41634779D01*
X40294695Y-41634726D01*
X40515450Y-41633332D01*
X40698027Y-41631757D01*
X40846614Y-41629817D01*
X40965403Y-41627330D01*
X41058582Y-41624114D01*
X41130342Y-41619988D01*
X41184872Y-41614769D01*
X41226363Y-41608275D01*
X41259004Y-41600325D01*
X41284426Y-41591716D01*
X41393097Y-41531153D01*
X41473574Y-41447459D01*
X41525142Y-41347992D01*
X41547086Y-41240107D01*
X41538691Y-41131161D01*
X41499241Y-41028510D01*
X41428021Y-40939510D01*
X41353043Y-40885987D01*
X41306826Y-40863640D01*
X41253727Y-40845154D01*
X41189534Y-40830189D01*
X41110035Y-40818403D01*
X41011017Y-40809456D01*
X40888268Y-40803007D01*
X40737575Y-40798715D01*
X40554727Y-40796238D01*
X40335510Y-40795237D01*
X40231142Y-40795174D01*
X39996842Y-40795814D01*
X39800634Y-40797857D01*
X39638257Y-40801699D01*
X39505446Y-40807733D01*
X39397939Y-40816354D01*
X39311471Y-40827956D01*
X39241781Y-40842933D01*
X39184603Y-40861679D01*
X39135676Y-40884589D01*
X39111342Y-40898732D01*
X39030162Y-40971992D01*
X38976658Y-41068117D01*
X38951210Y-41177573D01*
X38630635Y-41177573D01*
X38642024Y-41040956D01*
X38688787Y-40890463D01*
G37*
G36*
X50207975Y-3516769D02*
G01*
X49956379Y-3662014D01*
X49713613Y-3802181D01*
X49482401Y-3935695D01*
X49265469Y-4060983D01*
X49065539Y-4176471D01*
X48885335Y-4280585D01*
X48727583Y-4371751D01*
X48595006Y-4448395D01*
X48490328Y-4508943D01*
X48416273Y-4551821D01*
X48375565Y-4575456D01*
X48371217Y-4577998D01*
X48270592Y-4637037D01*
X48270747Y-3898869D01*
X48270903Y-3160701D01*
X49391373Y-2514579D01*
X51944107Y-2514579D01*
X50207975Y-3516769D01*
G37*
G36*
X41830558Y-44671377D02*
G01*
X41613419Y-44671063D01*
X41470287Y-44666638D01*
X41337156Y-44652309D01*
X41209330Y-44625849D01*
X41082112Y-44585030D01*
X40950806Y-44527625D01*
X40810713Y-44451406D01*
X40657139Y-44354146D01*
X40485385Y-44233618D01*
X40290755Y-44087592D01*
X40146405Y-43975317D01*
X40002581Y-43863192D01*
X39886093Y-43774997D01*
X39791745Y-43707520D01*
X39714339Y-43657552D01*
X39648678Y-43621880D01*
X39589565Y-43597294D01*
X39531802Y-43580581D01*
X39495139Y-43572905D01*
X39347079Y-43561892D01*
X39216666Y-43585059D01*
X39107828Y-43639517D01*
X39024493Y-43722380D01*
X38970587Y-43830761D01*
X38950039Y-43961771D01*
X38949956Y-43973686D01*
X38969355Y-44114763D01*
X39026032Y-44235913D01*
X39119536Y-44336486D01*
X39249417Y-44415834D01*
X39260379Y-44420807D01*
X39348831Y-44460117D01*
X39249787Y-44607323D01*
X39203406Y-44674479D01*
X39165892Y-44725498D01*
X39143364Y-44752178D01*
X39140150Y-44754248D01*
X39118198Y-44743347D01*
X39072002Y-44715340D01*
X39023636Y-44684181D01*
X38912735Y-44598240D01*
X38811351Y-44496048D01*
X38730471Y-44389686D01*
X38692211Y-44319834D01*
X38643765Y-44167186D01*
X38624338Y-44002439D01*
X38633823Y-43838185D01*
X38672116Y-43687014D01*
X38698033Y-43627947D01*
X38771666Y-43516315D01*
X38871948Y-43408471D01*
X38984457Y-43318609D01*
X39052774Y-43278765D01*
X39110065Y-43252505D01*
X39161414Y-43235495D01*
X39218722Y-43225763D01*
X39293889Y-43221340D01*
X39398817Y-43220253D01*
X39406052Y-43220251D01*
X39510200Y-43220883D01*
X39584756Y-43224498D01*
X39642498Y-43233671D01*
X39696201Y-43250977D01*
X39758641Y-43278993D01*
X39801481Y-43299971D01*
X39876401Y-43342562D01*
X39977757Y-43408562D01*
X40099727Y-43493911D01*
X40236486Y-43594550D01*
X40361655Y-43690366D01*
X40483850Y-43784698D01*
X40604337Y-43876181D01*
X40716035Y-43959553D01*
X40811866Y-44029554D01*
X40884751Y-44080920D01*
X40908317Y-44096646D01*
X41007997Y-44153965D01*
X41122037Y-44208235D01*
X41239052Y-44255074D01*
X41347660Y-44290100D01*
X41436477Y-44308933D01*
X41465129Y-44310960D01*
X41533978Y-44311243D01*
X41533978Y-43209658D01*
X41830558Y-43209658D01*
X41830558Y-44671377D01*
G37*
G36*
X3177096Y-12695434D02*
G01*
X3604916Y-12731548D01*
X4048558Y-12789847D01*
X4498932Y-12868786D01*
X4946947Y-12966818D01*
X5383514Y-13082396D01*
X5702693Y-13181231D01*
X6319413Y-13407500D01*
X6917349Y-13671449D01*
X7495218Y-13972173D01*
X8051737Y-14308768D01*
X8585624Y-14680329D01*
X9095598Y-15085951D01*
X9580374Y-15524729D01*
X10038672Y-15995759D01*
X10469209Y-16498136D01*
X10551761Y-16602152D01*
X10909220Y-17090492D01*
X11240874Y-17608893D01*
X11543705Y-18151698D01*
X11814696Y-18713250D01*
X12050832Y-19287893D01*
X12181942Y-19658924D01*
X12309862Y-20080316D01*
X12421414Y-20519134D01*
X12515066Y-20966438D01*
X12589288Y-21413289D01*
X12642549Y-21850747D01*
X12673317Y-22269874D01*
X12680715Y-22570834D01*
X12680934Y-22851527D01*
X2512460Y-22851527D01*
X2512460Y-12683053D01*
X2774188Y-12683053D01*
X3177096Y-12695434D01*
G37*
G36*
X68602521Y-9772949D02*
G01*
X68603670Y-9944784D01*
X68604425Y-10102555D01*
X68604786Y-10241416D01*
X68604754Y-10356517D01*
X68604329Y-10443013D01*
X68603511Y-10496054D01*
X68602521Y-10511208D01*
X68581784Y-10523368D01*
X68525705Y-10555913D01*
X68435557Y-10608107D01*
X68312616Y-10679216D01*
X68158155Y-10768504D01*
X67973446Y-10875237D01*
X67759765Y-10998680D01*
X67518385Y-11138098D01*
X67250579Y-11292755D01*
X66957622Y-11461918D01*
X66640787Y-11644851D01*
X66301347Y-11840819D01*
X65940578Y-12049087D01*
X65559751Y-12268920D01*
X65160142Y-12499584D01*
X64743024Y-12740344D01*
X64309670Y-12990463D01*
X63861355Y-13249209D01*
X63399352Y-13515845D01*
X62924935Y-13789637D01*
X62439377Y-14069850D01*
X61943953Y-14355748D01*
X61439936Y-14646598D01*
X60928600Y-14941664D01*
X60411219Y-15240210D01*
X59889066Y-15541503D01*
X59363415Y-15844808D01*
X58835540Y-16149388D01*
X58306715Y-16454510D01*
X57778213Y-16759439D01*
X57251308Y-17063439D01*
X56727274Y-17365776D01*
X56207385Y-17665714D01*
X55692915Y-17962519D01*
X55185136Y-18255456D01*
X54685324Y-18543790D01*
X54194751Y-18826786D01*
X53714692Y-19103710D01*
X53246420Y-19373825D01*
X52791209Y-19636397D01*
X52350332Y-19890692D01*
X51925064Y-20135974D01*
X51516678Y-20371509D01*
X51126449Y-20596561D01*
X50755648Y-20810396D01*
X50405552Y-21012278D01*
X50077432Y-21201473D01*
X49772564Y-21377246D01*
X49492220Y-21538862D01*
X49237675Y-21685586D01*
X49010202Y-21816683D01*
X48811075Y-21931418D01*
X48641568Y-22029056D01*
X48502954Y-22108862D01*
X48396507Y-22170102D01*
X48323502Y-22212040D01*
X48285211Y-22233942D01*
X48279408Y-22237181D01*
X48277374Y-22216801D01*
X48275807Y-22158869D01*
X48274731Y-22068202D01*
X48274170Y-21949614D01*
X48274150Y-21807920D01*
X48274696Y-21647937D01*
X48275613Y-21502381D01*
X48281184Y-20767580D01*
X58439065Y-14902953D01*
X68596947Y-9038326D01*
X68602521Y-9772949D01*
G37*
G36*
X68607539Y-114367790D02*
G01*
X2512460Y-114367790D01*
X2512460Y-94030843D01*
X68607539Y-94030843D01*
X68607539Y-114367790D01*
G37*
G36*
X41830558Y-50179300D02*
G01*
X41595293Y-50179300D01*
X41459658Y-50175938D01*
X41335180Y-50164360D01*
X41217097Y-50142330D01*
X41100647Y-50107613D01*
X40981070Y-50057970D01*
X40853604Y-49991165D01*
X40713488Y-49904963D01*
X40555961Y-49797126D01*
X40376260Y-49665419D01*
X40176288Y-49512759D01*
X39999164Y-49377770D01*
X39852461Y-49270367D01*
X39736472Y-49190753D01*
X39651488Y-49139131D01*
X39610706Y-49119797D01*
X39471845Y-49084212D01*
X39336411Y-49079941D01*
X39211282Y-49104854D01*
X39103337Y-49156824D01*
X39019454Y-49233722D01*
X38972086Y-49317418D01*
X38952541Y-49408693D01*
X38951000Y-49516695D01*
X38966466Y-49621366D01*
X38990611Y-49689614D01*
X39065453Y-49794227D01*
X39171693Y-49883697D01*
X39261323Y-49933227D01*
X39350334Y-49973143D01*
X39250538Y-50118484D01*
X39203519Y-50185062D01*
X39165328Y-50235624D01*
X39142265Y-50261956D01*
X39139001Y-50263930D01*
X39116032Y-50253539D01*
X39069342Y-50226672D01*
X39029059Y-50201760D01*
X38872935Y-50080958D01*
X38754209Y-49940326D01*
X38672946Y-49779960D01*
X38632829Y-49624820D01*
X38623204Y-49440547D01*
X38652833Y-49266714D01*
X38719371Y-49107797D01*
X38820475Y-48968273D01*
X38953801Y-48852617D01*
X39072886Y-48784533D01*
X39135747Y-48757590D01*
X39193475Y-48740800D01*
X39259603Y-48731866D01*
X39347660Y-48728493D01*
X39404954Y-48728174D01*
X39504060Y-48729036D01*
X39575729Y-48733844D01*
X39634885Y-48745932D01*
X39696454Y-48768633D01*
X39775362Y-48805282D01*
X39796864Y-48815709D01*
X39890683Y-48867256D01*
X40006185Y-48941586D01*
X40146028Y-49040536D01*
X40312867Y-49165944D01*
X40394146Y-49228912D01*
X40555243Y-49353799D01*
X40688809Y-49455084D01*
X40799954Y-49536176D01*
X40893791Y-49600482D01*
X40975431Y-49651411D01*
X41049986Y-49692370D01*
X41122568Y-49726767D01*
X41172303Y-49747703D01*
X41258942Y-49778931D01*
X41347778Y-49804771D01*
X41428018Y-49822756D01*
X41488867Y-49830418D01*
X41517745Y-49826698D01*
X41522113Y-49803662D01*
X41526036Y-49743963D01*
X41529349Y-49653306D01*
X41531887Y-49537395D01*
X41533483Y-49401935D01*
X41533978Y-49267124D01*
X41533978Y-48717582D01*
X41830558Y-48717582D01*
X41830558Y-50179300D01*
G37*
G04 #@! TO.C,D4*
X57095200Y-62314600D02*
X56595200Y-62314600D01*
D17*
X56945200Y-62989600D02*
X56945200Y-62689600D01*
X56745200Y-62839600D02*
X56945200Y-62989600D01*
X56745200Y-62839600D02*
X56945200Y-62689600D01*
D16*
X56595200Y-63364600D02*
X57095200Y-63364600D01*
G04 #@! TO.C,D5*
X55995000Y-66692200D02*
X55765000Y-66692200D01*
X55765000Y-67572200D02*
X55995000Y-67572200D01*
G04 #@! TO.C,R2*
X54448000Y-54875400D02*
X53248000Y-54875400D01*
X53248000Y-53125400D02*
X54448000Y-53125400D01*
G04 #@! TO.C,R3*
X54094000Y-59095000D02*
X53094000Y-59095000D01*
X53094000Y-57745000D02*
X54094000Y-57745000D01*
G04 #@! TO.C,R1*
X53457600Y-48632800D02*
X55457600Y-48632800D01*
X55457600Y-50782800D02*
X53457600Y-50782800D01*
G04 #@! TO.C,D2*
X57175600Y-53250400D02*
X59875600Y-53250400D01*
X58225600Y-54000400D02*
X58575600Y-54000400D01*
X57175600Y-54750400D02*
X59875600Y-54750400D01*
X58425600Y-53650400D02*
X58425600Y-54350400D01*
X58525600Y-54000400D02*
X59075600Y-53450400D01*
X59075600Y-53450400D02*
X59075600Y-54550400D01*
X59075600Y-54550400D02*
X58525600Y-54000400D01*
X59075600Y-54000400D02*
X59225600Y-54000400D01*
X58425600Y-54350400D02*
X58425600Y-54500400D01*
X58425600Y-53650400D02*
X58425600Y-53500400D01*
G04 #@! TO.C,R4*
X53336000Y-62340000D02*
X52836000Y-62340000D01*
X52836000Y-63390000D02*
X53336000Y-63390000D01*
G04 #@! TO.C,D1*
X59990000Y-49007800D02*
X59990000Y-48907800D01*
X59890000Y-50407800D02*
X59990000Y-50507800D01*
X59290000Y-49707800D02*
X59890000Y-50407800D01*
X59190000Y-50207800D02*
X59190000Y-50407800D01*
X59990000Y-50507800D02*
X59990000Y-49007800D01*
X59190000Y-49207800D02*
X59190000Y-49007800D01*
X59990000Y-49707800D02*
X60290000Y-49707800D01*
X59890000Y-49007800D02*
X59990000Y-48907800D01*
X59190000Y-49207800D02*
X59190000Y-50207800D01*
X58990000Y-49707800D02*
X59190000Y-49707800D01*
X59890000Y-49007800D02*
X59290000Y-49607800D01*
X59190000Y-49007800D02*
X59190000Y-48907800D01*
X57540000Y-48657800D02*
X61140000Y-48657800D01*
X59190000Y-50407800D02*
X59190000Y-50507800D01*
X57540000Y-50757800D02*
X61140000Y-50757800D01*
G04 #@! TO.C,D3*
X56685000Y-57870000D02*
X58585000Y-57870000D01*
X57985000Y-58770000D02*
X57585000Y-58420000D01*
X57585000Y-58420000D02*
X57635000Y-58420000D01*
X57435000Y-58420000D02*
X57635000Y-58420000D01*
X57585000Y-58020000D02*
X57585000Y-58770000D01*
X57685000Y-58420000D02*
X57985000Y-58070000D01*
X56685000Y-58970000D02*
X58585000Y-58970000D01*
X57985000Y-58070000D02*
X57985000Y-58770000D01*
X57985000Y-58420000D02*
X58135000Y-58420000D01*
G04 #@! TO.C,C1*
X61985000Y-63788800D02*
X61985000Y-61788800D01*
X59935000Y-61788800D02*
X59935000Y-63788800D01*
G04 #@! TO.C,IC1*
X68160000Y-60038800D02*
X67860000Y-60038800D01*
X62650000Y-65538800D02*
X62650000Y-60038800D01*
X62950000Y-65538800D02*
X62950000Y-67288800D01*
X68160000Y-65538800D02*
X67860000Y-65538800D01*
X68160000Y-65538800D02*
X68160000Y-60038800D01*
X62650000Y-65538800D02*
X62950000Y-65538800D01*
X62650000Y-60038800D02*
X62950000Y-60038800D01*
D17*
X63881000Y-64820800D02*
G75*
G03*
X63881000Y-64820800I-254000J0D01*
G01*
G04 #@! TD*
D18*
G04 #@! TO.C,REF\u002A\u002A*
X8890000Y-74930000D03*
G04 #@! TD*
G04 #@! TO.C,REF\u002A\u002A*
X13970000Y-77470000D03*
G04 #@! TD*
G04 #@! TO.C,REF\u002A\u002A*
X16510000Y-87630000D03*
G04 #@! TD*
G04 #@! TO.C,REF\u002A\u002A*
X19050000Y-87630000D03*
G04 #@! TD*
G04 #@! TO.C,REF\u002A\u002A*
X3810000Y-85090000D03*
G04 #@! TD*
G04 #@! TO.C,REF\u002A\u002A*
X21590000Y-72390000D03*
G04 #@! TD*
G04 #@! TO.C,REF\u002A\u002A*
X3810000Y-74930000D03*
G04 #@! TD*
G04 #@! TO.C,REF\u002A\u002A*
X13970000Y-74930000D03*
G04 #@! TD*
G04 #@! TO.C,REF\u002A\u002A*
X16510000Y-90170000D03*
G04 #@! TD*
G04 #@! TO.C,REF\u002A\u002A*
X11430000Y-74930000D03*
G04 #@! TD*
G04 #@! TO.C,REF\u002A\u002A*
X8890000Y-85090000D03*
G04 #@! TD*
G04 #@! TO.C,REF\u002A\u002A*
X8890000Y-77470000D03*
G04 #@! TD*
G04 #@! TO.C,REF\u002A\u002A*
X3810000Y-80010000D03*
G04 #@! TD*
G04 #@! TO.C,REF\u002A\u002A*
X6350000Y-85090000D03*
G04 #@! TD*
G04 #@! TO.C,REF\u002A\u002A*
X16510000Y-72390000D03*
G04 #@! TD*
G04 #@! TO.C,REF\u002A\u002A*
X3810000Y-90170000D03*
G04 #@! TD*
G04 #@! TO.C,REF\u002A\u002A*
X16510000Y-85090000D03*
G04 #@! TD*
G04 #@! TO.C,REF\u002A\u002A*
X6350000Y-77470000D03*
G04 #@! TD*
G04 #@! TO.C,REF\u002A\u002A*
X8890000Y-80010000D03*
G04 #@! TD*
G04 #@! TO.C,REF\u002A\u002A*
X19050000Y-82550000D03*
G04 #@! TD*
G04 #@! TO.C,REF\u002A\u002A*
X6350000Y-87630000D03*
G04 #@! TD*
G04 #@! TO.C,REF\u002A\u002A*
X21590000Y-87630000D03*
G04 #@! TD*
G04 #@! TO.C,REF\u002A\u002A*
X21590000Y-74930000D03*
G04 #@! TD*
G04 #@! TO.C,REF\u002A\u002A*
X3810000Y-77470000D03*
G04 #@! TD*
G04 #@! TO.C,REF\u002A\u002A*
X21590000Y-85090000D03*
G04 #@! TD*
G04 #@! TO.C,REF\u002A\u002A*
X16510000Y-80010000D03*
G04 #@! TD*
G04 #@! TO.C,REF\u002A\u002A*
X16510000Y-74930000D03*
G04 #@! TD*
G04 #@! TO.C,REF\u002A\u002A*
X19050000Y-77470000D03*
G04 #@! TD*
G04 #@! TO.C,REF\u002A\u002A*
X11430000Y-77470000D03*
G04 #@! TD*
G04 #@! TO.C,REF\u002A\u002A*
X6350000Y-72390000D03*
G04 #@! TD*
G04 #@! TO.C,REF\u002A\u002A*
X16510000Y-77470000D03*
G04 #@! TD*
G04 #@! TO.C,REF\u002A\u002A*
X3810000Y-72390000D03*
G04 #@! TD*
G04 #@! TO.C,REF\u002A\u002A*
X11430000Y-85090000D03*
G04 #@! TD*
G04 #@! TO.C,REF\u002A\u002A*
X21590000Y-90170000D03*
G04 #@! TD*
G04 #@! TO.C,REF\u002A\u002A*
X19050000Y-85090000D03*
G04 #@! TD*
G04 #@! TO.C,REF\u002A\u002A*
X8890000Y-87630000D03*
G04 #@! TD*
G04 #@! TO.C,REF\u002A\u002A*
X21590000Y-82550000D03*
G04 #@! TD*
G04 #@! TO.C,REF\u002A\u002A*
X16510000Y-82550000D03*
G04 #@! TD*
G04 #@! TO.C,REF\u002A\u002A*
X8890000Y-72390000D03*
G04 #@! TD*
G04 #@! TO.C,REF\u002A\u002A*
X13970000Y-82550000D03*
G04 #@! TD*
G04 #@! TO.C,REF\u002A\u002A*
X21590000Y-77470000D03*
G04 #@! TD*
G04 #@! TO.C,REF\u002A\u002A*
X8890000Y-82550000D03*
G04 #@! TD*
G04 #@! TO.C,REF\u002A\u002A*
X6350000Y-82550000D03*
G04 #@! TD*
G04 #@! TO.C,REF\u002A\u002A*
X3810000Y-82550000D03*
G04 #@! TD*
G04 #@! TO.C,REF\u002A\u002A*
X19050000Y-74930000D03*
G04 #@! TD*
G04 #@! TO.C,REF\u002A\u002A*
X13970000Y-87630000D03*
G04 #@! TD*
G04 #@! TO.C,REF\u002A\u002A*
X11430000Y-87630000D03*
G04 #@! TD*
G04 #@! TO.C,REF\u002A\u002A*
X11430000Y-72390000D03*
G04 #@! TD*
G04 #@! TO.C,REF\u002A\u002A*
X13970000Y-90170000D03*
G04 #@! TD*
G04 #@! TO.C,REF\u002A\u002A*
X19050000Y-80010000D03*
G04 #@! TD*
G04 #@! TO.C,REF\u002A\u002A*
X6350000Y-90170000D03*
G04 #@! TD*
G04 #@! TO.C,REF\u002A\u002A*
X13970000Y-85090000D03*
G04 #@! TD*
G04 #@! TO.C,REF\u002A\u002A*
X6350000Y-80010000D03*
G04 #@! TD*
G04 #@! TO.C,REF\u002A\u002A*
X11430000Y-82550000D03*
G04 #@! TD*
G04 #@! TO.C,REF\u002A\u002A*
X21590000Y-80010000D03*
G04 #@! TD*
G04 #@! TO.C,REF\u002A\u002A*
X13970000Y-72390000D03*
G04 #@! TD*
G04 #@! TO.C,REF\u002A\u002A*
X19050000Y-90170000D03*
G04 #@! TD*
G04 #@! TO.C,REF\u002A\u002A*
X13970000Y-80010000D03*
G04 #@! TD*
G04 #@! TO.C,REF\u002A\u002A*
X8890000Y-90170000D03*
G04 #@! TD*
G04 #@! TO.C,REF\u002A\u002A*
X11430000Y-90170000D03*
G04 #@! TD*
G04 #@! TO.C,REF\u002A\u002A*
X6350000Y-74930000D03*
G04 #@! TD*
G04 #@! TO.C,REF\u002A\u002A*
X19050000Y-72390000D03*
G04 #@! TD*
G04 #@! TO.C,REF\u002A\u002A*
X3810000Y-87630000D03*
G04 #@! TD*
G04 #@! TO.C,REF\u002A\u002A*
X11430000Y-80010000D03*
G04 #@! TD*
%LPC*%
G04 #@! TO.C,G\u002A\u002A\u002A*
G36*
X34738678Y-60984318D02*
G01*
X34899411Y-61021383D01*
X35050428Y-61082964D01*
X35191025Y-61163576D01*
X35365338Y-61298821D01*
X35508867Y-61458785D01*
X35621090Y-61638532D01*
X35701485Y-61833126D01*
X35749530Y-62037631D01*
X35764703Y-62247113D01*
X35746481Y-62456636D01*
X35694342Y-62661264D01*
X35607764Y-62856062D01*
X35486225Y-63036094D01*
X35399293Y-63132016D01*
X35238547Y-63271670D01*
X35070450Y-63375855D01*
X34886710Y-63448333D01*
X34679033Y-63492864D01*
X34577817Y-63504584D01*
X34448619Y-63517994D01*
X34351246Y-63532840D01*
X34275166Y-63551467D01*
X34209845Y-63576220D01*
X34171189Y-63595117D01*
X34098514Y-63645535D01*
X34027346Y-63714941D01*
X33971585Y-63788570D01*
X33951291Y-63828677D01*
X33946247Y-63863266D01*
X33941838Y-63938726D01*
X33938060Y-64055257D01*
X33934910Y-64213060D01*
X33932386Y-64412336D01*
X33930484Y-64653285D01*
X33929202Y-64936109D01*
X33928537Y-65261008D01*
X33928439Y-65417501D01*
X33928303Y-65725368D01*
X33927925Y-65993985D01*
X33927118Y-66226470D01*
X33925690Y-66425944D01*
X33923454Y-66595524D01*
X33920220Y-66738330D01*
X33915798Y-66857479D01*
X33910000Y-66956092D01*
X33902635Y-67037287D01*
X33893515Y-67104182D01*
X33882450Y-67159897D01*
X33869252Y-67207551D01*
X33853730Y-67250261D01*
X33835695Y-67291147D01*
X33814959Y-67333328D01*
X33811774Y-67339625D01*
X33713363Y-67491363D01*
X33582832Y-67628983D01*
X33430025Y-67744194D01*
X33264786Y-67828706D01*
X33206613Y-67849257D01*
X33181600Y-67856514D01*
X33154379Y-67862839D01*
X33122027Y-67868291D01*
X33081621Y-67872934D01*
X33030236Y-67876829D01*
X32964949Y-67880037D01*
X32882836Y-67882620D01*
X32780973Y-67884640D01*
X32656437Y-67886158D01*
X32506304Y-67887237D01*
X32327650Y-67887937D01*
X32117552Y-67888321D01*
X31873085Y-67888451D01*
X31591326Y-67888387D01*
X31358321Y-67888252D01*
X31046152Y-67887992D01*
X30773462Y-67887612D01*
X30537358Y-67887050D01*
X30334951Y-67886248D01*
X30163350Y-67885144D01*
X30019663Y-67883677D01*
X29901001Y-67881786D01*
X29804472Y-67879412D01*
X29727186Y-67876494D01*
X29666252Y-67872970D01*
X29618779Y-67868781D01*
X29581877Y-67863865D01*
X29552654Y-67858162D01*
X29528221Y-67851612D01*
X29522231Y-67849741D01*
X29359175Y-67782275D01*
X29214921Y-67687635D01*
X29093609Y-67575501D01*
X28969066Y-67420434D01*
X28882173Y-67253332D01*
X28832712Y-67087164D01*
X28826457Y-67035611D01*
X28820862Y-66945891D01*
X28815926Y-66822203D01*
X28811649Y-66668743D01*
X28808031Y-66489709D01*
X28805069Y-66289299D01*
X28802764Y-66071708D01*
X28801115Y-65841136D01*
X28800120Y-65601779D01*
X28799779Y-65357834D01*
X28800092Y-65113500D01*
X28801057Y-64872972D01*
X28802673Y-64640449D01*
X28804941Y-64420128D01*
X28807858Y-64216206D01*
X28811425Y-64032881D01*
X28815640Y-63874349D01*
X28820503Y-63744809D01*
X28826013Y-63648457D01*
X28832168Y-63589491D01*
X28833374Y-63583035D01*
X28892547Y-63400885D01*
X28987057Y-63232313D01*
X29111298Y-63082968D01*
X29259667Y-62958496D01*
X29426557Y-62864548D01*
X29602952Y-62807477D01*
X29648604Y-62802196D01*
X29732212Y-62797601D01*
X29854361Y-62793682D01*
X30015641Y-62790432D01*
X30216637Y-62787842D01*
X30457936Y-62785903D01*
X30740127Y-62784608D01*
X31063796Y-62783947D01*
X31244737Y-62783852D01*
X31590375Y-62783507D01*
X31893904Y-62782526D01*
X32155582Y-62780905D01*
X32375664Y-62778640D01*
X32554406Y-62775729D01*
X32692064Y-62772166D01*
X32788895Y-62767950D01*
X32845154Y-62763075D01*
X32856472Y-62760908D01*
X32940619Y-62720396D01*
X33026208Y-62650751D01*
X33102288Y-62563350D01*
X33157906Y-62469575D01*
X33171857Y-62433193D01*
X33189650Y-62359569D01*
X33205767Y-62263253D01*
X33216977Y-62163894D01*
X33217700Y-62154595D01*
X33252998Y-61923336D01*
X33323998Y-61713691D01*
X33432372Y-61522141D01*
X33579792Y-61345165D01*
X33621594Y-61304065D01*
X33792183Y-61164445D01*
X33971276Y-61063245D01*
X34164272Y-60998513D01*
X34376571Y-60968298D01*
X34553341Y-60967183D01*
X34738678Y-60984318D01*
G37*
G36*
X34609539Y-53370807D02*
G01*
X34697778Y-53374478D01*
X34766152Y-53382382D01*
X34825900Y-53395981D01*
X34888264Y-53416736D01*
X34908403Y-53424287D01*
X35102588Y-53512807D01*
X35269091Y-53622321D01*
X35420692Y-53761253D01*
X35422350Y-53763004D01*
X35561603Y-53938918D01*
X35664462Y-54130104D01*
X35731694Y-54331889D01*
X35764068Y-54539600D01*
X35762351Y-54748567D01*
X35727310Y-54954118D01*
X35659713Y-55151579D01*
X35560327Y-55336281D01*
X35429921Y-55503550D01*
X35269260Y-55648714D01*
X35094401Y-55759246D01*
X34941241Y-55829760D01*
X34792280Y-55876016D01*
X34628547Y-55903360D01*
X34560538Y-55909747D01*
X34398573Y-55928369D01*
X34270570Y-55957278D01*
X34168871Y-55998836D01*
X34085817Y-56055403D01*
X34084570Y-56056467D01*
X34055717Y-56080490D01*
X34030655Y-56101765D01*
X34009118Y-56123286D01*
X33990838Y-56148048D01*
X33975548Y-56179046D01*
X33962983Y-56219274D01*
X33952875Y-56271728D01*
X33944957Y-56339402D01*
X33938962Y-56425291D01*
X33934624Y-56532390D01*
X33931676Y-56663693D01*
X33929851Y-56822196D01*
X33928882Y-57010892D01*
X33928502Y-57232778D01*
X33928445Y-57490847D01*
X33928444Y-57788095D01*
X33928439Y-57808857D01*
X33928317Y-58117606D01*
X33927967Y-58387111D01*
X33927181Y-58620496D01*
X33925749Y-58820886D01*
X33923461Y-58991404D01*
X33920106Y-59135177D01*
X33915476Y-59255327D01*
X33909359Y-59354979D01*
X33901548Y-59437259D01*
X33891831Y-59505289D01*
X33879998Y-59562195D01*
X33865841Y-59611102D01*
X33849149Y-59655132D01*
X33829712Y-59697412D01*
X33807320Y-59741065D01*
X33797424Y-59759734D01*
X33688092Y-59921728D01*
X33547676Y-60060588D01*
X33383329Y-60171301D01*
X33202204Y-60248855D01*
X33049658Y-60283708D01*
X33001868Y-60287349D01*
X32915971Y-60290587D01*
X32796182Y-60293422D01*
X32646723Y-60295858D01*
X32471810Y-60297896D01*
X32275662Y-60299540D01*
X32062498Y-60300790D01*
X31836537Y-60301649D01*
X31601997Y-60302120D01*
X31363097Y-60302203D01*
X31124055Y-60301903D01*
X30889089Y-60301220D01*
X30662419Y-60300158D01*
X30448263Y-60298717D01*
X30250839Y-60296901D01*
X30074366Y-60294711D01*
X29923063Y-60292150D01*
X29801147Y-60289219D01*
X29712838Y-60285922D01*
X29662355Y-60282260D01*
X29660166Y-60281964D01*
X29516931Y-60245593D01*
X29366970Y-60180379D01*
X29225089Y-60093967D01*
X29109835Y-59997772D01*
X29009363Y-59876286D01*
X28922314Y-59731144D01*
X28856762Y-59577844D01*
X28823099Y-59447440D01*
X28818986Y-59400376D01*
X28815323Y-59315368D01*
X28812108Y-59196562D01*
X28809339Y-59048108D01*
X28807013Y-58874153D01*
X28805128Y-58678845D01*
X28803681Y-58466334D01*
X28802670Y-58240766D01*
X28802092Y-58006291D01*
X28801944Y-57767056D01*
X28802225Y-57527209D01*
X28802932Y-57290899D01*
X28804061Y-57062275D01*
X28805612Y-56845483D01*
X28807581Y-56644673D01*
X28809965Y-56463992D01*
X28812763Y-56307589D01*
X28815971Y-56179612D01*
X28819588Y-56084209D01*
X28823611Y-56025528D01*
X28825161Y-56014175D01*
X28880548Y-55824999D01*
X28972200Y-55651132D01*
X29095320Y-55497452D01*
X29245110Y-55368833D01*
X29416771Y-55270153D01*
X29605505Y-55206287D01*
X29624137Y-55202210D01*
X29670224Y-55196943D01*
X29754995Y-55192362D01*
X29878943Y-55188459D01*
X30042561Y-55185226D01*
X30246342Y-55182658D01*
X30490776Y-55180748D01*
X30776359Y-55179487D01*
X31103581Y-55178869D01*
X31271898Y-55178799D01*
X31572254Y-55178829D01*
X31833253Y-55178766D01*
X32057904Y-55178382D01*
X32249219Y-55177450D01*
X32410208Y-55175742D01*
X32543882Y-55173029D01*
X32653251Y-55169085D01*
X32741327Y-55163680D01*
X32811119Y-55156588D01*
X32865639Y-55147581D01*
X32907897Y-55136430D01*
X32940904Y-55122909D01*
X32967670Y-55106788D01*
X32991206Y-55087840D01*
X33014523Y-55065838D01*
X33035626Y-55045324D01*
X33100379Y-54973557D01*
X33147123Y-54895507D01*
X33179674Y-54801279D01*
X33201850Y-54680984D01*
X33212170Y-54587812D01*
X33244113Y-54366793D01*
X33298323Y-54175090D01*
X33378559Y-54003909D01*
X33488580Y-53844454D01*
X33569402Y-53751870D01*
X33720216Y-53614911D01*
X33892969Y-53504634D01*
X34071980Y-53424287D01*
X34137199Y-53401187D01*
X34196548Y-53385667D01*
X34261269Y-53376266D01*
X34342603Y-53371520D01*
X34451791Y-53369970D01*
X34490191Y-53369909D01*
X34609539Y-53370807D01*
G37*
G36*
X40823978Y-53357225D02*
G01*
X41138740Y-53358063D01*
X41412591Y-53359472D01*
X41646258Y-53361461D01*
X41840468Y-53364040D01*
X41995947Y-53367218D01*
X42113424Y-53371005D01*
X42193624Y-53375412D01*
X42237275Y-53380446D01*
X42237314Y-53380454D01*
X42415300Y-53438555D01*
X42581246Y-53532688D01*
X42729448Y-53656994D01*
X42854199Y-53805612D01*
X42949797Y-53972682D01*
X43010537Y-54152344D01*
X43016442Y-54180824D01*
X43020740Y-54225102D01*
X43024575Y-54307429D01*
X43027949Y-54423718D01*
X43030864Y-54569884D01*
X43033323Y-54741839D01*
X43035329Y-54935498D01*
X43036884Y-55146774D01*
X43037991Y-55371583D01*
X43038652Y-55605837D01*
X43038870Y-55845450D01*
X43038648Y-56086337D01*
X43037988Y-56324411D01*
X43036892Y-56555586D01*
X43035364Y-56775777D01*
X43033405Y-56980896D01*
X43031019Y-57166859D01*
X43028208Y-57329578D01*
X43024975Y-57464968D01*
X43021322Y-57568943D01*
X43017251Y-57637417D01*
X43014245Y-57661618D01*
X42953775Y-57848312D01*
X42857410Y-58020330D01*
X42730442Y-58171858D01*
X42578165Y-58297082D01*
X42405873Y-58390187D01*
X42324039Y-58419804D01*
X42296644Y-58427851D01*
X42268159Y-58434818D01*
X42235471Y-58440786D01*
X42195469Y-58445834D01*
X42145041Y-58450041D01*
X42081076Y-58453488D01*
X42000463Y-58456254D01*
X41900090Y-58458419D01*
X41776846Y-58460063D01*
X41627618Y-58461264D01*
X41449296Y-58462104D01*
X41238768Y-58462661D01*
X40992922Y-58463016D01*
X40708647Y-58463248D01*
X40626117Y-58463299D01*
X40323688Y-58463485D01*
X40060618Y-58463780D01*
X39833896Y-58464373D01*
X39640513Y-58465447D01*
X39477458Y-58467190D01*
X39341722Y-58469788D01*
X39230294Y-58473426D01*
X39140165Y-58478290D01*
X39068324Y-58484568D01*
X39011761Y-58492444D01*
X38967467Y-58502105D01*
X38932431Y-58513737D01*
X38903643Y-58527525D01*
X38878094Y-58543657D01*
X38852773Y-58562318D01*
X38837687Y-58573854D01*
X38756036Y-58655406D01*
X38695539Y-58761631D01*
X38654104Y-58897511D01*
X38629643Y-59068027D01*
X38629447Y-59070273D01*
X38601005Y-59276262D01*
X38551768Y-59455607D01*
X38477671Y-59620589D01*
X38410680Y-59731339D01*
X38268493Y-59908243D01*
X38099730Y-60054338D01*
X37908864Y-60167642D01*
X37700366Y-60246176D01*
X37478710Y-60287958D01*
X37248367Y-60291007D01*
X37166199Y-60282514D01*
X36955122Y-60233495D01*
X36753950Y-60146770D01*
X36569017Y-60026848D01*
X36406657Y-59878242D01*
X36273207Y-59705463D01*
X36216747Y-59606389D01*
X36152848Y-59464612D01*
X36111367Y-59331045D01*
X36088801Y-59190017D01*
X36081642Y-59025859D01*
X36081657Y-59002569D01*
X36097238Y-58784027D01*
X36143823Y-58588838D01*
X36224396Y-58409956D01*
X36341944Y-58240336D01*
X36458952Y-58112184D01*
X36609785Y-57979765D01*
X36766690Y-57879798D01*
X36938134Y-57808581D01*
X37132585Y-57762413D01*
X37307597Y-57741253D01*
X37472142Y-57720954D01*
X37602301Y-57687917D01*
X37704944Y-57639058D01*
X37786940Y-57571291D01*
X37842610Y-57500908D01*
X37911459Y-57398365D01*
X37912113Y-55901968D01*
X37912519Y-55640391D01*
X37913474Y-55390245D01*
X37914931Y-55155175D01*
X37916844Y-54938828D01*
X37919164Y-54744849D01*
X37921846Y-54576885D01*
X37924843Y-54438582D01*
X37928108Y-54333584D01*
X37931595Y-54265539D01*
X37933353Y-54246915D01*
X37979412Y-54049511D01*
X38061994Y-53867861D01*
X38177015Y-53706622D01*
X38320388Y-53570455D01*
X38488027Y-53464017D01*
X38675847Y-53391968D01*
X38685427Y-53389422D01*
X38713536Y-53383336D01*
X38749887Y-53378041D01*
X38797360Y-53373484D01*
X38858834Y-53369612D01*
X38937188Y-53366373D01*
X39035303Y-53363715D01*
X39156058Y-53361584D01*
X39302331Y-53359929D01*
X39477003Y-53358697D01*
X39682952Y-53357836D01*
X39923059Y-53357292D01*
X40200203Y-53357014D01*
X40467578Y-53356948D01*
X40823978Y-53357225D01*
G37*
G36*
X40782131Y-60962153D02*
G01*
X41052970Y-60962299D01*
X41287320Y-60962624D01*
X41488121Y-60963193D01*
X41658311Y-60964073D01*
X41800831Y-60965330D01*
X41918621Y-60967029D01*
X42014619Y-60969238D01*
X42091766Y-60972022D01*
X42153002Y-60975448D01*
X42201265Y-60979581D01*
X42239496Y-60984487D01*
X42270635Y-60990234D01*
X42297620Y-60996887D01*
X42320862Y-61003728D01*
X42500233Y-61080493D01*
X42662356Y-61191740D01*
X42801784Y-61331507D01*
X42913073Y-61493835D01*
X42990775Y-61672764D01*
X43014558Y-61762870D01*
X43018868Y-61804942D01*
X43022763Y-61885293D01*
X43026241Y-61999837D01*
X43029299Y-62144486D01*
X43031936Y-62315153D01*
X43034149Y-62507749D01*
X43035936Y-62718190D01*
X43037295Y-62942386D01*
X43038223Y-63176251D01*
X43038719Y-63415698D01*
X43038780Y-63656639D01*
X43038404Y-63894987D01*
X43037588Y-64126656D01*
X43036332Y-64347556D01*
X43034631Y-64553603D01*
X43032485Y-64740708D01*
X43029890Y-64904783D01*
X43026845Y-65041743D01*
X43023348Y-65147499D01*
X43019395Y-65217964D01*
X43016442Y-65243664D01*
X42960564Y-65428295D01*
X42868214Y-65599922D01*
X42744630Y-65752988D01*
X42595048Y-65881939D01*
X42424707Y-65981217D01*
X42267625Y-66038091D01*
X42238525Y-66043827D01*
X42195459Y-66048800D01*
X42135683Y-66053059D01*
X42056453Y-66056653D01*
X41955025Y-66059630D01*
X41828653Y-66062039D01*
X41674594Y-66063928D01*
X41490103Y-66065345D01*
X41272436Y-66066340D01*
X41018848Y-66066960D01*
X40726595Y-66067254D01*
X40614918Y-66067289D01*
X40285981Y-66067585D01*
X39997908Y-66068376D01*
X39749199Y-66069683D01*
X39538350Y-66071530D01*
X39363861Y-66073938D01*
X39224231Y-66076931D01*
X39117957Y-66080531D01*
X39043538Y-66084760D01*
X38999472Y-66089642D01*
X38990213Y-66091720D01*
X38868364Y-66148642D01*
X38771310Y-66239158D01*
X38698826Y-66363630D01*
X38650685Y-66522418D01*
X38630120Y-66667666D01*
X38610950Y-66828516D01*
X38581262Y-66964664D01*
X38536153Y-67093400D01*
X38470721Y-67232018D01*
X38469393Y-67234582D01*
X38361480Y-67400799D01*
X38220394Y-67553401D01*
X38054891Y-67684887D01*
X37873723Y-67787755D01*
X37778480Y-67826653D01*
X37674604Y-67853395D01*
X37544150Y-67872279D01*
X37400649Y-67882738D01*
X37257634Y-67884208D01*
X37128636Y-67876122D01*
X37027691Y-67858055D01*
X36817201Y-67777871D01*
X36623257Y-67662312D01*
X36450881Y-67516224D01*
X36305094Y-67344447D01*
X36190916Y-67151824D01*
X36126666Y-66989058D01*
X36092525Y-66831751D01*
X36078490Y-66654091D01*
X36084569Y-66473023D01*
X36110767Y-66305490D01*
X36126400Y-66247607D01*
X36211735Y-66041037D01*
X36331783Y-65851771D01*
X36481486Y-65685087D01*
X36655785Y-65546259D01*
X36849622Y-65440564D01*
X36930193Y-65409195D01*
X37005301Y-65388900D01*
X37106737Y-65369175D01*
X37218525Y-65352880D01*
X37283217Y-65346002D01*
X37430753Y-65328021D01*
X37549536Y-65303441D01*
X37616384Y-65281053D01*
X37692545Y-65237654D01*
X37769686Y-65176393D01*
X37837281Y-65107539D01*
X37884806Y-65041362D01*
X37900034Y-65004280D01*
X37901927Y-64975590D01*
X37903883Y-64907955D01*
X37905867Y-64804797D01*
X37907841Y-64669540D01*
X37909770Y-64505607D01*
X37911616Y-64316420D01*
X37913342Y-64105403D01*
X37914913Y-63875979D01*
X37916292Y-63631570D01*
X37917436Y-63377131D01*
X37918669Y-63078767D01*
X37919912Y-62819736D01*
X37921244Y-62597001D01*
X37922745Y-62407526D01*
X37924494Y-62248276D01*
X37926571Y-62116214D01*
X37929054Y-62008304D01*
X37932023Y-61921511D01*
X37935557Y-61852798D01*
X37939737Y-61799129D01*
X37944640Y-61757468D01*
X37950347Y-61724779D01*
X37956937Y-61698026D01*
X37961730Y-61682386D01*
X38046433Y-61488387D01*
X38164279Y-61318572D01*
X38311850Y-61176414D01*
X38485729Y-61065381D01*
X38628165Y-61005687D01*
X38652507Y-60997816D01*
X38677624Y-60990955D01*
X38706446Y-60985034D01*
X38741903Y-60979983D01*
X38786925Y-60975735D01*
X38844441Y-60972219D01*
X38917381Y-60969367D01*
X39008675Y-60967109D01*
X39121254Y-60965375D01*
X39258046Y-60964097D01*
X39421982Y-60963206D01*
X39615992Y-60962632D01*
X39843005Y-60962305D01*
X40105952Y-60962158D01*
X40407762Y-60962119D01*
X40471862Y-60962119D01*
X40782131Y-60962153D01*
G37*
G36*
X67260419Y-25413810D02*
G01*
X67508818Y-25472665D01*
X67741221Y-25568462D01*
X67954214Y-25699087D01*
X68144384Y-25862423D01*
X68308315Y-26056357D01*
X68442596Y-26278773D01*
X68449293Y-26292279D01*
X68532066Y-26494183D01*
X68583442Y-26702533D01*
X68605985Y-26929036D01*
X68607539Y-27014246D01*
X68598211Y-27218822D01*
X68567663Y-27401841D01*
X68512047Y-27579269D01*
X68427518Y-27767077D01*
X68424979Y-27772086D01*
X68325679Y-27967540D01*
X65048206Y-31251110D01*
X64736130Y-31563909D01*
X64431549Y-31869477D01*
X64135855Y-32166406D01*
X63850438Y-32453289D01*
X63576691Y-32728719D01*
X63316005Y-32991289D01*
X63069770Y-33239591D01*
X62839379Y-33472218D01*
X62626223Y-33687764D01*
X62431694Y-33884820D01*
X62257182Y-34061980D01*
X62104079Y-34217837D01*
X61973776Y-34350984D01*
X61867666Y-34460013D01*
X61787138Y-34543517D01*
X61733586Y-34600089D01*
X61708399Y-34628322D01*
X61707165Y-34630009D01*
X61576700Y-34861758D01*
X61485464Y-35104284D01*
X61433532Y-35353591D01*
X61420978Y-35605684D01*
X61447876Y-35856569D01*
X61514300Y-36102251D01*
X61620326Y-36338735D01*
X61673668Y-36429583D01*
X61698814Y-36460483D01*
X61754034Y-36521101D01*
X61839264Y-36611374D01*
X61954444Y-36731238D01*
X62099510Y-36880630D01*
X62274399Y-37059487D01*
X62479050Y-37267745D01*
X62713400Y-37505341D01*
X62977387Y-37772212D01*
X63270948Y-38068294D01*
X63594020Y-38393524D01*
X63946542Y-38747839D01*
X64328451Y-39131175D01*
X64739684Y-39543470D01*
X65005321Y-39809575D01*
X65316561Y-40121425D01*
X65620342Y-40426103D01*
X65915267Y-40722194D01*
X66199935Y-41008282D01*
X66472949Y-41282952D01*
X66732908Y-41544788D01*
X66978414Y-41792375D01*
X67208067Y-42024298D01*
X67420467Y-42239141D01*
X67614217Y-42435489D01*
X67787916Y-42611926D01*
X67940166Y-42767038D01*
X68069567Y-42899408D01*
X68174719Y-43007621D01*
X68254225Y-43090261D01*
X68306684Y-43145915D01*
X68330698Y-43173165D01*
X68331420Y-43174182D01*
X68424859Y-43335973D01*
X68505794Y-43518757D01*
X68565228Y-43701471D01*
X68576235Y-43747213D01*
X68597014Y-43885251D01*
X68605648Y-44044822D01*
X68602658Y-44212279D01*
X68588564Y-44373979D01*
X68563887Y-44516276D01*
X68544225Y-44586639D01*
X68438959Y-44837702D01*
X68302488Y-45060108D01*
X68134789Y-45253883D01*
X67935838Y-45419058D01*
X67736047Y-45540172D01*
X67551497Y-45623710D01*
X67369168Y-45678462D01*
X67174884Y-45707788D01*
X66997531Y-45715217D01*
X66738104Y-45699206D01*
X66499694Y-45648260D01*
X66277408Y-45560966D01*
X66093226Y-45454288D01*
X66068642Y-45432942D01*
X66015519Y-45383031D01*
X65935274Y-45305953D01*
X65829323Y-45203106D01*
X65699081Y-45075892D01*
X65545964Y-44925707D01*
X65371388Y-44753951D01*
X65176769Y-44562023D01*
X64963521Y-44351323D01*
X64733062Y-44123248D01*
X64486807Y-43879198D01*
X64226171Y-43620571D01*
X63952570Y-43348768D01*
X63667421Y-43065186D01*
X63372138Y-42771225D01*
X63068137Y-42468283D01*
X62756835Y-42157760D01*
X62728890Y-42129870D01*
X62299019Y-41701024D01*
X61898811Y-41302181D01*
X61528143Y-40933216D01*
X61186887Y-40594006D01*
X60874917Y-40284426D01*
X60592108Y-40004352D01*
X60338333Y-39753660D01*
X60113467Y-39532226D01*
X59917383Y-39339926D01*
X59749956Y-39176636D01*
X59611059Y-39042231D01*
X59500567Y-38936587D01*
X59418353Y-38859581D01*
X59364291Y-38811088D01*
X59340901Y-38792527D01*
X59109234Y-38666902D01*
X58866604Y-38581103D01*
X58616676Y-38535189D01*
X58363112Y-38529223D01*
X58109575Y-38563263D01*
X57859729Y-38637372D01*
X57617237Y-38751610D01*
X57596379Y-38763581D01*
X57574482Y-38779404D01*
X57538323Y-38809907D01*
X57486997Y-38855980D01*
X57419598Y-38918515D01*
X57335220Y-38998401D01*
X57232957Y-39096528D01*
X57111904Y-39213787D01*
X56971155Y-39351068D01*
X56809804Y-39509262D01*
X56626946Y-39689259D01*
X56421674Y-39891950D01*
X56193083Y-40118224D01*
X55940268Y-40368971D01*
X55662322Y-40645083D01*
X55358339Y-40947450D01*
X55027415Y-41276961D01*
X54668643Y-41634508D01*
X54281118Y-42020981D01*
X54181017Y-42120846D01*
X53804592Y-42496448D01*
X53456952Y-42843350D01*
X53136841Y-43162729D01*
X52843001Y-43455759D01*
X52574175Y-43723618D01*
X52329107Y-43967481D01*
X52106540Y-44188524D01*
X51905217Y-44387924D01*
X51723881Y-44566857D01*
X51561276Y-44726498D01*
X51416144Y-44868023D01*
X51287228Y-44992610D01*
X51173272Y-45101433D01*
X51073018Y-45195669D01*
X50985211Y-45276494D01*
X50908592Y-45345085D01*
X50841906Y-45402616D01*
X50783895Y-45450264D01*
X50733303Y-45489206D01*
X50688872Y-45520617D01*
X50649346Y-45545674D01*
X50613467Y-45565552D01*
X50579980Y-45581427D01*
X50547627Y-45594477D01*
X50515151Y-45605876D01*
X50481296Y-45616800D01*
X50444804Y-45628427D01*
X50425826Y-45634654D01*
X50189935Y-45697056D01*
X49959990Y-45722994D01*
X49722738Y-45713774D01*
X49677412Y-45708374D01*
X49438505Y-45656370D01*
X49206791Y-45565307D01*
X48988846Y-45438490D01*
X48791241Y-45279224D01*
X48756077Y-45245107D01*
X48587474Y-45047742D01*
X48454878Y-44831251D01*
X48358979Y-44599913D01*
X48300464Y-44358003D01*
X48280022Y-44109800D01*
X48298341Y-43859580D01*
X48356110Y-43611621D01*
X48454017Y-43370198D01*
X48454237Y-43369756D01*
X48496388Y-43288482D01*
X48537921Y-43213458D01*
X48570245Y-43160172D01*
X48571765Y-43157913D01*
X48590758Y-43136916D01*
X48638320Y-43087349D01*
X48713066Y-43010609D01*
X48813612Y-42908089D01*
X48938573Y-42781187D01*
X49086565Y-42631297D01*
X49256204Y-42459815D01*
X49446105Y-42268137D01*
X49654885Y-42057658D01*
X49881157Y-41829774D01*
X50123539Y-41585880D01*
X50380646Y-41327373D01*
X50651093Y-41055647D01*
X50933497Y-40772098D01*
X51226472Y-40478122D01*
X51528634Y-40175114D01*
X51838599Y-39864470D01*
X51872246Y-39830759D01*
X52183389Y-39518898D01*
X52487069Y-39214219D01*
X52781887Y-38918139D01*
X53066445Y-38632072D01*
X53339344Y-38357434D01*
X53599186Y-38095639D01*
X53844572Y-37848103D01*
X54074104Y-37616242D01*
X54286382Y-37401469D01*
X54480009Y-37205200D01*
X54653585Y-37028851D01*
X54805712Y-36873836D01*
X54934992Y-36741571D01*
X55040026Y-36633471D01*
X55119415Y-36550951D01*
X55171760Y-36495426D01*
X55195664Y-36468311D01*
X55196370Y-36467315D01*
X55323577Y-36240579D01*
X55412107Y-36001014D01*
X55461927Y-35753153D01*
X55473008Y-35501532D01*
X55445320Y-35250683D01*
X55378830Y-35005142D01*
X55273509Y-34769442D01*
X55208603Y-34660283D01*
X55183155Y-34628969D01*
X55128897Y-34569188D01*
X55045736Y-34480842D01*
X54933576Y-34363836D01*
X54792323Y-34218072D01*
X54621881Y-34043455D01*
X54422155Y-33839887D01*
X54193050Y-33607273D01*
X53934472Y-33345515D01*
X53646326Y-33054518D01*
X53328515Y-32734185D01*
X52980946Y-32384419D01*
X52603523Y-32005124D01*
X52196152Y-31596203D01*
X51852058Y-31251110D01*
X51461697Y-30859650D01*
X51100425Y-30497131D01*
X50767306Y-30162599D01*
X50461403Y-29855100D01*
X50181781Y-29573682D01*
X49927502Y-29317392D01*
X49697630Y-29085277D01*
X49491229Y-28876383D01*
X49307364Y-28689759D01*
X49145097Y-28524449D01*
X49003492Y-28379503D01*
X48881613Y-28253966D01*
X48778524Y-28146885D01*
X48693288Y-28057308D01*
X48624970Y-27984281D01*
X48572632Y-27926852D01*
X48535339Y-27884067D01*
X48512154Y-27854974D01*
X48504768Y-27843940D01*
X48396781Y-27617832D01*
X48323957Y-27374395D01*
X48287215Y-27121248D01*
X48287474Y-26866011D01*
X48325651Y-26616301D01*
X48347005Y-26535464D01*
X48398543Y-26397167D01*
X48473003Y-26245933D01*
X48561904Y-26097271D01*
X48656769Y-25966688D01*
X48660415Y-25962246D01*
X48821076Y-25797812D01*
X49011571Y-25653878D01*
X49221880Y-25536568D01*
X49441982Y-25452004D01*
X49535241Y-25427658D01*
X49679578Y-25405442D01*
X49846863Y-25395470D01*
X50019623Y-25397738D01*
X50180389Y-25412244D01*
X50268328Y-25427815D01*
X50425901Y-25474171D01*
X50593667Y-25542167D01*
X50752032Y-25623316D01*
X50827002Y-25669792D01*
X50851595Y-25691150D01*
X50904725Y-25741079D01*
X50984978Y-25818183D01*
X51090941Y-25921066D01*
X51221202Y-26048329D01*
X51374347Y-26198578D01*
X51548963Y-26370414D01*
X51743637Y-26562441D01*
X51956956Y-26773263D01*
X52187506Y-27001482D01*
X52433875Y-27245702D01*
X52694648Y-27504526D01*
X52968414Y-27776558D01*
X53253759Y-28060400D01*
X53549270Y-28354656D01*
X53853533Y-28657929D01*
X54165136Y-28968822D01*
X54202201Y-29005824D01*
X54577340Y-29380368D01*
X54923706Y-29726205D01*
X55242562Y-30044515D01*
X55535164Y-30336478D01*
X55802775Y-30603274D01*
X56046653Y-30846083D01*
X56268057Y-31066085D01*
X56468249Y-31264460D01*
X56648486Y-31442388D01*
X56810029Y-31601050D01*
X56954138Y-31741624D01*
X57082073Y-31865292D01*
X57195092Y-31973232D01*
X57294456Y-32066626D01*
X57381424Y-32146653D01*
X57457256Y-32214493D01*
X57523212Y-32271326D01*
X57580551Y-32318332D01*
X57630533Y-32356692D01*
X57674418Y-32387584D01*
X57713465Y-32412190D01*
X57748934Y-32431689D01*
X57782085Y-32447261D01*
X57814177Y-32460086D01*
X57846470Y-32471345D01*
X57880224Y-32482216D01*
X57916698Y-32493881D01*
X57930642Y-32498470D01*
X58185269Y-32561681D01*
X58441262Y-32583150D01*
X58695722Y-32563288D01*
X58945750Y-32502507D01*
X59188445Y-32401218D01*
X59371176Y-32294102D01*
X59395133Y-32273214D01*
X59447628Y-32223758D01*
X59527247Y-32147133D01*
X59632575Y-32044738D01*
X59762198Y-31917970D01*
X59914700Y-31768230D01*
X60088669Y-31596914D01*
X60282690Y-31405422D01*
X60495347Y-31195152D01*
X60725228Y-30967504D01*
X60970917Y-30723874D01*
X61231000Y-30465663D01*
X61504063Y-30194268D01*
X61788692Y-29911088D01*
X62083471Y-29617522D01*
X62386987Y-29314967D01*
X62697826Y-29004824D01*
X62718298Y-28984387D01*
X63029639Y-28673730D01*
X63333795Y-28370539D01*
X63629349Y-28076215D01*
X63914884Y-27792158D01*
X64188982Y-27519770D01*
X64450226Y-27260451D01*
X64697198Y-27015603D01*
X64928481Y-26786625D01*
X65142658Y-26574920D01*
X65338312Y-26381888D01*
X65514025Y-26208930D01*
X65668380Y-26057447D01*
X65799959Y-25928839D01*
X65907346Y-25824509D01*
X65989122Y-25745855D01*
X66043871Y-25694281D01*
X66070175Y-25671185D01*
X66070841Y-25670720D01*
X66283337Y-25547805D01*
X66500620Y-25462361D01*
X66730898Y-25411943D01*
X66982383Y-25394103D01*
X66999438Y-25394013D01*
X67260419Y-25413810D01*
G37*
G04 #@! TD*
G04 #@! TO.C,REF\u002A\u002A*
X8890000Y-74930000D03*
G04 #@! TD*
D19*
G04 #@! TO.C,P5*
X57150000Y-67132200D03*
G04 #@! TD*
D20*
G04 #@! TO.C,REF\u002A\u002A*
X65405000Y-86995000D03*
G04 #@! TD*
G04 #@! TO.C,REF\u002A\u002A*
X61595000Y-85725000D03*
G04 #@! TD*
D18*
G04 #@! TO.C,REF\u002A\u002A*
X13970000Y-77470000D03*
G04 #@! TD*
D20*
G04 #@! TO.C,REF\u002A\u002A*
X53975000Y-86995000D03*
G04 #@! TD*
D21*
G04 #@! TO.C,R5*
X53282800Y-67132200D03*
X52482800Y-67132200D03*
G04 #@! TD*
D20*
G04 #@! TO.C,REF\u002A\u002A*
X59055000Y-71755000D03*
G04 #@! TD*
G04 #@! TO.C,REF\u002A\u002A*
X56515000Y-71755000D03*
G04 #@! TD*
D22*
G04 #@! TO.C,CON1*
X64439800Y-49987200D03*
D23*
X66979800Y-49987200D03*
D22*
X64439800Y-52527200D03*
X66979800Y-52527200D03*
X64439800Y-55067200D03*
X66979800Y-55067200D03*
G04 #@! TD*
D18*
G04 #@! TO.C,REF\u002A\u002A*
X16510000Y-87630000D03*
G04 #@! TD*
D20*
G04 #@! TO.C,REF\u002A\u002A*
X62865000Y-89535000D03*
G04 #@! TD*
D18*
G04 #@! TO.C,REF\u002A\u002A*
X19050000Y-87630000D03*
G04 #@! TD*
D20*
G04 #@! TO.C,REF\u002A\u002A*
X48895000Y-76835000D03*
G04 #@! TD*
G04 #@! TO.C,REF\u002A\u002A*
X48895000Y-83185000D03*
G04 #@! TD*
G04 #@! TO.C,REF\u002A\u002A*
X52705000Y-83185000D03*
G04 #@! TD*
D18*
G04 #@! TO.C,REF\u002A\u002A*
X3810000Y-85090000D03*
G04 #@! TD*
D20*
G04 #@! TO.C,REF\u002A\u002A*
X48895000Y-86995000D03*
G04 #@! TD*
D18*
G04 #@! TO.C,REF\u002A\u002A*
X21590000Y-72390000D03*
G04 #@! TD*
D20*
G04 #@! TO.C,REF\u002A\u002A*
X67945000Y-81915000D03*
G04 #@! TD*
D18*
G04 #@! TO.C,REF\u002A\u002A*
X3810000Y-74930000D03*
G04 #@! TD*
G04 #@! TO.C,REF\u002A\u002A*
X13970000Y-74930000D03*
G04 #@! TD*
D20*
G04 #@! TO.C,REF\u002A\u002A*
X66675000Y-73025000D03*
G04 #@! TD*
G04 #@! TO.C,REF\u002A\u002A*
X62865000Y-78105000D03*
G04 #@! TD*
G04 #@! TO.C,REF\u002A\u002A*
X48895000Y-89535000D03*
G04 #@! TD*
G04 #@! TO.C,REF\u002A\u002A*
X65405000Y-76835000D03*
G04 #@! TD*
G04 #@! TO.C,REF\u002A\u002A*
X62865000Y-83185000D03*
G04 #@! TD*
D18*
G04 #@! TO.C,REF\u002A\u002A*
X16510000Y-90170000D03*
G04 #@! TD*
D20*
G04 #@! TO.C,REF\u002A\u002A*
X65405000Y-90805000D03*
G04 #@! TD*
G04 #@! TO.C,REF\u002A\u002A*
X61595000Y-86995000D03*
G04 #@! TD*
G04 #@! TO.C,REF\u002A\u002A*
X53975000Y-81915000D03*
G04 #@! TD*
G04 #@! TO.C,REF\u002A\u002A*
X67945000Y-83185000D03*
G04 #@! TD*
D18*
G04 #@! TO.C,REF\u002A\u002A*
X11430000Y-74930000D03*
G04 #@! TD*
D20*
G04 #@! TO.C,REF\u002A\u002A*
X48895000Y-85725000D03*
G04 #@! TD*
D18*
G04 #@! TO.C,REF\u002A\u002A*
X8890000Y-85090000D03*
G04 #@! TD*
D20*
G04 #@! TO.C,REF\u002A\u002A*
X56515000Y-73025000D03*
G04 #@! TD*
G04 #@! TO.C,REF\u002A\u002A*
X48895000Y-88265000D03*
G04 #@! TD*
G04 #@! TO.C,REF\u002A\u002A*
X60325000Y-79375000D03*
G04 #@! TD*
D18*
G04 #@! TO.C,REF\u002A\u002A*
X8890000Y-77470000D03*
G04 #@! TD*
D20*
G04 #@! TO.C,REF\u002A\u002A*
X62865000Y-81915000D03*
G04 #@! TD*
G04 #@! TO.C,REF\u002A\u002A*
X65405000Y-79375000D03*
G04 #@! TD*
G04 #@! TO.C,REF\u002A\u002A*
X64135000Y-80645000D03*
G04 #@! TD*
G04 #@! TO.C,REF\u002A\u002A*
X53975000Y-85725000D03*
G04 #@! TD*
G04 #@! TO.C,REF\u002A\u002A*
X60325000Y-78105000D03*
G04 #@! TD*
G04 #@! TO.C,REF\u002A\u002A*
X62865000Y-86995000D03*
G04 #@! TD*
G04 #@! TO.C,REF\u002A\u002A*
X59055000Y-78105000D03*
G04 #@! TD*
G04 #@! TO.C,REF\u002A\u002A*
X57785000Y-89535000D03*
G04 #@! TD*
D18*
G04 #@! TO.C,REF\u002A\u002A*
X3810000Y-80010000D03*
G04 #@! TD*
D20*
G04 #@! TO.C,REF\u002A\u002A*
X59055000Y-79375000D03*
G04 #@! TD*
G04 #@! TO.C,REF\u002A\u002A*
X52705000Y-90805000D03*
G04 #@! TD*
G04 #@! TO.C,REF\u002A\u002A*
X48895000Y-78105000D03*
G04 #@! TD*
G04 #@! TO.C,REF\u002A\u002A*
X53975000Y-78105000D03*
G04 #@! TD*
G04 #@! TO.C,REF\u002A\u002A*
X66675000Y-85725000D03*
G04 #@! TD*
G04 #@! TO.C,REF\u002A\u002A*
X50165000Y-89535000D03*
G04 #@! TD*
G04 #@! TO.C,REF\u002A\u002A*
X65405000Y-75565000D03*
G04 #@! TD*
G04 #@! TO.C,REF\u002A\u002A*
X48895000Y-84455000D03*
G04 #@! TD*
G04 #@! TO.C,REF\u002A\u002A*
X62865000Y-71755000D03*
G04 #@! TD*
D19*
G04 #@! TO.C,PG2*
X50546000Y-53975000D03*
G04 #@! TD*
D18*
G04 #@! TO.C,REF\u002A\u002A*
X6350000Y-85090000D03*
G04 #@! TD*
D20*
G04 #@! TO.C,REF\u002A\u002A*
X65405000Y-88265000D03*
G04 #@! TD*
G04 #@! TO.C,REF\u002A\u002A*
X64135000Y-81915000D03*
G04 #@! TD*
D18*
G04 #@! TO.C,REF\u002A\u002A*
X16510000Y-72390000D03*
G04 #@! TD*
D24*
G04 #@! TO.C,REF\u002A\u002A*
X12065000Y-35560000D03*
G04 #@! TD*
D18*
G04 #@! TO.C,REF\u002A\u002A*
X3810000Y-90170000D03*
G04 #@! TD*
G04 #@! TO.C,REF\u002A\u002A*
X16510000Y-85090000D03*
G04 #@! TD*
D20*
G04 #@! TO.C,REF\u002A\u002A*
X56515000Y-90805000D03*
G04 #@! TD*
D18*
G04 #@! TO.C,REF\u002A\u002A*
X6350000Y-77470000D03*
G04 #@! TD*
D20*
G04 #@! TO.C,REF\u002A\u002A*
X64135000Y-85725000D03*
G04 #@! TD*
G04 #@! TO.C,REF\u002A\u002A*
X60325000Y-86995000D03*
G04 #@! TD*
G04 #@! TO.C,REF\u002A\u002A*
X67945000Y-90805000D03*
G04 #@! TD*
G04 #@! TO.C,REF\u002A\u002A*
X55245000Y-73025000D03*
G04 #@! TD*
G04 #@! TO.C,REF\u002A\u002A*
X56515000Y-78105000D03*
G04 #@! TD*
G04 #@! TO.C,REF\u002A\u002A*
X56515000Y-89535000D03*
G04 #@! TD*
D18*
G04 #@! TO.C,REF\u002A\u002A*
X8890000Y-80010000D03*
G04 #@! TD*
D20*
G04 #@! TO.C,REF\u002A\u002A*
X62865000Y-73025000D03*
G04 #@! TD*
G04 #@! TO.C,REF\u002A\u002A*
X65405000Y-85725000D03*
G04 #@! TD*
D18*
G04 #@! TO.C,REF\u002A\u002A*
X19050000Y-82550000D03*
G04 #@! TD*
D20*
G04 #@! TO.C,REF\u002A\u002A*
X52705000Y-85725000D03*
G04 #@! TD*
D24*
G04 #@! TO.C,REF\u002A\u002A*
X22225000Y-35560000D03*
G04 #@! TD*
D25*
G04 #@! TO.C,D4*
X56345200Y-62839600D03*
X57345200Y-62839600D03*
G04 #@! TD*
D20*
G04 #@! TO.C,REF\u002A\u002A*
X55245000Y-85725000D03*
G04 #@! TD*
G04 #@! TO.C,REF\u002A\u002A*
X61595000Y-80645000D03*
G04 #@! TD*
G04 #@! TO.C,REF\u002A\u002A*
X57785000Y-84455000D03*
G04 #@! TD*
D18*
G04 #@! TO.C,REF\u002A\u002A*
X6350000Y-87630000D03*
G04 #@! TD*
G04 #@! TO.C,REF\u002A\u002A*
X21590000Y-87630000D03*
G04 #@! TD*
D19*
G04 #@! TO.C,P3*
X60325000Y-58420000D03*
G04 #@! TD*
D18*
G04 #@! TO.C,REF\u002A\u002A*
X21590000Y-74930000D03*
G04 #@! TD*
D20*
G04 #@! TO.C,REF\u002A\u002A*
X65405000Y-89535000D03*
G04 #@! TD*
G04 #@! TO.C,REF\u002A\u002A*
X56515000Y-74295000D03*
G04 #@! TD*
G04 #@! TO.C,REF\u002A\u002A*
X51435000Y-85725000D03*
G04 #@! TD*
G04 #@! TO.C,REF\u002A\u002A*
X56515000Y-75565000D03*
G04 #@! TD*
D24*
G04 #@! TO.C,REF\u002A\u002A*
X14605000Y-35560000D03*
G04 #@! TD*
D20*
G04 #@! TO.C,REF\u002A\u002A*
X62865000Y-85725000D03*
G04 #@! TD*
G04 #@! TO.C,REF\u002A\u002A*
X66675000Y-74295000D03*
G04 #@! TD*
D24*
G04 #@! TO.C,REF\u002A\u002A*
X6985000Y-35560000D03*
G04 #@! TD*
D20*
G04 #@! TO.C,REF\u002A\u002A*
X50165000Y-83185000D03*
G04 #@! TD*
D18*
G04 #@! TO.C,REF\u002A\u002A*
X3810000Y-77470000D03*
G04 #@! TD*
D20*
G04 #@! TO.C,REF\u002A\u002A*
X50165000Y-78105000D03*
G04 #@! TD*
D18*
G04 #@! TO.C,REF\u002A\u002A*
X21590000Y-85090000D03*
G04 #@! TD*
D20*
G04 #@! TO.C,REF\u002A\u002A*
X65405000Y-74295000D03*
G04 #@! TD*
G04 #@! TO.C,REF\u002A\u002A*
X55245000Y-78105000D03*
G04 #@! TD*
G04 #@! TO.C,REF\u002A\u002A*
X59055000Y-83185000D03*
G04 #@! TD*
G04 #@! TO.C,REF\u002A\u002A*
X57785000Y-75565000D03*
G04 #@! TD*
D18*
G04 #@! TO.C,REF\u002A\u002A*
X16510000Y-80010000D03*
G04 #@! TD*
D20*
G04 #@! TO.C,REF\u002A\u002A*
X51435000Y-74295000D03*
G04 #@! TD*
D18*
G04 #@! TO.C,REF\u002A\u002A*
X16510000Y-74930000D03*
G04 #@! TD*
D20*
G04 #@! TO.C,REF\u002A\u002A*
X66675000Y-88265000D03*
G04 #@! TD*
G04 #@! TO.C,REF\u002A\u002A*
X51435000Y-84455000D03*
G04 #@! TD*
G04 #@! TO.C,REF\u002A\u002A*
X67945000Y-86995000D03*
G04 #@! TD*
D18*
G04 #@! TO.C,REF\u002A\u002A*
X19050000Y-77470000D03*
G04 #@! TD*
G04 #@! TO.C,REF\u002A\u002A*
X11430000Y-77470000D03*
G04 #@! TD*
D20*
G04 #@! TO.C,REF\u002A\u002A*
X52705000Y-71755000D03*
G04 #@! TD*
G04 #@! TO.C,REF\u002A\u002A*
X51435000Y-71755000D03*
G04 #@! TD*
G04 #@! TO.C,REF\u002A\u002A*
X50165000Y-90805000D03*
G04 #@! TD*
G04 #@! TO.C,REF\u002A\u002A*
X51435000Y-89535000D03*
G04 #@! TD*
G04 #@! TO.C,REF\u002A\u002A*
X66675000Y-71755000D03*
G04 #@! TD*
G04 #@! TO.C,REF\u002A\u002A*
X57785000Y-90805000D03*
G04 #@! TD*
G04 #@! TO.C,REF\u002A\u002A*
X51435000Y-80645000D03*
G04 #@! TD*
G04 #@! TO.C,REF\u002A\u002A*
X57785000Y-78105000D03*
G04 #@! TD*
G04 #@! TO.C,REF\u002A\u002A*
X64135000Y-83185000D03*
G04 #@! TD*
G04 #@! TO.C,REF\u002A\u002A*
X55245000Y-71755000D03*
G04 #@! TD*
G04 #@! TO.C,REF\u002A\u002A*
X61595000Y-73025000D03*
G04 #@! TD*
G04 #@! TO.C,REF\u002A\u002A*
X60325000Y-83185000D03*
G04 #@! TD*
G04 #@! TO.C,REF\u002A\u002A*
X56515000Y-80645000D03*
G04 #@! TD*
G04 #@! TO.C,REF\u002A\u002A*
X59055000Y-75565000D03*
G04 #@! TD*
G04 #@! TO.C,REF\u002A\u002A*
X61595000Y-74295000D03*
G04 #@! TD*
D19*
G04 #@! TO.C,P4*
X58420000Y-62865000D03*
G04 #@! TD*
D20*
G04 #@! TO.C,REF\u002A\u002A*
X52705000Y-88265000D03*
G04 #@! TD*
G04 #@! TO.C,REF\u002A\u002A*
X53975000Y-71755000D03*
G04 #@! TD*
G04 #@! TO.C,REF\u002A\u002A*
X55245000Y-81915000D03*
G04 #@! TD*
G04 #@! TO.C,REF\u002A\u002A*
X66675000Y-90805000D03*
G04 #@! TD*
D18*
G04 #@! TO.C,REF\u002A\u002A*
X6350000Y-72390000D03*
G04 #@! TD*
D20*
G04 #@! TO.C,REF\u002A\u002A*
X57785000Y-83185000D03*
G04 #@! TD*
G04 #@! TO.C,REF\u002A\u002A*
X52705000Y-73025000D03*
G04 #@! TD*
G04 #@! TO.C,REF\u002A\u002A*
X62865000Y-75565000D03*
G04 #@! TD*
G04 #@! TO.C,REF\u002A\u002A*
X59055000Y-84455000D03*
G04 #@! TD*
G04 #@! TO.C,REF\u002A\u002A*
X60325000Y-80645000D03*
G04 #@! TD*
G04 #@! TO.C,REF\u002A\u002A*
X64135000Y-88265000D03*
G04 #@! TD*
G04 #@! TO.C,REF\u002A\u002A*
X67945000Y-89535000D03*
G04 #@! TD*
G04 #@! TO.C,REF\u002A\u002A*
X50165000Y-88265000D03*
G04 #@! TD*
G04 #@! TO.C,REF\u002A\u002A*
X50165000Y-79375000D03*
G04 #@! TD*
G04 #@! TO.C,REF\u002A\u002A*
X64135000Y-75565000D03*
G04 #@! TD*
G04 #@! TO.C,REF\u002A\u002A*
X53975000Y-79375000D03*
G04 #@! TD*
G04 #@! TO.C,REF\u002A\u002A*
X67945000Y-78105000D03*
G04 #@! TD*
G04 #@! TO.C,REF\u002A\u002A*
X52705000Y-76835000D03*
G04 #@! TD*
G04 #@! TO.C,REF\u002A\u002A*
X59055000Y-89535000D03*
G04 #@! TD*
G04 #@! TO.C,REF\u002A\u002A*
X65405000Y-81915000D03*
G04 #@! TD*
G04 #@! TO.C,REF\u002A\u002A*
X51435000Y-81915000D03*
G04 #@! TD*
G04 #@! TO.C,REF\u002A\u002A*
X48895000Y-81915000D03*
G04 #@! TD*
D18*
G04 #@! TO.C,REF\u002A\u002A*
X16510000Y-77470000D03*
G04 #@! TD*
D24*
G04 #@! TO.C,REF\u002A\u002A*
X13335000Y-35560000D03*
G04 #@! TD*
D20*
G04 #@! TO.C,REF\u002A\u002A*
X67945000Y-84455000D03*
G04 #@! TD*
G04 #@! TO.C,REF\u002A\u002A*
X66675000Y-75565000D03*
G04 #@! TD*
G04 #@! TO.C,REF\u002A\u002A*
X60325000Y-84455000D03*
G04 #@! TD*
G04 #@! TO.C,REF\u002A\u002A*
X64135000Y-89535000D03*
G04 #@! TD*
G04 #@! TO.C,REF\u002A\u002A*
X60325000Y-73025000D03*
G04 #@! TD*
D18*
G04 #@! TO.C,REF\u002A\u002A*
X3810000Y-72390000D03*
G04 #@! TD*
D20*
G04 #@! TO.C,REF\u002A\u002A*
X59055000Y-76835000D03*
G04 #@! TD*
D18*
G04 #@! TO.C,REF\u002A\u002A*
X11430000Y-85090000D03*
G04 #@! TD*
D20*
G04 #@! TO.C,REF\u002A\u002A*
X52705000Y-78105000D03*
G04 #@! TD*
G04 #@! TO.C,REF\u002A\u002A*
X56515000Y-76835000D03*
G04 #@! TD*
G04 #@! TO.C,REF\u002A\u002A*
X62865000Y-90805000D03*
G04 #@! TD*
G04 #@! TO.C,REF\u002A\u002A*
X53975000Y-76835000D03*
G04 #@! TD*
G04 #@! TO.C,REF\u002A\u002A*
X50165000Y-85725000D03*
G04 #@! TD*
G04 #@! TO.C,REF\u002A\u002A*
X51435000Y-90805000D03*
G04 #@! TD*
G04 #@! TO.C,REF\u002A\u002A*
X53975000Y-73025000D03*
G04 #@! TD*
G04 #@! TO.C,REF\u002A\u002A*
X60325000Y-81915000D03*
G04 #@! TD*
G04 #@! TO.C,REF\u002A\u002A*
X48895000Y-73025000D03*
G04 #@! TD*
G04 #@! TO.C,REF\u002A\u002A*
X67945000Y-75565000D03*
G04 #@! TD*
G04 #@! TO.C,REF\u002A\u002A*
X56515000Y-83185000D03*
G04 #@! TD*
G04 #@! TO.C,REF\u002A\u002A*
X50165000Y-76835000D03*
G04 #@! TD*
G04 #@! TO.C,REF\u002A\u002A*
X64135000Y-79375000D03*
G04 #@! TD*
G04 #@! TO.C,REF\u002A\u002A*
X59055000Y-81915000D03*
G04 #@! TD*
G04 #@! TO.C,REF\u002A\u002A*
X52705000Y-79375000D03*
G04 #@! TD*
D18*
G04 #@! TO.C,REF\u002A\u002A*
X21590000Y-90170000D03*
G04 #@! TD*
D24*
G04 #@! TO.C,REF\u002A\u002A*
X4445000Y-35560000D03*
G04 #@! TD*
G04 #@! TO.C,REF\u002A\u002A*
X9525000Y-35560000D03*
G04 #@! TD*
G04 #@! TO.C,REF\u002A\u002A*
X3175000Y-35560000D03*
G04 #@! TD*
D20*
G04 #@! TO.C,REF\u002A\u002A*
X66675000Y-84455000D03*
G04 #@! TD*
D18*
G04 #@! TO.C,REF\u002A\u002A*
X19050000Y-85090000D03*
G04 #@! TD*
D20*
G04 #@! TO.C,REF\u002A\u002A*
X59055000Y-88265000D03*
G04 #@! TD*
G04 #@! TO.C,REF\u002A\u002A*
X62865000Y-74295000D03*
G04 #@! TD*
G04 #@! TO.C,REF\u002A\u002A*
X55245000Y-86995000D03*
G04 #@! TD*
G04 #@! TO.C,REF\u002A\u002A*
X62865000Y-84455000D03*
G04 #@! TD*
G04 #@! TO.C,REF\u002A\u002A*
X66675000Y-81915000D03*
G04 #@! TD*
G04 #@! TO.C,REF\u002A\u002A*
X55245000Y-75565000D03*
G04 #@! TD*
G04 #@! TO.C,REF\u002A\u002A*
X56515000Y-88265000D03*
G04 #@! TD*
G04 #@! TO.C,REF\u002A\u002A*
X51435000Y-75565000D03*
G04 #@! TD*
G04 #@! TO.C,REF\u002A\u002A*
X55245000Y-76835000D03*
G04 #@! TD*
G04 #@! TO.C,REF\u002A\u002A*
X60325000Y-76835000D03*
G04 #@! TD*
G04 #@! TO.C,REF\u002A\u002A*
X51435000Y-73025000D03*
G04 #@! TD*
D18*
G04 #@! TO.C,REF\u002A\u002A*
X8890000Y-87630000D03*
G04 #@! TD*
G04 #@! TO.C,REF\u002A\u002A*
X21590000Y-82550000D03*
G04 #@! TD*
D20*
G04 #@! TO.C,REF\u002A\u002A*
X67945000Y-73025000D03*
G04 #@! TD*
G04 #@! TO.C,REF\u002A\u002A*
X56515000Y-86995000D03*
G04 #@! TD*
G04 #@! TO.C,REF\u002A\u002A*
X62865000Y-76835000D03*
G04 #@! TD*
G04 #@! TO.C,REF\u002A\u002A*
X60325000Y-88265000D03*
G04 #@! TD*
D18*
G04 #@! TO.C,REF\u002A\u002A*
X16510000Y-82550000D03*
G04 #@! TD*
D26*
G04 #@! TO.C,D5*
X55580000Y-67132200D03*
X56180000Y-67132200D03*
G04 #@! TD*
D18*
G04 #@! TO.C,REF\u002A\u002A*
X8890000Y-72390000D03*
G04 #@! TD*
D20*
G04 #@! TO.C,REF\u002A\u002A*
X59055000Y-73025000D03*
G04 #@! TD*
G04 #@! TO.C,REF\u002A\u002A*
X53975000Y-74295000D03*
G04 #@! TD*
D18*
G04 #@! TO.C,REF\u002A\u002A*
X13970000Y-82550000D03*
G04 #@! TD*
G04 #@! TO.C,REF\u002A\u002A*
X21590000Y-77470000D03*
G04 #@! TD*
D20*
G04 #@! TO.C,REF\u002A\u002A*
X53975000Y-75565000D03*
G04 #@! TD*
G04 #@! TO.C,REF\u002A\u002A*
X62865000Y-80645000D03*
G04 #@! TD*
G04 #@! TO.C,REF\u002A\u002A*
X64135000Y-76835000D03*
G04 #@! TD*
D24*
G04 #@! TO.C,REF\u002A\u002A*
X19685000Y-35560000D03*
G04 #@! TD*
D20*
G04 #@! TO.C,REF\u002A\u002A*
X65405000Y-83185000D03*
G04 #@! TD*
G04 #@! TO.C,REF\u002A\u002A*
X64135000Y-90805000D03*
G04 #@! TD*
G04 #@! TO.C,REF\u002A\u002A*
X66675000Y-83185000D03*
G04 #@! TD*
D19*
G04 #@! TO.C,PG5*
X50546000Y-58420000D03*
G04 #@! TD*
D20*
G04 #@! TO.C,REF\u002A\u002A*
X61595000Y-78105000D03*
G04 #@! TD*
G04 #@! TO.C,REF\u002A\u002A*
X61595000Y-81915000D03*
G04 #@! TD*
G04 #@! TO.C,REF\u002A\u002A*
X60325000Y-90805000D03*
G04 #@! TD*
G04 #@! TO.C,REF\u002A\u002A*
X64135000Y-73025000D03*
G04 #@! TD*
G04 #@! TO.C,REF\u002A\u002A*
X53975000Y-83185000D03*
G04 #@! TD*
G04 #@! TO.C,REF\u002A\u002A*
X48895000Y-79375000D03*
G04 #@! TD*
G04 #@! TO.C,REF\u002A\u002A*
X52705000Y-84455000D03*
G04 #@! TD*
G04 #@! TO.C,REF\u002A\u002A*
X52705000Y-86995000D03*
G04 #@! TD*
D18*
G04 #@! TO.C,REF\u002A\u002A*
X8890000Y-82550000D03*
G04 #@! TD*
D20*
G04 #@! TO.C,REF\u002A\u002A*
X55245000Y-89535000D03*
G04 #@! TD*
G04 #@! TO.C,REF\u002A\u002A*
X65405000Y-73025000D03*
G04 #@! TD*
D18*
G04 #@! TO.C,REF\u002A\u002A*
X6350000Y-82550000D03*
G04 #@! TD*
D27*
G04 #@! TO.C,R2*
X54991000Y-54000400D03*
X52705000Y-54000400D03*
G04 #@! TD*
D20*
G04 #@! TO.C,REF\u002A\u002A*
X57785000Y-76835000D03*
G04 #@! TD*
G04 #@! TO.C,REF\u002A\u002A*
X60325000Y-85725000D03*
G04 #@! TD*
G04 #@! TO.C,REF\u002A\u002A*
X61595000Y-71755000D03*
G04 #@! TD*
G04 #@! TO.C,REF\u002A\u002A*
X56515000Y-85725000D03*
G04 #@! TD*
G04 #@! TO.C,REF\u002A\u002A*
X50165000Y-81915000D03*
G04 #@! TD*
D24*
G04 #@! TO.C,REF\u002A\u002A*
X15875000Y-35560000D03*
G04 #@! TD*
D20*
G04 #@! TO.C,REF\u002A\u002A*
X65405000Y-71755000D03*
G04 #@! TD*
D19*
G04 #@! TO.C,P1*
X62865000Y-49707800D03*
G04 #@! TD*
D20*
G04 #@! TO.C,REF\u002A\u002A*
X61595000Y-75565000D03*
G04 #@! TD*
G04 #@! TO.C,REF\u002A\u002A*
X59055000Y-90805000D03*
G04 #@! TD*
G04 #@! TO.C,REF\u002A\u002A*
X59055000Y-80645000D03*
G04 #@! TD*
D18*
G04 #@! TO.C,REF\u002A\u002A*
X3810000Y-82550000D03*
G04 #@! TD*
D24*
G04 #@! TO.C,REF\u002A\u002A*
X5715000Y-35560000D03*
G04 #@! TD*
D18*
G04 #@! TO.C,REF\u002A\u002A*
X19050000Y-74930000D03*
G04 #@! TD*
G04 #@! TO.C,REF\u002A\u002A*
X13970000Y-87630000D03*
G04 #@! TD*
D20*
G04 #@! TO.C,REF\u002A\u002A*
X60325000Y-71755000D03*
G04 #@! TD*
G04 #@! TO.C,REF\u002A\u002A*
X61595000Y-76835000D03*
G04 #@! TD*
G04 #@! TO.C,REF\u002A\u002A*
X55245000Y-80645000D03*
G04 #@! TD*
D19*
G04 #@! TO.C,P2*
X61595000Y-53975000D03*
G04 #@! TD*
D20*
G04 #@! TO.C,REF\u002A\u002A*
X50165000Y-74295000D03*
G04 #@! TD*
G04 #@! TO.C,REF\u002A\u002A*
X62865000Y-88265000D03*
G04 #@! TD*
G04 #@! TO.C,REF\u002A\u002A*
X65405000Y-78105000D03*
G04 #@! TD*
G04 #@! TO.C,REF\u002A\u002A*
X57785000Y-85725000D03*
G04 #@! TD*
G04 #@! TO.C,REF\u002A\u002A*
X67945000Y-74295000D03*
G04 #@! TD*
D24*
G04 #@! TO.C,REF\u002A\u002A*
X10795000Y-35560000D03*
G04 #@! TD*
D20*
G04 #@! TO.C,REF\u002A\u002A*
X55245000Y-74295000D03*
G04 #@! TD*
G04 #@! TO.C,REF\u002A\u002A*
X66675000Y-86995000D03*
G04 #@! TD*
G04 #@! TO.C,REF\u002A\u002A*
X67945000Y-79375000D03*
G04 #@! TD*
D18*
G04 #@! TO.C,REF\u002A\u002A*
X11430000Y-87630000D03*
G04 #@! TD*
D20*
G04 #@! TO.C,REF\u002A\u002A*
X57785000Y-74295000D03*
G04 #@! TD*
D18*
G04 #@! TO.C,REF\u002A\u002A*
X11430000Y-72390000D03*
G04 #@! TD*
D20*
G04 #@! TO.C,REF\u002A\u002A*
X56515000Y-84455000D03*
G04 #@! TD*
D18*
G04 #@! TO.C,REF\u002A\u002A*
X13970000Y-90170000D03*
G04 #@! TD*
G04 #@! TO.C,REF\u002A\u002A*
X19050000Y-80010000D03*
G04 #@! TD*
G04 #@! TO.C,REF\u002A\u002A*
X6350000Y-90170000D03*
G04 #@! TD*
D20*
G04 #@! TO.C,REF\u002A\u002A*
X50165000Y-75565000D03*
G04 #@! TD*
G04 #@! TO.C,REF\u002A\u002A*
X50165000Y-86995000D03*
G04 #@! TD*
G04 #@! TO.C,REF\u002A\u002A*
X56515000Y-81915000D03*
G04 #@! TD*
D18*
G04 #@! TO.C,REF\u002A\u002A*
X13970000Y-85090000D03*
G04 #@! TD*
D20*
G04 #@! TO.C,REF\u002A\u002A*
X59055000Y-74295000D03*
G04 #@! TD*
G04 #@! TO.C,REF\u002A\u002A*
X55245000Y-84455000D03*
G04 #@! TD*
D28*
G04 #@! TO.C,R3*
X54483000Y-58420000D03*
X52578000Y-58420000D03*
G04 #@! TD*
D18*
G04 #@! TO.C,REF\u002A\u002A*
X6350000Y-80010000D03*
G04 #@! TD*
D20*
G04 #@! TO.C,REF\u002A\u002A*
X66675000Y-89535000D03*
G04 #@! TD*
G04 #@! TO.C,REF\u002A\u002A*
X61595000Y-89535000D03*
G04 #@! TD*
G04 #@! TO.C,REF\u002A\u002A*
X57785000Y-88265000D03*
G04 #@! TD*
D18*
G04 #@! TO.C,REF\u002A\u002A*
X11430000Y-82550000D03*
G04 #@! TD*
D29*
G04 #@! TO.C,R1*
X56235600Y-49707800D03*
X52806600Y-49707800D03*
G04 #@! TD*
D20*
G04 #@! TO.C,REF\u002A\u002A*
X51435000Y-78105000D03*
G04 #@! TD*
G04 #@! TO.C,REF\u002A\u002A*
X53975000Y-84455000D03*
G04 #@! TD*
G04 #@! TO.C,REF\u002A\u002A*
X66675000Y-76835000D03*
G04 #@! TD*
G04 #@! TO.C,REF\u002A\u002A*
X61595000Y-83185000D03*
G04 #@! TD*
G04 #@! TO.C,REF\u002A\u002A*
X48895000Y-90805000D03*
G04 #@! TD*
D18*
G04 #@! TO.C,REF\u002A\u002A*
X21590000Y-80010000D03*
G04 #@! TD*
D20*
G04 #@! TO.C,REF\u002A\u002A*
X67945000Y-71755000D03*
G04 #@! TD*
D24*
G04 #@! TO.C,REF\u002A\u002A*
X18415000Y-35560000D03*
G04 #@! TD*
D20*
G04 #@! TO.C,REF\u002A\u002A*
X60325000Y-75565000D03*
G04 #@! TD*
G04 #@! TO.C,REF\u002A\u002A*
X64135000Y-71755000D03*
G04 #@! TD*
G04 #@! TO.C,REF\u002A\u002A*
X61595000Y-88265000D03*
G04 #@! TD*
D19*
G04 #@! TO.C,PG1*
X50546000Y-62865000D03*
G04 #@! TD*
D20*
G04 #@! TO.C,REF\u002A\u002A*
X57785000Y-81915000D03*
G04 #@! TD*
G04 #@! TO.C,REF\u002A\u002A*
X67945000Y-80645000D03*
G04 #@! TD*
G04 #@! TO.C,REF\u002A\u002A*
X61595000Y-90805000D03*
G04 #@! TD*
G04 #@! TO.C,REF\u002A\u002A*
X52705000Y-80645000D03*
G04 #@! TD*
D30*
G04 #@! TO.C,D2*
X57505600Y-54000400D03*
X59918600Y-54000400D03*
G04 #@! TD*
D20*
G04 #@! TO.C,REF\u002A\u002A*
X67945000Y-88265000D03*
G04 #@! TD*
G04 #@! TO.C,REF\u002A\u002A*
X65405000Y-80645000D03*
G04 #@! TD*
G04 #@! TO.C,REF\u002A\u002A*
X53975000Y-88265000D03*
G04 #@! TD*
D18*
G04 #@! TO.C,REF\u002A\u002A*
X13970000Y-72390000D03*
G04 #@! TD*
D20*
G04 #@! TO.C,REF\u002A\u002A*
X50165000Y-80645000D03*
G04 #@! TD*
D18*
G04 #@! TO.C,REF\u002A\u002A*
X19050000Y-90170000D03*
G04 #@! TD*
D31*
G04 #@! TO.C,R4*
X53486000Y-62865000D03*
X52586000Y-62865000D03*
G04 #@! TD*
D18*
G04 #@! TO.C,REF\u002A\u002A*
X13970000Y-80010000D03*
G04 #@! TD*
D20*
G04 #@! TO.C,REF\u002A\u002A*
X51435000Y-79375000D03*
G04 #@! TD*
G04 #@! TO.C,REF\u002A\u002A*
X55245000Y-90805000D03*
G04 #@! TD*
G04 #@! TO.C,REF\u002A\u002A*
X67945000Y-76835000D03*
G04 #@! TD*
D32*
G04 #@! TO.C,D1*
X58039000Y-49707800D03*
X61214000Y-49707800D03*
G04 #@! TD*
D18*
G04 #@! TO.C,REF\u002A\u002A*
X8890000Y-90170000D03*
G04 #@! TD*
D20*
G04 #@! TO.C,REF\u002A\u002A*
X51435000Y-76835000D03*
G04 #@! TD*
G04 #@! TO.C,G\u002A\u002A\u002A*
G36*
X34609539Y-53370807D02*
G01*
X34697778Y-53374478D01*
X34766152Y-53382382D01*
X34825900Y-53395981D01*
X34888264Y-53416736D01*
X34908403Y-53424287D01*
X35102588Y-53512807D01*
X35269091Y-53622321D01*
X35420692Y-53761253D01*
X35422350Y-53763004D01*
X35561603Y-53938918D01*
X35664462Y-54130104D01*
X35731694Y-54331889D01*
X35764068Y-54539600D01*
X35762351Y-54748567D01*
X35727310Y-54954118D01*
X35659713Y-55151579D01*
X35560327Y-55336281D01*
X35429921Y-55503550D01*
X35269260Y-55648714D01*
X35094401Y-55759246D01*
X34941241Y-55829760D01*
X34792280Y-55876016D01*
X34628547Y-55903360D01*
X34560538Y-55909747D01*
X34398573Y-55928369D01*
X34270570Y-55957278D01*
X34168871Y-55998836D01*
X34085817Y-56055403D01*
X34084570Y-56056467D01*
X34055717Y-56080490D01*
X34030655Y-56101765D01*
X34009118Y-56123286D01*
X33990838Y-56148048D01*
X33975548Y-56179046D01*
X33962983Y-56219274D01*
X33952875Y-56271728D01*
X33944957Y-56339402D01*
X33938962Y-56425291D01*
X33934624Y-56532390D01*
X33931676Y-56663693D01*
X33929851Y-56822196D01*
X33928882Y-57010892D01*
X33928502Y-57232778D01*
X33928445Y-57490847D01*
X33928444Y-57788095D01*
X33928439Y-57808857D01*
X33928317Y-58117606D01*
X33927967Y-58387111D01*
X33927181Y-58620496D01*
X33925749Y-58820886D01*
X33923461Y-58991404D01*
X33920106Y-59135177D01*
X33915476Y-59255327D01*
X33909359Y-59354979D01*
X33901548Y-59437259D01*
X33891831Y-59505289D01*
X33879998Y-59562195D01*
X33865841Y-59611102D01*
X33849149Y-59655132D01*
X33829712Y-59697412D01*
X33807320Y-59741065D01*
X33797424Y-59759734D01*
X33688092Y-59921728D01*
X33547676Y-60060588D01*
X33383329Y-60171301D01*
X33202204Y-60248855D01*
X33049658Y-60283708D01*
X33001868Y-60287349D01*
X32915971Y-60290587D01*
X32796182Y-60293422D01*
X32646723Y-60295858D01*
X32471810Y-60297896D01*
X32275662Y-60299540D01*
X32062498Y-60300790D01*
X31836537Y-60301649D01*
X31601997Y-60302120D01*
X31363097Y-60302203D01*
X31124055Y-60301903D01*
X30889089Y-60301220D01*
X30662419Y-60300158D01*
X30448263Y-60298717D01*
X30250839Y-60296901D01*
X30074366Y-60294711D01*
X29923063Y-60292150D01*
X29801147Y-60289219D01*
X29712838Y-60285922D01*
X29662355Y-60282260D01*
X29660166Y-60281964D01*
X29516931Y-60245593D01*
X29366970Y-60180379D01*
X29225089Y-60093967D01*
X29109835Y-59997772D01*
X29009363Y-59876286D01*
X28922314Y-59731144D01*
X28856762Y-59577844D01*
X28823099Y-59447440D01*
X28818986Y-59400376D01*
X28815323Y-59315368D01*
X28812108Y-59196562D01*
X28809339Y-59048108D01*
X28807013Y-58874153D01*
X28805128Y-58678845D01*
X28803681Y-58466334D01*
X28802670Y-58240766D01*
X28802092Y-58006291D01*
X28801944Y-57767056D01*
X28802225Y-57527209D01*
X28802932Y-57290899D01*
X28804061Y-57062275D01*
X28805612Y-56845483D01*
X28807581Y-56644673D01*
X28809965Y-56463992D01*
X28812763Y-56307589D01*
X28815971Y-56179612D01*
X28819588Y-56084209D01*
X28823611Y-56025528D01*
X28825161Y-56014175D01*
X28880548Y-55824999D01*
X28972200Y-55651132D01*
X29095320Y-55497452D01*
X29245110Y-55368833D01*
X29416771Y-55270153D01*
X29605505Y-55206287D01*
X29624137Y-55202210D01*
X29670224Y-55196943D01*
X29754995Y-55192362D01*
X29878943Y-55188459D01*
X30042561Y-55185226D01*
X30246342Y-55182658D01*
X30490776Y-55180748D01*
X30776359Y-55179487D01*
X31103581Y-55178869D01*
X31271898Y-55178799D01*
X31572254Y-55178829D01*
X31833253Y-55178766D01*
X32057904Y-55178382D01*
X32249219Y-55177450D01*
X32410208Y-55175742D01*
X32543882Y-55173029D01*
X32653251Y-55169085D01*
X32741327Y-55163680D01*
X32811119Y-55156588D01*
X32865639Y-55147581D01*
X32907897Y-55136430D01*
X32940904Y-55122909D01*
X32967670Y-55106788D01*
X32991206Y-55087840D01*
X33014523Y-55065838D01*
X33035626Y-55045324D01*
X33100379Y-54973557D01*
X33147123Y-54895507D01*
X33179674Y-54801279D01*
X33201850Y-54680984D01*
X33212170Y-54587812D01*
X33244113Y-54366793D01*
X33298323Y-54175090D01*
X33378559Y-54003909D01*
X33488580Y-53844454D01*
X33569402Y-53751870D01*
X33720216Y-53614911D01*
X33892969Y-53504634D01*
X34071980Y-53424287D01*
X34137199Y-53401187D01*
X34196548Y-53385667D01*
X34261269Y-53376266D01*
X34342603Y-53371520D01*
X34451791Y-53369970D01*
X34490191Y-53369909D01*
X34609539Y-53370807D01*
G37*
G36*
X67280152Y-25411616D02*
G01*
X67528551Y-25470471D01*
X67760954Y-25566268D01*
X67973947Y-25696893D01*
X68164117Y-25860229D01*
X68328048Y-26054163D01*
X68462329Y-26276579D01*
X68469026Y-26290085D01*
X68551799Y-26491989D01*
X68603175Y-26700339D01*
X68625718Y-26926842D01*
X68627272Y-27012052D01*
X68617944Y-27216628D01*
X68587396Y-27399647D01*
X68531780Y-27577075D01*
X68447251Y-27764883D01*
X68444712Y-27769892D01*
X68345412Y-27965346D01*
X65067939Y-31248916D01*
X64755863Y-31561715D01*
X64451282Y-31867283D01*
X64155588Y-32164212D01*
X63870171Y-32451095D01*
X63596424Y-32726525D01*
X63335738Y-32989095D01*
X63089503Y-33237397D01*
X62859112Y-33470024D01*
X62645956Y-33685570D01*
X62451427Y-33882626D01*
X62276915Y-34059786D01*
X62123812Y-34215643D01*
X61993509Y-34348790D01*
X61887399Y-34457819D01*
X61806871Y-34541323D01*
X61753319Y-34597895D01*
X61728132Y-34626128D01*
X61726898Y-34627815D01*
X61596433Y-34859564D01*
X61505197Y-35102090D01*
X61453265Y-35351397D01*
X61440711Y-35603490D01*
X61467609Y-35854375D01*
X61534033Y-36100057D01*
X61640059Y-36336541D01*
X61693401Y-36427389D01*
X61718547Y-36458289D01*
X61773767Y-36518907D01*
X61858997Y-36609180D01*
X61974177Y-36729044D01*
X62119243Y-36878436D01*
X62294132Y-37057293D01*
X62498783Y-37265551D01*
X62733133Y-37503147D01*
X62997120Y-37770018D01*
X63290681Y-38066100D01*
X63613753Y-38391330D01*
X63966275Y-38745645D01*
X64348184Y-39128981D01*
X64759417Y-39541276D01*
X65025054Y-39807381D01*
X65336294Y-40119231D01*
X65640075Y-40423909D01*
X65935000Y-40720000D01*
X66219668Y-41006088D01*
X66492682Y-41280758D01*
X66752641Y-41542594D01*
X66998147Y-41790181D01*
X67227800Y-42022104D01*
X67440200Y-42236947D01*
X67633950Y-42433295D01*
X67807649Y-42609732D01*
X67959899Y-42764844D01*
X68089300Y-42897214D01*
X68194452Y-43005427D01*
X68273958Y-43088067D01*
X68326417Y-43143721D01*
X68350431Y-43170971D01*
X68351153Y-43171988D01*
X68444592Y-43333779D01*
X68525527Y-43516563D01*
X68584961Y-43699277D01*
X68595968Y-43745019D01*
X68616747Y-43883057D01*
X68625381Y-44042628D01*
X68622391Y-44210085D01*
X68608297Y-44371785D01*
X68583620Y-44514082D01*
X68563958Y-44584445D01*
X68458692Y-44835508D01*
X68322221Y-45057914D01*
X68154522Y-45251689D01*
X67955571Y-45416864D01*
X67755780Y-45537978D01*
X67571230Y-45621516D01*
X67388901Y-45676268D01*
X67194617Y-45705594D01*
X67017264Y-45713023D01*
X66757837Y-45697012D01*
X66519427Y-45646066D01*
X66297141Y-45558772D01*
X66112959Y-45452094D01*
X66088375Y-45430748D01*
X66035252Y-45380837D01*
X65955007Y-45303759D01*
X65849056Y-45200912D01*
X65718814Y-45073698D01*
X65565697Y-44923513D01*
X65391121Y-44751757D01*
X65196502Y-44559829D01*
X64983254Y-44349129D01*
X64752795Y-44121054D01*
X64506540Y-43877004D01*
X64245904Y-43618377D01*
X63972303Y-43346574D01*
X63687154Y-43062992D01*
X63391871Y-42769031D01*
X63087870Y-42466089D01*
X62776568Y-42155566D01*
X62748623Y-42127676D01*
X62318752Y-41698830D01*
X61918544Y-41299987D01*
X61547876Y-40931022D01*
X61206620Y-40591812D01*
X60894650Y-40282232D01*
X60611841Y-40002158D01*
X60358066Y-39751466D01*
X60133200Y-39530032D01*
X59937116Y-39337732D01*
X59769689Y-39174442D01*
X59630792Y-39040037D01*
X59520300Y-38934393D01*
X59438086Y-38857387D01*
X59384024Y-38808894D01*
X59360634Y-38790333D01*
X59128967Y-38664708D01*
X58886337Y-38578909D01*
X58636409Y-38532995D01*
X58382845Y-38527029D01*
X58129308Y-38561069D01*
X57879462Y-38635178D01*
X57636970Y-38749416D01*
X57616112Y-38761387D01*
X57594215Y-38777210D01*
X57558056Y-38807713D01*
X57506730Y-38853786D01*
X57439331Y-38916321D01*
X57354953Y-38996207D01*
X57252690Y-39094334D01*
X57131637Y-39211593D01*
X56990888Y-39348874D01*
X56829537Y-39507068D01*
X56646679Y-39687065D01*
X56441407Y-39889756D01*
X56212816Y-40116030D01*
X55960001Y-40366777D01*
X55682055Y-40642889D01*
X55378072Y-40945256D01*
X55047148Y-41274767D01*
X54688376Y-41632314D01*
X54300851Y-42018787D01*
X54200750Y-42118652D01*
X53824325Y-42494254D01*
X53476685Y-42841156D01*
X53156574Y-43160535D01*
X52862734Y-43453565D01*
X52593908Y-43721424D01*
X52348840Y-43965287D01*
X52126273Y-44186330D01*
X51924950Y-44385730D01*
X51743614Y-44564663D01*
X51581009Y-44724304D01*
X51435877Y-44865829D01*
X51306961Y-44990416D01*
X51193005Y-45099239D01*
X51092751Y-45193475D01*
X51004944Y-45274300D01*
X50928325Y-45342891D01*
X50861639Y-45400422D01*
X50803628Y-45448070D01*
X50753036Y-45487012D01*
X50708605Y-45518423D01*
X50669079Y-45543480D01*
X50633200Y-45563358D01*
X50599713Y-45579233D01*
X50567360Y-45592283D01*
X50534884Y-45603682D01*
X50501029Y-45614606D01*
X50464537Y-45626233D01*
X50445559Y-45632460D01*
X50209668Y-45694862D01*
X49979723Y-45720800D01*
X49742471Y-45711580D01*
X49697145Y-45706180D01*
X49458238Y-45654176D01*
X49226524Y-45563113D01*
X49008579Y-45436296D01*
X48810974Y-45277030D01*
X48775810Y-45242913D01*
X48607207Y-45045548D01*
X48474611Y-44829057D01*
X48378712Y-44597719D01*
X48320197Y-44355809D01*
X48299755Y-44107606D01*
X48318074Y-43857386D01*
X48375843Y-43609427D01*
X48473750Y-43368004D01*
X48473970Y-43367562D01*
X48516121Y-43286288D01*
X48557654Y-43211264D01*
X48589978Y-43157978D01*
X48591498Y-43155719D01*
X48610491Y-43134722D01*
X48658053Y-43085155D01*
X48732799Y-43008415D01*
X48833345Y-42905895D01*
X48958306Y-42778993D01*
X49106298Y-42629103D01*
X49275937Y-42457621D01*
X49465838Y-42265943D01*
X49674618Y-42055464D01*
X49900890Y-41827580D01*
X50143272Y-41583686D01*
X50400379Y-41325179D01*
X50670826Y-41053453D01*
X50953230Y-40769904D01*
X51246205Y-40475928D01*
X51548367Y-40172920D01*
X51858332Y-39862276D01*
X51891979Y-39828565D01*
X52203122Y-39516704D01*
X52506802Y-39212025D01*
X52801620Y-38915945D01*
X53086178Y-38629878D01*
X53359077Y-38355240D01*
X53618919Y-38093445D01*
X53864305Y-37845909D01*
X54093837Y-37614048D01*
X54306115Y-37399275D01*
X54499742Y-37203006D01*
X54673318Y-37026657D01*
X54825445Y-36871642D01*
X54954725Y-36739377D01*
X55059759Y-36631277D01*
X55139148Y-36548757D01*
X55191493Y-36493232D01*
X55215397Y-36466117D01*
X55216103Y-36465121D01*
X55343310Y-36238385D01*
X55431840Y-35998820D01*
X55481660Y-35750959D01*
X55492741Y-35499338D01*
X55465053Y-35248489D01*
X55398563Y-35002948D01*
X55293242Y-34767248D01*
X55228336Y-34658089D01*
X55202888Y-34626775D01*
X55148630Y-34566994D01*
X55065469Y-34478648D01*
X54953309Y-34361642D01*
X54812056Y-34215878D01*
X54641614Y-34041261D01*
X54441888Y-33837693D01*
X54212783Y-33605079D01*
X53954205Y-33343321D01*
X53666059Y-33052324D01*
X53348248Y-32731991D01*
X53000679Y-32382225D01*
X52623256Y-32002930D01*
X52215885Y-31594009D01*
X51871791Y-31248916D01*
X51481430Y-30857456D01*
X51120158Y-30494937D01*
X50787039Y-30160405D01*
X50481136Y-29852906D01*
X50201514Y-29571488D01*
X49947235Y-29315198D01*
X49717363Y-29083083D01*
X49510962Y-28874189D01*
X49327097Y-28687565D01*
X49164830Y-28522255D01*
X49023225Y-28377309D01*
X48901346Y-28251772D01*
X48798257Y-28144691D01*
X48713021Y-28055114D01*
X48644703Y-27982087D01*
X48592365Y-27924658D01*
X48555072Y-27881873D01*
X48531887Y-27852780D01*
X48524501Y-27841746D01*
X48416514Y-27615638D01*
X48343690Y-27372201D01*
X48306948Y-27119054D01*
X48307207Y-26863817D01*
X48345384Y-26614107D01*
X48366738Y-26533270D01*
X48418276Y-26394973D01*
X48492736Y-26243739D01*
X48581637Y-26095077D01*
X48676502Y-25964494D01*
X48680148Y-25960052D01*
X48840809Y-25795618D01*
X49031304Y-25651684D01*
X49241613Y-25534374D01*
X49461715Y-25449810D01*
X49554974Y-25425464D01*
X49699311Y-25403248D01*
X49866596Y-25393276D01*
X50039356Y-25395544D01*
X50200122Y-25410050D01*
X50288061Y-25425621D01*
X50445634Y-25471977D01*
X50613400Y-25539973D01*
X50771765Y-25621122D01*
X50846735Y-25667598D01*
X50871328Y-25688956D01*
X50924458Y-25738885D01*
X51004711Y-25815989D01*
X51110674Y-25918872D01*
X51240935Y-26046135D01*
X51394080Y-26196384D01*
X51568696Y-26368220D01*
X51763370Y-26560247D01*
X51976689Y-26771069D01*
X52207239Y-26999288D01*
X52453608Y-27243508D01*
X52714381Y-27502332D01*
X52988147Y-27774364D01*
X53273492Y-28058206D01*
X53569003Y-28352462D01*
X53873266Y-28655735D01*
X54184869Y-28966628D01*
X54221934Y-29003630D01*
X54597073Y-29378174D01*
X54943439Y-29724011D01*
X55262295Y-30042321D01*
X55554897Y-30334284D01*
X55822508Y-30601080D01*
X56066386Y-30843889D01*
X56287790Y-31063891D01*
X56487982Y-31262266D01*
X56668219Y-31440194D01*
X56829762Y-31598856D01*
X56973871Y-31739430D01*
X57101806Y-31863098D01*
X57214825Y-31971038D01*
X57314189Y-32064432D01*
X57401157Y-32144459D01*
X57476989Y-32212299D01*
X57542945Y-32269132D01*
X57600284Y-32316138D01*
X57650266Y-32354498D01*
X57694151Y-32385390D01*
X57733198Y-32409996D01*
X57768667Y-32429495D01*
X57801818Y-32445067D01*
X57833910Y-32457892D01*
X57866203Y-32469151D01*
X57899957Y-32480022D01*
X57936431Y-32491687D01*
X57950375Y-32496276D01*
X58205002Y-32559487D01*
X58460995Y-32580956D01*
X58715455Y-32561094D01*
X58965483Y-32500313D01*
X59208178Y-32399024D01*
X59390909Y-32291908D01*
X59414866Y-32271020D01*
X59467361Y-32221564D01*
X59546980Y-32144939D01*
X59652308Y-32042544D01*
X59781931Y-31915776D01*
X59934433Y-31766036D01*
X60108402Y-31594720D01*
X60302423Y-31403228D01*
X60515080Y-31192958D01*
X60744961Y-30965310D01*
X60990650Y-30721680D01*
X61250733Y-30463469D01*
X61523796Y-30192074D01*
X61808425Y-29908894D01*
X62103204Y-29615328D01*
X62406720Y-29312773D01*
X62717559Y-29002630D01*
X62738031Y-28982193D01*
X63049372Y-28671536D01*
X63353528Y-28368345D01*
X63649082Y-28074021D01*
X63934617Y-27789964D01*
X64208715Y-27517576D01*
X64469959Y-27258257D01*
X64716931Y-27013409D01*
X64948214Y-26784431D01*
X65162391Y-26572726D01*
X65358045Y-26379694D01*
X65533758Y-26206736D01*
X65688113Y-26055253D01*
X65819692Y-25926645D01*
X65927079Y-25822315D01*
X66008855Y-25743661D01*
X66063604Y-25692087D01*
X66089908Y-25668991D01*
X66090574Y-25668526D01*
X66303070Y-25545611D01*
X66520353Y-25460167D01*
X66750631Y-25409749D01*
X67002116Y-25391909D01*
X67019171Y-25391819D01*
X67280152Y-25411616D01*
G37*
G36*
X34738678Y-60984318D02*
G01*
X34899411Y-61021383D01*
X35050428Y-61082964D01*
X35191025Y-61163576D01*
X35365338Y-61298821D01*
X35508867Y-61458785D01*
X35621090Y-61638532D01*
X35701485Y-61833126D01*
X35749530Y-62037631D01*
X35764703Y-62247113D01*
X35746481Y-62456636D01*
X35694342Y-62661264D01*
X35607764Y-62856062D01*
X35486225Y-63036094D01*
X35399293Y-63132016D01*
X35238547Y-63271670D01*
X35070450Y-63375855D01*
X34886710Y-63448333D01*
X34679033Y-63492864D01*
X34577817Y-63504584D01*
X34448619Y-63517994D01*
X34351246Y-63532840D01*
X34275166Y-63551467D01*
X34209845Y-63576220D01*
X34171189Y-63595117D01*
X34098514Y-63645535D01*
X34027346Y-63714941D01*
X33971585Y-63788570D01*
X33951291Y-63828677D01*
X33946247Y-63863266D01*
X33941838Y-63938726D01*
X33938060Y-64055257D01*
X33934910Y-64213060D01*
X33932386Y-64412336D01*
X33930484Y-64653285D01*
X33929202Y-64936109D01*
X33928537Y-65261008D01*
X33928439Y-65417501D01*
X33928303Y-65725368D01*
X33927925Y-65993985D01*
X33927118Y-66226470D01*
X33925690Y-66425944D01*
X33923454Y-66595524D01*
X33920220Y-66738330D01*
X33915798Y-66857479D01*
X33910000Y-66956092D01*
X33902635Y-67037287D01*
X33893515Y-67104182D01*
X33882450Y-67159897D01*
X33869252Y-67207551D01*
X33853730Y-67250261D01*
X33835695Y-67291147D01*
X33814959Y-67333328D01*
X33811774Y-67339625D01*
X33713363Y-67491363D01*
X33582832Y-67628983D01*
X33430025Y-67744194D01*
X33264786Y-67828706D01*
X33206613Y-67849257D01*
X33181600Y-67856514D01*
X33154379Y-67862839D01*
X33122027Y-67868291D01*
X33081621Y-67872934D01*
X33030236Y-67876829D01*
X32964949Y-67880037D01*
X32882836Y-67882620D01*
X32780973Y-67884640D01*
X32656437Y-67886158D01*
X32506304Y-67887237D01*
X32327650Y-67887937D01*
X32117552Y-67888321D01*
X31873085Y-67888451D01*
X31591326Y-67888387D01*
X31358321Y-67888252D01*
X31046152Y-67887992D01*
X30773462Y-67887612D01*
X30537358Y-67887050D01*
X30334951Y-67886248D01*
X30163350Y-67885144D01*
X30019663Y-67883677D01*
X29901001Y-67881786D01*
X29804472Y-67879412D01*
X29727186Y-67876494D01*
X29666252Y-67872970D01*
X29618779Y-67868781D01*
X29581877Y-67863865D01*
X29552654Y-67858162D01*
X29528221Y-67851612D01*
X29522231Y-67849741D01*
X29359175Y-67782275D01*
X29214921Y-67687635D01*
X29093609Y-67575501D01*
X28969066Y-67420434D01*
X28882173Y-67253332D01*
X28832712Y-67087164D01*
X28826457Y-67035611D01*
X28820862Y-66945891D01*
X28815926Y-66822203D01*
X28811649Y-66668743D01*
X28808031Y-66489709D01*
X28805069Y-66289299D01*
X28802764Y-66071708D01*
X28801115Y-65841136D01*
X28800120Y-65601779D01*
X28799779Y-65357834D01*
X28800092Y-65113500D01*
X28801057Y-64872972D01*
X28802673Y-64640449D01*
X28804941Y-64420128D01*
X28807858Y-64216206D01*
X28811425Y-64032881D01*
X28815640Y-63874349D01*
X28820503Y-63744809D01*
X28826013Y-63648457D01*
X28832168Y-63589491D01*
X28833374Y-63583035D01*
X28892547Y-63400885D01*
X28987057Y-63232313D01*
X29111298Y-63082968D01*
X29259667Y-62958496D01*
X29426557Y-62864548D01*
X29602952Y-62807477D01*
X29648604Y-62802196D01*
X29732212Y-62797601D01*
X29854361Y-62793682D01*
X30015641Y-62790432D01*
X30216637Y-62787842D01*
X30457936Y-62785903D01*
X30740127Y-62784608D01*
X31063796Y-62783947D01*
X31244737Y-62783852D01*
X31590375Y-62783507D01*
X31893904Y-62782526D01*
X32155582Y-62780905D01*
X32375664Y-62778640D01*
X32554406Y-62775729D01*
X32692064Y-62772166D01*
X32788895Y-62767950D01*
X32845154Y-62763075D01*
X32856472Y-62760908D01*
X32940619Y-62720396D01*
X33026208Y-62650751D01*
X33102288Y-62563350D01*
X33157906Y-62469575D01*
X33171857Y-62433193D01*
X33189650Y-62359569D01*
X33205767Y-62263253D01*
X33216977Y-62163894D01*
X33217700Y-62154595D01*
X33252998Y-61923336D01*
X33323998Y-61713691D01*
X33432372Y-61522141D01*
X33579792Y-61345165D01*
X33621594Y-61304065D01*
X33792183Y-61164445D01*
X33971276Y-61063245D01*
X34164272Y-60998513D01*
X34376571Y-60968298D01*
X34553341Y-60967183D01*
X34738678Y-60984318D01*
G37*
G36*
X40823978Y-53357225D02*
G01*
X41138740Y-53358063D01*
X41412591Y-53359472D01*
X41646258Y-53361461D01*
X41840468Y-53364040D01*
X41995947Y-53367218D01*
X42113424Y-53371005D01*
X42193624Y-53375412D01*
X42237275Y-53380446D01*
X42237314Y-53380454D01*
X42415300Y-53438555D01*
X42581246Y-53532688D01*
X42729448Y-53656994D01*
X42854199Y-53805612D01*
X42949797Y-53972682D01*
X43010537Y-54152344D01*
X43016442Y-54180824D01*
X43020740Y-54225102D01*
X43024575Y-54307429D01*
X43027949Y-54423718D01*
X43030864Y-54569884D01*
X43033323Y-54741839D01*
X43035329Y-54935498D01*
X43036884Y-55146774D01*
X43037991Y-55371583D01*
X43038652Y-55605837D01*
X43038870Y-55845450D01*
X43038648Y-56086337D01*
X43037988Y-56324411D01*
X43036892Y-56555586D01*
X43035364Y-56775777D01*
X43033405Y-56980896D01*
X43031019Y-57166859D01*
X43028208Y-57329578D01*
X43024975Y-57464968D01*
X43021322Y-57568943D01*
X43017251Y-57637417D01*
X43014245Y-57661618D01*
X42953775Y-57848312D01*
X42857410Y-58020330D01*
X42730442Y-58171858D01*
X42578165Y-58297082D01*
X42405873Y-58390187D01*
X42324039Y-58419804D01*
X42296644Y-58427851D01*
X42268159Y-58434818D01*
X42235471Y-58440786D01*
X42195469Y-58445834D01*
X42145041Y-58450041D01*
X42081076Y-58453488D01*
X42000463Y-58456254D01*
X41900090Y-58458419D01*
X41776846Y-58460063D01*
X41627618Y-58461264D01*
X41449296Y-58462104D01*
X41238768Y-58462661D01*
X40992922Y-58463016D01*
X40708647Y-58463248D01*
X40626117Y-58463299D01*
X40323688Y-58463485D01*
X40060618Y-58463780D01*
X39833896Y-58464373D01*
X39640513Y-58465447D01*
X39477458Y-58467190D01*
X39341722Y-58469788D01*
X39230294Y-58473426D01*
X39140165Y-58478290D01*
X39068324Y-58484568D01*
X39011761Y-58492444D01*
X38967467Y-58502105D01*
X38932431Y-58513737D01*
X38903643Y-58527525D01*
X38878094Y-58543657D01*
X38852773Y-58562318D01*
X38837687Y-58573854D01*
X38756036Y-58655406D01*
X38695539Y-58761631D01*
X38654104Y-58897511D01*
X38629643Y-59068027D01*
X38629447Y-59070273D01*
X38601005Y-59276262D01*
X38551768Y-59455607D01*
X38477671Y-59620589D01*
X38410680Y-59731339D01*
X38268493Y-59908243D01*
X38099730Y-60054338D01*
X37908864Y-60167642D01*
X37700366Y-60246176D01*
X37478710Y-60287958D01*
X37248367Y-60291007D01*
X37166199Y-60282514D01*
X36955122Y-60233495D01*
X36753950Y-60146770D01*
X36569017Y-60026848D01*
X36406657Y-59878242D01*
X36273207Y-59705463D01*
X36216747Y-59606389D01*
X36152848Y-59464612D01*
X36111367Y-59331045D01*
X36088801Y-59190017D01*
X36081642Y-59025859D01*
X36081657Y-59002569D01*
X36097238Y-58784027D01*
X36143823Y-58588838D01*
X36224396Y-58409956D01*
X36341944Y-58240336D01*
X36458952Y-58112184D01*
X36609785Y-57979765D01*
X36766690Y-57879798D01*
X36938134Y-57808581D01*
X37132585Y-57762413D01*
X37307597Y-57741253D01*
X37472142Y-57720954D01*
X37602301Y-57687917D01*
X37704944Y-57639058D01*
X37786940Y-57571291D01*
X37842610Y-57500908D01*
X37911459Y-57398365D01*
X37912113Y-55901968D01*
X37912519Y-55640391D01*
X37913474Y-55390245D01*
X37914931Y-55155175D01*
X37916844Y-54938828D01*
X37919164Y-54744849D01*
X37921846Y-54576885D01*
X37924843Y-54438582D01*
X37928108Y-54333584D01*
X37931595Y-54265539D01*
X37933353Y-54246915D01*
X37979412Y-54049511D01*
X38061994Y-53867861D01*
X38177015Y-53706622D01*
X38320388Y-53570455D01*
X38488027Y-53464017D01*
X38675847Y-53391968D01*
X38685427Y-53389422D01*
X38713536Y-53383336D01*
X38749887Y-53378041D01*
X38797360Y-53373484D01*
X38858834Y-53369612D01*
X38937188Y-53366373D01*
X39035303Y-53363715D01*
X39156058Y-53361584D01*
X39302331Y-53359929D01*
X39477003Y-53358697D01*
X39682952Y-53357836D01*
X39923059Y-53357292D01*
X40200203Y-53357014D01*
X40467578Y-53356948D01*
X40823978Y-53357225D01*
G37*
G36*
X40782131Y-60962153D02*
G01*
X41052970Y-60962299D01*
X41287320Y-60962624D01*
X41488121Y-60963193D01*
X41658311Y-60964073D01*
X41800831Y-60965330D01*
X41918621Y-60967029D01*
X42014619Y-60969238D01*
X42091766Y-60972022D01*
X42153002Y-60975448D01*
X42201265Y-60979581D01*
X42239496Y-60984487D01*
X42270635Y-60990234D01*
X42297620Y-60996887D01*
X42320862Y-61003728D01*
X42500233Y-61080493D01*
X42662356Y-61191740D01*
X42801784Y-61331507D01*
X42913073Y-61493835D01*
X42990775Y-61672764D01*
X43014558Y-61762870D01*
X43018868Y-61804942D01*
X43022763Y-61885293D01*
X43026241Y-61999837D01*
X43029299Y-62144486D01*
X43031936Y-62315153D01*
X43034149Y-62507749D01*
X43035936Y-62718190D01*
X43037295Y-62942386D01*
X43038223Y-63176251D01*
X43038719Y-63415698D01*
X43038780Y-63656639D01*
X43038404Y-63894987D01*
X43037588Y-64126656D01*
X43036332Y-64347556D01*
X43034631Y-64553603D01*
X43032485Y-64740708D01*
X43029890Y-64904783D01*
X43026845Y-65041743D01*
X43023348Y-65147499D01*
X43019395Y-65217964D01*
X43016442Y-65243664D01*
X42960564Y-65428295D01*
X42868214Y-65599922D01*
X42744630Y-65752988D01*
X42595048Y-65881939D01*
X42424707Y-65981217D01*
X42267625Y-66038091D01*
X42238525Y-66043827D01*
X42195459Y-66048800D01*
X42135683Y-66053059D01*
X42056453Y-66056653D01*
X41955025Y-66059630D01*
X41828653Y-66062039D01*
X41674594Y-66063928D01*
X41490103Y-66065345D01*
X41272436Y-66066340D01*
X41018848Y-66066960D01*
X40726595Y-66067254D01*
X40614918Y-66067289D01*
X40285981Y-66067585D01*
X39997908Y-66068376D01*
X39749199Y-66069683D01*
X39538350Y-66071530D01*
X39363861Y-66073938D01*
X39224231Y-66076931D01*
X39117957Y-66080531D01*
X39043538Y-66084760D01*
X38999472Y-66089642D01*
X38990213Y-66091720D01*
X38868364Y-66148642D01*
X38771310Y-66239158D01*
X38698826Y-66363630D01*
X38650685Y-66522418D01*
X38630120Y-66667666D01*
X38610950Y-66828516D01*
X38581262Y-66964664D01*
X38536153Y-67093400D01*
X38470721Y-67232018D01*
X38469393Y-67234582D01*
X38361480Y-67400799D01*
X38220394Y-67553401D01*
X38054891Y-67684887D01*
X37873723Y-67787755D01*
X37778480Y-67826653D01*
X37674604Y-67853395D01*
X37544150Y-67872279D01*
X37400649Y-67882738D01*
X37257634Y-67884208D01*
X37128636Y-67876122D01*
X37027691Y-67858055D01*
X36817201Y-67777871D01*
X36623257Y-67662312D01*
X36450881Y-67516224D01*
X36305094Y-67344447D01*
X36190916Y-67151824D01*
X36126666Y-66989058D01*
X36092525Y-66831751D01*
X36078490Y-66654091D01*
X36084569Y-66473023D01*
X36110767Y-66305490D01*
X36126400Y-66247607D01*
X36211735Y-66041037D01*
X36331783Y-65851771D01*
X36481486Y-65685087D01*
X36655785Y-65546259D01*
X36849622Y-65440564D01*
X36930193Y-65409195D01*
X37005301Y-65388900D01*
X37106737Y-65369175D01*
X37218525Y-65352880D01*
X37283217Y-65346002D01*
X37430753Y-65328021D01*
X37549536Y-65303441D01*
X37616384Y-65281053D01*
X37692545Y-65237654D01*
X37769686Y-65176393D01*
X37837281Y-65107539D01*
X37884806Y-65041362D01*
X37900034Y-65004280D01*
X37901927Y-64975590D01*
X37903883Y-64907955D01*
X37905867Y-64804797D01*
X37907841Y-64669540D01*
X37909770Y-64505607D01*
X37911616Y-64316420D01*
X37913342Y-64105403D01*
X37914913Y-63875979D01*
X37916292Y-63631570D01*
X37917436Y-63377131D01*
X37918669Y-63078767D01*
X37919912Y-62819736D01*
X37921244Y-62597001D01*
X37922745Y-62407526D01*
X37924494Y-62248276D01*
X37926571Y-62116214D01*
X37929054Y-62008304D01*
X37932023Y-61921511D01*
X37935557Y-61852798D01*
X37939737Y-61799129D01*
X37944640Y-61757468D01*
X37950347Y-61724779D01*
X37956937Y-61698026D01*
X37961730Y-61682386D01*
X38046433Y-61488387D01*
X38164279Y-61318572D01*
X38311850Y-61176414D01*
X38485729Y-61065381D01*
X38628165Y-61005687D01*
X38652507Y-60997816D01*
X38677624Y-60990955D01*
X38706446Y-60985034D01*
X38741903Y-60979983D01*
X38786925Y-60975735D01*
X38844441Y-60972219D01*
X38917381Y-60969367D01*
X39008675Y-60967109D01*
X39121254Y-60965375D01*
X39258046Y-60964097D01*
X39421982Y-60963206D01*
X39615992Y-60962632D01*
X39843005Y-60962305D01*
X40105952Y-60962158D01*
X40407762Y-60962119D01*
X40471862Y-60962119D01*
X40782131Y-60962153D01*
G37*
G04 #@! TD*
G04 #@! TO.C,REF\u002A\u002A*
X53975000Y-90805000D03*
G04 #@! TD*
G04 #@! TO.C,REF\u002A\u002A*
X51435000Y-86995000D03*
G04 #@! TD*
D33*
G04 #@! TO.C,D3*
X56896000Y-58420000D03*
X58674000Y-58420000D03*
G04 #@! TD*
D20*
G04 #@! TO.C,REF\u002A\u002A*
X61595000Y-84455000D03*
G04 #@! TD*
G04 #@! TO.C,REF\u002A\u002A*
X64135000Y-74295000D03*
G04 #@! TD*
G04 #@! TO.C,REF\u002A\u002A*
X48895000Y-80645000D03*
G04 #@! TD*
G04 #@! TO.C,REF\u002A\u002A*
X61595000Y-79375000D03*
G04 #@! TD*
G04 #@! TO.C,REF\u002A\u002A*
X48895000Y-74295000D03*
G04 #@! TD*
G04 #@! TO.C,REF\u002A\u002A*
X62865000Y-79375000D03*
G04 #@! TD*
G04 #@! TO.C,REF\u002A\u002A*
X48895000Y-75565000D03*
G04 #@! TD*
G04 #@! TO.C,REF\u002A\u002A*
X50165000Y-71755000D03*
G04 #@! TD*
G04 #@! TO.C,REF\u002A\u002A*
X53975000Y-89535000D03*
G04 #@! TD*
D23*
G04 #@! TO.C,C1*
X60960000Y-64566800D03*
X60960000Y-61010800D03*
G04 #@! TD*
D20*
G04 #@! TO.C,REF\u002A\u002A*
X55245000Y-88265000D03*
G04 #@! TD*
G04 #@! TO.C,REF\u002A\u002A*
X66675000Y-80645000D03*
G04 #@! TD*
D24*
G04 #@! TO.C,REF\u002A\u002A*
X20955000Y-35560000D03*
G04 #@! TD*
D20*
G04 #@! TO.C,REF\u002A\u002A*
X52705000Y-75565000D03*
G04 #@! TD*
G04 #@! TO.C,REF\u002A\u002A*
X53975000Y-80645000D03*
G04 #@! TD*
G04 #@! TO.C,REF\u002A\u002A*
X57785000Y-79375000D03*
G04 #@! TD*
D18*
G04 #@! TO.C,REF\u002A\u002A*
X11430000Y-90170000D03*
G04 #@! TD*
D20*
G04 #@! TO.C,REF\u002A\u002A*
X51435000Y-83185000D03*
G04 #@! TD*
G04 #@! TO.C,REF\u002A\u002A*
X57785000Y-80645000D03*
G04 #@! TD*
D19*
G04 #@! TO.C,PG3*
X50546000Y-67132200D03*
G04 #@! TD*
D20*
G04 #@! TO.C,REF\u002A\u002A*
X60325000Y-89535000D03*
G04 #@! TD*
G04 #@! TO.C,REF\u002A\u002A*
X52705000Y-74295000D03*
G04 #@! TD*
G04 #@! TO.C,REF\u002A\u002A*
X55245000Y-79375000D03*
G04 #@! TD*
D24*
G04 #@! TO.C,REF\u002A\u002A*
X17145000Y-35560000D03*
G04 #@! TD*
D20*
G04 #@! TO.C,REF\u002A\u002A*
X66675000Y-79375000D03*
G04 #@! TD*
G04 #@! TO.C,REF\u002A\u002A*
X50165000Y-73025000D03*
G04 #@! TD*
G04 #@! TO.C,REF\u002A\u002A*
X59055000Y-85725000D03*
G04 #@! TD*
D18*
G04 #@! TO.C,REF\u002A\u002A*
X6350000Y-74930000D03*
G04 #@! TD*
D34*
G04 #@! TO.C,IC1*
X63500000Y-66438800D03*
X64770000Y-66438800D03*
X66040000Y-66438800D03*
X67310000Y-66438800D03*
X67310000Y-59138800D03*
X66040000Y-59138800D03*
X64770000Y-59138800D03*
X63500000Y-59138800D03*
G04 #@! TD*
D20*
G04 #@! TO.C,REF\u002A\u002A*
X52705000Y-89535000D03*
G04 #@! TD*
G04 #@! TO.C,REF\u002A\u002A*
X57785000Y-86995000D03*
G04 #@! TD*
G04 #@! TO.C,REF\u002A\u002A*
X60325000Y-74295000D03*
G04 #@! TD*
G04 #@! TO.C,REF\u002A\u002A*
X59055000Y-86995000D03*
G04 #@! TD*
D18*
G04 #@! TO.C,REF\u002A\u002A*
X19050000Y-72390000D03*
G04 #@! TD*
D20*
G04 #@! TO.C,REF\u002A\u002A*
X57785000Y-71755000D03*
G04 #@! TD*
G04 #@! TO.C,REF\u002A\u002A*
X51435000Y-88265000D03*
G04 #@! TD*
G04 #@! TO.C,REF\u002A\u002A*
X55245000Y-83185000D03*
G04 #@! TD*
G04 #@! TO.C,REF\u002A\u002A*
X64135000Y-84455000D03*
G04 #@! TD*
D18*
G04 #@! TO.C,REF\u002A\u002A*
X3810000Y-87630000D03*
G04 #@! TD*
D20*
G04 #@! TO.C,REF\u002A\u002A*
X64135000Y-86995000D03*
G04 #@! TD*
G04 #@! TO.C,REF\u002A\u002A*
X56515000Y-79375000D03*
G04 #@! TD*
G04 #@! TO.C,REF\u002A\u002A*
X57785000Y-73025000D03*
G04 #@! TD*
G04 #@! TO.C,REF\u002A\u002A*
X50165000Y-84455000D03*
G04 #@! TD*
G04 #@! TO.C,REF\u002A\u002A*
X52705000Y-81915000D03*
G04 #@! TD*
D24*
G04 #@! TO.C,REF\u002A\u002A*
X8255000Y-35560000D03*
G04 #@! TD*
D20*
G04 #@! TO.C,REF\u002A\u002A*
X64135000Y-78105000D03*
G04 #@! TD*
G04 #@! TO.C,REF\u002A\u002A*
X67945000Y-85725000D03*
G04 #@! TD*
D19*
G04 #@! TO.C,PG4*
X50546000Y-49707800D03*
G04 #@! TD*
D20*
G04 #@! TO.C,REF\u002A\u002A*
X48895000Y-71755000D03*
G04 #@! TD*
G04 #@! TO.C,REF\u002A\u002A*
X66675000Y-78105000D03*
G04 #@! TD*
G04 #@! TO.C,REF\u002A\u002A*
X65405000Y-84455000D03*
G04 #@! TD*
D18*
G04 #@! TO.C,REF\u002A\u002A*
X11430000Y-80010000D03*
G04 #@! TD*
M02*
