G04 #@! TF.GenerationSoftware,KiCad,Pcbnew,(5.99.0-3771-g88a11f15e)*
G04 #@! TF.CreationDate,2020-10-05T20:50:06+02:00*
G04 #@! TF.ProjectId,remoticon_badge,72656d6f-7469-4636-9f6e-5f6261646765,rev?*
G04 #@! TF.SameCoordinates,PX3072580PY307257e*
G04 #@! TF.FileFunction,Soldermask,Top*
G04 #@! TF.FilePolarity,Negative*
%FSLAX46Y46*%
G04 Gerber Fmt 4.6, Leading zero omitted, Abs format (unit mm)*
G04 Created by KiCad (PCBNEW (5.99.0-3771-g88a11f15e)) date 2020-10-05 20:50:06*
%MOMM*%
%LPD*%
G01*
G04 APERTURE LIST*
%ADD10C,1.727200*%
%ADD11O,0.508000X0.762000*%
%ADD12R,1.016000X1.016000*%
%ADD13R,0.450000X0.430000*%
%ADD14O,1.600000X1.600000*%
%ADD15R,1.600000X1.600000*%
%ADD16R,0.400000X20.320000*%
%ADD17R,0.700000X0.600000*%
%ADD18R,0.400000X0.400000*%
%ADD19R,0.900000X1.300000*%
%ADD20R,0.700000X0.900000*%
%ADD21R,1.100000X1.700000*%
%ADD22R,1.300000X1.198880*%
%ADD23R,0.600000X0.600000*%
%ADD24R,1.700000X1.800860*%
%ADD25R,1.000000X0.797560*%
%ADD26R,0.650000X1.700000*%
G04 APERTURE END LIST*
G04 #@! TO.C,G\u002A\u002A\u002A*
G36*
X34738678Y-60984318D02*
G01*
X34899411Y-61021383D01*
X35050428Y-61082964D01*
X35191025Y-61163576D01*
X35365338Y-61298821D01*
X35508867Y-61458785D01*
X35621090Y-61638532D01*
X35701485Y-61833126D01*
X35749530Y-62037631D01*
X35764703Y-62247113D01*
X35746481Y-62456636D01*
X35694342Y-62661264D01*
X35607764Y-62856062D01*
X35486225Y-63036094D01*
X35399293Y-63132016D01*
X35238547Y-63271670D01*
X35070450Y-63375855D01*
X34886710Y-63448333D01*
X34679033Y-63492864D01*
X34577817Y-63504584D01*
X34448619Y-63517994D01*
X34351246Y-63532840D01*
X34275166Y-63551467D01*
X34209845Y-63576220D01*
X34171189Y-63595117D01*
X34098514Y-63645535D01*
X34027346Y-63714941D01*
X33971585Y-63788570D01*
X33951291Y-63828677D01*
X33946247Y-63863266D01*
X33941838Y-63938726D01*
X33938060Y-64055257D01*
X33934910Y-64213060D01*
X33932386Y-64412336D01*
X33930484Y-64653285D01*
X33929202Y-64936109D01*
X33928537Y-65261008D01*
X33928439Y-65417501D01*
X33928303Y-65725368D01*
X33927925Y-65993985D01*
X33927118Y-66226470D01*
X33925690Y-66425944D01*
X33923454Y-66595524D01*
X33920220Y-66738330D01*
X33915798Y-66857479D01*
X33910000Y-66956092D01*
X33902635Y-67037287D01*
X33893515Y-67104182D01*
X33882450Y-67159897D01*
X33869252Y-67207551D01*
X33853730Y-67250261D01*
X33835695Y-67291147D01*
X33814959Y-67333328D01*
X33811774Y-67339625D01*
X33713363Y-67491363D01*
X33582832Y-67628983D01*
X33430025Y-67744194D01*
X33264786Y-67828706D01*
X33206613Y-67849257D01*
X33181600Y-67856514D01*
X33154379Y-67862839D01*
X33122027Y-67868291D01*
X33081621Y-67872934D01*
X33030236Y-67876829D01*
X32964949Y-67880037D01*
X32882836Y-67882620D01*
X32780973Y-67884640D01*
X32656437Y-67886158D01*
X32506304Y-67887237D01*
X32327650Y-67887937D01*
X32117552Y-67888321D01*
X31873085Y-67888451D01*
X31591326Y-67888387D01*
X31358321Y-67888252D01*
X31046152Y-67887992D01*
X30773462Y-67887612D01*
X30537358Y-67887050D01*
X30334951Y-67886248D01*
X30163350Y-67885144D01*
X30019663Y-67883677D01*
X29901001Y-67881786D01*
X29804472Y-67879412D01*
X29727186Y-67876494D01*
X29666252Y-67872970D01*
X29618779Y-67868781D01*
X29581877Y-67863865D01*
X29552654Y-67858162D01*
X29528221Y-67851612D01*
X29522231Y-67849741D01*
X29359175Y-67782275D01*
X29214921Y-67687635D01*
X29093609Y-67575501D01*
X28969066Y-67420434D01*
X28882173Y-67253332D01*
X28832712Y-67087164D01*
X28826457Y-67035611D01*
X28820862Y-66945891D01*
X28815926Y-66822203D01*
X28811649Y-66668743D01*
X28808031Y-66489709D01*
X28805069Y-66289299D01*
X28802764Y-66071708D01*
X28801115Y-65841136D01*
X28800120Y-65601779D01*
X28799779Y-65357834D01*
X28800092Y-65113500D01*
X28801057Y-64872972D01*
X28802673Y-64640449D01*
X28804941Y-64420128D01*
X28807858Y-64216206D01*
X28811425Y-64032881D01*
X28815640Y-63874349D01*
X28820503Y-63744809D01*
X28826013Y-63648457D01*
X28832168Y-63589491D01*
X28833374Y-63583035D01*
X28892547Y-63400885D01*
X28987057Y-63232313D01*
X29111298Y-63082968D01*
X29259667Y-62958496D01*
X29426557Y-62864548D01*
X29602952Y-62807477D01*
X29648604Y-62802196D01*
X29732212Y-62797601D01*
X29854361Y-62793682D01*
X30015641Y-62790432D01*
X30216637Y-62787842D01*
X30457936Y-62785903D01*
X30740127Y-62784608D01*
X31063796Y-62783947D01*
X31244737Y-62783852D01*
X31590375Y-62783507D01*
X31893904Y-62782526D01*
X32155582Y-62780905D01*
X32375664Y-62778640D01*
X32554406Y-62775729D01*
X32692064Y-62772166D01*
X32788895Y-62767950D01*
X32845154Y-62763075D01*
X32856472Y-62760908D01*
X32940619Y-62720396D01*
X33026208Y-62650751D01*
X33102288Y-62563350D01*
X33157906Y-62469575D01*
X33171857Y-62433193D01*
X33189650Y-62359569D01*
X33205767Y-62263253D01*
X33216977Y-62163894D01*
X33217700Y-62154595D01*
X33252998Y-61923336D01*
X33323998Y-61713691D01*
X33432372Y-61522141D01*
X33579792Y-61345165D01*
X33621594Y-61304065D01*
X33792183Y-61164445D01*
X33971276Y-61063245D01*
X34164272Y-60998513D01*
X34376571Y-60968298D01*
X34553341Y-60967183D01*
X34738678Y-60984318D01*
G37*
G36*
X34609539Y-53370807D02*
G01*
X34697778Y-53374478D01*
X34766152Y-53382382D01*
X34825900Y-53395981D01*
X34888264Y-53416736D01*
X34908403Y-53424287D01*
X35102588Y-53512807D01*
X35269091Y-53622321D01*
X35420692Y-53761253D01*
X35422350Y-53763004D01*
X35561603Y-53938918D01*
X35664462Y-54130104D01*
X35731694Y-54331889D01*
X35764068Y-54539600D01*
X35762351Y-54748567D01*
X35727310Y-54954118D01*
X35659713Y-55151579D01*
X35560327Y-55336281D01*
X35429921Y-55503550D01*
X35269260Y-55648714D01*
X35094401Y-55759246D01*
X34941241Y-55829760D01*
X34792280Y-55876016D01*
X34628547Y-55903360D01*
X34560538Y-55909747D01*
X34398573Y-55928369D01*
X34270570Y-55957278D01*
X34168871Y-55998836D01*
X34085817Y-56055403D01*
X34084570Y-56056467D01*
X34055717Y-56080490D01*
X34030655Y-56101765D01*
X34009118Y-56123286D01*
X33990838Y-56148048D01*
X33975548Y-56179046D01*
X33962983Y-56219274D01*
X33952875Y-56271728D01*
X33944957Y-56339402D01*
X33938962Y-56425291D01*
X33934624Y-56532390D01*
X33931676Y-56663693D01*
X33929851Y-56822196D01*
X33928882Y-57010892D01*
X33928502Y-57232778D01*
X33928445Y-57490847D01*
X33928444Y-57788095D01*
X33928439Y-57808857D01*
X33928317Y-58117606D01*
X33927967Y-58387111D01*
X33927181Y-58620496D01*
X33925749Y-58820886D01*
X33923461Y-58991404D01*
X33920106Y-59135177D01*
X33915476Y-59255327D01*
X33909359Y-59354979D01*
X33901548Y-59437259D01*
X33891831Y-59505289D01*
X33879998Y-59562195D01*
X33865841Y-59611102D01*
X33849149Y-59655132D01*
X33829712Y-59697412D01*
X33807320Y-59741065D01*
X33797424Y-59759734D01*
X33688092Y-59921728D01*
X33547676Y-60060588D01*
X33383329Y-60171301D01*
X33202204Y-60248855D01*
X33049658Y-60283708D01*
X33001868Y-60287349D01*
X32915971Y-60290587D01*
X32796182Y-60293422D01*
X32646723Y-60295858D01*
X32471810Y-60297896D01*
X32275662Y-60299540D01*
X32062498Y-60300790D01*
X31836537Y-60301649D01*
X31601997Y-60302120D01*
X31363097Y-60302203D01*
X31124055Y-60301903D01*
X30889089Y-60301220D01*
X30662419Y-60300158D01*
X30448263Y-60298717D01*
X30250839Y-60296901D01*
X30074366Y-60294711D01*
X29923063Y-60292150D01*
X29801147Y-60289219D01*
X29712838Y-60285922D01*
X29662355Y-60282260D01*
X29660166Y-60281964D01*
X29516931Y-60245593D01*
X29366970Y-60180379D01*
X29225089Y-60093967D01*
X29109835Y-59997772D01*
X29009363Y-59876286D01*
X28922314Y-59731144D01*
X28856762Y-59577844D01*
X28823099Y-59447440D01*
X28818986Y-59400376D01*
X28815323Y-59315368D01*
X28812108Y-59196562D01*
X28809339Y-59048108D01*
X28807013Y-58874153D01*
X28805128Y-58678845D01*
X28803681Y-58466334D01*
X28802670Y-58240766D01*
X28802092Y-58006291D01*
X28801944Y-57767056D01*
X28802225Y-57527209D01*
X28802932Y-57290899D01*
X28804061Y-57062275D01*
X28805612Y-56845483D01*
X28807581Y-56644673D01*
X28809965Y-56463992D01*
X28812763Y-56307589D01*
X28815971Y-56179612D01*
X28819588Y-56084209D01*
X28823611Y-56025528D01*
X28825161Y-56014175D01*
X28880548Y-55824999D01*
X28972200Y-55651132D01*
X29095320Y-55497452D01*
X29245110Y-55368833D01*
X29416771Y-55270153D01*
X29605505Y-55206287D01*
X29624137Y-55202210D01*
X29670224Y-55196943D01*
X29754995Y-55192362D01*
X29878943Y-55188459D01*
X30042561Y-55185226D01*
X30246342Y-55182658D01*
X30490776Y-55180748D01*
X30776359Y-55179487D01*
X31103581Y-55178869D01*
X31271898Y-55178799D01*
X31572254Y-55178829D01*
X31833253Y-55178766D01*
X32057904Y-55178382D01*
X32249219Y-55177450D01*
X32410208Y-55175742D01*
X32543882Y-55173029D01*
X32653251Y-55169085D01*
X32741327Y-55163680D01*
X32811119Y-55156588D01*
X32865639Y-55147581D01*
X32907897Y-55136430D01*
X32940904Y-55122909D01*
X32967670Y-55106788D01*
X32991206Y-55087840D01*
X33014523Y-55065838D01*
X33035626Y-55045324D01*
X33100379Y-54973557D01*
X33147123Y-54895507D01*
X33179674Y-54801279D01*
X33201850Y-54680984D01*
X33212170Y-54587812D01*
X33244113Y-54366793D01*
X33298323Y-54175090D01*
X33378559Y-54003909D01*
X33488580Y-53844454D01*
X33569402Y-53751870D01*
X33720216Y-53614911D01*
X33892969Y-53504634D01*
X34071980Y-53424287D01*
X34137199Y-53401187D01*
X34196548Y-53385667D01*
X34261269Y-53376266D01*
X34342603Y-53371520D01*
X34451791Y-53369970D01*
X34490191Y-53369909D01*
X34609539Y-53370807D01*
G37*
G36*
X40823978Y-53357225D02*
G01*
X41138740Y-53358063D01*
X41412591Y-53359472D01*
X41646258Y-53361461D01*
X41840468Y-53364040D01*
X41995947Y-53367218D01*
X42113424Y-53371005D01*
X42193624Y-53375412D01*
X42237275Y-53380446D01*
X42237314Y-53380454D01*
X42415300Y-53438555D01*
X42581246Y-53532688D01*
X42729448Y-53656994D01*
X42854199Y-53805612D01*
X42949797Y-53972682D01*
X43010537Y-54152344D01*
X43016442Y-54180824D01*
X43020740Y-54225102D01*
X43024575Y-54307429D01*
X43027949Y-54423718D01*
X43030864Y-54569884D01*
X43033323Y-54741839D01*
X43035329Y-54935498D01*
X43036884Y-55146774D01*
X43037991Y-55371583D01*
X43038652Y-55605837D01*
X43038870Y-55845450D01*
X43038648Y-56086337D01*
X43037988Y-56324411D01*
X43036892Y-56555586D01*
X43035364Y-56775777D01*
X43033405Y-56980896D01*
X43031019Y-57166859D01*
X43028208Y-57329578D01*
X43024975Y-57464968D01*
X43021322Y-57568943D01*
X43017251Y-57637417D01*
X43014245Y-57661618D01*
X42953775Y-57848312D01*
X42857410Y-58020330D01*
X42730442Y-58171858D01*
X42578165Y-58297082D01*
X42405873Y-58390187D01*
X42324039Y-58419804D01*
X42296644Y-58427851D01*
X42268159Y-58434818D01*
X42235471Y-58440786D01*
X42195469Y-58445834D01*
X42145041Y-58450041D01*
X42081076Y-58453488D01*
X42000463Y-58456254D01*
X41900090Y-58458419D01*
X41776846Y-58460063D01*
X41627618Y-58461264D01*
X41449296Y-58462104D01*
X41238768Y-58462661D01*
X40992922Y-58463016D01*
X40708647Y-58463248D01*
X40626117Y-58463299D01*
X40323688Y-58463485D01*
X40060618Y-58463780D01*
X39833896Y-58464373D01*
X39640513Y-58465447D01*
X39477458Y-58467190D01*
X39341722Y-58469788D01*
X39230294Y-58473426D01*
X39140165Y-58478290D01*
X39068324Y-58484568D01*
X39011761Y-58492444D01*
X38967467Y-58502105D01*
X38932431Y-58513737D01*
X38903643Y-58527525D01*
X38878094Y-58543657D01*
X38852773Y-58562318D01*
X38837687Y-58573854D01*
X38756036Y-58655406D01*
X38695539Y-58761631D01*
X38654104Y-58897511D01*
X38629643Y-59068027D01*
X38629447Y-59070273D01*
X38601005Y-59276262D01*
X38551768Y-59455607D01*
X38477671Y-59620589D01*
X38410680Y-59731339D01*
X38268493Y-59908243D01*
X38099730Y-60054338D01*
X37908864Y-60167642D01*
X37700366Y-60246176D01*
X37478710Y-60287958D01*
X37248367Y-60291007D01*
X37166199Y-60282514D01*
X36955122Y-60233495D01*
X36753950Y-60146770D01*
X36569017Y-60026848D01*
X36406657Y-59878242D01*
X36273207Y-59705463D01*
X36216747Y-59606389D01*
X36152848Y-59464612D01*
X36111367Y-59331045D01*
X36088801Y-59190017D01*
X36081642Y-59025859D01*
X36081657Y-59002569D01*
X36097238Y-58784027D01*
X36143823Y-58588838D01*
X36224396Y-58409956D01*
X36341944Y-58240336D01*
X36458952Y-58112184D01*
X36609785Y-57979765D01*
X36766690Y-57879798D01*
X36938134Y-57808581D01*
X37132585Y-57762413D01*
X37307597Y-57741253D01*
X37472142Y-57720954D01*
X37602301Y-57687917D01*
X37704944Y-57639058D01*
X37786940Y-57571291D01*
X37842610Y-57500908D01*
X37911459Y-57398365D01*
X37912113Y-55901968D01*
X37912519Y-55640391D01*
X37913474Y-55390245D01*
X37914931Y-55155175D01*
X37916844Y-54938828D01*
X37919164Y-54744849D01*
X37921846Y-54576885D01*
X37924843Y-54438582D01*
X37928108Y-54333584D01*
X37931595Y-54265539D01*
X37933353Y-54246915D01*
X37979412Y-54049511D01*
X38061994Y-53867861D01*
X38177015Y-53706622D01*
X38320388Y-53570455D01*
X38488027Y-53464017D01*
X38675847Y-53391968D01*
X38685427Y-53389422D01*
X38713536Y-53383336D01*
X38749887Y-53378041D01*
X38797360Y-53373484D01*
X38858834Y-53369612D01*
X38937188Y-53366373D01*
X39035303Y-53363715D01*
X39156058Y-53361584D01*
X39302331Y-53359929D01*
X39477003Y-53358697D01*
X39682952Y-53357836D01*
X39923059Y-53357292D01*
X40200203Y-53357014D01*
X40467578Y-53356948D01*
X40823978Y-53357225D01*
G37*
G36*
X40782131Y-60962153D02*
G01*
X41052970Y-60962299D01*
X41287320Y-60962624D01*
X41488121Y-60963193D01*
X41658311Y-60964073D01*
X41800831Y-60965330D01*
X41918621Y-60967029D01*
X42014619Y-60969238D01*
X42091766Y-60972022D01*
X42153002Y-60975448D01*
X42201265Y-60979581D01*
X42239496Y-60984487D01*
X42270635Y-60990234D01*
X42297620Y-60996887D01*
X42320862Y-61003728D01*
X42500233Y-61080493D01*
X42662356Y-61191740D01*
X42801784Y-61331507D01*
X42913073Y-61493835D01*
X42990775Y-61672764D01*
X43014558Y-61762870D01*
X43018868Y-61804942D01*
X43022763Y-61885293D01*
X43026241Y-61999837D01*
X43029299Y-62144486D01*
X43031936Y-62315153D01*
X43034149Y-62507749D01*
X43035936Y-62718190D01*
X43037295Y-62942386D01*
X43038223Y-63176251D01*
X43038719Y-63415698D01*
X43038780Y-63656639D01*
X43038404Y-63894987D01*
X43037588Y-64126656D01*
X43036332Y-64347556D01*
X43034631Y-64553603D01*
X43032485Y-64740708D01*
X43029890Y-64904783D01*
X43026845Y-65041743D01*
X43023348Y-65147499D01*
X43019395Y-65217964D01*
X43016442Y-65243664D01*
X42960564Y-65428295D01*
X42868214Y-65599922D01*
X42744630Y-65752988D01*
X42595048Y-65881939D01*
X42424707Y-65981217D01*
X42267625Y-66038091D01*
X42238525Y-66043827D01*
X42195459Y-66048800D01*
X42135683Y-66053059D01*
X42056453Y-66056653D01*
X41955025Y-66059630D01*
X41828653Y-66062039D01*
X41674594Y-66063928D01*
X41490103Y-66065345D01*
X41272436Y-66066340D01*
X41018848Y-66066960D01*
X40726595Y-66067254D01*
X40614918Y-66067289D01*
X40285981Y-66067585D01*
X39997908Y-66068376D01*
X39749199Y-66069683D01*
X39538350Y-66071530D01*
X39363861Y-66073938D01*
X39224231Y-66076931D01*
X39117957Y-66080531D01*
X39043538Y-66084760D01*
X38999472Y-66089642D01*
X38990213Y-66091720D01*
X38868364Y-66148642D01*
X38771310Y-66239158D01*
X38698826Y-66363630D01*
X38650685Y-66522418D01*
X38630120Y-66667666D01*
X38610950Y-66828516D01*
X38581262Y-66964664D01*
X38536153Y-67093400D01*
X38470721Y-67232018D01*
X38469393Y-67234582D01*
X38361480Y-67400799D01*
X38220394Y-67553401D01*
X38054891Y-67684887D01*
X37873723Y-67787755D01*
X37778480Y-67826653D01*
X37674604Y-67853395D01*
X37544150Y-67872279D01*
X37400649Y-67882738D01*
X37257634Y-67884208D01*
X37128636Y-67876122D01*
X37027691Y-67858055D01*
X36817201Y-67777871D01*
X36623257Y-67662312D01*
X36450881Y-67516224D01*
X36305094Y-67344447D01*
X36190916Y-67151824D01*
X36126666Y-66989058D01*
X36092525Y-66831751D01*
X36078490Y-66654091D01*
X36084569Y-66473023D01*
X36110767Y-66305490D01*
X36126400Y-66247607D01*
X36211735Y-66041037D01*
X36331783Y-65851771D01*
X36481486Y-65685087D01*
X36655785Y-65546259D01*
X36849622Y-65440564D01*
X36930193Y-65409195D01*
X37005301Y-65388900D01*
X37106737Y-65369175D01*
X37218525Y-65352880D01*
X37283217Y-65346002D01*
X37430753Y-65328021D01*
X37549536Y-65303441D01*
X37616384Y-65281053D01*
X37692545Y-65237654D01*
X37769686Y-65176393D01*
X37837281Y-65107539D01*
X37884806Y-65041362D01*
X37900034Y-65004280D01*
X37901927Y-64975590D01*
X37903883Y-64907955D01*
X37905867Y-64804797D01*
X37907841Y-64669540D01*
X37909770Y-64505607D01*
X37911616Y-64316420D01*
X37913342Y-64105403D01*
X37914913Y-63875979D01*
X37916292Y-63631570D01*
X37917436Y-63377131D01*
X37918669Y-63078767D01*
X37919912Y-62819736D01*
X37921244Y-62597001D01*
X37922745Y-62407526D01*
X37924494Y-62248276D01*
X37926571Y-62116214D01*
X37929054Y-62008304D01*
X37932023Y-61921511D01*
X37935557Y-61852798D01*
X37939737Y-61799129D01*
X37944640Y-61757468D01*
X37950347Y-61724779D01*
X37956937Y-61698026D01*
X37961730Y-61682386D01*
X38046433Y-61488387D01*
X38164279Y-61318572D01*
X38311850Y-61176414D01*
X38485729Y-61065381D01*
X38628165Y-61005687D01*
X38652507Y-60997816D01*
X38677624Y-60990955D01*
X38706446Y-60985034D01*
X38741903Y-60979983D01*
X38786925Y-60975735D01*
X38844441Y-60972219D01*
X38917381Y-60969367D01*
X39008675Y-60967109D01*
X39121254Y-60965375D01*
X39258046Y-60964097D01*
X39421982Y-60963206D01*
X39615992Y-60962632D01*
X39843005Y-60962305D01*
X40105952Y-60962158D01*
X40407762Y-60962119D01*
X40471862Y-60962119D01*
X40782131Y-60962153D01*
G37*
G36*
X67260419Y-25413810D02*
G01*
X67508818Y-25472665D01*
X67741221Y-25568462D01*
X67954214Y-25699087D01*
X68144384Y-25862423D01*
X68308315Y-26056357D01*
X68442596Y-26278773D01*
X68449293Y-26292279D01*
X68532066Y-26494183D01*
X68583442Y-26702533D01*
X68605985Y-26929036D01*
X68607539Y-27014246D01*
X68598211Y-27218822D01*
X68567663Y-27401841D01*
X68512047Y-27579269D01*
X68427518Y-27767077D01*
X68424979Y-27772086D01*
X68325679Y-27967540D01*
X65048206Y-31251110D01*
X64736130Y-31563909D01*
X64431549Y-31869477D01*
X64135855Y-32166406D01*
X63850438Y-32453289D01*
X63576691Y-32728719D01*
X63316005Y-32991289D01*
X63069770Y-33239591D01*
X62839379Y-33472218D01*
X62626223Y-33687764D01*
X62431694Y-33884820D01*
X62257182Y-34061980D01*
X62104079Y-34217837D01*
X61973776Y-34350984D01*
X61867666Y-34460013D01*
X61787138Y-34543517D01*
X61733586Y-34600089D01*
X61708399Y-34628322D01*
X61707165Y-34630009D01*
X61576700Y-34861758D01*
X61485464Y-35104284D01*
X61433532Y-35353591D01*
X61420978Y-35605684D01*
X61447876Y-35856569D01*
X61514300Y-36102251D01*
X61620326Y-36338735D01*
X61673668Y-36429583D01*
X61698814Y-36460483D01*
X61754034Y-36521101D01*
X61839264Y-36611374D01*
X61954444Y-36731238D01*
X62099510Y-36880630D01*
X62274399Y-37059487D01*
X62479050Y-37267745D01*
X62713400Y-37505341D01*
X62977387Y-37772212D01*
X63270948Y-38068294D01*
X63594020Y-38393524D01*
X63946542Y-38747839D01*
X64328451Y-39131175D01*
X64739684Y-39543470D01*
X65005321Y-39809575D01*
X65316561Y-40121425D01*
X65620342Y-40426103D01*
X65915267Y-40722194D01*
X66199935Y-41008282D01*
X66472949Y-41282952D01*
X66732908Y-41544788D01*
X66978414Y-41792375D01*
X67208067Y-42024298D01*
X67420467Y-42239141D01*
X67614217Y-42435489D01*
X67787916Y-42611926D01*
X67940166Y-42767038D01*
X68069567Y-42899408D01*
X68174719Y-43007621D01*
X68254225Y-43090261D01*
X68306684Y-43145915D01*
X68330698Y-43173165D01*
X68331420Y-43174182D01*
X68424859Y-43335973D01*
X68505794Y-43518757D01*
X68565228Y-43701471D01*
X68576235Y-43747213D01*
X68597014Y-43885251D01*
X68605648Y-44044822D01*
X68602658Y-44212279D01*
X68588564Y-44373979D01*
X68563887Y-44516276D01*
X68544225Y-44586639D01*
X68438959Y-44837702D01*
X68302488Y-45060108D01*
X68134789Y-45253883D01*
X67935838Y-45419058D01*
X67736047Y-45540172D01*
X67551497Y-45623710D01*
X67369168Y-45678462D01*
X67174884Y-45707788D01*
X66997531Y-45715217D01*
X66738104Y-45699206D01*
X66499694Y-45648260D01*
X66277408Y-45560966D01*
X66093226Y-45454288D01*
X66068642Y-45432942D01*
X66015519Y-45383031D01*
X65935274Y-45305953D01*
X65829323Y-45203106D01*
X65699081Y-45075892D01*
X65545964Y-44925707D01*
X65371388Y-44753951D01*
X65176769Y-44562023D01*
X64963521Y-44351323D01*
X64733062Y-44123248D01*
X64486807Y-43879198D01*
X64226171Y-43620571D01*
X63952570Y-43348768D01*
X63667421Y-43065186D01*
X63372138Y-42771225D01*
X63068137Y-42468283D01*
X62756835Y-42157760D01*
X62728890Y-42129870D01*
X62299019Y-41701024D01*
X61898811Y-41302181D01*
X61528143Y-40933216D01*
X61186887Y-40594006D01*
X60874917Y-40284426D01*
X60592108Y-40004352D01*
X60338333Y-39753660D01*
X60113467Y-39532226D01*
X59917383Y-39339926D01*
X59749956Y-39176636D01*
X59611059Y-39042231D01*
X59500567Y-38936587D01*
X59418353Y-38859581D01*
X59364291Y-38811088D01*
X59340901Y-38792527D01*
X59109234Y-38666902D01*
X58866604Y-38581103D01*
X58616676Y-38535189D01*
X58363112Y-38529223D01*
X58109575Y-38563263D01*
X57859729Y-38637372D01*
X57617237Y-38751610D01*
X57596379Y-38763581D01*
X57574482Y-38779404D01*
X57538323Y-38809907D01*
X57486997Y-38855980D01*
X57419598Y-38918515D01*
X57335220Y-38998401D01*
X57232957Y-39096528D01*
X57111904Y-39213787D01*
X56971155Y-39351068D01*
X56809804Y-39509262D01*
X56626946Y-39689259D01*
X56421674Y-39891950D01*
X56193083Y-40118224D01*
X55940268Y-40368971D01*
X55662322Y-40645083D01*
X55358339Y-40947450D01*
X55027415Y-41276961D01*
X54668643Y-41634508D01*
X54281118Y-42020981D01*
X54181017Y-42120846D01*
X53804592Y-42496448D01*
X53456952Y-42843350D01*
X53136841Y-43162729D01*
X52843001Y-43455759D01*
X52574175Y-43723618D01*
X52329107Y-43967481D01*
X52106540Y-44188524D01*
X51905217Y-44387924D01*
X51723881Y-44566857D01*
X51561276Y-44726498D01*
X51416144Y-44868023D01*
X51287228Y-44992610D01*
X51173272Y-45101433D01*
X51073018Y-45195669D01*
X50985211Y-45276494D01*
X50908592Y-45345085D01*
X50841906Y-45402616D01*
X50783895Y-45450264D01*
X50733303Y-45489206D01*
X50688872Y-45520617D01*
X50649346Y-45545674D01*
X50613467Y-45565552D01*
X50579980Y-45581427D01*
X50547627Y-45594477D01*
X50515151Y-45605876D01*
X50481296Y-45616800D01*
X50444804Y-45628427D01*
X50425826Y-45634654D01*
X50189935Y-45697056D01*
X49959990Y-45722994D01*
X49722738Y-45713774D01*
X49677412Y-45708374D01*
X49438505Y-45656370D01*
X49206791Y-45565307D01*
X48988846Y-45438490D01*
X48791241Y-45279224D01*
X48756077Y-45245107D01*
X48587474Y-45047742D01*
X48454878Y-44831251D01*
X48358979Y-44599913D01*
X48300464Y-44358003D01*
X48280022Y-44109800D01*
X48298341Y-43859580D01*
X48356110Y-43611621D01*
X48454017Y-43370198D01*
X48454237Y-43369756D01*
X48496388Y-43288482D01*
X48537921Y-43213458D01*
X48570245Y-43160172D01*
X48571765Y-43157913D01*
X48590758Y-43136916D01*
X48638320Y-43087349D01*
X48713066Y-43010609D01*
X48813612Y-42908089D01*
X48938573Y-42781187D01*
X49086565Y-42631297D01*
X49256204Y-42459815D01*
X49446105Y-42268137D01*
X49654885Y-42057658D01*
X49881157Y-41829774D01*
X50123539Y-41585880D01*
X50380646Y-41327373D01*
X50651093Y-41055647D01*
X50933497Y-40772098D01*
X51226472Y-40478122D01*
X51528634Y-40175114D01*
X51838599Y-39864470D01*
X51872246Y-39830759D01*
X52183389Y-39518898D01*
X52487069Y-39214219D01*
X52781887Y-38918139D01*
X53066445Y-38632072D01*
X53339344Y-38357434D01*
X53599186Y-38095639D01*
X53844572Y-37848103D01*
X54074104Y-37616242D01*
X54286382Y-37401469D01*
X54480009Y-37205200D01*
X54653585Y-37028851D01*
X54805712Y-36873836D01*
X54934992Y-36741571D01*
X55040026Y-36633471D01*
X55119415Y-36550951D01*
X55171760Y-36495426D01*
X55195664Y-36468311D01*
X55196370Y-36467315D01*
X55323577Y-36240579D01*
X55412107Y-36001014D01*
X55461927Y-35753153D01*
X55473008Y-35501532D01*
X55445320Y-35250683D01*
X55378830Y-35005142D01*
X55273509Y-34769442D01*
X55208603Y-34660283D01*
X55183155Y-34628969D01*
X55128897Y-34569188D01*
X55045736Y-34480842D01*
X54933576Y-34363836D01*
X54792323Y-34218072D01*
X54621881Y-34043455D01*
X54422155Y-33839887D01*
X54193050Y-33607273D01*
X53934472Y-33345515D01*
X53646326Y-33054518D01*
X53328515Y-32734185D01*
X52980946Y-32384419D01*
X52603523Y-32005124D01*
X52196152Y-31596203D01*
X51852058Y-31251110D01*
X51461697Y-30859650D01*
X51100425Y-30497131D01*
X50767306Y-30162599D01*
X50461403Y-29855100D01*
X50181781Y-29573682D01*
X49927502Y-29317392D01*
X49697630Y-29085277D01*
X49491229Y-28876383D01*
X49307364Y-28689759D01*
X49145097Y-28524449D01*
X49003492Y-28379503D01*
X48881613Y-28253966D01*
X48778524Y-28146885D01*
X48693288Y-28057308D01*
X48624970Y-27984281D01*
X48572632Y-27926852D01*
X48535339Y-27884067D01*
X48512154Y-27854974D01*
X48504768Y-27843940D01*
X48396781Y-27617832D01*
X48323957Y-27374395D01*
X48287215Y-27121248D01*
X48287474Y-26866011D01*
X48325651Y-26616301D01*
X48347005Y-26535464D01*
X48398543Y-26397167D01*
X48473003Y-26245933D01*
X48561904Y-26097271D01*
X48656769Y-25966688D01*
X48660415Y-25962246D01*
X48821076Y-25797812D01*
X49011571Y-25653878D01*
X49221880Y-25536568D01*
X49441982Y-25452004D01*
X49535241Y-25427658D01*
X49679578Y-25405442D01*
X49846863Y-25395470D01*
X50019623Y-25397738D01*
X50180389Y-25412244D01*
X50268328Y-25427815D01*
X50425901Y-25474171D01*
X50593667Y-25542167D01*
X50752032Y-25623316D01*
X50827002Y-25669792D01*
X50851595Y-25691150D01*
X50904725Y-25741079D01*
X50984978Y-25818183D01*
X51090941Y-25921066D01*
X51221202Y-26048329D01*
X51374347Y-26198578D01*
X51548963Y-26370414D01*
X51743637Y-26562441D01*
X51956956Y-26773263D01*
X52187506Y-27001482D01*
X52433875Y-27245702D01*
X52694648Y-27504526D01*
X52968414Y-27776558D01*
X53253759Y-28060400D01*
X53549270Y-28354656D01*
X53853533Y-28657929D01*
X54165136Y-28968822D01*
X54202201Y-29005824D01*
X54577340Y-29380368D01*
X54923706Y-29726205D01*
X55242562Y-30044515D01*
X55535164Y-30336478D01*
X55802775Y-30603274D01*
X56046653Y-30846083D01*
X56268057Y-31066085D01*
X56468249Y-31264460D01*
X56648486Y-31442388D01*
X56810029Y-31601050D01*
X56954138Y-31741624D01*
X57082073Y-31865292D01*
X57195092Y-31973232D01*
X57294456Y-32066626D01*
X57381424Y-32146653D01*
X57457256Y-32214493D01*
X57523212Y-32271326D01*
X57580551Y-32318332D01*
X57630533Y-32356692D01*
X57674418Y-32387584D01*
X57713465Y-32412190D01*
X57748934Y-32431689D01*
X57782085Y-32447261D01*
X57814177Y-32460086D01*
X57846470Y-32471345D01*
X57880224Y-32482216D01*
X57916698Y-32493881D01*
X57930642Y-32498470D01*
X58185269Y-32561681D01*
X58441262Y-32583150D01*
X58695722Y-32563288D01*
X58945750Y-32502507D01*
X59188445Y-32401218D01*
X59371176Y-32294102D01*
X59395133Y-32273214D01*
X59447628Y-32223758D01*
X59527247Y-32147133D01*
X59632575Y-32044738D01*
X59762198Y-31917970D01*
X59914700Y-31768230D01*
X60088669Y-31596914D01*
X60282690Y-31405422D01*
X60495347Y-31195152D01*
X60725228Y-30967504D01*
X60970917Y-30723874D01*
X61231000Y-30465663D01*
X61504063Y-30194268D01*
X61788692Y-29911088D01*
X62083471Y-29617522D01*
X62386987Y-29314967D01*
X62697826Y-29004824D01*
X62718298Y-28984387D01*
X63029639Y-28673730D01*
X63333795Y-28370539D01*
X63629349Y-28076215D01*
X63914884Y-27792158D01*
X64188982Y-27519770D01*
X64450226Y-27260451D01*
X64697198Y-27015603D01*
X64928481Y-26786625D01*
X65142658Y-26574920D01*
X65338312Y-26381888D01*
X65514025Y-26208930D01*
X65668380Y-26057447D01*
X65799959Y-25928839D01*
X65907346Y-25824509D01*
X65989122Y-25745855D01*
X66043871Y-25694281D01*
X66070175Y-25671185D01*
X66070841Y-25670720D01*
X66283337Y-25547805D01*
X66500620Y-25462361D01*
X66730898Y-25411943D01*
X66982383Y-25394103D01*
X66999438Y-25394013D01*
X67260419Y-25413810D01*
G37*
G04 #@! TD*
D10*
G04 #@! TO.C,REF\u002A\u002A*
X8890000Y-74930000D03*
G04 #@! TD*
D11*
G04 #@! TO.C,P5*
X57150000Y-67132200D03*
G04 #@! TD*
D12*
G04 #@! TO.C,REF\u002A\u002A*
X65405000Y-86995000D03*
G04 #@! TD*
G04 #@! TO.C,REF\u002A\u002A*
X61595000Y-85725000D03*
G04 #@! TD*
D10*
G04 #@! TO.C,REF\u002A\u002A*
X13970000Y-77470000D03*
G04 #@! TD*
D12*
G04 #@! TO.C,REF\u002A\u002A*
X53975000Y-86995000D03*
G04 #@! TD*
D13*
G04 #@! TO.C,R5*
X53282800Y-67132200D03*
X52482800Y-67132200D03*
G04 #@! TD*
D12*
G04 #@! TO.C,REF\u002A\u002A*
X59055000Y-71755000D03*
G04 #@! TD*
G04 #@! TO.C,REF\u002A\u002A*
X56515000Y-71755000D03*
G04 #@! TD*
D14*
G04 #@! TO.C,CON1*
X64439800Y-49987200D03*
D15*
X66979800Y-49987200D03*
D14*
X64439800Y-52527200D03*
X66979800Y-52527200D03*
X64439800Y-55067200D03*
X66979800Y-55067200D03*
G04 #@! TD*
D10*
G04 #@! TO.C,REF\u002A\u002A*
X16510000Y-87630000D03*
G04 #@! TD*
D12*
G04 #@! TO.C,REF\u002A\u002A*
X62865000Y-89535000D03*
G04 #@! TD*
D10*
G04 #@! TO.C,REF\u002A\u002A*
X19050000Y-87630000D03*
G04 #@! TD*
D12*
G04 #@! TO.C,REF\u002A\u002A*
X48895000Y-76835000D03*
G04 #@! TD*
G04 #@! TO.C,REF\u002A\u002A*
X48895000Y-83185000D03*
G04 #@! TD*
G04 #@! TO.C,REF\u002A\u002A*
X52705000Y-83185000D03*
G04 #@! TD*
D10*
G04 #@! TO.C,REF\u002A\u002A*
X3810000Y-85090000D03*
G04 #@! TD*
D12*
G04 #@! TO.C,REF\u002A\u002A*
X48895000Y-86995000D03*
G04 #@! TD*
D10*
G04 #@! TO.C,REF\u002A\u002A*
X21590000Y-72390000D03*
G04 #@! TD*
D12*
G04 #@! TO.C,REF\u002A\u002A*
X67945000Y-81915000D03*
G04 #@! TD*
D10*
G04 #@! TO.C,REF\u002A\u002A*
X3810000Y-74930000D03*
G04 #@! TD*
G04 #@! TO.C,REF\u002A\u002A*
X13970000Y-74930000D03*
G04 #@! TD*
D12*
G04 #@! TO.C,REF\u002A\u002A*
X66675000Y-73025000D03*
G04 #@! TD*
G04 #@! TO.C,REF\u002A\u002A*
X62865000Y-78105000D03*
G04 #@! TD*
G04 #@! TO.C,REF\u002A\u002A*
X48895000Y-89535000D03*
G04 #@! TD*
G04 #@! TO.C,REF\u002A\u002A*
X65405000Y-76835000D03*
G04 #@! TD*
G04 #@! TO.C,REF\u002A\u002A*
X62865000Y-83185000D03*
G04 #@! TD*
D10*
G04 #@! TO.C,REF\u002A\u002A*
X16510000Y-90170000D03*
G04 #@! TD*
D12*
G04 #@! TO.C,REF\u002A\u002A*
X65405000Y-90805000D03*
G04 #@! TD*
G04 #@! TO.C,REF\u002A\u002A*
X61595000Y-86995000D03*
G04 #@! TD*
G04 #@! TO.C,REF\u002A\u002A*
X53975000Y-81915000D03*
G04 #@! TD*
G04 #@! TO.C,REF\u002A\u002A*
X67945000Y-83185000D03*
G04 #@! TD*
D10*
G04 #@! TO.C,REF\u002A\u002A*
X11430000Y-74930000D03*
G04 #@! TD*
D12*
G04 #@! TO.C,REF\u002A\u002A*
X48895000Y-85725000D03*
G04 #@! TD*
D10*
G04 #@! TO.C,REF\u002A\u002A*
X8890000Y-85090000D03*
G04 #@! TD*
D12*
G04 #@! TO.C,REF\u002A\u002A*
X56515000Y-73025000D03*
G04 #@! TD*
G04 #@! TO.C,REF\u002A\u002A*
X48895000Y-88265000D03*
G04 #@! TD*
G04 #@! TO.C,REF\u002A\u002A*
X60325000Y-79375000D03*
G04 #@! TD*
D10*
G04 #@! TO.C,REF\u002A\u002A*
X8890000Y-77470000D03*
G04 #@! TD*
D12*
G04 #@! TO.C,REF\u002A\u002A*
X62865000Y-81915000D03*
G04 #@! TD*
G04 #@! TO.C,REF\u002A\u002A*
X65405000Y-79375000D03*
G04 #@! TD*
G04 #@! TO.C,REF\u002A\u002A*
X64135000Y-80645000D03*
G04 #@! TD*
G04 #@! TO.C,REF\u002A\u002A*
X53975000Y-85725000D03*
G04 #@! TD*
G04 #@! TO.C,REF\u002A\u002A*
X60325000Y-78105000D03*
G04 #@! TD*
G04 #@! TO.C,REF\u002A\u002A*
X62865000Y-86995000D03*
G04 #@! TD*
G04 #@! TO.C,REF\u002A\u002A*
X59055000Y-78105000D03*
G04 #@! TD*
G04 #@! TO.C,REF\u002A\u002A*
X57785000Y-89535000D03*
G04 #@! TD*
D10*
G04 #@! TO.C,REF\u002A\u002A*
X3810000Y-80010000D03*
G04 #@! TD*
D12*
G04 #@! TO.C,REF\u002A\u002A*
X59055000Y-79375000D03*
G04 #@! TD*
G04 #@! TO.C,REF\u002A\u002A*
X52705000Y-90805000D03*
G04 #@! TD*
G04 #@! TO.C,REF\u002A\u002A*
X48895000Y-78105000D03*
G04 #@! TD*
G04 #@! TO.C,REF\u002A\u002A*
X53975000Y-78105000D03*
G04 #@! TD*
G04 #@! TO.C,REF\u002A\u002A*
X66675000Y-85725000D03*
G04 #@! TD*
G04 #@! TO.C,REF\u002A\u002A*
X50165000Y-89535000D03*
G04 #@! TD*
G04 #@! TO.C,REF\u002A\u002A*
X65405000Y-75565000D03*
G04 #@! TD*
G04 #@! TO.C,REF\u002A\u002A*
X48895000Y-84455000D03*
G04 #@! TD*
G04 #@! TO.C,REF\u002A\u002A*
X62865000Y-71755000D03*
G04 #@! TD*
D11*
G04 #@! TO.C,PG2*
X50546000Y-53975000D03*
G04 #@! TD*
D10*
G04 #@! TO.C,REF\u002A\u002A*
X6350000Y-85090000D03*
G04 #@! TD*
D12*
G04 #@! TO.C,REF\u002A\u002A*
X65405000Y-88265000D03*
G04 #@! TD*
G04 #@! TO.C,REF\u002A\u002A*
X64135000Y-81915000D03*
G04 #@! TD*
D10*
G04 #@! TO.C,REF\u002A\u002A*
X16510000Y-72390000D03*
G04 #@! TD*
D16*
G04 #@! TO.C,REF\u002A\u002A*
X12065000Y-35560000D03*
G04 #@! TD*
D10*
G04 #@! TO.C,REF\u002A\u002A*
X3810000Y-90170000D03*
G04 #@! TD*
G04 #@! TO.C,REF\u002A\u002A*
X16510000Y-85090000D03*
G04 #@! TD*
D12*
G04 #@! TO.C,REF\u002A\u002A*
X56515000Y-90805000D03*
G04 #@! TD*
D10*
G04 #@! TO.C,REF\u002A\u002A*
X6350000Y-77470000D03*
G04 #@! TD*
D12*
G04 #@! TO.C,REF\u002A\u002A*
X64135000Y-85725000D03*
G04 #@! TD*
G04 #@! TO.C,REF\u002A\u002A*
X60325000Y-86995000D03*
G04 #@! TD*
G04 #@! TO.C,REF\u002A\u002A*
X67945000Y-90805000D03*
G04 #@! TD*
G04 #@! TO.C,REF\u002A\u002A*
X55245000Y-73025000D03*
G04 #@! TD*
G04 #@! TO.C,REF\u002A\u002A*
X56515000Y-78105000D03*
G04 #@! TD*
G04 #@! TO.C,REF\u002A\u002A*
X56515000Y-89535000D03*
G04 #@! TD*
D10*
G04 #@! TO.C,REF\u002A\u002A*
X8890000Y-80010000D03*
G04 #@! TD*
D12*
G04 #@! TO.C,REF\u002A\u002A*
X62865000Y-73025000D03*
G04 #@! TD*
G04 #@! TO.C,REF\u002A\u002A*
X65405000Y-85725000D03*
G04 #@! TD*
D10*
G04 #@! TO.C,REF\u002A\u002A*
X19050000Y-82550000D03*
G04 #@! TD*
D12*
G04 #@! TO.C,REF\u002A\u002A*
X52705000Y-85725000D03*
G04 #@! TD*
D16*
G04 #@! TO.C,REF\u002A\u002A*
X22225000Y-35560000D03*
G04 #@! TD*
D17*
G04 #@! TO.C,D4*
X56345200Y-62839600D03*
X57345200Y-62839600D03*
G04 #@! TD*
D12*
G04 #@! TO.C,REF\u002A\u002A*
X55245000Y-85725000D03*
G04 #@! TD*
G04 #@! TO.C,REF\u002A\u002A*
X61595000Y-80645000D03*
G04 #@! TD*
G04 #@! TO.C,REF\u002A\u002A*
X57785000Y-84455000D03*
G04 #@! TD*
D10*
G04 #@! TO.C,REF\u002A\u002A*
X6350000Y-87630000D03*
G04 #@! TD*
G04 #@! TO.C,REF\u002A\u002A*
X21590000Y-87630000D03*
G04 #@! TD*
D11*
G04 #@! TO.C,P3*
X60325000Y-58420000D03*
G04 #@! TD*
D10*
G04 #@! TO.C,REF\u002A\u002A*
X21590000Y-74930000D03*
G04 #@! TD*
D12*
G04 #@! TO.C,REF\u002A\u002A*
X65405000Y-89535000D03*
G04 #@! TD*
G04 #@! TO.C,REF\u002A\u002A*
X56515000Y-74295000D03*
G04 #@! TD*
G04 #@! TO.C,REF\u002A\u002A*
X51435000Y-85725000D03*
G04 #@! TD*
G04 #@! TO.C,REF\u002A\u002A*
X56515000Y-75565000D03*
G04 #@! TD*
D16*
G04 #@! TO.C,REF\u002A\u002A*
X14605000Y-35560000D03*
G04 #@! TD*
D12*
G04 #@! TO.C,REF\u002A\u002A*
X62865000Y-85725000D03*
G04 #@! TD*
G04 #@! TO.C,REF\u002A\u002A*
X66675000Y-74295000D03*
G04 #@! TD*
D16*
G04 #@! TO.C,REF\u002A\u002A*
X6985000Y-35560000D03*
G04 #@! TD*
D12*
G04 #@! TO.C,REF\u002A\u002A*
X50165000Y-83185000D03*
G04 #@! TD*
D10*
G04 #@! TO.C,REF\u002A\u002A*
X3810000Y-77470000D03*
G04 #@! TD*
D12*
G04 #@! TO.C,REF\u002A\u002A*
X50165000Y-78105000D03*
G04 #@! TD*
D10*
G04 #@! TO.C,REF\u002A\u002A*
X21590000Y-85090000D03*
G04 #@! TD*
D12*
G04 #@! TO.C,REF\u002A\u002A*
X65405000Y-74295000D03*
G04 #@! TD*
G04 #@! TO.C,REF\u002A\u002A*
X55245000Y-78105000D03*
G04 #@! TD*
G04 #@! TO.C,REF\u002A\u002A*
X59055000Y-83185000D03*
G04 #@! TD*
G04 #@! TO.C,REF\u002A\u002A*
X57785000Y-75565000D03*
G04 #@! TD*
D10*
G04 #@! TO.C,REF\u002A\u002A*
X16510000Y-80010000D03*
G04 #@! TD*
D12*
G04 #@! TO.C,REF\u002A\u002A*
X51435000Y-74295000D03*
G04 #@! TD*
D10*
G04 #@! TO.C,REF\u002A\u002A*
X16510000Y-74930000D03*
G04 #@! TD*
D12*
G04 #@! TO.C,REF\u002A\u002A*
X66675000Y-88265000D03*
G04 #@! TD*
G04 #@! TO.C,REF\u002A\u002A*
X51435000Y-84455000D03*
G04 #@! TD*
G04 #@! TO.C,REF\u002A\u002A*
X67945000Y-86995000D03*
G04 #@! TD*
D10*
G04 #@! TO.C,REF\u002A\u002A*
X19050000Y-77470000D03*
G04 #@! TD*
G04 #@! TO.C,REF\u002A\u002A*
X11430000Y-77470000D03*
G04 #@! TD*
D12*
G04 #@! TO.C,REF\u002A\u002A*
X52705000Y-71755000D03*
G04 #@! TD*
G04 #@! TO.C,REF\u002A\u002A*
X51435000Y-71755000D03*
G04 #@! TD*
G04 #@! TO.C,REF\u002A\u002A*
X50165000Y-90805000D03*
G04 #@! TD*
G04 #@! TO.C,REF\u002A\u002A*
X51435000Y-89535000D03*
G04 #@! TD*
G04 #@! TO.C,REF\u002A\u002A*
X66675000Y-71755000D03*
G04 #@! TD*
G04 #@! TO.C,REF\u002A\u002A*
X57785000Y-90805000D03*
G04 #@! TD*
G04 #@! TO.C,REF\u002A\u002A*
X51435000Y-80645000D03*
G04 #@! TD*
G04 #@! TO.C,REF\u002A\u002A*
X57785000Y-78105000D03*
G04 #@! TD*
G04 #@! TO.C,REF\u002A\u002A*
X64135000Y-83185000D03*
G04 #@! TD*
G04 #@! TO.C,REF\u002A\u002A*
X55245000Y-71755000D03*
G04 #@! TD*
G04 #@! TO.C,REF\u002A\u002A*
X61595000Y-73025000D03*
G04 #@! TD*
G04 #@! TO.C,REF\u002A\u002A*
X60325000Y-83185000D03*
G04 #@! TD*
G04 #@! TO.C,REF\u002A\u002A*
X56515000Y-80645000D03*
G04 #@! TD*
G04 #@! TO.C,REF\u002A\u002A*
X59055000Y-75565000D03*
G04 #@! TD*
G04 #@! TO.C,REF\u002A\u002A*
X61595000Y-74295000D03*
G04 #@! TD*
D11*
G04 #@! TO.C,P4*
X58420000Y-62865000D03*
G04 #@! TD*
D12*
G04 #@! TO.C,REF\u002A\u002A*
X52705000Y-88265000D03*
G04 #@! TD*
G04 #@! TO.C,REF\u002A\u002A*
X53975000Y-71755000D03*
G04 #@! TD*
G04 #@! TO.C,REF\u002A\u002A*
X55245000Y-81915000D03*
G04 #@! TD*
G04 #@! TO.C,REF\u002A\u002A*
X66675000Y-90805000D03*
G04 #@! TD*
D10*
G04 #@! TO.C,REF\u002A\u002A*
X6350000Y-72390000D03*
G04 #@! TD*
D12*
G04 #@! TO.C,REF\u002A\u002A*
X57785000Y-83185000D03*
G04 #@! TD*
G04 #@! TO.C,REF\u002A\u002A*
X52705000Y-73025000D03*
G04 #@! TD*
G04 #@! TO.C,REF\u002A\u002A*
X62865000Y-75565000D03*
G04 #@! TD*
G04 #@! TO.C,REF\u002A\u002A*
X59055000Y-84455000D03*
G04 #@! TD*
G04 #@! TO.C,REF\u002A\u002A*
X60325000Y-80645000D03*
G04 #@! TD*
G04 #@! TO.C,REF\u002A\u002A*
X64135000Y-88265000D03*
G04 #@! TD*
G04 #@! TO.C,REF\u002A\u002A*
X67945000Y-89535000D03*
G04 #@! TD*
G04 #@! TO.C,REF\u002A\u002A*
X50165000Y-88265000D03*
G04 #@! TD*
G04 #@! TO.C,REF\u002A\u002A*
X50165000Y-79375000D03*
G04 #@! TD*
G04 #@! TO.C,REF\u002A\u002A*
X64135000Y-75565000D03*
G04 #@! TD*
G04 #@! TO.C,REF\u002A\u002A*
X53975000Y-79375000D03*
G04 #@! TD*
G04 #@! TO.C,REF\u002A\u002A*
X67945000Y-78105000D03*
G04 #@! TD*
G04 #@! TO.C,REF\u002A\u002A*
X52705000Y-76835000D03*
G04 #@! TD*
G04 #@! TO.C,REF\u002A\u002A*
X59055000Y-89535000D03*
G04 #@! TD*
G04 #@! TO.C,REF\u002A\u002A*
X65405000Y-81915000D03*
G04 #@! TD*
G04 #@! TO.C,REF\u002A\u002A*
X51435000Y-81915000D03*
G04 #@! TD*
G04 #@! TO.C,REF\u002A\u002A*
X48895000Y-81915000D03*
G04 #@! TD*
D10*
G04 #@! TO.C,REF\u002A\u002A*
X16510000Y-77470000D03*
G04 #@! TD*
D16*
G04 #@! TO.C,REF\u002A\u002A*
X13335000Y-35560000D03*
G04 #@! TD*
D12*
G04 #@! TO.C,REF\u002A\u002A*
X67945000Y-84455000D03*
G04 #@! TD*
G04 #@! TO.C,REF\u002A\u002A*
X66675000Y-75565000D03*
G04 #@! TD*
G04 #@! TO.C,REF\u002A\u002A*
X60325000Y-84455000D03*
G04 #@! TD*
G04 #@! TO.C,REF\u002A\u002A*
X64135000Y-89535000D03*
G04 #@! TD*
G04 #@! TO.C,REF\u002A\u002A*
X60325000Y-73025000D03*
G04 #@! TD*
D10*
G04 #@! TO.C,REF\u002A\u002A*
X3810000Y-72390000D03*
G04 #@! TD*
D12*
G04 #@! TO.C,REF\u002A\u002A*
X59055000Y-76835000D03*
G04 #@! TD*
D10*
G04 #@! TO.C,REF\u002A\u002A*
X11430000Y-85090000D03*
G04 #@! TD*
D12*
G04 #@! TO.C,REF\u002A\u002A*
X52705000Y-78105000D03*
G04 #@! TD*
G04 #@! TO.C,REF\u002A\u002A*
X56515000Y-76835000D03*
G04 #@! TD*
G04 #@! TO.C,REF\u002A\u002A*
X62865000Y-90805000D03*
G04 #@! TD*
G04 #@! TO.C,REF\u002A\u002A*
X53975000Y-76835000D03*
G04 #@! TD*
G04 #@! TO.C,REF\u002A\u002A*
X50165000Y-85725000D03*
G04 #@! TD*
G04 #@! TO.C,REF\u002A\u002A*
X51435000Y-90805000D03*
G04 #@! TD*
G04 #@! TO.C,REF\u002A\u002A*
X53975000Y-73025000D03*
G04 #@! TD*
G04 #@! TO.C,REF\u002A\u002A*
X60325000Y-81915000D03*
G04 #@! TD*
G04 #@! TO.C,REF\u002A\u002A*
X48895000Y-73025000D03*
G04 #@! TD*
G04 #@! TO.C,REF\u002A\u002A*
X67945000Y-75565000D03*
G04 #@! TD*
G04 #@! TO.C,REF\u002A\u002A*
X56515000Y-83185000D03*
G04 #@! TD*
G04 #@! TO.C,REF\u002A\u002A*
X50165000Y-76835000D03*
G04 #@! TD*
G04 #@! TO.C,REF\u002A\u002A*
X64135000Y-79375000D03*
G04 #@! TD*
G04 #@! TO.C,REF\u002A\u002A*
X59055000Y-81915000D03*
G04 #@! TD*
G04 #@! TO.C,REF\u002A\u002A*
X52705000Y-79375000D03*
G04 #@! TD*
D10*
G04 #@! TO.C,REF\u002A\u002A*
X21590000Y-90170000D03*
G04 #@! TD*
D16*
G04 #@! TO.C,REF\u002A\u002A*
X4445000Y-35560000D03*
G04 #@! TD*
G04 #@! TO.C,REF\u002A\u002A*
X9525000Y-35560000D03*
G04 #@! TD*
G04 #@! TO.C,REF\u002A\u002A*
X3175000Y-35560000D03*
G04 #@! TD*
D12*
G04 #@! TO.C,REF\u002A\u002A*
X66675000Y-84455000D03*
G04 #@! TD*
D10*
G04 #@! TO.C,REF\u002A\u002A*
X19050000Y-85090000D03*
G04 #@! TD*
D12*
G04 #@! TO.C,REF\u002A\u002A*
X59055000Y-88265000D03*
G04 #@! TD*
G04 #@! TO.C,REF\u002A\u002A*
X62865000Y-74295000D03*
G04 #@! TD*
G04 #@! TO.C,REF\u002A\u002A*
X55245000Y-86995000D03*
G04 #@! TD*
G04 #@! TO.C,REF\u002A\u002A*
X62865000Y-84455000D03*
G04 #@! TD*
G04 #@! TO.C,REF\u002A\u002A*
X66675000Y-81915000D03*
G04 #@! TD*
G04 #@! TO.C,REF\u002A\u002A*
X55245000Y-75565000D03*
G04 #@! TD*
G04 #@! TO.C,REF\u002A\u002A*
X56515000Y-88265000D03*
G04 #@! TD*
G04 #@! TO.C,REF\u002A\u002A*
X51435000Y-75565000D03*
G04 #@! TD*
G04 #@! TO.C,REF\u002A\u002A*
X55245000Y-76835000D03*
G04 #@! TD*
G04 #@! TO.C,REF\u002A\u002A*
X60325000Y-76835000D03*
G04 #@! TD*
G04 #@! TO.C,REF\u002A\u002A*
X51435000Y-73025000D03*
G04 #@! TD*
D10*
G04 #@! TO.C,REF\u002A\u002A*
X8890000Y-87630000D03*
G04 #@! TD*
G04 #@! TO.C,REF\u002A\u002A*
X21590000Y-82550000D03*
G04 #@! TD*
D12*
G04 #@! TO.C,REF\u002A\u002A*
X67945000Y-73025000D03*
G04 #@! TD*
G04 #@! TO.C,REF\u002A\u002A*
X56515000Y-86995000D03*
G04 #@! TD*
G04 #@! TO.C,REF\u002A\u002A*
X62865000Y-76835000D03*
G04 #@! TD*
G04 #@! TO.C,REF\u002A\u002A*
X60325000Y-88265000D03*
G04 #@! TD*
D10*
G04 #@! TO.C,REF\u002A\u002A*
X16510000Y-82550000D03*
G04 #@! TD*
D18*
G04 #@! TO.C,D5*
X55580000Y-67132200D03*
X56180000Y-67132200D03*
G04 #@! TD*
D10*
G04 #@! TO.C,REF\u002A\u002A*
X8890000Y-72390000D03*
G04 #@! TD*
D12*
G04 #@! TO.C,REF\u002A\u002A*
X59055000Y-73025000D03*
G04 #@! TD*
G04 #@! TO.C,REF\u002A\u002A*
X53975000Y-74295000D03*
G04 #@! TD*
D10*
G04 #@! TO.C,REF\u002A\u002A*
X13970000Y-82550000D03*
G04 #@! TD*
G04 #@! TO.C,REF\u002A\u002A*
X21590000Y-77470000D03*
G04 #@! TD*
D12*
G04 #@! TO.C,REF\u002A\u002A*
X53975000Y-75565000D03*
G04 #@! TD*
G04 #@! TO.C,REF\u002A\u002A*
X62865000Y-80645000D03*
G04 #@! TD*
G04 #@! TO.C,REF\u002A\u002A*
X64135000Y-76835000D03*
G04 #@! TD*
D16*
G04 #@! TO.C,REF\u002A\u002A*
X19685000Y-35560000D03*
G04 #@! TD*
D12*
G04 #@! TO.C,REF\u002A\u002A*
X65405000Y-83185000D03*
G04 #@! TD*
G04 #@! TO.C,REF\u002A\u002A*
X64135000Y-90805000D03*
G04 #@! TD*
G04 #@! TO.C,REF\u002A\u002A*
X66675000Y-83185000D03*
G04 #@! TD*
D11*
G04 #@! TO.C,PG5*
X50546000Y-58420000D03*
G04 #@! TD*
D12*
G04 #@! TO.C,REF\u002A\u002A*
X61595000Y-78105000D03*
G04 #@! TD*
G04 #@! TO.C,REF\u002A\u002A*
X61595000Y-81915000D03*
G04 #@! TD*
G04 #@! TO.C,REF\u002A\u002A*
X60325000Y-90805000D03*
G04 #@! TD*
G04 #@! TO.C,REF\u002A\u002A*
X64135000Y-73025000D03*
G04 #@! TD*
G04 #@! TO.C,REF\u002A\u002A*
X53975000Y-83185000D03*
G04 #@! TD*
G04 #@! TO.C,REF\u002A\u002A*
X48895000Y-79375000D03*
G04 #@! TD*
G04 #@! TO.C,REF\u002A\u002A*
X52705000Y-84455000D03*
G04 #@! TD*
G04 #@! TO.C,REF\u002A\u002A*
X52705000Y-86995000D03*
G04 #@! TD*
D10*
G04 #@! TO.C,REF\u002A\u002A*
X8890000Y-82550000D03*
G04 #@! TD*
D12*
G04 #@! TO.C,REF\u002A\u002A*
X55245000Y-89535000D03*
G04 #@! TD*
G04 #@! TO.C,REF\u002A\u002A*
X65405000Y-73025000D03*
G04 #@! TD*
D10*
G04 #@! TO.C,REF\u002A\u002A*
X6350000Y-82550000D03*
G04 #@! TD*
D19*
G04 #@! TO.C,R2*
X54991000Y-54000400D03*
X52705000Y-54000400D03*
G04 #@! TD*
D12*
G04 #@! TO.C,REF\u002A\u002A*
X57785000Y-76835000D03*
G04 #@! TD*
G04 #@! TO.C,REF\u002A\u002A*
X60325000Y-85725000D03*
G04 #@! TD*
G04 #@! TO.C,REF\u002A\u002A*
X61595000Y-71755000D03*
G04 #@! TD*
G04 #@! TO.C,REF\u002A\u002A*
X56515000Y-85725000D03*
G04 #@! TD*
G04 #@! TO.C,REF\u002A\u002A*
X50165000Y-81915000D03*
G04 #@! TD*
D16*
G04 #@! TO.C,REF\u002A\u002A*
X15875000Y-35560000D03*
G04 #@! TD*
D12*
G04 #@! TO.C,REF\u002A\u002A*
X65405000Y-71755000D03*
G04 #@! TD*
D11*
G04 #@! TO.C,P1*
X62865000Y-49707800D03*
G04 #@! TD*
D12*
G04 #@! TO.C,REF\u002A\u002A*
X61595000Y-75565000D03*
G04 #@! TD*
G04 #@! TO.C,REF\u002A\u002A*
X59055000Y-90805000D03*
G04 #@! TD*
G04 #@! TO.C,REF\u002A\u002A*
X59055000Y-80645000D03*
G04 #@! TD*
D10*
G04 #@! TO.C,REF\u002A\u002A*
X3810000Y-82550000D03*
G04 #@! TD*
D16*
G04 #@! TO.C,REF\u002A\u002A*
X5715000Y-35560000D03*
G04 #@! TD*
D10*
G04 #@! TO.C,REF\u002A\u002A*
X19050000Y-74930000D03*
G04 #@! TD*
G04 #@! TO.C,REF\u002A\u002A*
X13970000Y-87630000D03*
G04 #@! TD*
D12*
G04 #@! TO.C,REF\u002A\u002A*
X60325000Y-71755000D03*
G04 #@! TD*
G04 #@! TO.C,REF\u002A\u002A*
X61595000Y-76835000D03*
G04 #@! TD*
G04 #@! TO.C,REF\u002A\u002A*
X55245000Y-80645000D03*
G04 #@! TD*
D11*
G04 #@! TO.C,P2*
X61595000Y-53975000D03*
G04 #@! TD*
D12*
G04 #@! TO.C,REF\u002A\u002A*
X50165000Y-74295000D03*
G04 #@! TD*
G04 #@! TO.C,REF\u002A\u002A*
X62865000Y-88265000D03*
G04 #@! TD*
G04 #@! TO.C,REF\u002A\u002A*
X65405000Y-78105000D03*
G04 #@! TD*
G04 #@! TO.C,REF\u002A\u002A*
X57785000Y-85725000D03*
G04 #@! TD*
G04 #@! TO.C,REF\u002A\u002A*
X67945000Y-74295000D03*
G04 #@! TD*
D16*
G04 #@! TO.C,REF\u002A\u002A*
X10795000Y-35560000D03*
G04 #@! TD*
D12*
G04 #@! TO.C,REF\u002A\u002A*
X55245000Y-74295000D03*
G04 #@! TD*
G04 #@! TO.C,REF\u002A\u002A*
X66675000Y-86995000D03*
G04 #@! TD*
G04 #@! TO.C,REF\u002A\u002A*
X67945000Y-79375000D03*
G04 #@! TD*
D10*
G04 #@! TO.C,REF\u002A\u002A*
X11430000Y-87630000D03*
G04 #@! TD*
D12*
G04 #@! TO.C,REF\u002A\u002A*
X57785000Y-74295000D03*
G04 #@! TD*
D10*
G04 #@! TO.C,REF\u002A\u002A*
X11430000Y-72390000D03*
G04 #@! TD*
D12*
G04 #@! TO.C,REF\u002A\u002A*
X56515000Y-84455000D03*
G04 #@! TD*
D10*
G04 #@! TO.C,REF\u002A\u002A*
X13970000Y-90170000D03*
G04 #@! TD*
G04 #@! TO.C,REF\u002A\u002A*
X19050000Y-80010000D03*
G04 #@! TD*
G04 #@! TO.C,REF\u002A\u002A*
X6350000Y-90170000D03*
G04 #@! TD*
D12*
G04 #@! TO.C,REF\u002A\u002A*
X50165000Y-75565000D03*
G04 #@! TD*
G04 #@! TO.C,REF\u002A\u002A*
X50165000Y-86995000D03*
G04 #@! TD*
G04 #@! TO.C,REF\u002A\u002A*
X56515000Y-81915000D03*
G04 #@! TD*
D10*
G04 #@! TO.C,REF\u002A\u002A*
X13970000Y-85090000D03*
G04 #@! TD*
D12*
G04 #@! TO.C,REF\u002A\u002A*
X59055000Y-74295000D03*
G04 #@! TD*
G04 #@! TO.C,REF\u002A\u002A*
X55245000Y-84455000D03*
G04 #@! TD*
D20*
G04 #@! TO.C,R3*
X54483000Y-58420000D03*
X52578000Y-58420000D03*
G04 #@! TD*
D10*
G04 #@! TO.C,REF\u002A\u002A*
X6350000Y-80010000D03*
G04 #@! TD*
D12*
G04 #@! TO.C,REF\u002A\u002A*
X66675000Y-89535000D03*
G04 #@! TD*
G04 #@! TO.C,REF\u002A\u002A*
X61595000Y-89535000D03*
G04 #@! TD*
G04 #@! TO.C,REF\u002A\u002A*
X57785000Y-88265000D03*
G04 #@! TD*
D10*
G04 #@! TO.C,REF\u002A\u002A*
X11430000Y-82550000D03*
G04 #@! TD*
D21*
G04 #@! TO.C,R1*
X56235600Y-49707800D03*
X52806600Y-49707800D03*
G04 #@! TD*
D12*
G04 #@! TO.C,REF\u002A\u002A*
X51435000Y-78105000D03*
G04 #@! TD*
G04 #@! TO.C,REF\u002A\u002A*
X53975000Y-84455000D03*
G04 #@! TD*
G04 #@! TO.C,REF\u002A\u002A*
X66675000Y-76835000D03*
G04 #@! TD*
G04 #@! TO.C,REF\u002A\u002A*
X61595000Y-83185000D03*
G04 #@! TD*
G04 #@! TO.C,REF\u002A\u002A*
X48895000Y-90805000D03*
G04 #@! TD*
D10*
G04 #@! TO.C,REF\u002A\u002A*
X21590000Y-80010000D03*
G04 #@! TD*
D12*
G04 #@! TO.C,REF\u002A\u002A*
X67945000Y-71755000D03*
G04 #@! TD*
D16*
G04 #@! TO.C,REF\u002A\u002A*
X18415000Y-35560000D03*
G04 #@! TD*
D12*
G04 #@! TO.C,REF\u002A\u002A*
X60325000Y-75565000D03*
G04 #@! TD*
G04 #@! TO.C,REF\u002A\u002A*
X64135000Y-71755000D03*
G04 #@! TD*
G04 #@! TO.C,REF\u002A\u002A*
X61595000Y-88265000D03*
G04 #@! TD*
D11*
G04 #@! TO.C,PG1*
X50546000Y-62865000D03*
G04 #@! TD*
D12*
G04 #@! TO.C,REF\u002A\u002A*
X57785000Y-81915000D03*
G04 #@! TD*
G04 #@! TO.C,REF\u002A\u002A*
X67945000Y-80645000D03*
G04 #@! TD*
G04 #@! TO.C,REF\u002A\u002A*
X61595000Y-90805000D03*
G04 #@! TD*
G04 #@! TO.C,REF\u002A\u002A*
X52705000Y-80645000D03*
G04 #@! TD*
D22*
G04 #@! TO.C,D2*
X57505600Y-54000400D03*
X59918600Y-54000400D03*
G04 #@! TD*
D12*
G04 #@! TO.C,REF\u002A\u002A*
X67945000Y-88265000D03*
G04 #@! TD*
G04 #@! TO.C,REF\u002A\u002A*
X65405000Y-80645000D03*
G04 #@! TD*
G04 #@! TO.C,REF\u002A\u002A*
X53975000Y-88265000D03*
G04 #@! TD*
D10*
G04 #@! TO.C,REF\u002A\u002A*
X13970000Y-72390000D03*
G04 #@! TD*
D12*
G04 #@! TO.C,REF\u002A\u002A*
X50165000Y-80645000D03*
G04 #@! TD*
D10*
G04 #@! TO.C,REF\u002A\u002A*
X19050000Y-90170000D03*
G04 #@! TD*
D23*
G04 #@! TO.C,R4*
X53486000Y-62865000D03*
X52586000Y-62865000D03*
G04 #@! TD*
D10*
G04 #@! TO.C,REF\u002A\u002A*
X13970000Y-80010000D03*
G04 #@! TD*
D12*
G04 #@! TO.C,REF\u002A\u002A*
X51435000Y-79375000D03*
G04 #@! TD*
G04 #@! TO.C,REF\u002A\u002A*
X55245000Y-90805000D03*
G04 #@! TD*
G04 #@! TO.C,REF\u002A\u002A*
X67945000Y-76835000D03*
G04 #@! TD*
D24*
G04 #@! TO.C,D1*
X58039000Y-49707800D03*
X61214000Y-49707800D03*
G04 #@! TD*
D10*
G04 #@! TO.C,REF\u002A\u002A*
X8890000Y-90170000D03*
G04 #@! TD*
D12*
G04 #@! TO.C,REF\u002A\u002A*
X51435000Y-76835000D03*
G04 #@! TD*
G04 #@! TO.C,G\u002A\u002A\u002A*
G36*
X34609539Y-53370807D02*
G01*
X34697778Y-53374478D01*
X34766152Y-53382382D01*
X34825900Y-53395981D01*
X34888264Y-53416736D01*
X34908403Y-53424287D01*
X35102588Y-53512807D01*
X35269091Y-53622321D01*
X35420692Y-53761253D01*
X35422350Y-53763004D01*
X35561603Y-53938918D01*
X35664462Y-54130104D01*
X35731694Y-54331889D01*
X35764068Y-54539600D01*
X35762351Y-54748567D01*
X35727310Y-54954118D01*
X35659713Y-55151579D01*
X35560327Y-55336281D01*
X35429921Y-55503550D01*
X35269260Y-55648714D01*
X35094401Y-55759246D01*
X34941241Y-55829760D01*
X34792280Y-55876016D01*
X34628547Y-55903360D01*
X34560538Y-55909747D01*
X34398573Y-55928369D01*
X34270570Y-55957278D01*
X34168871Y-55998836D01*
X34085817Y-56055403D01*
X34084570Y-56056467D01*
X34055717Y-56080490D01*
X34030655Y-56101765D01*
X34009118Y-56123286D01*
X33990838Y-56148048D01*
X33975548Y-56179046D01*
X33962983Y-56219274D01*
X33952875Y-56271728D01*
X33944957Y-56339402D01*
X33938962Y-56425291D01*
X33934624Y-56532390D01*
X33931676Y-56663693D01*
X33929851Y-56822196D01*
X33928882Y-57010892D01*
X33928502Y-57232778D01*
X33928445Y-57490847D01*
X33928444Y-57788095D01*
X33928439Y-57808857D01*
X33928317Y-58117606D01*
X33927967Y-58387111D01*
X33927181Y-58620496D01*
X33925749Y-58820886D01*
X33923461Y-58991404D01*
X33920106Y-59135177D01*
X33915476Y-59255327D01*
X33909359Y-59354979D01*
X33901548Y-59437259D01*
X33891831Y-59505289D01*
X33879998Y-59562195D01*
X33865841Y-59611102D01*
X33849149Y-59655132D01*
X33829712Y-59697412D01*
X33807320Y-59741065D01*
X33797424Y-59759734D01*
X33688092Y-59921728D01*
X33547676Y-60060588D01*
X33383329Y-60171301D01*
X33202204Y-60248855D01*
X33049658Y-60283708D01*
X33001868Y-60287349D01*
X32915971Y-60290587D01*
X32796182Y-60293422D01*
X32646723Y-60295858D01*
X32471810Y-60297896D01*
X32275662Y-60299540D01*
X32062498Y-60300790D01*
X31836537Y-60301649D01*
X31601997Y-60302120D01*
X31363097Y-60302203D01*
X31124055Y-60301903D01*
X30889089Y-60301220D01*
X30662419Y-60300158D01*
X30448263Y-60298717D01*
X30250839Y-60296901D01*
X30074366Y-60294711D01*
X29923063Y-60292150D01*
X29801147Y-60289219D01*
X29712838Y-60285922D01*
X29662355Y-60282260D01*
X29660166Y-60281964D01*
X29516931Y-60245593D01*
X29366970Y-60180379D01*
X29225089Y-60093967D01*
X29109835Y-59997772D01*
X29009363Y-59876286D01*
X28922314Y-59731144D01*
X28856762Y-59577844D01*
X28823099Y-59447440D01*
X28818986Y-59400376D01*
X28815323Y-59315368D01*
X28812108Y-59196562D01*
X28809339Y-59048108D01*
X28807013Y-58874153D01*
X28805128Y-58678845D01*
X28803681Y-58466334D01*
X28802670Y-58240766D01*
X28802092Y-58006291D01*
X28801944Y-57767056D01*
X28802225Y-57527209D01*
X28802932Y-57290899D01*
X28804061Y-57062275D01*
X28805612Y-56845483D01*
X28807581Y-56644673D01*
X28809965Y-56463992D01*
X28812763Y-56307589D01*
X28815971Y-56179612D01*
X28819588Y-56084209D01*
X28823611Y-56025528D01*
X28825161Y-56014175D01*
X28880548Y-55824999D01*
X28972200Y-55651132D01*
X29095320Y-55497452D01*
X29245110Y-55368833D01*
X29416771Y-55270153D01*
X29605505Y-55206287D01*
X29624137Y-55202210D01*
X29670224Y-55196943D01*
X29754995Y-55192362D01*
X29878943Y-55188459D01*
X30042561Y-55185226D01*
X30246342Y-55182658D01*
X30490776Y-55180748D01*
X30776359Y-55179487D01*
X31103581Y-55178869D01*
X31271898Y-55178799D01*
X31572254Y-55178829D01*
X31833253Y-55178766D01*
X32057904Y-55178382D01*
X32249219Y-55177450D01*
X32410208Y-55175742D01*
X32543882Y-55173029D01*
X32653251Y-55169085D01*
X32741327Y-55163680D01*
X32811119Y-55156588D01*
X32865639Y-55147581D01*
X32907897Y-55136430D01*
X32940904Y-55122909D01*
X32967670Y-55106788D01*
X32991206Y-55087840D01*
X33014523Y-55065838D01*
X33035626Y-55045324D01*
X33100379Y-54973557D01*
X33147123Y-54895507D01*
X33179674Y-54801279D01*
X33201850Y-54680984D01*
X33212170Y-54587812D01*
X33244113Y-54366793D01*
X33298323Y-54175090D01*
X33378559Y-54003909D01*
X33488580Y-53844454D01*
X33569402Y-53751870D01*
X33720216Y-53614911D01*
X33892969Y-53504634D01*
X34071980Y-53424287D01*
X34137199Y-53401187D01*
X34196548Y-53385667D01*
X34261269Y-53376266D01*
X34342603Y-53371520D01*
X34451791Y-53369970D01*
X34490191Y-53369909D01*
X34609539Y-53370807D01*
G37*
G36*
X67280152Y-25411616D02*
G01*
X67528551Y-25470471D01*
X67760954Y-25566268D01*
X67973947Y-25696893D01*
X68164117Y-25860229D01*
X68328048Y-26054163D01*
X68462329Y-26276579D01*
X68469026Y-26290085D01*
X68551799Y-26491989D01*
X68603175Y-26700339D01*
X68625718Y-26926842D01*
X68627272Y-27012052D01*
X68617944Y-27216628D01*
X68587396Y-27399647D01*
X68531780Y-27577075D01*
X68447251Y-27764883D01*
X68444712Y-27769892D01*
X68345412Y-27965346D01*
X65067939Y-31248916D01*
X64755863Y-31561715D01*
X64451282Y-31867283D01*
X64155588Y-32164212D01*
X63870171Y-32451095D01*
X63596424Y-32726525D01*
X63335738Y-32989095D01*
X63089503Y-33237397D01*
X62859112Y-33470024D01*
X62645956Y-33685570D01*
X62451427Y-33882626D01*
X62276915Y-34059786D01*
X62123812Y-34215643D01*
X61993509Y-34348790D01*
X61887399Y-34457819D01*
X61806871Y-34541323D01*
X61753319Y-34597895D01*
X61728132Y-34626128D01*
X61726898Y-34627815D01*
X61596433Y-34859564D01*
X61505197Y-35102090D01*
X61453265Y-35351397D01*
X61440711Y-35603490D01*
X61467609Y-35854375D01*
X61534033Y-36100057D01*
X61640059Y-36336541D01*
X61693401Y-36427389D01*
X61718547Y-36458289D01*
X61773767Y-36518907D01*
X61858997Y-36609180D01*
X61974177Y-36729044D01*
X62119243Y-36878436D01*
X62294132Y-37057293D01*
X62498783Y-37265551D01*
X62733133Y-37503147D01*
X62997120Y-37770018D01*
X63290681Y-38066100D01*
X63613753Y-38391330D01*
X63966275Y-38745645D01*
X64348184Y-39128981D01*
X64759417Y-39541276D01*
X65025054Y-39807381D01*
X65336294Y-40119231D01*
X65640075Y-40423909D01*
X65935000Y-40720000D01*
X66219668Y-41006088D01*
X66492682Y-41280758D01*
X66752641Y-41542594D01*
X66998147Y-41790181D01*
X67227800Y-42022104D01*
X67440200Y-42236947D01*
X67633950Y-42433295D01*
X67807649Y-42609732D01*
X67959899Y-42764844D01*
X68089300Y-42897214D01*
X68194452Y-43005427D01*
X68273958Y-43088067D01*
X68326417Y-43143721D01*
X68350431Y-43170971D01*
X68351153Y-43171988D01*
X68444592Y-43333779D01*
X68525527Y-43516563D01*
X68584961Y-43699277D01*
X68595968Y-43745019D01*
X68616747Y-43883057D01*
X68625381Y-44042628D01*
X68622391Y-44210085D01*
X68608297Y-44371785D01*
X68583620Y-44514082D01*
X68563958Y-44584445D01*
X68458692Y-44835508D01*
X68322221Y-45057914D01*
X68154522Y-45251689D01*
X67955571Y-45416864D01*
X67755780Y-45537978D01*
X67571230Y-45621516D01*
X67388901Y-45676268D01*
X67194617Y-45705594D01*
X67017264Y-45713023D01*
X66757837Y-45697012D01*
X66519427Y-45646066D01*
X66297141Y-45558772D01*
X66112959Y-45452094D01*
X66088375Y-45430748D01*
X66035252Y-45380837D01*
X65955007Y-45303759D01*
X65849056Y-45200912D01*
X65718814Y-45073698D01*
X65565697Y-44923513D01*
X65391121Y-44751757D01*
X65196502Y-44559829D01*
X64983254Y-44349129D01*
X64752795Y-44121054D01*
X64506540Y-43877004D01*
X64245904Y-43618377D01*
X63972303Y-43346574D01*
X63687154Y-43062992D01*
X63391871Y-42769031D01*
X63087870Y-42466089D01*
X62776568Y-42155566D01*
X62748623Y-42127676D01*
X62318752Y-41698830D01*
X61918544Y-41299987D01*
X61547876Y-40931022D01*
X61206620Y-40591812D01*
X60894650Y-40282232D01*
X60611841Y-40002158D01*
X60358066Y-39751466D01*
X60133200Y-39530032D01*
X59937116Y-39337732D01*
X59769689Y-39174442D01*
X59630792Y-39040037D01*
X59520300Y-38934393D01*
X59438086Y-38857387D01*
X59384024Y-38808894D01*
X59360634Y-38790333D01*
X59128967Y-38664708D01*
X58886337Y-38578909D01*
X58636409Y-38532995D01*
X58382845Y-38527029D01*
X58129308Y-38561069D01*
X57879462Y-38635178D01*
X57636970Y-38749416D01*
X57616112Y-38761387D01*
X57594215Y-38777210D01*
X57558056Y-38807713D01*
X57506730Y-38853786D01*
X57439331Y-38916321D01*
X57354953Y-38996207D01*
X57252690Y-39094334D01*
X57131637Y-39211593D01*
X56990888Y-39348874D01*
X56829537Y-39507068D01*
X56646679Y-39687065D01*
X56441407Y-39889756D01*
X56212816Y-40116030D01*
X55960001Y-40366777D01*
X55682055Y-40642889D01*
X55378072Y-40945256D01*
X55047148Y-41274767D01*
X54688376Y-41632314D01*
X54300851Y-42018787D01*
X54200750Y-42118652D01*
X53824325Y-42494254D01*
X53476685Y-42841156D01*
X53156574Y-43160535D01*
X52862734Y-43453565D01*
X52593908Y-43721424D01*
X52348840Y-43965287D01*
X52126273Y-44186330D01*
X51924950Y-44385730D01*
X51743614Y-44564663D01*
X51581009Y-44724304D01*
X51435877Y-44865829D01*
X51306961Y-44990416D01*
X51193005Y-45099239D01*
X51092751Y-45193475D01*
X51004944Y-45274300D01*
X50928325Y-45342891D01*
X50861639Y-45400422D01*
X50803628Y-45448070D01*
X50753036Y-45487012D01*
X50708605Y-45518423D01*
X50669079Y-45543480D01*
X50633200Y-45563358D01*
X50599713Y-45579233D01*
X50567360Y-45592283D01*
X50534884Y-45603682D01*
X50501029Y-45614606D01*
X50464537Y-45626233D01*
X50445559Y-45632460D01*
X50209668Y-45694862D01*
X49979723Y-45720800D01*
X49742471Y-45711580D01*
X49697145Y-45706180D01*
X49458238Y-45654176D01*
X49226524Y-45563113D01*
X49008579Y-45436296D01*
X48810974Y-45277030D01*
X48775810Y-45242913D01*
X48607207Y-45045548D01*
X48474611Y-44829057D01*
X48378712Y-44597719D01*
X48320197Y-44355809D01*
X48299755Y-44107606D01*
X48318074Y-43857386D01*
X48375843Y-43609427D01*
X48473750Y-43368004D01*
X48473970Y-43367562D01*
X48516121Y-43286288D01*
X48557654Y-43211264D01*
X48589978Y-43157978D01*
X48591498Y-43155719D01*
X48610491Y-43134722D01*
X48658053Y-43085155D01*
X48732799Y-43008415D01*
X48833345Y-42905895D01*
X48958306Y-42778993D01*
X49106298Y-42629103D01*
X49275937Y-42457621D01*
X49465838Y-42265943D01*
X49674618Y-42055464D01*
X49900890Y-41827580D01*
X50143272Y-41583686D01*
X50400379Y-41325179D01*
X50670826Y-41053453D01*
X50953230Y-40769904D01*
X51246205Y-40475928D01*
X51548367Y-40172920D01*
X51858332Y-39862276D01*
X51891979Y-39828565D01*
X52203122Y-39516704D01*
X52506802Y-39212025D01*
X52801620Y-38915945D01*
X53086178Y-38629878D01*
X53359077Y-38355240D01*
X53618919Y-38093445D01*
X53864305Y-37845909D01*
X54093837Y-37614048D01*
X54306115Y-37399275D01*
X54499742Y-37203006D01*
X54673318Y-37026657D01*
X54825445Y-36871642D01*
X54954725Y-36739377D01*
X55059759Y-36631277D01*
X55139148Y-36548757D01*
X55191493Y-36493232D01*
X55215397Y-36466117D01*
X55216103Y-36465121D01*
X55343310Y-36238385D01*
X55431840Y-35998820D01*
X55481660Y-35750959D01*
X55492741Y-35499338D01*
X55465053Y-35248489D01*
X55398563Y-35002948D01*
X55293242Y-34767248D01*
X55228336Y-34658089D01*
X55202888Y-34626775D01*
X55148630Y-34566994D01*
X55065469Y-34478648D01*
X54953309Y-34361642D01*
X54812056Y-34215878D01*
X54641614Y-34041261D01*
X54441888Y-33837693D01*
X54212783Y-33605079D01*
X53954205Y-33343321D01*
X53666059Y-33052324D01*
X53348248Y-32731991D01*
X53000679Y-32382225D01*
X52623256Y-32002930D01*
X52215885Y-31594009D01*
X51871791Y-31248916D01*
X51481430Y-30857456D01*
X51120158Y-30494937D01*
X50787039Y-30160405D01*
X50481136Y-29852906D01*
X50201514Y-29571488D01*
X49947235Y-29315198D01*
X49717363Y-29083083D01*
X49510962Y-28874189D01*
X49327097Y-28687565D01*
X49164830Y-28522255D01*
X49023225Y-28377309D01*
X48901346Y-28251772D01*
X48798257Y-28144691D01*
X48713021Y-28055114D01*
X48644703Y-27982087D01*
X48592365Y-27924658D01*
X48555072Y-27881873D01*
X48531887Y-27852780D01*
X48524501Y-27841746D01*
X48416514Y-27615638D01*
X48343690Y-27372201D01*
X48306948Y-27119054D01*
X48307207Y-26863817D01*
X48345384Y-26614107D01*
X48366738Y-26533270D01*
X48418276Y-26394973D01*
X48492736Y-26243739D01*
X48581637Y-26095077D01*
X48676502Y-25964494D01*
X48680148Y-25960052D01*
X48840809Y-25795618D01*
X49031304Y-25651684D01*
X49241613Y-25534374D01*
X49461715Y-25449810D01*
X49554974Y-25425464D01*
X49699311Y-25403248D01*
X49866596Y-25393276D01*
X50039356Y-25395544D01*
X50200122Y-25410050D01*
X50288061Y-25425621D01*
X50445634Y-25471977D01*
X50613400Y-25539973D01*
X50771765Y-25621122D01*
X50846735Y-25667598D01*
X50871328Y-25688956D01*
X50924458Y-25738885D01*
X51004711Y-25815989D01*
X51110674Y-25918872D01*
X51240935Y-26046135D01*
X51394080Y-26196384D01*
X51568696Y-26368220D01*
X51763370Y-26560247D01*
X51976689Y-26771069D01*
X52207239Y-26999288D01*
X52453608Y-27243508D01*
X52714381Y-27502332D01*
X52988147Y-27774364D01*
X53273492Y-28058206D01*
X53569003Y-28352462D01*
X53873266Y-28655735D01*
X54184869Y-28966628D01*
X54221934Y-29003630D01*
X54597073Y-29378174D01*
X54943439Y-29724011D01*
X55262295Y-30042321D01*
X55554897Y-30334284D01*
X55822508Y-30601080D01*
X56066386Y-30843889D01*
X56287790Y-31063891D01*
X56487982Y-31262266D01*
X56668219Y-31440194D01*
X56829762Y-31598856D01*
X56973871Y-31739430D01*
X57101806Y-31863098D01*
X57214825Y-31971038D01*
X57314189Y-32064432D01*
X57401157Y-32144459D01*
X57476989Y-32212299D01*
X57542945Y-32269132D01*
X57600284Y-32316138D01*
X57650266Y-32354498D01*
X57694151Y-32385390D01*
X57733198Y-32409996D01*
X57768667Y-32429495D01*
X57801818Y-32445067D01*
X57833910Y-32457892D01*
X57866203Y-32469151D01*
X57899957Y-32480022D01*
X57936431Y-32491687D01*
X57950375Y-32496276D01*
X58205002Y-32559487D01*
X58460995Y-32580956D01*
X58715455Y-32561094D01*
X58965483Y-32500313D01*
X59208178Y-32399024D01*
X59390909Y-32291908D01*
X59414866Y-32271020D01*
X59467361Y-32221564D01*
X59546980Y-32144939D01*
X59652308Y-32042544D01*
X59781931Y-31915776D01*
X59934433Y-31766036D01*
X60108402Y-31594720D01*
X60302423Y-31403228D01*
X60515080Y-31192958D01*
X60744961Y-30965310D01*
X60990650Y-30721680D01*
X61250733Y-30463469D01*
X61523796Y-30192074D01*
X61808425Y-29908894D01*
X62103204Y-29615328D01*
X62406720Y-29312773D01*
X62717559Y-29002630D01*
X62738031Y-28982193D01*
X63049372Y-28671536D01*
X63353528Y-28368345D01*
X63649082Y-28074021D01*
X63934617Y-27789964D01*
X64208715Y-27517576D01*
X64469959Y-27258257D01*
X64716931Y-27013409D01*
X64948214Y-26784431D01*
X65162391Y-26572726D01*
X65358045Y-26379694D01*
X65533758Y-26206736D01*
X65688113Y-26055253D01*
X65819692Y-25926645D01*
X65927079Y-25822315D01*
X66008855Y-25743661D01*
X66063604Y-25692087D01*
X66089908Y-25668991D01*
X66090574Y-25668526D01*
X66303070Y-25545611D01*
X66520353Y-25460167D01*
X66750631Y-25409749D01*
X67002116Y-25391909D01*
X67019171Y-25391819D01*
X67280152Y-25411616D01*
G37*
G36*
X34738678Y-60984318D02*
G01*
X34899411Y-61021383D01*
X35050428Y-61082964D01*
X35191025Y-61163576D01*
X35365338Y-61298821D01*
X35508867Y-61458785D01*
X35621090Y-61638532D01*
X35701485Y-61833126D01*
X35749530Y-62037631D01*
X35764703Y-62247113D01*
X35746481Y-62456636D01*
X35694342Y-62661264D01*
X35607764Y-62856062D01*
X35486225Y-63036094D01*
X35399293Y-63132016D01*
X35238547Y-63271670D01*
X35070450Y-63375855D01*
X34886710Y-63448333D01*
X34679033Y-63492864D01*
X34577817Y-63504584D01*
X34448619Y-63517994D01*
X34351246Y-63532840D01*
X34275166Y-63551467D01*
X34209845Y-63576220D01*
X34171189Y-63595117D01*
X34098514Y-63645535D01*
X34027346Y-63714941D01*
X33971585Y-63788570D01*
X33951291Y-63828677D01*
X33946247Y-63863266D01*
X33941838Y-63938726D01*
X33938060Y-64055257D01*
X33934910Y-64213060D01*
X33932386Y-64412336D01*
X33930484Y-64653285D01*
X33929202Y-64936109D01*
X33928537Y-65261008D01*
X33928439Y-65417501D01*
X33928303Y-65725368D01*
X33927925Y-65993985D01*
X33927118Y-66226470D01*
X33925690Y-66425944D01*
X33923454Y-66595524D01*
X33920220Y-66738330D01*
X33915798Y-66857479D01*
X33910000Y-66956092D01*
X33902635Y-67037287D01*
X33893515Y-67104182D01*
X33882450Y-67159897D01*
X33869252Y-67207551D01*
X33853730Y-67250261D01*
X33835695Y-67291147D01*
X33814959Y-67333328D01*
X33811774Y-67339625D01*
X33713363Y-67491363D01*
X33582832Y-67628983D01*
X33430025Y-67744194D01*
X33264786Y-67828706D01*
X33206613Y-67849257D01*
X33181600Y-67856514D01*
X33154379Y-67862839D01*
X33122027Y-67868291D01*
X33081621Y-67872934D01*
X33030236Y-67876829D01*
X32964949Y-67880037D01*
X32882836Y-67882620D01*
X32780973Y-67884640D01*
X32656437Y-67886158D01*
X32506304Y-67887237D01*
X32327650Y-67887937D01*
X32117552Y-67888321D01*
X31873085Y-67888451D01*
X31591326Y-67888387D01*
X31358321Y-67888252D01*
X31046152Y-67887992D01*
X30773462Y-67887612D01*
X30537358Y-67887050D01*
X30334951Y-67886248D01*
X30163350Y-67885144D01*
X30019663Y-67883677D01*
X29901001Y-67881786D01*
X29804472Y-67879412D01*
X29727186Y-67876494D01*
X29666252Y-67872970D01*
X29618779Y-67868781D01*
X29581877Y-67863865D01*
X29552654Y-67858162D01*
X29528221Y-67851612D01*
X29522231Y-67849741D01*
X29359175Y-67782275D01*
X29214921Y-67687635D01*
X29093609Y-67575501D01*
X28969066Y-67420434D01*
X28882173Y-67253332D01*
X28832712Y-67087164D01*
X28826457Y-67035611D01*
X28820862Y-66945891D01*
X28815926Y-66822203D01*
X28811649Y-66668743D01*
X28808031Y-66489709D01*
X28805069Y-66289299D01*
X28802764Y-66071708D01*
X28801115Y-65841136D01*
X28800120Y-65601779D01*
X28799779Y-65357834D01*
X28800092Y-65113500D01*
X28801057Y-64872972D01*
X28802673Y-64640449D01*
X28804941Y-64420128D01*
X28807858Y-64216206D01*
X28811425Y-64032881D01*
X28815640Y-63874349D01*
X28820503Y-63744809D01*
X28826013Y-63648457D01*
X28832168Y-63589491D01*
X28833374Y-63583035D01*
X28892547Y-63400885D01*
X28987057Y-63232313D01*
X29111298Y-63082968D01*
X29259667Y-62958496D01*
X29426557Y-62864548D01*
X29602952Y-62807477D01*
X29648604Y-62802196D01*
X29732212Y-62797601D01*
X29854361Y-62793682D01*
X30015641Y-62790432D01*
X30216637Y-62787842D01*
X30457936Y-62785903D01*
X30740127Y-62784608D01*
X31063796Y-62783947D01*
X31244737Y-62783852D01*
X31590375Y-62783507D01*
X31893904Y-62782526D01*
X32155582Y-62780905D01*
X32375664Y-62778640D01*
X32554406Y-62775729D01*
X32692064Y-62772166D01*
X32788895Y-62767950D01*
X32845154Y-62763075D01*
X32856472Y-62760908D01*
X32940619Y-62720396D01*
X33026208Y-62650751D01*
X33102288Y-62563350D01*
X33157906Y-62469575D01*
X33171857Y-62433193D01*
X33189650Y-62359569D01*
X33205767Y-62263253D01*
X33216977Y-62163894D01*
X33217700Y-62154595D01*
X33252998Y-61923336D01*
X33323998Y-61713691D01*
X33432372Y-61522141D01*
X33579792Y-61345165D01*
X33621594Y-61304065D01*
X33792183Y-61164445D01*
X33971276Y-61063245D01*
X34164272Y-60998513D01*
X34376571Y-60968298D01*
X34553341Y-60967183D01*
X34738678Y-60984318D01*
G37*
G36*
X40823978Y-53357225D02*
G01*
X41138740Y-53358063D01*
X41412591Y-53359472D01*
X41646258Y-53361461D01*
X41840468Y-53364040D01*
X41995947Y-53367218D01*
X42113424Y-53371005D01*
X42193624Y-53375412D01*
X42237275Y-53380446D01*
X42237314Y-53380454D01*
X42415300Y-53438555D01*
X42581246Y-53532688D01*
X42729448Y-53656994D01*
X42854199Y-53805612D01*
X42949797Y-53972682D01*
X43010537Y-54152344D01*
X43016442Y-54180824D01*
X43020740Y-54225102D01*
X43024575Y-54307429D01*
X43027949Y-54423718D01*
X43030864Y-54569884D01*
X43033323Y-54741839D01*
X43035329Y-54935498D01*
X43036884Y-55146774D01*
X43037991Y-55371583D01*
X43038652Y-55605837D01*
X43038870Y-55845450D01*
X43038648Y-56086337D01*
X43037988Y-56324411D01*
X43036892Y-56555586D01*
X43035364Y-56775777D01*
X43033405Y-56980896D01*
X43031019Y-57166859D01*
X43028208Y-57329578D01*
X43024975Y-57464968D01*
X43021322Y-57568943D01*
X43017251Y-57637417D01*
X43014245Y-57661618D01*
X42953775Y-57848312D01*
X42857410Y-58020330D01*
X42730442Y-58171858D01*
X42578165Y-58297082D01*
X42405873Y-58390187D01*
X42324039Y-58419804D01*
X42296644Y-58427851D01*
X42268159Y-58434818D01*
X42235471Y-58440786D01*
X42195469Y-58445834D01*
X42145041Y-58450041D01*
X42081076Y-58453488D01*
X42000463Y-58456254D01*
X41900090Y-58458419D01*
X41776846Y-58460063D01*
X41627618Y-58461264D01*
X41449296Y-58462104D01*
X41238768Y-58462661D01*
X40992922Y-58463016D01*
X40708647Y-58463248D01*
X40626117Y-58463299D01*
X40323688Y-58463485D01*
X40060618Y-58463780D01*
X39833896Y-58464373D01*
X39640513Y-58465447D01*
X39477458Y-58467190D01*
X39341722Y-58469788D01*
X39230294Y-58473426D01*
X39140165Y-58478290D01*
X39068324Y-58484568D01*
X39011761Y-58492444D01*
X38967467Y-58502105D01*
X38932431Y-58513737D01*
X38903643Y-58527525D01*
X38878094Y-58543657D01*
X38852773Y-58562318D01*
X38837687Y-58573854D01*
X38756036Y-58655406D01*
X38695539Y-58761631D01*
X38654104Y-58897511D01*
X38629643Y-59068027D01*
X38629447Y-59070273D01*
X38601005Y-59276262D01*
X38551768Y-59455607D01*
X38477671Y-59620589D01*
X38410680Y-59731339D01*
X38268493Y-59908243D01*
X38099730Y-60054338D01*
X37908864Y-60167642D01*
X37700366Y-60246176D01*
X37478710Y-60287958D01*
X37248367Y-60291007D01*
X37166199Y-60282514D01*
X36955122Y-60233495D01*
X36753950Y-60146770D01*
X36569017Y-60026848D01*
X36406657Y-59878242D01*
X36273207Y-59705463D01*
X36216747Y-59606389D01*
X36152848Y-59464612D01*
X36111367Y-59331045D01*
X36088801Y-59190017D01*
X36081642Y-59025859D01*
X36081657Y-59002569D01*
X36097238Y-58784027D01*
X36143823Y-58588838D01*
X36224396Y-58409956D01*
X36341944Y-58240336D01*
X36458952Y-58112184D01*
X36609785Y-57979765D01*
X36766690Y-57879798D01*
X36938134Y-57808581D01*
X37132585Y-57762413D01*
X37307597Y-57741253D01*
X37472142Y-57720954D01*
X37602301Y-57687917D01*
X37704944Y-57639058D01*
X37786940Y-57571291D01*
X37842610Y-57500908D01*
X37911459Y-57398365D01*
X37912113Y-55901968D01*
X37912519Y-55640391D01*
X37913474Y-55390245D01*
X37914931Y-55155175D01*
X37916844Y-54938828D01*
X37919164Y-54744849D01*
X37921846Y-54576885D01*
X37924843Y-54438582D01*
X37928108Y-54333584D01*
X37931595Y-54265539D01*
X37933353Y-54246915D01*
X37979412Y-54049511D01*
X38061994Y-53867861D01*
X38177015Y-53706622D01*
X38320388Y-53570455D01*
X38488027Y-53464017D01*
X38675847Y-53391968D01*
X38685427Y-53389422D01*
X38713536Y-53383336D01*
X38749887Y-53378041D01*
X38797360Y-53373484D01*
X38858834Y-53369612D01*
X38937188Y-53366373D01*
X39035303Y-53363715D01*
X39156058Y-53361584D01*
X39302331Y-53359929D01*
X39477003Y-53358697D01*
X39682952Y-53357836D01*
X39923059Y-53357292D01*
X40200203Y-53357014D01*
X40467578Y-53356948D01*
X40823978Y-53357225D01*
G37*
G36*
X40782131Y-60962153D02*
G01*
X41052970Y-60962299D01*
X41287320Y-60962624D01*
X41488121Y-60963193D01*
X41658311Y-60964073D01*
X41800831Y-60965330D01*
X41918621Y-60967029D01*
X42014619Y-60969238D01*
X42091766Y-60972022D01*
X42153002Y-60975448D01*
X42201265Y-60979581D01*
X42239496Y-60984487D01*
X42270635Y-60990234D01*
X42297620Y-60996887D01*
X42320862Y-61003728D01*
X42500233Y-61080493D01*
X42662356Y-61191740D01*
X42801784Y-61331507D01*
X42913073Y-61493835D01*
X42990775Y-61672764D01*
X43014558Y-61762870D01*
X43018868Y-61804942D01*
X43022763Y-61885293D01*
X43026241Y-61999837D01*
X43029299Y-62144486D01*
X43031936Y-62315153D01*
X43034149Y-62507749D01*
X43035936Y-62718190D01*
X43037295Y-62942386D01*
X43038223Y-63176251D01*
X43038719Y-63415698D01*
X43038780Y-63656639D01*
X43038404Y-63894987D01*
X43037588Y-64126656D01*
X43036332Y-64347556D01*
X43034631Y-64553603D01*
X43032485Y-64740708D01*
X43029890Y-64904783D01*
X43026845Y-65041743D01*
X43023348Y-65147499D01*
X43019395Y-65217964D01*
X43016442Y-65243664D01*
X42960564Y-65428295D01*
X42868214Y-65599922D01*
X42744630Y-65752988D01*
X42595048Y-65881939D01*
X42424707Y-65981217D01*
X42267625Y-66038091D01*
X42238525Y-66043827D01*
X42195459Y-66048800D01*
X42135683Y-66053059D01*
X42056453Y-66056653D01*
X41955025Y-66059630D01*
X41828653Y-66062039D01*
X41674594Y-66063928D01*
X41490103Y-66065345D01*
X41272436Y-66066340D01*
X41018848Y-66066960D01*
X40726595Y-66067254D01*
X40614918Y-66067289D01*
X40285981Y-66067585D01*
X39997908Y-66068376D01*
X39749199Y-66069683D01*
X39538350Y-66071530D01*
X39363861Y-66073938D01*
X39224231Y-66076931D01*
X39117957Y-66080531D01*
X39043538Y-66084760D01*
X38999472Y-66089642D01*
X38990213Y-66091720D01*
X38868364Y-66148642D01*
X38771310Y-66239158D01*
X38698826Y-66363630D01*
X38650685Y-66522418D01*
X38630120Y-66667666D01*
X38610950Y-66828516D01*
X38581262Y-66964664D01*
X38536153Y-67093400D01*
X38470721Y-67232018D01*
X38469393Y-67234582D01*
X38361480Y-67400799D01*
X38220394Y-67553401D01*
X38054891Y-67684887D01*
X37873723Y-67787755D01*
X37778480Y-67826653D01*
X37674604Y-67853395D01*
X37544150Y-67872279D01*
X37400649Y-67882738D01*
X37257634Y-67884208D01*
X37128636Y-67876122D01*
X37027691Y-67858055D01*
X36817201Y-67777871D01*
X36623257Y-67662312D01*
X36450881Y-67516224D01*
X36305094Y-67344447D01*
X36190916Y-67151824D01*
X36126666Y-66989058D01*
X36092525Y-66831751D01*
X36078490Y-66654091D01*
X36084569Y-66473023D01*
X36110767Y-66305490D01*
X36126400Y-66247607D01*
X36211735Y-66041037D01*
X36331783Y-65851771D01*
X36481486Y-65685087D01*
X36655785Y-65546259D01*
X36849622Y-65440564D01*
X36930193Y-65409195D01*
X37005301Y-65388900D01*
X37106737Y-65369175D01*
X37218525Y-65352880D01*
X37283217Y-65346002D01*
X37430753Y-65328021D01*
X37549536Y-65303441D01*
X37616384Y-65281053D01*
X37692545Y-65237654D01*
X37769686Y-65176393D01*
X37837281Y-65107539D01*
X37884806Y-65041362D01*
X37900034Y-65004280D01*
X37901927Y-64975590D01*
X37903883Y-64907955D01*
X37905867Y-64804797D01*
X37907841Y-64669540D01*
X37909770Y-64505607D01*
X37911616Y-64316420D01*
X37913342Y-64105403D01*
X37914913Y-63875979D01*
X37916292Y-63631570D01*
X37917436Y-63377131D01*
X37918669Y-63078767D01*
X37919912Y-62819736D01*
X37921244Y-62597001D01*
X37922745Y-62407526D01*
X37924494Y-62248276D01*
X37926571Y-62116214D01*
X37929054Y-62008304D01*
X37932023Y-61921511D01*
X37935557Y-61852798D01*
X37939737Y-61799129D01*
X37944640Y-61757468D01*
X37950347Y-61724779D01*
X37956937Y-61698026D01*
X37961730Y-61682386D01*
X38046433Y-61488387D01*
X38164279Y-61318572D01*
X38311850Y-61176414D01*
X38485729Y-61065381D01*
X38628165Y-61005687D01*
X38652507Y-60997816D01*
X38677624Y-60990955D01*
X38706446Y-60985034D01*
X38741903Y-60979983D01*
X38786925Y-60975735D01*
X38844441Y-60972219D01*
X38917381Y-60969367D01*
X39008675Y-60967109D01*
X39121254Y-60965375D01*
X39258046Y-60964097D01*
X39421982Y-60963206D01*
X39615992Y-60962632D01*
X39843005Y-60962305D01*
X40105952Y-60962158D01*
X40407762Y-60962119D01*
X40471862Y-60962119D01*
X40782131Y-60962153D01*
G37*
G04 #@! TD*
G04 #@! TO.C,REF\u002A\u002A*
X53975000Y-90805000D03*
G04 #@! TD*
G04 #@! TO.C,REF\u002A\u002A*
X51435000Y-86995000D03*
G04 #@! TD*
D25*
G04 #@! TO.C,D3*
X56896000Y-58420000D03*
X58674000Y-58420000D03*
G04 #@! TD*
D12*
G04 #@! TO.C,REF\u002A\u002A*
X61595000Y-84455000D03*
G04 #@! TD*
G04 #@! TO.C,REF\u002A\u002A*
X64135000Y-74295000D03*
G04 #@! TD*
G04 #@! TO.C,REF\u002A\u002A*
X48895000Y-80645000D03*
G04 #@! TD*
G04 #@! TO.C,REF\u002A\u002A*
X61595000Y-79375000D03*
G04 #@! TD*
G04 #@! TO.C,REF\u002A\u002A*
X48895000Y-74295000D03*
G04 #@! TD*
G04 #@! TO.C,REF\u002A\u002A*
X62865000Y-79375000D03*
G04 #@! TD*
G04 #@! TO.C,REF\u002A\u002A*
X48895000Y-75565000D03*
G04 #@! TD*
G04 #@! TO.C,REF\u002A\u002A*
X50165000Y-71755000D03*
G04 #@! TD*
G04 #@! TO.C,REF\u002A\u002A*
X53975000Y-89535000D03*
G04 #@! TD*
D15*
G04 #@! TO.C,C1*
X60960000Y-64566800D03*
X60960000Y-61010800D03*
G04 #@! TD*
D12*
G04 #@! TO.C,REF\u002A\u002A*
X55245000Y-88265000D03*
G04 #@! TD*
G04 #@! TO.C,REF\u002A\u002A*
X66675000Y-80645000D03*
G04 #@! TD*
D16*
G04 #@! TO.C,REF\u002A\u002A*
X20955000Y-35560000D03*
G04 #@! TD*
D12*
G04 #@! TO.C,REF\u002A\u002A*
X52705000Y-75565000D03*
G04 #@! TD*
G04 #@! TO.C,REF\u002A\u002A*
X53975000Y-80645000D03*
G04 #@! TD*
G04 #@! TO.C,REF\u002A\u002A*
X57785000Y-79375000D03*
G04 #@! TD*
D10*
G04 #@! TO.C,REF\u002A\u002A*
X11430000Y-90170000D03*
G04 #@! TD*
D12*
G04 #@! TO.C,REF\u002A\u002A*
X51435000Y-83185000D03*
G04 #@! TD*
G04 #@! TO.C,REF\u002A\u002A*
X57785000Y-80645000D03*
G04 #@! TD*
D11*
G04 #@! TO.C,PG3*
X50546000Y-67132200D03*
G04 #@! TD*
D12*
G04 #@! TO.C,REF\u002A\u002A*
X60325000Y-89535000D03*
G04 #@! TD*
G04 #@! TO.C,REF\u002A\u002A*
X52705000Y-74295000D03*
G04 #@! TD*
G04 #@! TO.C,REF\u002A\u002A*
X55245000Y-79375000D03*
G04 #@! TD*
D16*
G04 #@! TO.C,REF\u002A\u002A*
X17145000Y-35560000D03*
G04 #@! TD*
D12*
G04 #@! TO.C,REF\u002A\u002A*
X66675000Y-79375000D03*
G04 #@! TD*
G04 #@! TO.C,REF\u002A\u002A*
X50165000Y-73025000D03*
G04 #@! TD*
G04 #@! TO.C,REF\u002A\u002A*
X59055000Y-85725000D03*
G04 #@! TD*
D10*
G04 #@! TO.C,REF\u002A\u002A*
X6350000Y-74930000D03*
G04 #@! TD*
D26*
G04 #@! TO.C,IC1*
X63500000Y-66438800D03*
X64770000Y-66438800D03*
X66040000Y-66438800D03*
X67310000Y-66438800D03*
X67310000Y-59138800D03*
X66040000Y-59138800D03*
X64770000Y-59138800D03*
X63500000Y-59138800D03*
G04 #@! TD*
D12*
G04 #@! TO.C,REF\u002A\u002A*
X52705000Y-89535000D03*
G04 #@! TD*
G04 #@! TO.C,REF\u002A\u002A*
X57785000Y-86995000D03*
G04 #@! TD*
G04 #@! TO.C,REF\u002A\u002A*
X60325000Y-74295000D03*
G04 #@! TD*
G04 #@! TO.C,REF\u002A\u002A*
X59055000Y-86995000D03*
G04 #@! TD*
D10*
G04 #@! TO.C,REF\u002A\u002A*
X19050000Y-72390000D03*
G04 #@! TD*
D12*
G04 #@! TO.C,REF\u002A\u002A*
X57785000Y-71755000D03*
G04 #@! TD*
G04 #@! TO.C,REF\u002A\u002A*
X51435000Y-88265000D03*
G04 #@! TD*
G04 #@! TO.C,REF\u002A\u002A*
X55245000Y-83185000D03*
G04 #@! TD*
G04 #@! TO.C,REF\u002A\u002A*
X64135000Y-84455000D03*
G04 #@! TD*
D10*
G04 #@! TO.C,REF\u002A\u002A*
X3810000Y-87630000D03*
G04 #@! TD*
D12*
G04 #@! TO.C,REF\u002A\u002A*
X64135000Y-86995000D03*
G04 #@! TD*
G04 #@! TO.C,REF\u002A\u002A*
X56515000Y-79375000D03*
G04 #@! TD*
G04 #@! TO.C,REF\u002A\u002A*
X57785000Y-73025000D03*
G04 #@! TD*
G04 #@! TO.C,REF\u002A\u002A*
X50165000Y-84455000D03*
G04 #@! TD*
G04 #@! TO.C,REF\u002A\u002A*
X52705000Y-81915000D03*
G04 #@! TD*
D16*
G04 #@! TO.C,REF\u002A\u002A*
X8255000Y-35560000D03*
G04 #@! TD*
D12*
G04 #@! TO.C,REF\u002A\u002A*
X64135000Y-78105000D03*
G04 #@! TD*
G04 #@! TO.C,REF\u002A\u002A*
X67945000Y-85725000D03*
G04 #@! TD*
D11*
G04 #@! TO.C,PG4*
X50546000Y-49707800D03*
G04 #@! TD*
D12*
G04 #@! TO.C,REF\u002A\u002A*
X48895000Y-71755000D03*
G04 #@! TD*
G04 #@! TO.C,REF\u002A\u002A*
X66675000Y-78105000D03*
G04 #@! TD*
G04 #@! TO.C,REF\u002A\u002A*
X65405000Y-84455000D03*
G04 #@! TD*
D10*
G04 #@! TO.C,REF\u002A\u002A*
X11430000Y-80010000D03*
G04 #@! TD*
M02*
