G04 #@! TF.GenerationSoftware,KiCad,Pcbnew,(5.99.0-3771-g88a11f15e)*
G04 #@! TF.CreationDate,2020-10-05T20:50:06+02:00*
G04 #@! TF.ProjectId,remoticon_badge,72656d6f-7469-4636-9f6e-5f6261646765,rev?*
G04 #@! TF.SameCoordinates,PX3072580PY307257e*
G04 #@! TF.FileFunction,Paste,Bot*
G04 #@! TF.FilePolarity,Positive*
%FSLAX46Y46*%
G04 Gerber Fmt 4.6, Leading zero omitted, Abs format (unit mm)*
G04 Created by KiCad (PCBNEW (5.99.0-3771-g88a11f15e)) date 2020-10-05 20:50:06*
%MOMM*%
%LPD*%
G01*
G04 APERTURE LIST*
G04 Aperture macros list*
%AMRotRect*
0 Rectangle, with rotation*
0 The origin of the aperture is its center*
0 $1 length*
0 $2 width*
0 $3 Rotation angle, in degrees counterclockwise*
0 Add horizontal line*
21,1,$1,$2,0,0,$3*%
G04 Aperture macros list end*
%ADD10R,3.150000X1.000000*%
%ADD11RotRect,2.540000X5.080000X315.000000*%
G04 APERTURE END LIST*
D10*
G04 #@! TO.C,J1*
X55895000Y-107950000D03*
X60945000Y-107950000D03*
X55895000Y-105410000D03*
X60945000Y-105410000D03*
X55895000Y-102870000D03*
X60945000Y-102870000D03*
X55895000Y-100330000D03*
X60945000Y-100330000D03*
X55895000Y-97790000D03*
X60945000Y-97790000D03*
X55895000Y-95250000D03*
X60945000Y-95250000D03*
X55895000Y-92710000D03*
X60945000Y-92710000D03*
X55895000Y-90170000D03*
X60945000Y-90170000D03*
X55895000Y-87630000D03*
X60945000Y-87630000D03*
X55895000Y-85090000D03*
X60945000Y-85090000D03*
X55895000Y-82550000D03*
X60945000Y-82550000D03*
X55895000Y-80010000D03*
X60945000Y-80010000D03*
X55895000Y-77470000D03*
X60945000Y-77470000D03*
X55895000Y-74930000D03*
X60945000Y-74930000D03*
X55895000Y-72390000D03*
X60945000Y-72390000D03*
X55895000Y-69850000D03*
X60945000Y-69850000D03*
G04 #@! TD*
D11*
G04 #@! TO.C,BT1*
X66502231Y-43642231D03*
X50337769Y-27477769D03*
G04 #@! TD*
D10*
G04 #@! TO.C,J2*
X38085000Y-69850000D03*
X33035000Y-69850000D03*
X38085000Y-72390000D03*
X33035000Y-72390000D03*
X38085000Y-74930000D03*
X33035000Y-74930000D03*
X38085000Y-77470000D03*
X33035000Y-77470000D03*
X38085000Y-80010000D03*
X33035000Y-80010000D03*
X38085000Y-82550000D03*
X33035000Y-82550000D03*
X38085000Y-85090000D03*
X33035000Y-85090000D03*
X38085000Y-87630000D03*
X33035000Y-87630000D03*
X38085000Y-90170000D03*
X33035000Y-90170000D03*
X38085000Y-92710000D03*
X33035000Y-92710000D03*
X38085000Y-95250000D03*
X33035000Y-95250000D03*
X38085000Y-97790000D03*
X33035000Y-97790000D03*
G04 #@! TD*
M02*
